G04 EAGLE Gerber RS-274X export*
G75*
%MOMM*%
%FSLAX34Y34*%
%LPD*%
%INBottom Copper*%
%IPPOS*%
%AMOC8*
5,1,8,0,0,1.08239X$1,22.5*%
G01*
%ADD10P,1.732040X8X22.500000*%
%ADD11C,1.600200*%
%ADD12P,1.429621X8X202.500000*%
%ADD13P,1.429621X8X22.500000*%
%ADD14P,1.429621X8X292.500000*%
%ADD15P,1.429621X8X112.500000*%
%ADD16C,1.524000*%
%ADD17C,0.152400*%
%ADD18C,0.756400*%

G36*
X11208Y10934D02*
X11208Y10934D01*
X11279Y10936D01*
X11328Y10954D01*
X11380Y10962D01*
X11443Y10996D01*
X11510Y11021D01*
X11551Y11053D01*
X11597Y11078D01*
X11646Y11130D01*
X11702Y11174D01*
X11731Y11218D01*
X11766Y11256D01*
X11797Y11321D01*
X11835Y11381D01*
X11848Y11432D01*
X11870Y11479D01*
X11878Y11550D01*
X11895Y11620D01*
X11891Y11672D01*
X11897Y11723D01*
X11882Y11794D01*
X11876Y11865D01*
X11856Y11913D01*
X11845Y11964D01*
X11808Y12025D01*
X11780Y12091D01*
X11735Y12147D01*
X11719Y12175D01*
X11701Y12190D01*
X11675Y12222D01*
X10027Y13870D01*
X8635Y17231D01*
X8635Y20869D01*
X10027Y24230D01*
X12600Y26803D01*
X15961Y28195D01*
X34839Y28195D01*
X38200Y26803D01*
X40773Y24230D01*
X41461Y22569D01*
X41522Y22469D01*
X41582Y22369D01*
X41587Y22365D01*
X41590Y22360D01*
X41680Y22285D01*
X41769Y22209D01*
X41775Y22207D01*
X41780Y22203D01*
X41888Y22161D01*
X41997Y22117D01*
X42005Y22116D01*
X42009Y22115D01*
X42028Y22114D01*
X42164Y22099D01*
X62745Y22099D01*
X62836Y22113D01*
X62926Y22121D01*
X62956Y22133D01*
X62988Y22138D01*
X63069Y22181D01*
X63153Y22217D01*
X63185Y22243D01*
X63206Y22254D01*
X63228Y22277D01*
X63284Y22322D01*
X110528Y69566D01*
X110570Y69624D01*
X110619Y69676D01*
X110641Y69723D01*
X110671Y69765D01*
X110692Y69834D01*
X110723Y69899D01*
X110728Y69951D01*
X110744Y70001D01*
X110742Y70072D01*
X110750Y70143D01*
X110739Y70194D01*
X110737Y70246D01*
X110713Y70314D01*
X110698Y70384D01*
X110671Y70429D01*
X110653Y70477D01*
X110608Y70533D01*
X110571Y70595D01*
X110532Y70629D01*
X110499Y70669D01*
X110439Y70708D01*
X110384Y70755D01*
X110336Y70774D01*
X110292Y70802D01*
X110223Y70820D01*
X110156Y70847D01*
X110085Y70855D01*
X110054Y70863D01*
X110030Y70861D01*
X109990Y70865D01*
X42926Y70865D01*
X42906Y70862D01*
X42887Y70864D01*
X42785Y70842D01*
X42683Y70826D01*
X42666Y70816D01*
X42646Y70812D01*
X42557Y70759D01*
X42466Y70710D01*
X42452Y70696D01*
X42435Y70686D01*
X42368Y70607D01*
X42296Y70532D01*
X42288Y70514D01*
X42275Y70499D01*
X42236Y70403D01*
X42193Y70309D01*
X42191Y70289D01*
X42183Y70271D01*
X42165Y70104D01*
X42165Y68031D01*
X40773Y64670D01*
X38200Y62097D01*
X34839Y60705D01*
X15961Y60705D01*
X12600Y62097D01*
X10027Y64670D01*
X8635Y68031D01*
X8635Y71669D01*
X10027Y75030D01*
X12600Y77603D01*
X15961Y78995D01*
X34839Y78995D01*
X38200Y77603D01*
X40141Y75662D01*
X40215Y75609D01*
X40284Y75549D01*
X40314Y75537D01*
X40341Y75518D01*
X40428Y75491D01*
X40512Y75457D01*
X40553Y75453D01*
X40576Y75446D01*
X40608Y75447D01*
X40679Y75439D01*
X108078Y75439D01*
X108148Y75450D01*
X108220Y75452D01*
X108269Y75470D01*
X108320Y75478D01*
X108384Y75512D01*
X108451Y75537D01*
X108492Y75569D01*
X108538Y75594D01*
X108587Y75646D01*
X108643Y75690D01*
X108671Y75734D01*
X108707Y75772D01*
X108737Y75837D01*
X108776Y75897D01*
X108789Y75948D01*
X108811Y75995D01*
X108819Y76066D01*
X108836Y76136D01*
X108832Y76188D01*
X108838Y76239D01*
X108823Y76310D01*
X108817Y76381D01*
X108797Y76429D01*
X108786Y76480D01*
X108749Y76541D01*
X108721Y76607D01*
X108676Y76663D01*
X108659Y76691D01*
X108642Y76706D01*
X108616Y76738D01*
X106171Y79183D01*
X106171Y85917D01*
X110933Y90679D01*
X117667Y90679D01*
X118020Y90326D01*
X118036Y90314D01*
X118048Y90299D01*
X118135Y90243D01*
X118219Y90183D01*
X118238Y90177D01*
X118255Y90166D01*
X118356Y90141D01*
X118454Y90110D01*
X118474Y90111D01*
X118494Y90106D01*
X118597Y90114D01*
X118700Y90117D01*
X118719Y90123D01*
X118739Y90125D01*
X118834Y90165D01*
X118931Y90201D01*
X118947Y90214D01*
X118965Y90221D01*
X119096Y90326D01*
X232777Y204007D01*
X232844Y204101D01*
X232915Y204195D01*
X232917Y204201D01*
X232920Y204207D01*
X232955Y204317D01*
X232991Y204429D01*
X232991Y204436D01*
X232993Y204442D01*
X232990Y204558D01*
X232989Y204675D01*
X232987Y204682D01*
X232986Y204687D01*
X232980Y204705D01*
X232942Y204836D01*
X231774Y207655D01*
X231774Y211445D01*
X233224Y214946D01*
X235904Y217626D01*
X239405Y219076D01*
X243195Y219076D01*
X246696Y217626D01*
X249376Y214946D01*
X250826Y211445D01*
X250826Y207655D01*
X249376Y204154D01*
X246696Y201474D01*
X243195Y200024D01*
X239405Y200024D01*
X236946Y201043D01*
X236832Y201070D01*
X236718Y201098D01*
X236712Y201098D01*
X236706Y201099D01*
X236590Y201088D01*
X236473Y201079D01*
X236468Y201077D01*
X236461Y201076D01*
X236354Y201028D01*
X236247Y200983D01*
X236241Y200978D01*
X236237Y200976D01*
X236223Y200963D01*
X236116Y200878D01*
X122330Y87092D01*
X122318Y87076D01*
X122303Y87064D01*
X122247Y86976D01*
X122187Y86892D01*
X122181Y86873D01*
X122170Y86857D01*
X122145Y86756D01*
X122114Y86657D01*
X122115Y86637D01*
X122110Y86618D01*
X122118Y86515D01*
X122121Y86411D01*
X122127Y86393D01*
X122129Y86373D01*
X122169Y86278D01*
X122205Y86180D01*
X122218Y86165D01*
X122225Y86147D01*
X122330Y86016D01*
X122429Y85917D01*
X122429Y79183D01*
X119984Y76738D01*
X119942Y76680D01*
X119893Y76628D01*
X119871Y76581D01*
X119840Y76539D01*
X119819Y76470D01*
X119789Y76405D01*
X119783Y76353D01*
X119768Y76303D01*
X119770Y76232D01*
X119762Y76161D01*
X119773Y76110D01*
X119774Y76058D01*
X119799Y75990D01*
X119814Y75920D01*
X119841Y75875D01*
X119859Y75827D01*
X119904Y75771D01*
X119941Y75709D01*
X119980Y75675D01*
X120013Y75635D01*
X120073Y75596D01*
X120127Y75549D01*
X120176Y75530D01*
X120220Y75502D01*
X120289Y75484D01*
X120356Y75457D01*
X120427Y75449D01*
X120458Y75441D01*
X120481Y75443D01*
X120522Y75439D01*
X133478Y75439D01*
X133548Y75450D01*
X133620Y75452D01*
X133669Y75470D01*
X133720Y75478D01*
X133784Y75512D01*
X133851Y75537D01*
X133892Y75569D01*
X133938Y75594D01*
X133987Y75646D01*
X134043Y75690D01*
X134071Y75734D01*
X134107Y75772D01*
X134137Y75837D01*
X134176Y75897D01*
X134189Y75948D01*
X134211Y75995D01*
X134219Y76066D01*
X134236Y76136D01*
X134232Y76188D01*
X134238Y76239D01*
X134223Y76310D01*
X134217Y76381D01*
X134197Y76429D01*
X134186Y76480D01*
X134149Y76541D01*
X134121Y76607D01*
X134076Y76663D01*
X134059Y76691D01*
X134042Y76706D01*
X134016Y76738D01*
X131571Y79183D01*
X131571Y85917D01*
X136333Y90679D01*
X143067Y90679D01*
X147829Y85917D01*
X147829Y82796D01*
X147840Y82726D01*
X147842Y82654D01*
X147860Y82605D01*
X147868Y82554D01*
X147902Y82490D01*
X147927Y82423D01*
X147959Y82382D01*
X147984Y82336D01*
X148036Y82287D01*
X148080Y82231D01*
X148124Y82203D01*
X148162Y82167D01*
X148227Y82137D01*
X148287Y82098D01*
X148338Y82085D01*
X148385Y82063D01*
X148456Y82055D01*
X148526Y82038D01*
X148578Y82042D01*
X148629Y82036D01*
X148700Y82051D01*
X148771Y82057D01*
X148819Y82077D01*
X148870Y82088D01*
X148931Y82125D01*
X148997Y82153D01*
X149053Y82198D01*
X149081Y82215D01*
X149096Y82232D01*
X149128Y82258D01*
X198697Y131827D01*
X239831Y131827D01*
X239921Y131841D01*
X240012Y131849D01*
X240041Y131861D01*
X240073Y131866D01*
X240154Y131909D01*
X240238Y131945D01*
X240270Y131971D01*
X240291Y131982D01*
X240313Y132005D01*
X240369Y132050D01*
X243166Y134847D01*
X247562Y134847D01*
X250671Y131738D01*
X250671Y127342D01*
X247562Y124233D01*
X243166Y124233D01*
X240369Y127030D01*
X240295Y127083D01*
X240225Y127143D01*
X240195Y127155D01*
X240169Y127174D01*
X240082Y127201D01*
X239997Y127235D01*
X239956Y127239D01*
X239934Y127246D01*
X239902Y127245D01*
X239831Y127253D01*
X200907Y127253D01*
X200816Y127239D01*
X200726Y127231D01*
X200696Y127219D01*
X200664Y127214D01*
X200583Y127171D01*
X200499Y127135D01*
X200467Y127109D01*
X200446Y127098D01*
X200424Y127075D01*
X200368Y127030D01*
X147028Y73690D01*
X146986Y73632D01*
X146937Y73580D01*
X146915Y73533D01*
X146885Y73491D01*
X146864Y73422D01*
X146833Y73357D01*
X146828Y73305D01*
X146812Y73255D01*
X146814Y73184D01*
X146806Y73113D01*
X146817Y73062D01*
X146819Y73010D01*
X146843Y72942D01*
X146858Y72872D01*
X146885Y72827D01*
X146903Y72779D01*
X146948Y72723D01*
X146985Y72661D01*
X147024Y72627D01*
X147057Y72587D01*
X147117Y72548D01*
X147172Y72501D01*
X147220Y72482D01*
X147264Y72454D01*
X147333Y72436D01*
X147400Y72409D01*
X147471Y72401D01*
X147502Y72393D01*
X147526Y72395D01*
X147566Y72391D01*
X215145Y72391D01*
X215236Y72405D01*
X215326Y72413D01*
X215356Y72425D01*
X215388Y72430D01*
X215469Y72473D01*
X215553Y72509D01*
X215585Y72535D01*
X215606Y72546D01*
X215628Y72569D01*
X215684Y72614D01*
X246224Y103154D01*
X246236Y103170D01*
X246251Y103182D01*
X246307Y103270D01*
X246367Y103354D01*
X246373Y103373D01*
X246384Y103389D01*
X246409Y103490D01*
X246440Y103589D01*
X246439Y103609D01*
X246444Y103628D01*
X246436Y103731D01*
X246433Y103834D01*
X246427Y103853D01*
X246425Y103873D01*
X246385Y103968D01*
X246349Y104066D01*
X246336Y104081D01*
X246329Y104099D01*
X246224Y104230D01*
X245871Y104583D01*
X245871Y111317D01*
X250633Y116079D01*
X257367Y116079D01*
X262129Y111317D01*
X262129Y104583D01*
X257367Y99821D01*
X250633Y99821D01*
X250534Y99920D01*
X250518Y99931D01*
X250506Y99947D01*
X250419Y100003D01*
X250335Y100063D01*
X250316Y100069D01*
X250299Y100080D01*
X250199Y100105D01*
X250100Y100136D01*
X250080Y100135D01*
X250060Y100140D01*
X249957Y100132D01*
X249854Y100129D01*
X249835Y100123D01*
X249815Y100121D01*
X249720Y100081D01*
X249623Y100045D01*
X249607Y100032D01*
X249589Y100025D01*
X249458Y99920D01*
X220180Y70642D01*
X220138Y70584D01*
X220089Y70532D01*
X220067Y70485D01*
X220037Y70443D01*
X220016Y70374D01*
X219985Y70309D01*
X219980Y70257D01*
X219964Y70207D01*
X219966Y70136D01*
X219958Y70065D01*
X219969Y70014D01*
X219971Y69962D01*
X219995Y69894D01*
X220010Y69824D01*
X220037Y69780D01*
X220055Y69731D01*
X220100Y69675D01*
X220137Y69613D01*
X220176Y69579D01*
X220209Y69539D01*
X220269Y69500D01*
X220324Y69453D01*
X220372Y69434D01*
X220416Y69406D01*
X220485Y69388D01*
X220552Y69361D01*
X220623Y69353D01*
X220654Y69345D01*
X220678Y69347D01*
X220718Y69343D01*
X242577Y69343D01*
X242668Y69357D01*
X242758Y69365D01*
X242788Y69377D01*
X242820Y69382D01*
X242901Y69425D01*
X242985Y69461D01*
X243017Y69487D01*
X243038Y69498D01*
X243060Y69521D01*
X243116Y69566D01*
X248764Y75214D01*
X248776Y75230D01*
X248791Y75242D01*
X248847Y75330D01*
X248907Y75414D01*
X248913Y75433D01*
X248924Y75449D01*
X248949Y75550D01*
X248980Y75649D01*
X248979Y75669D01*
X248984Y75688D01*
X248976Y75791D01*
X248973Y75894D01*
X248967Y75913D01*
X248965Y75933D01*
X248925Y76028D01*
X248889Y76126D01*
X248876Y76141D01*
X248869Y76159D01*
X248764Y76290D01*
X245871Y79183D01*
X245871Y85917D01*
X250633Y90679D01*
X257367Y90679D01*
X262129Y85917D01*
X262129Y79183D01*
X257367Y74421D01*
X254755Y74421D01*
X254664Y74407D01*
X254574Y74399D01*
X254544Y74387D01*
X254512Y74382D01*
X254431Y74339D01*
X254347Y74303D01*
X254315Y74277D01*
X254294Y74266D01*
X254272Y74243D01*
X254216Y74198D01*
X247612Y67594D01*
X247601Y67578D01*
X247585Y67566D01*
X247529Y67478D01*
X247469Y67395D01*
X247463Y67376D01*
X247452Y67359D01*
X247427Y67258D01*
X247396Y67159D01*
X247397Y67140D01*
X247392Y67120D01*
X247400Y67017D01*
X247403Y66914D01*
X247410Y66895D01*
X247411Y66875D01*
X247451Y66780D01*
X247487Y66683D01*
X247500Y66667D01*
X247507Y66649D01*
X247612Y66518D01*
X249204Y64926D01*
X249220Y64914D01*
X249232Y64899D01*
X249320Y64843D01*
X249404Y64783D01*
X249423Y64777D01*
X249439Y64766D01*
X249540Y64741D01*
X249639Y64710D01*
X249659Y64711D01*
X249678Y64706D01*
X249781Y64714D01*
X249885Y64717D01*
X249903Y64723D01*
X249923Y64725D01*
X250018Y64765D01*
X250116Y64801D01*
X250131Y64814D01*
X250149Y64821D01*
X250280Y64926D01*
X250633Y65279D01*
X257367Y65279D01*
X262129Y60517D01*
X262129Y53783D01*
X257367Y49021D01*
X250633Y49021D01*
X245871Y53783D01*
X245871Y60517D01*
X245970Y60616D01*
X245981Y60632D01*
X245997Y60644D01*
X246053Y60731D01*
X246113Y60815D01*
X246119Y60834D01*
X246130Y60851D01*
X246155Y60951D01*
X246186Y61050D01*
X246185Y61070D01*
X246190Y61090D01*
X246182Y61193D01*
X246179Y61296D01*
X246173Y61315D01*
X246171Y61335D01*
X246132Y61425D01*
X246128Y61445D01*
X246120Y61459D01*
X246095Y61527D01*
X246083Y61543D01*
X246075Y61561D01*
X246012Y61640D01*
X246002Y61656D01*
X245992Y61665D01*
X245970Y61692D01*
X243116Y64546D01*
X243042Y64599D01*
X242972Y64659D01*
X242942Y64671D01*
X242916Y64690D01*
X242829Y64717D01*
X242744Y64751D01*
X242703Y64755D01*
X242681Y64762D01*
X242649Y64761D01*
X242577Y64769D01*
X235751Y64769D01*
X235680Y64758D01*
X235609Y64756D01*
X235560Y64738D01*
X235508Y64730D01*
X235445Y64696D01*
X235378Y64671D01*
X235337Y64639D01*
X235291Y64614D01*
X235242Y64562D01*
X235186Y64518D01*
X235157Y64474D01*
X235122Y64436D01*
X235091Y64371D01*
X235053Y64311D01*
X235040Y64260D01*
X235018Y64213D01*
X235010Y64142D01*
X234993Y64072D01*
X234997Y64020D01*
X234991Y63969D01*
X235006Y63898D01*
X235012Y63827D01*
X235032Y63779D01*
X235043Y63728D01*
X235080Y63667D01*
X235108Y63601D01*
X235153Y63545D01*
X235169Y63517D01*
X235187Y63502D01*
X235213Y63470D01*
X237745Y60938D01*
X237745Y58673D01*
X229362Y58673D01*
X229342Y58670D01*
X229323Y58672D01*
X229221Y58650D01*
X229119Y58633D01*
X229102Y58624D01*
X229082Y58620D01*
X228993Y58567D01*
X228902Y58518D01*
X228888Y58504D01*
X228871Y58494D01*
X228804Y58415D01*
X228733Y58340D01*
X228724Y58322D01*
X228711Y58307D01*
X228673Y58211D01*
X228629Y58117D01*
X228627Y58097D01*
X228619Y58079D01*
X228601Y57912D01*
X228601Y57149D01*
X228599Y57149D01*
X228599Y57912D01*
X228596Y57932D01*
X228598Y57951D01*
X228576Y58053D01*
X228559Y58155D01*
X228550Y58172D01*
X228546Y58192D01*
X228493Y58281D01*
X228444Y58372D01*
X228430Y58386D01*
X228420Y58403D01*
X228341Y58470D01*
X228266Y58541D01*
X228248Y58550D01*
X228233Y58563D01*
X228137Y58602D01*
X228043Y58645D01*
X228023Y58647D01*
X228005Y58655D01*
X227838Y58673D01*
X219455Y58673D01*
X219455Y60938D01*
X221987Y63470D01*
X222029Y63528D01*
X222078Y63580D01*
X222100Y63627D01*
X222131Y63669D01*
X222152Y63738D01*
X222182Y63803D01*
X222188Y63855D01*
X222203Y63905D01*
X222201Y63976D01*
X222209Y64047D01*
X222198Y64098D01*
X222197Y64150D01*
X222172Y64218D01*
X222157Y64288D01*
X222130Y64333D01*
X222112Y64381D01*
X222067Y64437D01*
X222031Y64499D01*
X221991Y64533D01*
X221959Y64573D01*
X221898Y64612D01*
X221844Y64659D01*
X221795Y64678D01*
X221752Y64706D01*
X221682Y64724D01*
X221616Y64751D01*
X221544Y64759D01*
X221513Y64767D01*
X221490Y64765D01*
X221449Y64769D01*
X197651Y64769D01*
X197580Y64758D01*
X197509Y64756D01*
X197460Y64738D01*
X197408Y64730D01*
X197345Y64696D01*
X197278Y64671D01*
X197237Y64639D01*
X197191Y64614D01*
X197142Y64562D01*
X197086Y64518D01*
X197057Y64474D01*
X197022Y64436D01*
X196991Y64371D01*
X196953Y64311D01*
X196940Y64260D01*
X196918Y64213D01*
X196910Y64142D01*
X196893Y64072D01*
X196897Y64020D01*
X196891Y63969D01*
X196906Y63898D01*
X196912Y63827D01*
X196932Y63779D01*
X196943Y63728D01*
X196980Y63667D01*
X197008Y63601D01*
X197053Y63545D01*
X197069Y63517D01*
X197087Y63502D01*
X197113Y63470D01*
X199645Y60938D01*
X199645Y58673D01*
X191262Y58673D01*
X191242Y58670D01*
X191223Y58672D01*
X191121Y58650D01*
X191019Y58633D01*
X191002Y58624D01*
X190982Y58620D01*
X190893Y58567D01*
X190802Y58518D01*
X190788Y58504D01*
X190771Y58494D01*
X190704Y58415D01*
X190633Y58340D01*
X190624Y58322D01*
X190611Y58307D01*
X190573Y58211D01*
X190529Y58117D01*
X190527Y58097D01*
X190519Y58079D01*
X190501Y57912D01*
X190501Y57149D01*
X190499Y57149D01*
X190499Y57912D01*
X190496Y57932D01*
X190498Y57951D01*
X190476Y58053D01*
X190459Y58155D01*
X190450Y58172D01*
X190446Y58192D01*
X190393Y58281D01*
X190344Y58372D01*
X190330Y58386D01*
X190320Y58403D01*
X190241Y58470D01*
X190166Y58541D01*
X190148Y58550D01*
X190133Y58563D01*
X190037Y58602D01*
X189943Y58645D01*
X189923Y58647D01*
X189905Y58655D01*
X189738Y58673D01*
X181355Y58673D01*
X181355Y60938D01*
X183887Y63470D01*
X183929Y63528D01*
X183978Y63580D01*
X184000Y63627D01*
X184031Y63669D01*
X184052Y63738D01*
X184082Y63803D01*
X184088Y63855D01*
X184103Y63905D01*
X184101Y63976D01*
X184109Y64047D01*
X184098Y64098D01*
X184097Y64150D01*
X184072Y64218D01*
X184057Y64288D01*
X184030Y64333D01*
X184012Y64381D01*
X183967Y64437D01*
X183931Y64499D01*
X183891Y64533D01*
X183859Y64573D01*
X183798Y64612D01*
X183744Y64659D01*
X183695Y64678D01*
X183652Y64706D01*
X183582Y64724D01*
X183516Y64751D01*
X183444Y64759D01*
X183413Y64767D01*
X183390Y64765D01*
X183349Y64769D01*
X170814Y64769D01*
X170744Y64758D01*
X170672Y64756D01*
X170623Y64738D01*
X170572Y64730D01*
X170508Y64696D01*
X170441Y64671D01*
X170400Y64639D01*
X170354Y64614D01*
X170305Y64562D01*
X170249Y64518D01*
X170221Y64474D01*
X170185Y64436D01*
X170155Y64371D01*
X170116Y64311D01*
X170103Y64260D01*
X170081Y64213D01*
X170073Y64142D01*
X170056Y64072D01*
X170060Y64020D01*
X170054Y63969D01*
X170069Y63898D01*
X170075Y63827D01*
X170095Y63779D01*
X170106Y63728D01*
X170143Y63667D01*
X170171Y63601D01*
X170216Y63545D01*
X170233Y63517D01*
X170250Y63502D01*
X170276Y63470D01*
X173229Y60517D01*
X173229Y53783D01*
X168467Y49021D01*
X161733Y49021D01*
X156971Y53783D01*
X156971Y57412D01*
X156960Y57482D01*
X156958Y57554D01*
X156940Y57603D01*
X156932Y57654D01*
X156898Y57718D01*
X156873Y57785D01*
X156841Y57826D01*
X156816Y57872D01*
X156764Y57921D01*
X156720Y57977D01*
X156676Y58005D01*
X156638Y58041D01*
X156573Y58071D01*
X156513Y58110D01*
X156462Y58123D01*
X156415Y58145D01*
X156344Y58153D01*
X156274Y58170D01*
X156222Y58166D01*
X156171Y58172D01*
X156100Y58157D01*
X156029Y58151D01*
X155981Y58131D01*
X155930Y58120D01*
X155869Y58083D01*
X155803Y58055D01*
X155747Y58010D01*
X155719Y57993D01*
X155704Y57976D01*
X155672Y57950D01*
X153347Y55625D01*
X148590Y55625D01*
X148570Y55622D01*
X148551Y55624D01*
X148449Y55602D01*
X148347Y55586D01*
X148330Y55576D01*
X148310Y55572D01*
X148221Y55519D01*
X148130Y55470D01*
X148116Y55456D01*
X148099Y55446D01*
X148032Y55367D01*
X147960Y55292D01*
X147952Y55274D01*
X147939Y55259D01*
X147900Y55163D01*
X147857Y55069D01*
X147855Y55049D01*
X147847Y55031D01*
X147829Y54864D01*
X147829Y53783D01*
X143067Y49021D01*
X136333Y49021D01*
X131571Y53783D01*
X131571Y60517D01*
X136333Y65279D01*
X143067Y65279D01*
X147924Y60422D01*
X147998Y60369D01*
X148067Y60309D01*
X148098Y60297D01*
X148124Y60278D01*
X148211Y60251D01*
X148296Y60217D01*
X148337Y60213D01*
X148359Y60206D01*
X148391Y60207D01*
X148462Y60199D01*
X151137Y60199D01*
X151228Y60213D01*
X151318Y60221D01*
X151348Y60233D01*
X151380Y60238D01*
X151461Y60281D01*
X151545Y60317D01*
X151577Y60343D01*
X151598Y60354D01*
X151620Y60377D01*
X151676Y60422D01*
X157772Y66518D01*
X157814Y66576D01*
X157863Y66628D01*
X157885Y66675D01*
X157915Y66717D01*
X157936Y66786D01*
X157967Y66851D01*
X157972Y66903D01*
X157988Y66953D01*
X157986Y67024D01*
X157994Y67095D01*
X157983Y67146D01*
X157981Y67198D01*
X157957Y67266D01*
X157942Y67336D01*
X157915Y67381D01*
X157897Y67429D01*
X157852Y67485D01*
X157815Y67547D01*
X157776Y67581D01*
X157743Y67621D01*
X157683Y67660D01*
X157628Y67707D01*
X157580Y67726D01*
X157536Y67754D01*
X157467Y67772D01*
X157400Y67799D01*
X157329Y67807D01*
X157298Y67815D01*
X157274Y67813D01*
X157234Y67817D01*
X115563Y67817D01*
X115471Y67802D01*
X115379Y67795D01*
X115342Y67781D01*
X115320Y67778D01*
X115291Y67762D01*
X115222Y67737D01*
X115165Y67695D01*
X115102Y67662D01*
X115066Y67624D01*
X115023Y67593D01*
X114982Y67535D01*
X114933Y67484D01*
X114911Y67436D01*
X114880Y67393D01*
X114859Y67325D01*
X114829Y67261D01*
X114823Y67208D01*
X114808Y67157D01*
X114810Y67087D01*
X114802Y67017D01*
X114814Y66965D01*
X114815Y66911D01*
X114839Y66845D01*
X114854Y66776D01*
X114882Y66731D01*
X114900Y66681D01*
X114944Y66626D01*
X114981Y66565D01*
X115021Y66531D01*
X115054Y66489D01*
X115114Y66451D01*
X115168Y66405D01*
X115217Y66385D01*
X115262Y66357D01*
X115330Y66340D01*
X115396Y66313D01*
X115469Y66305D01*
X115500Y66297D01*
X115523Y66299D01*
X115562Y66295D01*
X118088Y66295D01*
X123445Y60938D01*
X123445Y58673D01*
X115062Y58673D01*
X115042Y58670D01*
X115023Y58672D01*
X114921Y58650D01*
X114819Y58633D01*
X114802Y58624D01*
X114782Y58620D01*
X114693Y58567D01*
X114602Y58518D01*
X114588Y58504D01*
X114571Y58494D01*
X114504Y58415D01*
X114433Y58340D01*
X114424Y58322D01*
X114411Y58307D01*
X114373Y58211D01*
X114329Y58117D01*
X114327Y58097D01*
X114319Y58079D01*
X114301Y57912D01*
X114301Y57149D01*
X113538Y57149D01*
X113518Y57146D01*
X113499Y57148D01*
X113397Y57126D01*
X113295Y57109D01*
X113278Y57100D01*
X113258Y57096D01*
X113169Y57043D01*
X113078Y56994D01*
X113064Y56980D01*
X113047Y56970D01*
X112980Y56891D01*
X112909Y56816D01*
X112900Y56798D01*
X112887Y56783D01*
X112848Y56687D01*
X112805Y56593D01*
X112803Y56573D01*
X112795Y56555D01*
X112777Y56388D01*
X112777Y48005D01*
X110512Y48005D01*
X105155Y53362D01*
X105155Y55888D01*
X105144Y55958D01*
X105142Y56030D01*
X105124Y56079D01*
X105116Y56130D01*
X105082Y56194D01*
X105057Y56261D01*
X105025Y56302D01*
X105000Y56348D01*
X104948Y56397D01*
X104904Y56453D01*
X104860Y56481D01*
X104822Y56517D01*
X104757Y56547D01*
X104697Y56586D01*
X104646Y56599D01*
X104599Y56621D01*
X104528Y56629D01*
X104458Y56646D01*
X104406Y56642D01*
X104355Y56648D01*
X104284Y56633D01*
X104213Y56627D01*
X104165Y56607D01*
X104114Y56596D01*
X104053Y56559D01*
X103987Y56531D01*
X103931Y56486D01*
X103903Y56469D01*
X103888Y56452D01*
X103856Y56426D01*
X64955Y17525D01*
X42795Y17525D01*
X42680Y17506D01*
X42564Y17489D01*
X42559Y17487D01*
X42553Y17486D01*
X42450Y17431D01*
X42345Y17378D01*
X42341Y17373D01*
X42335Y17370D01*
X42255Y17286D01*
X42173Y17202D01*
X42169Y17196D01*
X42166Y17192D01*
X42158Y17175D01*
X42092Y17055D01*
X40773Y13870D01*
X39125Y12222D01*
X39083Y12164D01*
X39034Y12112D01*
X39012Y12065D01*
X38981Y12023D01*
X38960Y11954D01*
X38930Y11889D01*
X38924Y11837D01*
X38909Y11787D01*
X38911Y11716D01*
X38903Y11645D01*
X38914Y11594D01*
X38915Y11542D01*
X38940Y11474D01*
X38955Y11404D01*
X38982Y11359D01*
X39000Y11311D01*
X39045Y11255D01*
X39081Y11193D01*
X39121Y11159D01*
X39153Y11119D01*
X39214Y11080D01*
X39268Y11033D01*
X39317Y11014D01*
X39360Y10986D01*
X39430Y10968D01*
X39496Y10941D01*
X39568Y10933D01*
X39599Y10925D01*
X39622Y10927D01*
X39663Y10923D01*
X290537Y10923D01*
X290608Y10934D01*
X290679Y10936D01*
X290728Y10954D01*
X290780Y10962D01*
X290843Y10996D01*
X290910Y11021D01*
X290951Y11053D01*
X290997Y11078D01*
X291046Y11130D01*
X291102Y11174D01*
X291131Y11218D01*
X291166Y11256D01*
X291197Y11321D01*
X291235Y11381D01*
X291248Y11432D01*
X291270Y11479D01*
X291278Y11550D01*
X291295Y11620D01*
X291291Y11672D01*
X291297Y11723D01*
X291282Y11794D01*
X291276Y11865D01*
X291256Y11913D01*
X291245Y11964D01*
X291208Y12025D01*
X291180Y12091D01*
X291135Y12147D01*
X291119Y12175D01*
X291101Y12190D01*
X291075Y12222D01*
X289427Y13870D01*
X288035Y17231D01*
X288035Y20869D01*
X289427Y24230D01*
X292000Y26803D01*
X295361Y28195D01*
X314239Y28195D01*
X317600Y26803D01*
X320173Y24230D01*
X321565Y20869D01*
X321565Y17231D01*
X320173Y13870D01*
X318525Y12222D01*
X318483Y12164D01*
X318434Y12112D01*
X318412Y12065D01*
X318381Y12023D01*
X318360Y11954D01*
X318330Y11889D01*
X318324Y11837D01*
X318309Y11787D01*
X318311Y11716D01*
X318303Y11645D01*
X318314Y11594D01*
X318315Y11542D01*
X318340Y11474D01*
X318355Y11404D01*
X318382Y11359D01*
X318400Y11311D01*
X318445Y11255D01*
X318481Y11193D01*
X318521Y11159D01*
X318553Y11119D01*
X318614Y11080D01*
X318668Y11033D01*
X318717Y11014D01*
X318760Y10986D01*
X318830Y10968D01*
X318896Y10941D01*
X318968Y10933D01*
X318999Y10925D01*
X319022Y10927D01*
X319063Y10923D01*
X324563Y10923D01*
X324592Y10928D01*
X324622Y10925D01*
X324713Y10947D01*
X324805Y10962D01*
X324832Y10976D01*
X324860Y10983D01*
X324940Y11034D01*
X325023Y11078D01*
X325043Y11099D01*
X325068Y11115D01*
X325127Y11188D01*
X325192Y11256D01*
X325205Y11283D01*
X325223Y11306D01*
X325256Y11394D01*
X325296Y11479D01*
X325299Y11508D01*
X325309Y11536D01*
X325324Y11703D01*
X322610Y117547D01*
X322593Y117633D01*
X322585Y117720D01*
X322570Y117753D01*
X322564Y117788D01*
X322521Y117865D01*
X322485Y117945D01*
X322461Y117971D01*
X322443Y118003D01*
X322378Y118062D01*
X322319Y118126D01*
X322287Y118144D01*
X322260Y118168D01*
X322180Y118202D01*
X322103Y118245D01*
X322068Y118251D01*
X322035Y118265D01*
X321948Y118273D01*
X321861Y118288D01*
X321826Y118283D01*
X321790Y118286D01*
X321704Y118265D01*
X321618Y118253D01*
X321586Y118236D01*
X321551Y118228D01*
X321477Y118181D01*
X321398Y118141D01*
X321373Y118115D01*
X321343Y118096D01*
X321288Y118028D01*
X321226Y117966D01*
X321204Y117925D01*
X321188Y117905D01*
X321177Y117876D01*
X321145Y117819D01*
X320173Y115470D01*
X317600Y112897D01*
X314239Y111505D01*
X295361Y111505D01*
X292000Y112897D01*
X289427Y115470D01*
X288035Y118831D01*
X288035Y122469D01*
X289427Y125830D01*
X292000Y128403D01*
X295361Y129795D01*
X314239Y129795D01*
X317600Y128403D01*
X320173Y125830D01*
X320975Y123894D01*
X321031Y123803D01*
X321084Y123709D01*
X321096Y123698D01*
X321104Y123684D01*
X321187Y123616D01*
X321266Y123545D01*
X321281Y123538D01*
X321294Y123528D01*
X321394Y123489D01*
X321492Y123447D01*
X321508Y123445D01*
X321523Y123439D01*
X321630Y123435D01*
X321737Y123426D01*
X321753Y123430D01*
X321769Y123429D01*
X321872Y123459D01*
X321976Y123484D01*
X321990Y123493D01*
X322005Y123498D01*
X322093Y123558D01*
X322184Y123616D01*
X322194Y123629D01*
X322207Y123638D01*
X322271Y123724D01*
X322339Y123807D01*
X322344Y123822D01*
X322354Y123835D01*
X322387Y123937D01*
X322425Y124037D01*
X322426Y124057D01*
X322430Y124069D01*
X322430Y124100D01*
X322439Y124204D01*
X322042Y139684D01*
X322019Y139803D01*
X321997Y139922D01*
X321996Y139924D01*
X321996Y139926D01*
X321937Y140031D01*
X321878Y140137D01*
X321876Y140138D01*
X321876Y140140D01*
X321785Y140222D01*
X321696Y140303D01*
X321694Y140304D01*
X321693Y140305D01*
X321583Y140353D01*
X321471Y140402D01*
X321469Y140402D01*
X321467Y140403D01*
X321347Y140413D01*
X321226Y140424D01*
X321224Y140423D01*
X321222Y140424D01*
X321105Y140395D01*
X320987Y140367D01*
X320985Y140366D01*
X320983Y140365D01*
X320879Y140299D01*
X320778Y140236D01*
X320777Y140234D01*
X320775Y140234D01*
X320771Y140228D01*
X320665Y140112D01*
X320170Y139431D01*
X319039Y138300D01*
X317745Y137360D01*
X316320Y136634D01*
X314799Y136139D01*
X313220Y135889D01*
X306323Y135889D01*
X306323Y145288D01*
X306320Y145308D01*
X306322Y145327D01*
X306300Y145429D01*
X306283Y145531D01*
X306274Y145548D01*
X306270Y145568D01*
X306217Y145657D01*
X306168Y145748D01*
X306154Y145762D01*
X306144Y145779D01*
X306065Y145846D01*
X305990Y145917D01*
X305972Y145926D01*
X305957Y145939D01*
X305861Y145977D01*
X305767Y146021D01*
X305747Y146023D01*
X305729Y146031D01*
X305562Y146049D01*
X304799Y146049D01*
X304799Y146051D01*
X305562Y146051D01*
X305582Y146054D01*
X305601Y146052D01*
X305703Y146074D01*
X305805Y146091D01*
X305822Y146100D01*
X305842Y146104D01*
X305931Y146157D01*
X306022Y146206D01*
X306036Y146220D01*
X306053Y146230D01*
X306120Y146309D01*
X306191Y146384D01*
X306200Y146402D01*
X306213Y146417D01*
X306252Y146513D01*
X306295Y146607D01*
X306297Y146627D01*
X306305Y146645D01*
X306323Y146812D01*
X306323Y156211D01*
X313220Y156211D01*
X314799Y155961D01*
X316320Y155466D01*
X317745Y154740D01*
X319039Y153800D01*
X320170Y152669D01*
X320326Y152455D01*
X320338Y152443D01*
X320347Y152427D01*
X320426Y152356D01*
X320501Y152282D01*
X320517Y152274D01*
X320530Y152262D01*
X320627Y152220D01*
X320721Y152174D01*
X320739Y152172D01*
X320755Y152164D01*
X320861Y152156D01*
X320965Y152142D01*
X320983Y152145D01*
X321001Y152144D01*
X321103Y152169D01*
X321207Y152189D01*
X321222Y152198D01*
X321239Y152202D01*
X321329Y152258D01*
X321420Y152311D01*
X321432Y152324D01*
X321447Y152334D01*
X321514Y152415D01*
X321584Y152494D01*
X321591Y152511D01*
X321602Y152525D01*
X321639Y152624D01*
X321681Y152720D01*
X321682Y152738D01*
X321688Y152755D01*
X321703Y152922D01*
X319573Y235986D01*
X319571Y235995D01*
X319572Y236005D01*
X319548Y236116D01*
X319527Y236227D01*
X319522Y236236D01*
X319520Y236246D01*
X319462Y236343D01*
X319406Y236442D01*
X319399Y236448D01*
X319394Y236457D01*
X319308Y236530D01*
X319224Y236606D01*
X319214Y236610D01*
X319207Y236617D01*
X319101Y236659D01*
X318998Y236704D01*
X318988Y236705D01*
X318979Y236709D01*
X318812Y236727D01*
X5334Y236727D01*
X5314Y236724D01*
X5295Y236726D01*
X5193Y236704D01*
X5091Y236688D01*
X5074Y236678D01*
X5054Y236674D01*
X4965Y236621D01*
X4874Y236572D01*
X4860Y236558D01*
X4843Y236548D01*
X4776Y236469D01*
X4704Y236394D01*
X4696Y236376D01*
X4683Y236361D01*
X4644Y236265D01*
X4601Y236171D01*
X4599Y236151D01*
X4591Y236133D01*
X4573Y235966D01*
X4573Y11684D01*
X4576Y11664D01*
X4574Y11645D01*
X4596Y11543D01*
X4612Y11441D01*
X4622Y11424D01*
X4626Y11404D01*
X4679Y11315D01*
X4728Y11224D01*
X4742Y11210D01*
X4752Y11193D01*
X4831Y11126D01*
X4906Y11054D01*
X4924Y11046D01*
X4939Y11033D01*
X5035Y10994D01*
X5129Y10951D01*
X5149Y10949D01*
X5167Y10941D01*
X5334Y10923D01*
X11137Y10923D01*
X11208Y10934D01*
G37*
%LPC*%
G36*
X142683Y150621D02*
X142683Y150621D01*
X137921Y155383D01*
X137921Y162117D01*
X142683Y166879D01*
X143256Y166879D01*
X143276Y166882D01*
X143295Y166880D01*
X143397Y166902D01*
X143499Y166918D01*
X143516Y166928D01*
X143536Y166932D01*
X143625Y166985D01*
X143716Y167034D01*
X143730Y167048D01*
X143747Y167058D01*
X143814Y167137D01*
X143886Y167212D01*
X143894Y167230D01*
X143907Y167245D01*
X143946Y167341D01*
X143989Y167435D01*
X143991Y167455D01*
X143999Y167473D01*
X144017Y167640D01*
X144017Y171635D01*
X147104Y174722D01*
X147146Y174780D01*
X147195Y174832D01*
X147217Y174879D01*
X147247Y174921D01*
X147268Y174990D01*
X147299Y175055D01*
X147304Y175107D01*
X147320Y175157D01*
X147318Y175228D01*
X147326Y175299D01*
X147315Y175350D01*
X147313Y175402D01*
X147289Y175470D01*
X147274Y175540D01*
X147247Y175585D01*
X147229Y175633D01*
X147184Y175689D01*
X147147Y175751D01*
X147108Y175785D01*
X147075Y175825D01*
X147015Y175864D01*
X146960Y175911D01*
X146912Y175930D01*
X146868Y175958D01*
X146799Y175976D01*
X146732Y176003D01*
X146661Y176011D01*
X146630Y176019D01*
X146606Y176017D01*
X146566Y176021D01*
X142683Y176021D01*
X137921Y180783D01*
X137921Y187517D01*
X142683Y192279D01*
X149417Y192279D01*
X154179Y187517D01*
X154179Y183634D01*
X154190Y183564D01*
X154192Y183492D01*
X154210Y183443D01*
X154218Y183392D01*
X154252Y183328D01*
X154277Y183261D01*
X154309Y183220D01*
X154334Y183174D01*
X154385Y183125D01*
X154430Y183069D01*
X154474Y183041D01*
X154512Y183005D01*
X154577Y182975D01*
X154637Y182936D01*
X154688Y182923D01*
X154735Y182901D01*
X154806Y182893D01*
X154876Y182876D01*
X154928Y182880D01*
X154979Y182874D01*
X155050Y182889D01*
X155121Y182895D01*
X155169Y182915D01*
X155220Y182926D01*
X155281Y182963D01*
X155347Y182991D01*
X155403Y183036D01*
X155431Y183053D01*
X155446Y183070D01*
X155478Y183096D01*
X170405Y198023D01*
X170417Y198039D01*
X170432Y198051D01*
X170488Y198139D01*
X170548Y198223D01*
X170554Y198242D01*
X170565Y198258D01*
X170590Y198359D01*
X170621Y198458D01*
X170620Y198478D01*
X170625Y198497D01*
X170617Y198600D01*
X170614Y198704D01*
X170608Y198722D01*
X170606Y198742D01*
X170566Y198837D01*
X170530Y198935D01*
X170517Y198950D01*
X170510Y198968D01*
X170405Y199099D01*
X169671Y199833D01*
X169671Y206567D01*
X174433Y211329D01*
X181167Y211329D01*
X185929Y206567D01*
X185929Y199833D01*
X181167Y195071D01*
X174237Y195071D01*
X174146Y195057D01*
X174056Y195049D01*
X174026Y195037D01*
X173994Y195032D01*
X173913Y194989D01*
X173829Y194953D01*
X173797Y194927D01*
X173776Y194916D01*
X173754Y194893D01*
X173698Y194848D01*
X148814Y169964D01*
X148761Y169890D01*
X148701Y169820D01*
X148689Y169790D01*
X148670Y169764D01*
X148643Y169677D01*
X148609Y169592D01*
X148605Y169551D01*
X148598Y169529D01*
X148599Y169497D01*
X148591Y169425D01*
X148591Y167640D01*
X148594Y167620D01*
X148592Y167601D01*
X148614Y167499D01*
X148630Y167397D01*
X148640Y167380D01*
X148644Y167360D01*
X148697Y167271D01*
X148746Y167180D01*
X148760Y167166D01*
X148770Y167149D01*
X148849Y167082D01*
X148924Y167010D01*
X148942Y167002D01*
X148957Y166989D01*
X149053Y166950D01*
X149147Y166907D01*
X149167Y166905D01*
X149185Y166897D01*
X149352Y166879D01*
X149417Y166879D01*
X154179Y162117D01*
X154179Y155383D01*
X149417Y150621D01*
X142683Y150621D01*
G37*
%LPD*%
%LPC*%
G36*
X15961Y35305D02*
X15961Y35305D01*
X12600Y36697D01*
X10027Y39270D01*
X8635Y42631D01*
X8635Y46269D01*
X10027Y49630D01*
X12600Y52203D01*
X15961Y53595D01*
X34839Y53595D01*
X38200Y52203D01*
X40773Y49630D01*
X42165Y46269D01*
X42165Y42631D01*
X40773Y39270D01*
X38200Y36697D01*
X34839Y35305D01*
X15961Y35305D01*
G37*
%LPD*%
%LPC*%
G36*
X15961Y86105D02*
X15961Y86105D01*
X12600Y87497D01*
X10027Y90070D01*
X8635Y93431D01*
X8635Y97069D01*
X10027Y100430D01*
X12600Y103003D01*
X15961Y104395D01*
X34839Y104395D01*
X38200Y103003D01*
X40773Y100430D01*
X42165Y97069D01*
X42165Y93431D01*
X40773Y90070D01*
X38200Y87497D01*
X34839Y86105D01*
X15961Y86105D01*
G37*
%LPD*%
%LPC*%
G36*
X295361Y35305D02*
X295361Y35305D01*
X292000Y36697D01*
X289427Y39270D01*
X288035Y42631D01*
X288035Y46269D01*
X289427Y49630D01*
X292000Y52203D01*
X295361Y53595D01*
X314239Y53595D01*
X317600Y52203D01*
X320173Y49630D01*
X321565Y46269D01*
X321565Y42631D01*
X320173Y39270D01*
X317600Y36697D01*
X314239Y35305D01*
X295361Y35305D01*
G37*
%LPD*%
%LPC*%
G36*
X295361Y60705D02*
X295361Y60705D01*
X292000Y62097D01*
X289427Y64670D01*
X288035Y68031D01*
X288035Y71669D01*
X289427Y75030D01*
X292000Y77603D01*
X295361Y78995D01*
X314239Y78995D01*
X317600Y77603D01*
X320173Y75030D01*
X321565Y71669D01*
X321565Y68031D01*
X320173Y64670D01*
X317600Y62097D01*
X314239Y60705D01*
X295361Y60705D01*
G37*
%LPD*%
%LPC*%
G36*
X15961Y136905D02*
X15961Y136905D01*
X12600Y138297D01*
X10027Y140870D01*
X8635Y144231D01*
X8635Y147869D01*
X10027Y151230D01*
X12600Y153803D01*
X15961Y155195D01*
X34839Y155195D01*
X38200Y153803D01*
X40773Y151230D01*
X42165Y147869D01*
X42165Y144231D01*
X40773Y140870D01*
X38200Y138297D01*
X34839Y136905D01*
X15961Y136905D01*
G37*
%LPD*%
%LPC*%
G36*
X295361Y86105D02*
X295361Y86105D01*
X292000Y87497D01*
X289427Y90070D01*
X288035Y93431D01*
X288035Y97069D01*
X289427Y100430D01*
X292000Y103003D01*
X295361Y104395D01*
X314239Y104395D01*
X317600Y103003D01*
X320173Y100430D01*
X321565Y97069D01*
X321565Y93431D01*
X320173Y90070D01*
X317600Y87497D01*
X314239Y86105D01*
X295361Y86105D01*
G37*
%LPD*%
%LPC*%
G36*
X15961Y111505D02*
X15961Y111505D01*
X12600Y112897D01*
X10027Y115470D01*
X8635Y118831D01*
X8635Y122469D01*
X10027Y125830D01*
X12600Y128403D01*
X15961Y129795D01*
X34839Y129795D01*
X38200Y128403D01*
X40773Y125830D01*
X42165Y122469D01*
X42165Y118831D01*
X40773Y115470D01*
X38200Y112897D01*
X34839Y111505D01*
X15961Y111505D01*
G37*
%LPD*%
%LPC*%
G36*
X54952Y89943D02*
X54952Y89943D01*
X51843Y93052D01*
X51843Y97448D01*
X54640Y100245D01*
X54687Y100311D01*
X54698Y100322D01*
X54701Y100328D01*
X54753Y100389D01*
X54765Y100419D01*
X54784Y100445D01*
X54811Y100532D01*
X54845Y100617D01*
X54849Y100658D01*
X54856Y100680D01*
X54855Y100712D01*
X54863Y100783D01*
X54863Y140517D01*
X54849Y140607D01*
X54841Y140698D01*
X54829Y140727D01*
X54824Y140759D01*
X54781Y140840D01*
X54745Y140924D01*
X54719Y140956D01*
X54708Y140977D01*
X54685Y140999D01*
X54640Y141055D01*
X51843Y143852D01*
X51843Y148248D01*
X54952Y151357D01*
X59348Y151357D01*
X62457Y148248D01*
X62457Y143852D01*
X59660Y141055D01*
X59607Y140981D01*
X59547Y140911D01*
X59535Y140881D01*
X59516Y140855D01*
X59489Y140768D01*
X59455Y140683D01*
X59451Y140642D01*
X59444Y140620D01*
X59445Y140588D01*
X59437Y140517D01*
X59437Y100783D01*
X59451Y100693D01*
X59459Y100602D01*
X59471Y100573D01*
X59476Y100541D01*
X59519Y100460D01*
X59555Y100376D01*
X59581Y100344D01*
X59592Y100323D01*
X59615Y100301D01*
X59660Y100245D01*
X62457Y97448D01*
X62457Y93052D01*
X59348Y89943D01*
X54952Y89943D01*
G37*
%LPD*%
%LPC*%
G36*
X67652Y96293D02*
X67652Y96293D01*
X64543Y99402D01*
X64543Y103798D01*
X67340Y106595D01*
X67393Y106669D01*
X67453Y106739D01*
X67465Y106769D01*
X67484Y106795D01*
X67511Y106882D01*
X67545Y106967D01*
X67549Y107008D01*
X67556Y107030D01*
X67555Y107062D01*
X67563Y107133D01*
X67563Y134167D01*
X67549Y134257D01*
X67541Y134348D01*
X67529Y134377D01*
X67524Y134409D01*
X67481Y134490D01*
X67445Y134574D01*
X67419Y134606D01*
X67408Y134627D01*
X67385Y134649D01*
X67340Y134705D01*
X64543Y137502D01*
X64543Y141898D01*
X67652Y145007D01*
X72048Y145007D01*
X75157Y141898D01*
X75157Y137502D01*
X72360Y134705D01*
X72307Y134631D01*
X72247Y134561D01*
X72235Y134531D01*
X72216Y134505D01*
X72189Y134418D01*
X72155Y134333D01*
X72151Y134292D01*
X72144Y134270D01*
X72145Y134238D01*
X72137Y134167D01*
X72137Y107133D01*
X72151Y107043D01*
X72159Y106952D01*
X72171Y106923D01*
X72176Y106891D01*
X72219Y106810D01*
X72255Y106726D01*
X72281Y106694D01*
X72292Y106673D01*
X72315Y106651D01*
X72360Y106595D01*
X75157Y103798D01*
X75157Y99402D01*
X72048Y96293D01*
X67652Y96293D01*
G37*
%LPD*%
%LPC*%
G36*
X118452Y96293D02*
X118452Y96293D01*
X115343Y99402D01*
X115343Y103798D01*
X118140Y106595D01*
X118193Y106669D01*
X118253Y106739D01*
X118265Y106769D01*
X118284Y106795D01*
X118311Y106882D01*
X118345Y106967D01*
X118349Y107008D01*
X118356Y107030D01*
X118355Y107062D01*
X118363Y107133D01*
X118363Y134167D01*
X118349Y134257D01*
X118341Y134348D01*
X118329Y134377D01*
X118324Y134409D01*
X118281Y134490D01*
X118245Y134574D01*
X118219Y134606D01*
X118208Y134627D01*
X118185Y134649D01*
X118140Y134705D01*
X115343Y137502D01*
X115343Y141898D01*
X118452Y145007D01*
X122848Y145007D01*
X125957Y141898D01*
X125957Y137502D01*
X123160Y134705D01*
X123107Y134631D01*
X123047Y134561D01*
X123035Y134531D01*
X123016Y134505D01*
X122989Y134418D01*
X122955Y134333D01*
X122951Y134292D01*
X122944Y134270D01*
X122945Y134238D01*
X122937Y134167D01*
X122937Y107133D01*
X122951Y107043D01*
X122959Y106952D01*
X122971Y106923D01*
X122976Y106891D01*
X123019Y106810D01*
X123055Y106726D01*
X123081Y106694D01*
X123092Y106673D01*
X123115Y106651D01*
X123160Y106595D01*
X125957Y103798D01*
X125957Y99402D01*
X122848Y96293D01*
X118452Y96293D01*
G37*
%LPD*%
%LPC*%
G36*
X287134Y147573D02*
X287134Y147573D01*
X287269Y148429D01*
X287764Y149950D01*
X288490Y151375D01*
X289430Y152669D01*
X290561Y153800D01*
X291855Y154740D01*
X293280Y155466D01*
X294801Y155961D01*
X296380Y156211D01*
X303277Y156211D01*
X303277Y147573D01*
X287134Y147573D01*
G37*
%LPD*%
%LPC*%
G36*
X296380Y135889D02*
X296380Y135889D01*
X294801Y136139D01*
X293280Y136634D01*
X291855Y137360D01*
X290561Y138300D01*
X289430Y139431D01*
X288490Y140725D01*
X287764Y142150D01*
X287269Y143671D01*
X287134Y144527D01*
X303277Y144527D01*
X303277Y135889D01*
X296380Y135889D01*
G37*
%LPD*%
%LPC*%
G36*
X268223Y211073D02*
X268223Y211073D01*
X268223Y220092D01*
X271067Y220092D01*
X277242Y213917D01*
X277242Y211073D01*
X268223Y211073D01*
G37*
%LPD*%
%LPC*%
G36*
X256158Y211073D02*
X256158Y211073D01*
X256158Y213917D01*
X262333Y220092D01*
X265177Y220092D01*
X265177Y211073D01*
X256158Y211073D01*
G37*
%LPD*%
%LPC*%
G36*
X268223Y199008D02*
X268223Y199008D01*
X268223Y208027D01*
X277242Y208027D01*
X277242Y205183D01*
X271067Y199008D01*
X268223Y199008D01*
G37*
%LPD*%
%LPC*%
G36*
X262333Y199008D02*
X262333Y199008D01*
X256158Y205183D01*
X256158Y208027D01*
X265177Y208027D01*
X265177Y199008D01*
X262333Y199008D01*
G37*
%LPD*%
%LPC*%
G36*
X204723Y204723D02*
X204723Y204723D01*
X204723Y212345D01*
X206988Y212345D01*
X212345Y206988D01*
X212345Y204723D01*
X204723Y204723D01*
G37*
%LPD*%
%LPC*%
G36*
X194055Y204723D02*
X194055Y204723D01*
X194055Y206988D01*
X199412Y212345D01*
X201677Y212345D01*
X201677Y204723D01*
X194055Y204723D01*
G37*
%LPD*%
%LPC*%
G36*
X204723Y194055D02*
X204723Y194055D01*
X204723Y201677D01*
X212345Y201677D01*
X212345Y199412D01*
X206988Y194055D01*
X204723Y194055D01*
G37*
%LPD*%
%LPC*%
G36*
X192023Y48005D02*
X192023Y48005D01*
X192023Y55627D01*
X199645Y55627D01*
X199645Y53362D01*
X194288Y48005D01*
X192023Y48005D01*
G37*
%LPD*%
%LPC*%
G36*
X115823Y48005D02*
X115823Y48005D01*
X115823Y55627D01*
X123445Y55627D01*
X123445Y53362D01*
X118088Y48005D01*
X115823Y48005D01*
G37*
%LPD*%
%LPC*%
G36*
X230123Y48005D02*
X230123Y48005D01*
X230123Y55627D01*
X237745Y55627D01*
X237745Y53362D01*
X232388Y48005D01*
X230123Y48005D01*
G37*
%LPD*%
%LPC*%
G36*
X224812Y48005D02*
X224812Y48005D01*
X219455Y53362D01*
X219455Y55627D01*
X227077Y55627D01*
X227077Y48005D01*
X224812Y48005D01*
G37*
%LPD*%
%LPC*%
G36*
X186712Y48005D02*
X186712Y48005D01*
X181355Y53362D01*
X181355Y55627D01*
X188977Y55627D01*
X188977Y48005D01*
X186712Y48005D01*
G37*
%LPD*%
%LPC*%
G36*
X199412Y194055D02*
X199412Y194055D01*
X194055Y199412D01*
X194055Y201677D01*
X201677Y201677D01*
X201677Y194055D01*
X199412Y194055D01*
G37*
%LPD*%
%LPC*%
G36*
X203199Y203199D02*
X203199Y203199D01*
X203199Y203201D01*
X203201Y203201D01*
X203201Y203199D01*
X203199Y203199D01*
G37*
%LPD*%
%LPC*%
G36*
X266699Y209549D02*
X266699Y209549D01*
X266699Y209551D01*
X266701Y209551D01*
X266701Y209549D01*
X266699Y209549D01*
G37*
%LPD*%
D10*
X266700Y209550D03*
D11*
X241300Y209550D03*
D12*
X254000Y57150D03*
X228600Y57150D03*
D13*
X177800Y203200D03*
X203200Y203200D03*
D14*
X114300Y82550D03*
X114300Y57150D03*
D15*
X146050Y158750D03*
X146050Y184150D03*
X254000Y82550D03*
X254000Y107950D03*
D14*
X139700Y82550D03*
X139700Y57150D03*
D12*
X190500Y57150D03*
X165100Y57150D03*
D16*
X297180Y146050D02*
X312420Y146050D01*
X312420Y120650D02*
X297180Y120650D01*
X297180Y95250D02*
X312420Y95250D01*
X312420Y69850D02*
X297180Y69850D01*
X297180Y44450D02*
X312420Y44450D01*
X312420Y19050D02*
X297180Y19050D01*
X33020Y19050D02*
X17780Y19050D01*
X17780Y44450D02*
X33020Y44450D01*
X33020Y69850D02*
X17780Y69850D01*
X17780Y95250D02*
X33020Y95250D01*
X33020Y120650D02*
X17780Y120650D01*
X17780Y146050D02*
X33020Y146050D01*
D17*
X25908Y19812D02*
X64008Y19812D01*
X114300Y70104D01*
X216408Y70104D01*
X252984Y106680D01*
X25908Y19812D02*
X25400Y19050D01*
X252984Y106680D02*
X254000Y107950D01*
X152400Y57912D02*
X140208Y57912D01*
X152400Y57912D02*
X161544Y67056D01*
X243840Y67056D01*
X252984Y57912D01*
X140208Y57912D02*
X139700Y57150D01*
X252984Y57912D02*
X254000Y57150D01*
X252984Y76200D02*
X252984Y82296D01*
X252984Y76200D02*
X243840Y67056D01*
X252984Y82296D02*
X254000Y82550D01*
X146304Y160020D02*
X146304Y170688D01*
X176784Y201168D01*
X176784Y202184D01*
X146304Y160020D02*
X146050Y158750D01*
X176784Y202184D02*
X177800Y203200D01*
D18*
X120650Y101600D03*
D17*
X120650Y139700D01*
D18*
X120650Y139700D03*
X69850Y101600D03*
D17*
X69850Y139700D01*
D18*
X69850Y139700D03*
X57150Y146050D03*
X57150Y95250D03*
D17*
X57150Y146050D01*
X114300Y82296D02*
X240792Y208788D01*
X241300Y209550D01*
X114300Y82550D02*
X114300Y82296D01*
X199644Y129540D02*
X245364Y129540D01*
X199644Y129540D02*
X143256Y73152D01*
X28956Y73152D01*
X25908Y70104D01*
X25400Y69850D01*
D18*
X245364Y129540D03*
M02*
