G04 EAGLE Gerber RS-274X export*
G75*
%MOMM*%
%FSLAX34Y34*%
%LPD*%
%INSilkscreen Top*%
%IPPOS*%
%AMOC8*
5,1,8,0,0,1.08239X$1,22.5*%
G01*
%ADD10C,0.152400*%
%ADD11C,0.127000*%
%ADD12C,0.304800*%
%ADD13C,0.508000*%
%ADD14C,0.076200*%
%ADD15C,0.101600*%

G36*
X244802Y121569D02*
X244802Y121569D01*
X244804Y121569D01*
X244847Y121589D01*
X244891Y121607D01*
X244891Y121609D01*
X244893Y121610D01*
X244926Y121695D01*
X244926Y125505D01*
X244925Y125507D01*
X244926Y125509D01*
X244906Y125552D01*
X244888Y125596D01*
X244886Y125596D01*
X244885Y125598D01*
X244800Y125631D01*
X242260Y125631D01*
X242258Y125630D01*
X242256Y125631D01*
X242213Y125611D01*
X242169Y125593D01*
X242169Y125591D01*
X242167Y125590D01*
X242134Y125505D01*
X242134Y121695D01*
X242135Y121693D01*
X242134Y121691D01*
X242154Y121648D01*
X242172Y121604D01*
X242174Y121603D01*
X242175Y121601D01*
X242260Y121569D01*
X244800Y121569D01*
X244802Y121569D01*
G37*
G36*
X164142Y115069D02*
X164142Y115069D01*
X164144Y115069D01*
X164187Y115088D01*
X164231Y115107D01*
X164231Y115109D01*
X164233Y115110D01*
X164266Y115195D01*
X164266Y119005D01*
X164265Y119007D01*
X164266Y119009D01*
X164246Y119052D01*
X164228Y119095D01*
X164226Y119096D01*
X164225Y119098D01*
X164140Y119131D01*
X161600Y119131D01*
X161598Y119130D01*
X161596Y119131D01*
X161553Y119111D01*
X161509Y119093D01*
X161509Y119091D01*
X161507Y119090D01*
X161474Y119005D01*
X161474Y115195D01*
X161475Y115193D01*
X161474Y115191D01*
X161494Y115148D01*
X161512Y115104D01*
X161514Y115103D01*
X161515Y115101D01*
X161600Y115068D01*
X164140Y115068D01*
X164142Y115069D01*
G37*
D10*
X233680Y222250D02*
X237490Y222250D01*
X237490Y218440D01*
X237490Y222250D02*
X241300Y222250D01*
X237490Y222250D02*
X237490Y226060D01*
X226060Y209550D02*
X226068Y210236D01*
X226094Y210921D01*
X226136Y211605D01*
X226195Y212289D01*
X226270Y212970D01*
X226362Y213650D01*
X226471Y214327D01*
X226597Y215001D01*
X226739Y215672D01*
X226897Y216339D01*
X227072Y217002D01*
X227263Y217661D01*
X227470Y218314D01*
X227693Y218963D01*
X227932Y219605D01*
X228187Y220242D01*
X228457Y220872D01*
X228743Y221496D01*
X229043Y222112D01*
X229359Y222721D01*
X229690Y223322D01*
X230035Y223914D01*
X230395Y224498D01*
X230769Y225073D01*
X231157Y225638D01*
X231558Y226194D01*
X231974Y226740D01*
X232402Y227275D01*
X232844Y227800D01*
X233298Y228313D01*
X233765Y228816D01*
X234243Y229307D01*
X234734Y229785D01*
X235237Y230252D01*
X235750Y230706D01*
X236275Y231148D01*
X236810Y231576D01*
X237356Y231992D01*
X237912Y232393D01*
X238477Y232781D01*
X239052Y233155D01*
X239636Y233515D01*
X240228Y233860D01*
X240829Y234191D01*
X241438Y234507D01*
X242054Y234807D01*
X242678Y235093D01*
X243308Y235363D01*
X243945Y235618D01*
X244587Y235857D01*
X245236Y236080D01*
X245889Y236287D01*
X246548Y236478D01*
X247211Y236653D01*
X247878Y236811D01*
X248549Y236953D01*
X249223Y237079D01*
X249900Y237188D01*
X250580Y237280D01*
X251261Y237355D01*
X251945Y237414D01*
X252629Y237456D01*
X253314Y237482D01*
X254000Y237490D01*
X254686Y237482D01*
X255371Y237456D01*
X256055Y237414D01*
X256739Y237355D01*
X257420Y237280D01*
X258100Y237188D01*
X258777Y237079D01*
X259451Y236953D01*
X260122Y236811D01*
X260789Y236653D01*
X261452Y236478D01*
X262111Y236287D01*
X262764Y236080D01*
X263413Y235857D01*
X264055Y235618D01*
X264692Y235363D01*
X265322Y235093D01*
X265946Y234807D01*
X266562Y234507D01*
X267171Y234191D01*
X267772Y233860D01*
X268364Y233515D01*
X268948Y233155D01*
X269523Y232781D01*
X270088Y232393D01*
X270644Y231992D01*
X271190Y231576D01*
X271725Y231148D01*
X272250Y230706D01*
X272763Y230252D01*
X273266Y229785D01*
X273757Y229307D01*
X274235Y228816D01*
X274702Y228313D01*
X275156Y227800D01*
X275598Y227275D01*
X276026Y226740D01*
X276442Y226194D01*
X276843Y225638D01*
X277231Y225073D01*
X277605Y224498D01*
X277965Y223914D01*
X278310Y223322D01*
X278641Y222721D01*
X278957Y222112D01*
X279257Y221496D01*
X279543Y220872D01*
X279813Y220242D01*
X280068Y219605D01*
X280307Y218963D01*
X280530Y218314D01*
X280737Y217661D01*
X280928Y217002D01*
X281103Y216339D01*
X281261Y215672D01*
X281403Y215001D01*
X281529Y214327D01*
X281638Y213650D01*
X281730Y212970D01*
X281805Y212289D01*
X281864Y211605D01*
X281906Y210921D01*
X281932Y210236D01*
X281940Y209550D01*
X281932Y208864D01*
X281906Y208179D01*
X281864Y207495D01*
X281805Y206811D01*
X281730Y206130D01*
X281638Y205450D01*
X281529Y204773D01*
X281403Y204099D01*
X281261Y203428D01*
X281103Y202761D01*
X280928Y202098D01*
X280737Y201439D01*
X280530Y200786D01*
X280307Y200137D01*
X280068Y199495D01*
X279813Y198858D01*
X279543Y198228D01*
X279257Y197604D01*
X278957Y196988D01*
X278641Y196379D01*
X278310Y195778D01*
X277965Y195186D01*
X277605Y194602D01*
X277231Y194027D01*
X276843Y193462D01*
X276442Y192906D01*
X276026Y192360D01*
X275598Y191825D01*
X275156Y191300D01*
X274702Y190787D01*
X274235Y190284D01*
X273757Y189793D01*
X273266Y189315D01*
X272763Y188848D01*
X272250Y188394D01*
X271725Y187952D01*
X271190Y187524D01*
X270644Y187108D01*
X270088Y186707D01*
X269523Y186319D01*
X268948Y185945D01*
X268364Y185585D01*
X267772Y185240D01*
X267171Y184909D01*
X266562Y184593D01*
X265946Y184293D01*
X265322Y184007D01*
X264692Y183737D01*
X264055Y183482D01*
X263413Y183243D01*
X262764Y183020D01*
X262111Y182813D01*
X261452Y182622D01*
X260789Y182447D01*
X260122Y182289D01*
X259451Y182147D01*
X258777Y182021D01*
X258100Y181912D01*
X257420Y181820D01*
X256739Y181745D01*
X256055Y181686D01*
X255371Y181644D01*
X254686Y181618D01*
X254000Y181610D01*
X253314Y181618D01*
X252629Y181644D01*
X251945Y181686D01*
X251261Y181745D01*
X250580Y181820D01*
X249900Y181912D01*
X249223Y182021D01*
X248549Y182147D01*
X247878Y182289D01*
X247211Y182447D01*
X246548Y182622D01*
X245889Y182813D01*
X245236Y183020D01*
X244587Y183243D01*
X243945Y183482D01*
X243308Y183737D01*
X242678Y184007D01*
X242054Y184293D01*
X241438Y184593D01*
X240829Y184909D01*
X240228Y185240D01*
X239636Y185585D01*
X239052Y185945D01*
X238477Y186319D01*
X237912Y186707D01*
X237356Y187108D01*
X236810Y187524D01*
X236275Y187952D01*
X235750Y188394D01*
X235237Y188848D01*
X234734Y189315D01*
X234243Y189793D01*
X233765Y190284D01*
X233298Y190787D01*
X232844Y191300D01*
X232402Y191825D01*
X231974Y192360D01*
X231558Y192906D01*
X231157Y193462D01*
X230769Y194027D01*
X230395Y194602D01*
X230035Y195186D01*
X229690Y195778D01*
X229359Y196379D01*
X229043Y196988D01*
X228743Y197604D01*
X228457Y198228D01*
X228187Y198858D01*
X227932Y199495D01*
X227693Y200137D01*
X227470Y200786D01*
X227263Y201439D01*
X227072Y202098D01*
X226897Y202761D01*
X226739Y203428D01*
X226597Y204099D01*
X226471Y204773D01*
X226362Y205450D01*
X226270Y206130D01*
X226195Y206811D01*
X226136Y207495D01*
X226094Y208179D01*
X226068Y208864D01*
X226060Y209550D01*
D11*
X283845Y225425D02*
X286385Y225425D01*
X283845Y225425D02*
X283745Y225427D01*
X283646Y225433D01*
X283546Y225443D01*
X283448Y225456D01*
X283349Y225474D01*
X283252Y225495D01*
X283156Y225520D01*
X283060Y225549D01*
X282966Y225582D01*
X282873Y225618D01*
X282782Y225658D01*
X282692Y225702D01*
X282604Y225749D01*
X282518Y225799D01*
X282434Y225853D01*
X282352Y225910D01*
X282273Y225970D01*
X282195Y226034D01*
X282121Y226100D01*
X282049Y226169D01*
X281980Y226241D01*
X281914Y226315D01*
X281850Y226393D01*
X281790Y226472D01*
X281733Y226554D01*
X281679Y226638D01*
X281629Y226724D01*
X281582Y226812D01*
X281538Y226902D01*
X281498Y226993D01*
X281462Y227086D01*
X281429Y227180D01*
X281400Y227276D01*
X281375Y227372D01*
X281354Y227469D01*
X281336Y227568D01*
X281323Y227666D01*
X281313Y227766D01*
X281307Y227865D01*
X281305Y227965D01*
X281305Y234315D01*
X281307Y234415D01*
X281313Y234514D01*
X281323Y234614D01*
X281336Y234712D01*
X281354Y234811D01*
X281375Y234908D01*
X281400Y235004D01*
X281429Y235100D01*
X281462Y235194D01*
X281498Y235287D01*
X281538Y235378D01*
X281582Y235468D01*
X281629Y235556D01*
X281679Y235642D01*
X281733Y235726D01*
X281790Y235808D01*
X281850Y235887D01*
X281914Y235965D01*
X281980Y236039D01*
X282049Y236111D01*
X282121Y236180D01*
X282195Y236246D01*
X282273Y236310D01*
X282352Y236370D01*
X282434Y236427D01*
X282518Y236481D01*
X282604Y236531D01*
X282692Y236578D01*
X282782Y236622D01*
X282873Y236662D01*
X282966Y236698D01*
X283060Y236731D01*
X283156Y236760D01*
X283252Y236785D01*
X283349Y236806D01*
X283448Y236824D01*
X283546Y236837D01*
X283646Y236847D01*
X283745Y236853D01*
X283845Y236855D01*
X286385Y236855D01*
X290867Y225425D02*
X294042Y225425D01*
X294153Y225427D01*
X294263Y225433D01*
X294374Y225442D01*
X294484Y225456D01*
X294593Y225473D01*
X294702Y225494D01*
X294810Y225519D01*
X294917Y225548D01*
X295023Y225580D01*
X295128Y225616D01*
X295231Y225656D01*
X295333Y225699D01*
X295434Y225746D01*
X295533Y225797D01*
X295630Y225850D01*
X295724Y225907D01*
X295817Y225968D01*
X295908Y226031D01*
X295997Y226098D01*
X296083Y226168D01*
X296166Y226241D01*
X296248Y226316D01*
X296326Y226394D01*
X296401Y226476D01*
X296474Y226559D01*
X296544Y226645D01*
X296611Y226734D01*
X296674Y226825D01*
X296735Y226918D01*
X296792Y227012D01*
X296845Y227109D01*
X296896Y227208D01*
X296943Y227309D01*
X296986Y227411D01*
X297026Y227514D01*
X297062Y227619D01*
X297094Y227725D01*
X297123Y227832D01*
X297148Y227940D01*
X297169Y228049D01*
X297186Y228158D01*
X297200Y228268D01*
X297209Y228379D01*
X297215Y228489D01*
X297217Y228600D01*
X297215Y228711D01*
X297209Y228821D01*
X297200Y228932D01*
X297186Y229042D01*
X297169Y229151D01*
X297148Y229260D01*
X297123Y229368D01*
X297094Y229475D01*
X297062Y229581D01*
X297026Y229686D01*
X296986Y229789D01*
X296943Y229891D01*
X296896Y229992D01*
X296845Y230091D01*
X296792Y230187D01*
X296735Y230282D01*
X296674Y230375D01*
X296611Y230466D01*
X296544Y230555D01*
X296474Y230641D01*
X296401Y230724D01*
X296326Y230806D01*
X296248Y230884D01*
X296166Y230959D01*
X296083Y231032D01*
X295997Y231102D01*
X295908Y231169D01*
X295817Y231232D01*
X295724Y231293D01*
X295630Y231350D01*
X295533Y231403D01*
X295434Y231454D01*
X295333Y231501D01*
X295231Y231544D01*
X295128Y231584D01*
X295023Y231620D01*
X294917Y231652D01*
X294810Y231681D01*
X294702Y231706D01*
X294593Y231727D01*
X294484Y231744D01*
X294374Y231758D01*
X294263Y231767D01*
X294153Y231773D01*
X294042Y231775D01*
X294677Y236855D02*
X290867Y236855D01*
X294677Y236855D02*
X294777Y236853D01*
X294876Y236847D01*
X294976Y236837D01*
X295074Y236824D01*
X295173Y236806D01*
X295270Y236785D01*
X295366Y236760D01*
X295462Y236731D01*
X295556Y236698D01*
X295649Y236662D01*
X295740Y236622D01*
X295830Y236578D01*
X295918Y236531D01*
X296004Y236481D01*
X296088Y236427D01*
X296170Y236370D01*
X296249Y236310D01*
X296327Y236246D01*
X296401Y236180D01*
X296473Y236111D01*
X296542Y236039D01*
X296608Y235965D01*
X296672Y235887D01*
X296732Y235808D01*
X296789Y235726D01*
X296843Y235642D01*
X296893Y235556D01*
X296940Y235468D01*
X296984Y235378D01*
X297024Y235287D01*
X297060Y235194D01*
X297093Y235100D01*
X297122Y235004D01*
X297147Y234908D01*
X297168Y234811D01*
X297186Y234712D01*
X297199Y234614D01*
X297209Y234514D01*
X297215Y234415D01*
X297217Y234315D01*
X297215Y234215D01*
X297209Y234116D01*
X297199Y234016D01*
X297186Y233918D01*
X297168Y233819D01*
X297147Y233722D01*
X297122Y233626D01*
X297093Y233530D01*
X297060Y233436D01*
X297024Y233343D01*
X296984Y233252D01*
X296940Y233162D01*
X296893Y233074D01*
X296843Y232988D01*
X296789Y232904D01*
X296732Y232822D01*
X296672Y232743D01*
X296608Y232665D01*
X296542Y232591D01*
X296473Y232519D01*
X296401Y232450D01*
X296327Y232384D01*
X296249Y232320D01*
X296170Y232260D01*
X296088Y232203D01*
X296004Y232149D01*
X295918Y232099D01*
X295830Y232052D01*
X295740Y232008D01*
X295649Y231968D01*
X295556Y231932D01*
X295462Y231899D01*
X295366Y231870D01*
X295270Y231845D01*
X295173Y231824D01*
X295074Y231806D01*
X294976Y231793D01*
X294876Y231783D01*
X294777Y231777D01*
X294677Y231775D01*
X292137Y231775D01*
D10*
X262890Y63500D02*
X262890Y50800D01*
X262888Y50660D01*
X262882Y50520D01*
X262873Y50380D01*
X262859Y50241D01*
X262842Y50102D01*
X262821Y49964D01*
X262796Y49826D01*
X262767Y49689D01*
X262735Y49553D01*
X262698Y49418D01*
X262658Y49284D01*
X262615Y49151D01*
X262567Y49019D01*
X262517Y48888D01*
X262462Y48759D01*
X262404Y48632D01*
X262343Y48506D01*
X262278Y48382D01*
X262209Y48260D01*
X262138Y48140D01*
X262063Y48022D01*
X261985Y47905D01*
X261903Y47791D01*
X261819Y47680D01*
X261731Y47571D01*
X261641Y47464D01*
X261547Y47359D01*
X261451Y47258D01*
X261352Y47159D01*
X261251Y47063D01*
X261146Y46969D01*
X261039Y46879D01*
X260930Y46791D01*
X260819Y46707D01*
X260705Y46625D01*
X260588Y46547D01*
X260470Y46472D01*
X260350Y46401D01*
X260228Y46332D01*
X260104Y46267D01*
X259978Y46206D01*
X259851Y46148D01*
X259722Y46093D01*
X259591Y46043D01*
X259459Y45995D01*
X259326Y45952D01*
X259192Y45912D01*
X259057Y45875D01*
X258921Y45843D01*
X258784Y45814D01*
X258646Y45789D01*
X258508Y45768D01*
X258369Y45751D01*
X258230Y45737D01*
X258090Y45728D01*
X257950Y45722D01*
X257810Y45720D01*
X262890Y63500D02*
X262888Y63640D01*
X262882Y63780D01*
X262873Y63920D01*
X262859Y64059D01*
X262842Y64198D01*
X262821Y64336D01*
X262796Y64474D01*
X262767Y64611D01*
X262735Y64747D01*
X262698Y64882D01*
X262658Y65016D01*
X262615Y65149D01*
X262567Y65281D01*
X262517Y65412D01*
X262462Y65541D01*
X262404Y65668D01*
X262343Y65794D01*
X262278Y65918D01*
X262209Y66040D01*
X262138Y66160D01*
X262063Y66278D01*
X261985Y66395D01*
X261903Y66509D01*
X261819Y66620D01*
X261731Y66729D01*
X261641Y66836D01*
X261547Y66941D01*
X261451Y67042D01*
X261352Y67141D01*
X261251Y67237D01*
X261146Y67331D01*
X261039Y67421D01*
X260930Y67509D01*
X260819Y67593D01*
X260705Y67675D01*
X260588Y67753D01*
X260470Y67828D01*
X260350Y67899D01*
X260228Y67968D01*
X260104Y68033D01*
X259978Y68094D01*
X259851Y68152D01*
X259722Y68207D01*
X259591Y68257D01*
X259459Y68305D01*
X259326Y68348D01*
X259192Y68388D01*
X259057Y68425D01*
X258921Y68457D01*
X258784Y68486D01*
X258646Y68511D01*
X258508Y68532D01*
X258369Y68549D01*
X258230Y68563D01*
X258090Y68572D01*
X257950Y68578D01*
X257810Y68580D01*
X257810Y45720D02*
X224790Y45720D01*
X219710Y50800D02*
X219710Y63500D01*
X224790Y68580D02*
X257810Y68580D01*
X224790Y45720D02*
X224650Y45722D01*
X224510Y45728D01*
X224370Y45737D01*
X224231Y45751D01*
X224092Y45768D01*
X223954Y45789D01*
X223816Y45814D01*
X223679Y45843D01*
X223543Y45875D01*
X223408Y45912D01*
X223274Y45952D01*
X223141Y45995D01*
X223009Y46043D01*
X222878Y46093D01*
X222749Y46148D01*
X222622Y46206D01*
X222496Y46267D01*
X222372Y46332D01*
X222250Y46401D01*
X222130Y46472D01*
X222012Y46547D01*
X221895Y46625D01*
X221781Y46707D01*
X221670Y46791D01*
X221561Y46879D01*
X221454Y46969D01*
X221349Y47063D01*
X221248Y47159D01*
X221149Y47258D01*
X221053Y47359D01*
X220959Y47464D01*
X220869Y47571D01*
X220781Y47680D01*
X220697Y47791D01*
X220615Y47905D01*
X220537Y48022D01*
X220462Y48140D01*
X220391Y48260D01*
X220322Y48382D01*
X220257Y48506D01*
X220196Y48632D01*
X220138Y48759D01*
X220083Y48888D01*
X220033Y49019D01*
X219985Y49151D01*
X219942Y49284D01*
X219902Y49418D01*
X219865Y49553D01*
X219833Y49689D01*
X219804Y49826D01*
X219779Y49964D01*
X219758Y50102D01*
X219741Y50241D01*
X219727Y50380D01*
X219718Y50520D01*
X219712Y50660D01*
X219710Y50800D01*
X219710Y63500D02*
X219712Y63640D01*
X219718Y63780D01*
X219727Y63920D01*
X219741Y64059D01*
X219758Y64198D01*
X219779Y64336D01*
X219804Y64474D01*
X219833Y64611D01*
X219865Y64747D01*
X219902Y64882D01*
X219942Y65016D01*
X219985Y65149D01*
X220033Y65281D01*
X220083Y65412D01*
X220138Y65541D01*
X220196Y65668D01*
X220257Y65794D01*
X220322Y65918D01*
X220391Y66040D01*
X220462Y66160D01*
X220537Y66278D01*
X220615Y66395D01*
X220697Y66509D01*
X220781Y66620D01*
X220869Y66729D01*
X220959Y66836D01*
X221053Y66941D01*
X221149Y67042D01*
X221248Y67141D01*
X221349Y67237D01*
X221454Y67331D01*
X221561Y67421D01*
X221670Y67509D01*
X221781Y67593D01*
X221895Y67675D01*
X222012Y67753D01*
X222130Y67828D01*
X222250Y67899D01*
X222372Y67968D01*
X222496Y68033D01*
X222622Y68094D01*
X222749Y68152D01*
X222878Y68207D01*
X223009Y68257D01*
X223141Y68305D01*
X223274Y68348D01*
X223408Y68388D01*
X223543Y68425D01*
X223679Y68457D01*
X223816Y68486D01*
X223954Y68511D01*
X224092Y68532D01*
X224231Y68549D01*
X224370Y68563D01*
X224510Y68572D01*
X224650Y68578D01*
X224790Y68580D01*
D12*
X244348Y64770D02*
X244348Y49530D01*
X237998Y49530D02*
X237998Y64770D01*
D11*
X245073Y31115D02*
X247613Y31115D01*
X245073Y31115D02*
X244973Y31117D01*
X244874Y31123D01*
X244774Y31133D01*
X244676Y31146D01*
X244577Y31164D01*
X244480Y31185D01*
X244384Y31210D01*
X244288Y31239D01*
X244194Y31272D01*
X244101Y31308D01*
X244010Y31348D01*
X243920Y31392D01*
X243832Y31439D01*
X243746Y31489D01*
X243662Y31543D01*
X243580Y31600D01*
X243501Y31660D01*
X243423Y31724D01*
X243349Y31790D01*
X243277Y31859D01*
X243208Y31931D01*
X243142Y32005D01*
X243078Y32083D01*
X243018Y32162D01*
X242961Y32244D01*
X242907Y32328D01*
X242857Y32414D01*
X242810Y32502D01*
X242766Y32592D01*
X242726Y32683D01*
X242690Y32776D01*
X242657Y32870D01*
X242628Y32966D01*
X242603Y33062D01*
X242582Y33159D01*
X242564Y33258D01*
X242551Y33356D01*
X242541Y33456D01*
X242535Y33555D01*
X242533Y33655D01*
X242533Y40005D01*
X242535Y40105D01*
X242541Y40204D01*
X242551Y40304D01*
X242564Y40402D01*
X242582Y40501D01*
X242603Y40598D01*
X242628Y40694D01*
X242657Y40790D01*
X242690Y40884D01*
X242726Y40977D01*
X242766Y41068D01*
X242810Y41158D01*
X242857Y41246D01*
X242907Y41332D01*
X242961Y41416D01*
X243018Y41498D01*
X243078Y41577D01*
X243142Y41655D01*
X243208Y41729D01*
X243277Y41801D01*
X243349Y41870D01*
X243423Y41936D01*
X243501Y42000D01*
X243580Y42060D01*
X243662Y42117D01*
X243746Y42171D01*
X243832Y42221D01*
X243920Y42268D01*
X244010Y42312D01*
X244101Y42352D01*
X244194Y42388D01*
X244288Y42421D01*
X244384Y42450D01*
X244480Y42475D01*
X244577Y42496D01*
X244676Y42514D01*
X244774Y42527D01*
X244874Y42537D01*
X244973Y42543D01*
X245073Y42545D01*
X247613Y42545D01*
X252095Y37465D02*
X255905Y37465D01*
X256005Y37463D01*
X256104Y37457D01*
X256204Y37447D01*
X256302Y37434D01*
X256401Y37416D01*
X256498Y37395D01*
X256594Y37370D01*
X256690Y37341D01*
X256784Y37308D01*
X256877Y37272D01*
X256968Y37232D01*
X257058Y37188D01*
X257146Y37141D01*
X257232Y37091D01*
X257316Y37037D01*
X257398Y36980D01*
X257477Y36920D01*
X257555Y36856D01*
X257629Y36790D01*
X257701Y36721D01*
X257770Y36649D01*
X257836Y36575D01*
X257900Y36497D01*
X257960Y36418D01*
X258017Y36336D01*
X258071Y36252D01*
X258121Y36166D01*
X258168Y36078D01*
X258212Y35988D01*
X258252Y35897D01*
X258288Y35804D01*
X258321Y35710D01*
X258350Y35614D01*
X258375Y35518D01*
X258396Y35421D01*
X258414Y35322D01*
X258427Y35224D01*
X258437Y35124D01*
X258443Y35025D01*
X258445Y34925D01*
X258445Y34290D01*
X258443Y34179D01*
X258437Y34069D01*
X258428Y33958D01*
X258414Y33848D01*
X258397Y33739D01*
X258376Y33630D01*
X258351Y33522D01*
X258322Y33415D01*
X258290Y33309D01*
X258254Y33204D01*
X258214Y33101D01*
X258171Y32999D01*
X258124Y32898D01*
X258073Y32799D01*
X258020Y32702D01*
X257963Y32608D01*
X257902Y32515D01*
X257839Y32424D01*
X257772Y32335D01*
X257702Y32249D01*
X257629Y32166D01*
X257554Y32084D01*
X257476Y32006D01*
X257394Y31931D01*
X257311Y31858D01*
X257225Y31788D01*
X257136Y31721D01*
X257045Y31658D01*
X256952Y31597D01*
X256857Y31540D01*
X256761Y31487D01*
X256662Y31436D01*
X256561Y31389D01*
X256459Y31346D01*
X256356Y31306D01*
X256251Y31270D01*
X256145Y31238D01*
X256038Y31209D01*
X255930Y31184D01*
X255821Y31163D01*
X255712Y31146D01*
X255602Y31132D01*
X255491Y31123D01*
X255381Y31117D01*
X255270Y31115D01*
X255159Y31117D01*
X255049Y31123D01*
X254938Y31132D01*
X254828Y31146D01*
X254719Y31163D01*
X254610Y31184D01*
X254502Y31209D01*
X254395Y31238D01*
X254289Y31270D01*
X254184Y31306D01*
X254081Y31346D01*
X253979Y31389D01*
X253878Y31436D01*
X253779Y31487D01*
X253683Y31540D01*
X253588Y31597D01*
X253495Y31658D01*
X253404Y31721D01*
X253315Y31788D01*
X253229Y31858D01*
X253146Y31931D01*
X253064Y32006D01*
X252986Y32084D01*
X252911Y32166D01*
X252838Y32249D01*
X252768Y32335D01*
X252701Y32424D01*
X252638Y32515D01*
X252577Y32608D01*
X252520Y32703D01*
X252467Y32799D01*
X252416Y32898D01*
X252369Y32999D01*
X252326Y33101D01*
X252286Y33204D01*
X252250Y33309D01*
X252218Y33415D01*
X252189Y33522D01*
X252164Y33630D01*
X252143Y33739D01*
X252126Y33848D01*
X252112Y33958D01*
X252103Y34069D01*
X252097Y34179D01*
X252095Y34290D01*
X252095Y37465D01*
X252097Y37605D01*
X252103Y37745D01*
X252112Y37885D01*
X252126Y38024D01*
X252143Y38163D01*
X252164Y38301D01*
X252189Y38439D01*
X252218Y38576D01*
X252250Y38712D01*
X252287Y38847D01*
X252327Y38981D01*
X252370Y39114D01*
X252418Y39246D01*
X252468Y39377D01*
X252523Y39506D01*
X252581Y39633D01*
X252642Y39759D01*
X252707Y39883D01*
X252776Y40005D01*
X252847Y40125D01*
X252922Y40243D01*
X253000Y40360D01*
X253082Y40474D01*
X253166Y40585D01*
X253254Y40694D01*
X253344Y40801D01*
X253438Y40906D01*
X253534Y41007D01*
X253633Y41106D01*
X253734Y41202D01*
X253839Y41296D01*
X253946Y41386D01*
X254055Y41474D01*
X254166Y41558D01*
X254280Y41640D01*
X254397Y41718D01*
X254515Y41793D01*
X254635Y41864D01*
X254757Y41933D01*
X254881Y41998D01*
X255007Y42059D01*
X255134Y42117D01*
X255263Y42172D01*
X255394Y42222D01*
X255526Y42270D01*
X255659Y42313D01*
X255793Y42353D01*
X255928Y42390D01*
X256064Y42422D01*
X256201Y42451D01*
X256339Y42476D01*
X256477Y42497D01*
X256616Y42514D01*
X256755Y42528D01*
X256895Y42537D01*
X257035Y42543D01*
X257175Y42545D01*
D10*
X168910Y196850D02*
X168910Y209550D01*
X168912Y209690D01*
X168918Y209830D01*
X168927Y209970D01*
X168941Y210109D01*
X168958Y210248D01*
X168979Y210386D01*
X169004Y210524D01*
X169033Y210661D01*
X169065Y210797D01*
X169102Y210932D01*
X169142Y211066D01*
X169185Y211199D01*
X169233Y211331D01*
X169283Y211462D01*
X169338Y211591D01*
X169396Y211718D01*
X169457Y211844D01*
X169522Y211968D01*
X169591Y212090D01*
X169662Y212210D01*
X169737Y212328D01*
X169815Y212445D01*
X169897Y212559D01*
X169981Y212670D01*
X170069Y212779D01*
X170159Y212886D01*
X170253Y212991D01*
X170349Y213092D01*
X170448Y213191D01*
X170549Y213287D01*
X170654Y213381D01*
X170761Y213471D01*
X170870Y213559D01*
X170981Y213643D01*
X171095Y213725D01*
X171212Y213803D01*
X171330Y213878D01*
X171450Y213949D01*
X171572Y214018D01*
X171696Y214083D01*
X171822Y214144D01*
X171949Y214202D01*
X172078Y214257D01*
X172209Y214307D01*
X172341Y214355D01*
X172474Y214398D01*
X172608Y214438D01*
X172743Y214475D01*
X172879Y214507D01*
X173016Y214536D01*
X173154Y214561D01*
X173292Y214582D01*
X173431Y214599D01*
X173570Y214613D01*
X173710Y214622D01*
X173850Y214628D01*
X173990Y214630D01*
X168910Y196850D02*
X168912Y196710D01*
X168918Y196570D01*
X168927Y196430D01*
X168941Y196291D01*
X168958Y196152D01*
X168979Y196014D01*
X169004Y195876D01*
X169033Y195739D01*
X169065Y195603D01*
X169102Y195468D01*
X169142Y195334D01*
X169185Y195201D01*
X169233Y195069D01*
X169283Y194938D01*
X169338Y194809D01*
X169396Y194682D01*
X169457Y194556D01*
X169522Y194432D01*
X169591Y194310D01*
X169662Y194190D01*
X169737Y194072D01*
X169815Y193955D01*
X169897Y193841D01*
X169981Y193730D01*
X170069Y193621D01*
X170159Y193514D01*
X170253Y193409D01*
X170349Y193308D01*
X170448Y193209D01*
X170549Y193113D01*
X170654Y193019D01*
X170761Y192929D01*
X170870Y192841D01*
X170981Y192757D01*
X171095Y192675D01*
X171212Y192597D01*
X171330Y192522D01*
X171450Y192451D01*
X171572Y192382D01*
X171696Y192317D01*
X171822Y192256D01*
X171949Y192198D01*
X172078Y192143D01*
X172209Y192093D01*
X172341Y192045D01*
X172474Y192002D01*
X172608Y191962D01*
X172743Y191925D01*
X172879Y191893D01*
X173016Y191864D01*
X173154Y191839D01*
X173292Y191818D01*
X173431Y191801D01*
X173570Y191787D01*
X173710Y191778D01*
X173850Y191772D01*
X173990Y191770D01*
X173990Y214630D02*
X207010Y214630D01*
X212090Y209550D02*
X212090Y196850D01*
X207010Y191770D02*
X173990Y191770D01*
X207010Y214630D02*
X207150Y214628D01*
X207290Y214622D01*
X207430Y214613D01*
X207569Y214599D01*
X207708Y214582D01*
X207846Y214561D01*
X207984Y214536D01*
X208121Y214507D01*
X208257Y214475D01*
X208392Y214438D01*
X208526Y214398D01*
X208659Y214355D01*
X208791Y214307D01*
X208922Y214257D01*
X209051Y214202D01*
X209178Y214144D01*
X209304Y214083D01*
X209428Y214018D01*
X209550Y213949D01*
X209670Y213878D01*
X209788Y213803D01*
X209905Y213725D01*
X210019Y213643D01*
X210130Y213559D01*
X210239Y213471D01*
X210346Y213381D01*
X210451Y213287D01*
X210552Y213191D01*
X210651Y213092D01*
X210747Y212991D01*
X210841Y212886D01*
X210931Y212779D01*
X211019Y212670D01*
X211103Y212559D01*
X211185Y212445D01*
X211263Y212328D01*
X211338Y212210D01*
X211409Y212090D01*
X211478Y211968D01*
X211543Y211844D01*
X211604Y211718D01*
X211662Y211591D01*
X211717Y211462D01*
X211767Y211331D01*
X211815Y211199D01*
X211858Y211066D01*
X211898Y210932D01*
X211935Y210797D01*
X211967Y210661D01*
X211996Y210524D01*
X212021Y210386D01*
X212042Y210248D01*
X212059Y210109D01*
X212073Y209970D01*
X212082Y209830D01*
X212088Y209690D01*
X212090Y209550D01*
X212090Y196850D02*
X212088Y196710D01*
X212082Y196570D01*
X212073Y196430D01*
X212059Y196291D01*
X212042Y196152D01*
X212021Y196014D01*
X211996Y195876D01*
X211967Y195739D01*
X211935Y195603D01*
X211898Y195468D01*
X211858Y195334D01*
X211815Y195201D01*
X211767Y195069D01*
X211717Y194938D01*
X211662Y194809D01*
X211604Y194682D01*
X211543Y194556D01*
X211478Y194432D01*
X211409Y194310D01*
X211338Y194190D01*
X211263Y194072D01*
X211185Y193955D01*
X211103Y193841D01*
X211019Y193730D01*
X210931Y193621D01*
X210841Y193514D01*
X210747Y193409D01*
X210651Y193308D01*
X210552Y193209D01*
X210451Y193113D01*
X210346Y193019D01*
X210239Y192929D01*
X210130Y192841D01*
X210019Y192757D01*
X209905Y192675D01*
X209788Y192597D01*
X209670Y192522D01*
X209550Y192451D01*
X209428Y192382D01*
X209304Y192317D01*
X209178Y192256D01*
X209051Y192198D01*
X208922Y192143D01*
X208791Y192093D01*
X208659Y192045D01*
X208526Y192002D01*
X208392Y191962D01*
X208257Y191925D01*
X208121Y191893D01*
X207984Y191864D01*
X207846Y191839D01*
X207708Y191818D01*
X207569Y191801D01*
X207430Y191787D01*
X207290Y191778D01*
X207150Y191772D01*
X207010Y191770D01*
D12*
X187452Y195580D02*
X187452Y210820D01*
X193802Y210820D02*
X193802Y195580D01*
D11*
X178435Y217805D02*
X175895Y217805D01*
X175795Y217807D01*
X175696Y217813D01*
X175596Y217823D01*
X175498Y217836D01*
X175399Y217854D01*
X175302Y217875D01*
X175206Y217900D01*
X175110Y217929D01*
X175016Y217962D01*
X174923Y217998D01*
X174832Y218038D01*
X174742Y218082D01*
X174654Y218129D01*
X174568Y218179D01*
X174484Y218233D01*
X174402Y218290D01*
X174323Y218350D01*
X174245Y218414D01*
X174171Y218480D01*
X174099Y218549D01*
X174030Y218621D01*
X173964Y218695D01*
X173900Y218773D01*
X173840Y218852D01*
X173783Y218934D01*
X173729Y219018D01*
X173679Y219104D01*
X173632Y219192D01*
X173588Y219282D01*
X173548Y219373D01*
X173512Y219466D01*
X173479Y219560D01*
X173450Y219656D01*
X173425Y219752D01*
X173404Y219849D01*
X173386Y219948D01*
X173373Y220046D01*
X173363Y220146D01*
X173357Y220245D01*
X173355Y220345D01*
X173355Y226695D01*
X173357Y226795D01*
X173363Y226894D01*
X173373Y226994D01*
X173386Y227092D01*
X173404Y227191D01*
X173425Y227288D01*
X173450Y227384D01*
X173479Y227480D01*
X173512Y227574D01*
X173548Y227667D01*
X173588Y227758D01*
X173632Y227848D01*
X173679Y227936D01*
X173729Y228022D01*
X173783Y228106D01*
X173840Y228188D01*
X173900Y228267D01*
X173964Y228345D01*
X174030Y228419D01*
X174099Y228491D01*
X174171Y228560D01*
X174245Y228626D01*
X174323Y228690D01*
X174402Y228750D01*
X174484Y228807D01*
X174568Y228861D01*
X174654Y228911D01*
X174742Y228958D01*
X174832Y229002D01*
X174923Y229042D01*
X175016Y229078D01*
X175110Y229111D01*
X175206Y229140D01*
X175302Y229165D01*
X175399Y229186D01*
X175498Y229204D01*
X175596Y229217D01*
X175696Y229227D01*
X175795Y229233D01*
X175895Y229235D01*
X178435Y229235D01*
X182917Y226695D02*
X186092Y229235D01*
X186092Y217805D01*
X182917Y217805D02*
X189267Y217805D01*
D10*
X120650Y91440D02*
X107950Y91440D01*
X120650Y91440D02*
X120790Y91438D01*
X120930Y91432D01*
X121070Y91423D01*
X121209Y91409D01*
X121348Y91392D01*
X121486Y91371D01*
X121624Y91346D01*
X121761Y91317D01*
X121897Y91285D01*
X122032Y91248D01*
X122166Y91208D01*
X122299Y91165D01*
X122431Y91117D01*
X122562Y91067D01*
X122691Y91012D01*
X122818Y90954D01*
X122944Y90893D01*
X123068Y90828D01*
X123190Y90759D01*
X123310Y90688D01*
X123428Y90613D01*
X123545Y90535D01*
X123659Y90453D01*
X123770Y90369D01*
X123879Y90281D01*
X123986Y90191D01*
X124091Y90097D01*
X124192Y90001D01*
X124291Y89902D01*
X124387Y89801D01*
X124481Y89696D01*
X124571Y89589D01*
X124659Y89480D01*
X124743Y89369D01*
X124825Y89255D01*
X124903Y89138D01*
X124978Y89020D01*
X125049Y88900D01*
X125118Y88778D01*
X125183Y88654D01*
X125244Y88528D01*
X125302Y88401D01*
X125357Y88272D01*
X125407Y88141D01*
X125455Y88009D01*
X125498Y87876D01*
X125538Y87742D01*
X125575Y87607D01*
X125607Y87471D01*
X125636Y87334D01*
X125661Y87196D01*
X125682Y87058D01*
X125699Y86919D01*
X125713Y86780D01*
X125722Y86640D01*
X125728Y86500D01*
X125730Y86360D01*
X107950Y91440D02*
X107810Y91438D01*
X107670Y91432D01*
X107530Y91423D01*
X107391Y91409D01*
X107252Y91392D01*
X107114Y91371D01*
X106976Y91346D01*
X106839Y91317D01*
X106703Y91285D01*
X106568Y91248D01*
X106434Y91208D01*
X106301Y91165D01*
X106169Y91117D01*
X106038Y91067D01*
X105909Y91012D01*
X105782Y90954D01*
X105656Y90893D01*
X105532Y90828D01*
X105410Y90759D01*
X105290Y90688D01*
X105172Y90613D01*
X105055Y90535D01*
X104941Y90453D01*
X104830Y90369D01*
X104721Y90281D01*
X104614Y90191D01*
X104509Y90097D01*
X104408Y90001D01*
X104309Y89902D01*
X104213Y89801D01*
X104119Y89696D01*
X104029Y89589D01*
X103941Y89480D01*
X103857Y89369D01*
X103775Y89255D01*
X103697Y89138D01*
X103622Y89020D01*
X103551Y88900D01*
X103482Y88778D01*
X103417Y88654D01*
X103356Y88528D01*
X103298Y88401D01*
X103243Y88272D01*
X103193Y88141D01*
X103145Y88009D01*
X103102Y87876D01*
X103062Y87742D01*
X103025Y87607D01*
X102993Y87471D01*
X102964Y87334D01*
X102939Y87196D01*
X102918Y87058D01*
X102901Y86919D01*
X102887Y86780D01*
X102878Y86640D01*
X102872Y86500D01*
X102870Y86360D01*
X125730Y86360D02*
X125730Y53340D01*
X120650Y48260D02*
X107950Y48260D01*
X102870Y53340D02*
X102870Y86360D01*
X125730Y53340D02*
X125728Y53200D01*
X125722Y53060D01*
X125713Y52920D01*
X125699Y52781D01*
X125682Y52642D01*
X125661Y52504D01*
X125636Y52366D01*
X125607Y52229D01*
X125575Y52093D01*
X125538Y51958D01*
X125498Y51824D01*
X125455Y51691D01*
X125407Y51559D01*
X125357Y51428D01*
X125302Y51299D01*
X125244Y51172D01*
X125183Y51046D01*
X125118Y50922D01*
X125049Y50800D01*
X124978Y50680D01*
X124903Y50562D01*
X124825Y50445D01*
X124743Y50331D01*
X124659Y50220D01*
X124571Y50111D01*
X124481Y50004D01*
X124387Y49899D01*
X124291Y49798D01*
X124192Y49699D01*
X124091Y49603D01*
X123986Y49509D01*
X123879Y49419D01*
X123770Y49331D01*
X123659Y49247D01*
X123545Y49165D01*
X123428Y49087D01*
X123310Y49012D01*
X123190Y48941D01*
X123068Y48872D01*
X122944Y48807D01*
X122818Y48746D01*
X122691Y48688D01*
X122562Y48633D01*
X122431Y48583D01*
X122299Y48535D01*
X122166Y48492D01*
X122032Y48452D01*
X121897Y48415D01*
X121761Y48383D01*
X121624Y48354D01*
X121486Y48329D01*
X121348Y48308D01*
X121209Y48291D01*
X121070Y48277D01*
X120930Y48268D01*
X120790Y48262D01*
X120650Y48260D01*
X107950Y48260D02*
X107810Y48262D01*
X107670Y48268D01*
X107530Y48277D01*
X107391Y48291D01*
X107252Y48308D01*
X107114Y48329D01*
X106976Y48354D01*
X106839Y48383D01*
X106703Y48415D01*
X106568Y48452D01*
X106434Y48492D01*
X106301Y48535D01*
X106169Y48583D01*
X106038Y48633D01*
X105909Y48688D01*
X105782Y48746D01*
X105656Y48807D01*
X105532Y48872D01*
X105410Y48941D01*
X105290Y49012D01*
X105172Y49087D01*
X105055Y49165D01*
X104941Y49247D01*
X104830Y49331D01*
X104721Y49419D01*
X104614Y49509D01*
X104509Y49603D01*
X104408Y49699D01*
X104309Y49798D01*
X104213Y49899D01*
X104119Y50004D01*
X104029Y50111D01*
X103941Y50220D01*
X103857Y50331D01*
X103775Y50445D01*
X103697Y50562D01*
X103622Y50680D01*
X103551Y50800D01*
X103482Y50922D01*
X103417Y51046D01*
X103356Y51172D01*
X103298Y51299D01*
X103243Y51428D01*
X103193Y51559D01*
X103145Y51691D01*
X103102Y51824D01*
X103062Y51958D01*
X103025Y52093D01*
X102993Y52229D01*
X102964Y52366D01*
X102939Y52504D01*
X102918Y52642D01*
X102901Y52781D01*
X102887Y52920D01*
X102878Y53060D01*
X102872Y53200D01*
X102870Y53340D01*
D12*
X106680Y72898D02*
X121920Y72898D01*
X121920Y66548D02*
X106680Y66548D01*
D11*
X140335Y73623D02*
X140335Y76163D01*
X140335Y73623D02*
X140333Y73523D01*
X140327Y73424D01*
X140317Y73324D01*
X140304Y73226D01*
X140286Y73127D01*
X140265Y73030D01*
X140240Y72934D01*
X140211Y72838D01*
X140178Y72744D01*
X140142Y72651D01*
X140102Y72560D01*
X140058Y72470D01*
X140011Y72382D01*
X139961Y72296D01*
X139907Y72212D01*
X139850Y72130D01*
X139790Y72051D01*
X139726Y71973D01*
X139660Y71899D01*
X139591Y71827D01*
X139519Y71758D01*
X139445Y71692D01*
X139367Y71628D01*
X139288Y71568D01*
X139206Y71511D01*
X139122Y71457D01*
X139036Y71407D01*
X138948Y71360D01*
X138858Y71316D01*
X138767Y71276D01*
X138674Y71240D01*
X138580Y71207D01*
X138484Y71178D01*
X138388Y71153D01*
X138291Y71132D01*
X138192Y71114D01*
X138094Y71101D01*
X137994Y71091D01*
X137895Y71085D01*
X137795Y71083D01*
X131445Y71083D01*
X131345Y71085D01*
X131246Y71091D01*
X131146Y71101D01*
X131048Y71114D01*
X130949Y71132D01*
X130852Y71153D01*
X130756Y71178D01*
X130660Y71207D01*
X130566Y71240D01*
X130473Y71276D01*
X130382Y71316D01*
X130292Y71360D01*
X130204Y71407D01*
X130118Y71457D01*
X130034Y71511D01*
X129952Y71568D01*
X129873Y71628D01*
X129795Y71692D01*
X129721Y71758D01*
X129649Y71827D01*
X129580Y71899D01*
X129514Y71973D01*
X129450Y72051D01*
X129390Y72130D01*
X129333Y72212D01*
X129279Y72296D01*
X129229Y72382D01*
X129182Y72470D01*
X129138Y72560D01*
X129098Y72651D01*
X129062Y72744D01*
X129029Y72838D01*
X129000Y72934D01*
X128975Y73030D01*
X128954Y73127D01*
X128936Y73226D01*
X128923Y73324D01*
X128913Y73424D01*
X128907Y73523D01*
X128905Y73623D01*
X128905Y76163D01*
X128905Y83185D02*
X137795Y80645D01*
X137795Y86995D01*
X135255Y85090D02*
X140335Y85090D01*
D13*
X146050Y170180D02*
X146050Y172720D01*
D11*
X133731Y150749D02*
X122301Y150749D01*
X122301Y153924D01*
X122303Y154035D01*
X122309Y154145D01*
X122318Y154256D01*
X122332Y154366D01*
X122349Y154475D01*
X122370Y154584D01*
X122395Y154692D01*
X122424Y154799D01*
X122456Y154905D01*
X122492Y155010D01*
X122532Y155113D01*
X122575Y155215D01*
X122622Y155316D01*
X122673Y155415D01*
X122726Y155512D01*
X122783Y155606D01*
X122844Y155699D01*
X122907Y155790D01*
X122974Y155879D01*
X123044Y155965D01*
X123117Y156048D01*
X123192Y156130D01*
X123270Y156208D01*
X123352Y156283D01*
X123435Y156356D01*
X123521Y156426D01*
X123610Y156493D01*
X123701Y156556D01*
X123794Y156617D01*
X123889Y156674D01*
X123985Y156727D01*
X124084Y156778D01*
X124185Y156825D01*
X124287Y156868D01*
X124390Y156908D01*
X124495Y156944D01*
X124601Y156976D01*
X124708Y157005D01*
X124816Y157030D01*
X124925Y157051D01*
X125034Y157068D01*
X125144Y157082D01*
X125255Y157091D01*
X125365Y157097D01*
X125476Y157099D01*
X125587Y157097D01*
X125697Y157091D01*
X125808Y157082D01*
X125918Y157068D01*
X126027Y157051D01*
X126136Y157030D01*
X126244Y157005D01*
X126351Y156976D01*
X126457Y156944D01*
X126562Y156908D01*
X126665Y156868D01*
X126767Y156825D01*
X126868Y156778D01*
X126967Y156727D01*
X127064Y156674D01*
X127158Y156617D01*
X127251Y156556D01*
X127342Y156493D01*
X127431Y156426D01*
X127517Y156356D01*
X127600Y156283D01*
X127682Y156208D01*
X127760Y156130D01*
X127835Y156048D01*
X127908Y155965D01*
X127978Y155879D01*
X128045Y155790D01*
X128108Y155699D01*
X128169Y155606D01*
X128226Y155512D01*
X128279Y155415D01*
X128330Y155316D01*
X128377Y155215D01*
X128420Y155113D01*
X128460Y155010D01*
X128496Y154905D01*
X128528Y154799D01*
X128557Y154692D01*
X128582Y154584D01*
X128603Y154475D01*
X128620Y154366D01*
X128634Y154256D01*
X128643Y154145D01*
X128649Y154035D01*
X128651Y153924D01*
X128651Y150749D01*
X128651Y154559D02*
X133731Y157099D01*
X124841Y162096D02*
X122301Y165271D01*
X133731Y165271D01*
X133731Y162096D02*
X133731Y168446D01*
D13*
X254000Y96520D02*
X254000Y93980D01*
D11*
X241681Y74549D02*
X230251Y74549D01*
X230251Y77724D01*
X230253Y77835D01*
X230259Y77945D01*
X230268Y78056D01*
X230282Y78166D01*
X230299Y78275D01*
X230320Y78384D01*
X230345Y78492D01*
X230374Y78599D01*
X230406Y78705D01*
X230442Y78810D01*
X230482Y78913D01*
X230525Y79015D01*
X230572Y79116D01*
X230623Y79215D01*
X230676Y79311D01*
X230733Y79406D01*
X230794Y79499D01*
X230857Y79590D01*
X230924Y79679D01*
X230994Y79765D01*
X231067Y79848D01*
X231142Y79930D01*
X231220Y80008D01*
X231302Y80083D01*
X231385Y80156D01*
X231471Y80226D01*
X231560Y80293D01*
X231651Y80356D01*
X231744Y80417D01*
X231839Y80474D01*
X231935Y80527D01*
X232034Y80578D01*
X232135Y80625D01*
X232237Y80668D01*
X232340Y80708D01*
X232445Y80744D01*
X232551Y80776D01*
X232658Y80805D01*
X232766Y80830D01*
X232875Y80851D01*
X232984Y80868D01*
X233094Y80882D01*
X233205Y80891D01*
X233315Y80897D01*
X233426Y80899D01*
X233537Y80897D01*
X233647Y80891D01*
X233758Y80882D01*
X233868Y80868D01*
X233977Y80851D01*
X234086Y80830D01*
X234194Y80805D01*
X234301Y80776D01*
X234407Y80744D01*
X234512Y80708D01*
X234615Y80668D01*
X234717Y80625D01*
X234818Y80578D01*
X234917Y80527D01*
X235014Y80474D01*
X235108Y80417D01*
X235201Y80356D01*
X235292Y80293D01*
X235381Y80226D01*
X235467Y80156D01*
X235550Y80083D01*
X235632Y80008D01*
X235710Y79930D01*
X235785Y79848D01*
X235858Y79765D01*
X235928Y79679D01*
X235995Y79590D01*
X236058Y79499D01*
X236119Y79406D01*
X236176Y79312D01*
X236229Y79215D01*
X236280Y79116D01*
X236327Y79015D01*
X236370Y78913D01*
X236410Y78810D01*
X236446Y78705D01*
X236478Y78599D01*
X236507Y78492D01*
X236532Y78384D01*
X236553Y78275D01*
X236570Y78166D01*
X236584Y78056D01*
X236593Y77945D01*
X236599Y77835D01*
X236601Y77724D01*
X236601Y74549D01*
X236601Y78359D02*
X241681Y80899D01*
X241681Y85896D02*
X241681Y89706D01*
X241679Y89806D01*
X241673Y89905D01*
X241663Y90005D01*
X241650Y90103D01*
X241632Y90202D01*
X241611Y90299D01*
X241586Y90395D01*
X241557Y90491D01*
X241524Y90585D01*
X241488Y90678D01*
X241448Y90769D01*
X241404Y90859D01*
X241357Y90947D01*
X241307Y91033D01*
X241253Y91117D01*
X241196Y91199D01*
X241136Y91278D01*
X241072Y91356D01*
X241006Y91430D01*
X240937Y91502D01*
X240865Y91571D01*
X240791Y91637D01*
X240713Y91701D01*
X240634Y91761D01*
X240552Y91818D01*
X240468Y91872D01*
X240382Y91922D01*
X240294Y91969D01*
X240204Y92013D01*
X240113Y92053D01*
X240020Y92089D01*
X239926Y92122D01*
X239830Y92151D01*
X239734Y92176D01*
X239637Y92197D01*
X239538Y92215D01*
X239440Y92228D01*
X239340Y92238D01*
X239241Y92244D01*
X239141Y92246D01*
X237871Y92246D01*
X237771Y92244D01*
X237672Y92238D01*
X237572Y92228D01*
X237474Y92215D01*
X237375Y92197D01*
X237278Y92176D01*
X237182Y92151D01*
X237086Y92122D01*
X236992Y92089D01*
X236899Y92053D01*
X236808Y92013D01*
X236718Y91969D01*
X236630Y91922D01*
X236544Y91872D01*
X236460Y91818D01*
X236378Y91761D01*
X236299Y91701D01*
X236221Y91637D01*
X236147Y91571D01*
X236075Y91502D01*
X236006Y91430D01*
X235940Y91356D01*
X235876Y91278D01*
X235816Y91199D01*
X235759Y91117D01*
X235705Y91033D01*
X235655Y90947D01*
X235608Y90859D01*
X235564Y90769D01*
X235524Y90678D01*
X235488Y90585D01*
X235455Y90491D01*
X235426Y90395D01*
X235401Y90299D01*
X235380Y90202D01*
X235362Y90103D01*
X235349Y90005D01*
X235339Y89905D01*
X235333Y89806D01*
X235331Y89706D01*
X235331Y85896D01*
X230251Y85896D01*
X230251Y92246D01*
D13*
X139700Y71120D02*
X139700Y68580D01*
D11*
X152019Y72854D02*
X163449Y72854D01*
X152019Y72854D02*
X152019Y76029D01*
X152021Y76140D01*
X152027Y76250D01*
X152036Y76361D01*
X152050Y76471D01*
X152067Y76580D01*
X152088Y76689D01*
X152113Y76797D01*
X152142Y76904D01*
X152174Y77010D01*
X152210Y77115D01*
X152250Y77218D01*
X152293Y77320D01*
X152340Y77421D01*
X152391Y77520D01*
X152444Y77616D01*
X152501Y77711D01*
X152562Y77804D01*
X152625Y77895D01*
X152692Y77984D01*
X152762Y78070D01*
X152835Y78153D01*
X152910Y78235D01*
X152988Y78313D01*
X153070Y78388D01*
X153153Y78461D01*
X153239Y78531D01*
X153328Y78598D01*
X153419Y78661D01*
X153512Y78722D01*
X153607Y78779D01*
X153703Y78832D01*
X153802Y78883D01*
X153903Y78930D01*
X154005Y78973D01*
X154108Y79013D01*
X154213Y79049D01*
X154319Y79081D01*
X154426Y79110D01*
X154534Y79135D01*
X154643Y79156D01*
X154752Y79173D01*
X154862Y79187D01*
X154973Y79196D01*
X155083Y79202D01*
X155194Y79204D01*
X155305Y79202D01*
X155415Y79196D01*
X155526Y79187D01*
X155636Y79173D01*
X155745Y79156D01*
X155854Y79135D01*
X155962Y79110D01*
X156069Y79081D01*
X156175Y79049D01*
X156280Y79013D01*
X156383Y78973D01*
X156485Y78930D01*
X156586Y78883D01*
X156685Y78832D01*
X156782Y78779D01*
X156876Y78722D01*
X156969Y78661D01*
X157060Y78598D01*
X157149Y78531D01*
X157235Y78461D01*
X157318Y78388D01*
X157400Y78313D01*
X157478Y78235D01*
X157553Y78153D01*
X157626Y78070D01*
X157696Y77984D01*
X157763Y77895D01*
X157826Y77804D01*
X157887Y77711D01*
X157944Y77617D01*
X157997Y77520D01*
X158048Y77421D01*
X158095Y77320D01*
X158138Y77218D01*
X158178Y77115D01*
X158214Y77010D01*
X158246Y76904D01*
X158275Y76797D01*
X158300Y76689D01*
X158321Y76580D01*
X158338Y76471D01*
X158352Y76361D01*
X158361Y76250D01*
X158367Y76140D01*
X158369Y76029D01*
X158369Y72854D01*
X158369Y76664D02*
X163449Y79204D01*
X163449Y84201D02*
X163449Y87376D01*
X163447Y87487D01*
X163441Y87597D01*
X163432Y87708D01*
X163418Y87818D01*
X163401Y87927D01*
X163380Y88036D01*
X163355Y88144D01*
X163326Y88251D01*
X163294Y88357D01*
X163258Y88462D01*
X163218Y88565D01*
X163175Y88667D01*
X163128Y88768D01*
X163077Y88867D01*
X163024Y88964D01*
X162967Y89058D01*
X162906Y89151D01*
X162843Y89242D01*
X162776Y89331D01*
X162706Y89417D01*
X162633Y89500D01*
X162558Y89582D01*
X162480Y89660D01*
X162398Y89735D01*
X162315Y89808D01*
X162229Y89878D01*
X162140Y89945D01*
X162049Y90008D01*
X161956Y90069D01*
X161862Y90126D01*
X161765Y90179D01*
X161666Y90230D01*
X161565Y90277D01*
X161463Y90320D01*
X161360Y90360D01*
X161255Y90396D01*
X161149Y90428D01*
X161042Y90457D01*
X160934Y90482D01*
X160825Y90503D01*
X160716Y90520D01*
X160606Y90534D01*
X160495Y90543D01*
X160385Y90549D01*
X160274Y90551D01*
X160163Y90549D01*
X160053Y90543D01*
X159942Y90534D01*
X159832Y90520D01*
X159723Y90503D01*
X159614Y90482D01*
X159506Y90457D01*
X159399Y90428D01*
X159293Y90396D01*
X159188Y90360D01*
X159085Y90320D01*
X158983Y90277D01*
X158882Y90230D01*
X158783Y90179D01*
X158687Y90126D01*
X158592Y90069D01*
X158499Y90008D01*
X158408Y89945D01*
X158319Y89878D01*
X158233Y89808D01*
X158150Y89735D01*
X158068Y89660D01*
X157990Y89582D01*
X157915Y89500D01*
X157842Y89417D01*
X157772Y89331D01*
X157705Y89242D01*
X157642Y89151D01*
X157581Y89058D01*
X157524Y88963D01*
X157471Y88867D01*
X157420Y88768D01*
X157373Y88667D01*
X157330Y88565D01*
X157290Y88462D01*
X157254Y88357D01*
X157222Y88251D01*
X157193Y88144D01*
X157168Y88036D01*
X157147Y87927D01*
X157130Y87818D01*
X157116Y87708D01*
X157107Y87597D01*
X157101Y87487D01*
X157099Y87376D01*
X152019Y88011D02*
X152019Y84201D01*
X152019Y88011D02*
X152021Y88111D01*
X152027Y88210D01*
X152037Y88310D01*
X152050Y88408D01*
X152068Y88507D01*
X152089Y88604D01*
X152114Y88700D01*
X152143Y88796D01*
X152176Y88890D01*
X152212Y88983D01*
X152252Y89074D01*
X152296Y89164D01*
X152343Y89252D01*
X152393Y89338D01*
X152447Y89422D01*
X152504Y89504D01*
X152564Y89583D01*
X152628Y89661D01*
X152694Y89735D01*
X152763Y89807D01*
X152835Y89876D01*
X152909Y89942D01*
X152987Y90006D01*
X153066Y90066D01*
X153148Y90123D01*
X153232Y90177D01*
X153318Y90227D01*
X153406Y90274D01*
X153496Y90318D01*
X153587Y90358D01*
X153680Y90394D01*
X153774Y90427D01*
X153870Y90456D01*
X153966Y90481D01*
X154063Y90502D01*
X154162Y90520D01*
X154260Y90533D01*
X154360Y90543D01*
X154459Y90549D01*
X154559Y90551D01*
X154659Y90549D01*
X154758Y90543D01*
X154858Y90533D01*
X154956Y90520D01*
X155055Y90502D01*
X155152Y90481D01*
X155248Y90456D01*
X155344Y90427D01*
X155438Y90394D01*
X155531Y90358D01*
X155622Y90318D01*
X155712Y90274D01*
X155800Y90227D01*
X155886Y90177D01*
X155970Y90123D01*
X156052Y90066D01*
X156131Y90006D01*
X156209Y89942D01*
X156283Y89876D01*
X156355Y89807D01*
X156424Y89735D01*
X156490Y89661D01*
X156554Y89583D01*
X156614Y89504D01*
X156671Y89422D01*
X156725Y89338D01*
X156775Y89252D01*
X156822Y89164D01*
X156866Y89074D01*
X156906Y88983D01*
X156942Y88890D01*
X156975Y88796D01*
X157004Y88700D01*
X157029Y88604D01*
X157050Y88507D01*
X157068Y88408D01*
X157081Y88310D01*
X157091Y88210D01*
X157097Y88111D01*
X157099Y88011D01*
X157099Y85471D01*
D13*
X176530Y57150D02*
X179070Y57150D01*
D11*
X180804Y44831D02*
X180804Y33401D01*
X180804Y44831D02*
X183979Y44831D01*
X184090Y44829D01*
X184200Y44823D01*
X184311Y44814D01*
X184421Y44800D01*
X184530Y44783D01*
X184639Y44762D01*
X184747Y44737D01*
X184854Y44708D01*
X184960Y44676D01*
X185065Y44640D01*
X185168Y44600D01*
X185270Y44557D01*
X185371Y44510D01*
X185470Y44459D01*
X185567Y44406D01*
X185661Y44349D01*
X185754Y44288D01*
X185845Y44225D01*
X185934Y44158D01*
X186020Y44088D01*
X186103Y44015D01*
X186185Y43940D01*
X186263Y43862D01*
X186338Y43780D01*
X186411Y43697D01*
X186481Y43611D01*
X186548Y43522D01*
X186611Y43431D01*
X186672Y43338D01*
X186729Y43243D01*
X186782Y43147D01*
X186833Y43048D01*
X186880Y42947D01*
X186923Y42845D01*
X186963Y42742D01*
X186999Y42637D01*
X187031Y42531D01*
X187060Y42424D01*
X187085Y42316D01*
X187106Y42207D01*
X187123Y42098D01*
X187137Y41988D01*
X187146Y41877D01*
X187152Y41767D01*
X187154Y41656D01*
X187152Y41545D01*
X187146Y41435D01*
X187137Y41324D01*
X187123Y41214D01*
X187106Y41105D01*
X187085Y40996D01*
X187060Y40888D01*
X187031Y40781D01*
X186999Y40675D01*
X186963Y40570D01*
X186923Y40467D01*
X186880Y40365D01*
X186833Y40264D01*
X186782Y40165D01*
X186729Y40068D01*
X186672Y39974D01*
X186611Y39881D01*
X186548Y39790D01*
X186481Y39701D01*
X186411Y39615D01*
X186338Y39532D01*
X186263Y39450D01*
X186185Y39372D01*
X186103Y39297D01*
X186020Y39224D01*
X185934Y39154D01*
X185845Y39087D01*
X185754Y39024D01*
X185661Y38963D01*
X185566Y38906D01*
X185470Y38853D01*
X185371Y38802D01*
X185270Y38755D01*
X185168Y38712D01*
X185065Y38672D01*
X184960Y38636D01*
X184854Y38604D01*
X184747Y38575D01*
X184639Y38550D01*
X184530Y38529D01*
X184421Y38512D01*
X184311Y38498D01*
X184200Y38489D01*
X184090Y38483D01*
X183979Y38481D01*
X180804Y38481D01*
X184614Y38481D02*
X187154Y33401D01*
X192151Y35941D02*
X194691Y44831D01*
X192151Y35941D02*
X198501Y35941D01*
X196596Y38481D02*
X196596Y33401D01*
D10*
X179324Y83058D02*
X227076Y83058D01*
X227076Y85852D01*
X227076Y183642D02*
X179324Y183642D01*
X179324Y180848D01*
X179324Y85852D02*
X179324Y83058D01*
X227076Y180848D02*
X227076Y183642D01*
D14*
X170653Y183078D02*
X170653Y187057D01*
X170653Y183078D02*
X172974Y180093D01*
X170653Y183078D02*
X168331Y180093D01*
X170653Y183078D02*
X174300Y184404D01*
X170653Y183078D02*
X167005Y184404D01*
X170815Y139319D02*
X170815Y130697D01*
X170817Y130583D01*
X170823Y130468D01*
X170833Y130354D01*
X170847Y130241D01*
X170864Y130127D01*
X170886Y130015D01*
X170911Y129903D01*
X170941Y129793D01*
X170974Y129683D01*
X171011Y129575D01*
X171051Y129468D01*
X171096Y129362D01*
X171143Y129258D01*
X171195Y129156D01*
X171250Y129056D01*
X171308Y128957D01*
X171370Y128861D01*
X171435Y128766D01*
X171503Y128675D01*
X171575Y128585D01*
X171649Y128498D01*
X171726Y128414D01*
X171807Y128332D01*
X171890Y128253D01*
X171975Y128177D01*
X172064Y128104D01*
X172154Y128035D01*
X172247Y127968D01*
X172343Y127905D01*
X172440Y127845D01*
X172540Y127788D01*
X172641Y127735D01*
X172744Y127685D01*
X172849Y127639D01*
X172955Y127596D01*
X173063Y127558D01*
X173172Y127523D01*
X173282Y127492D01*
X173393Y127464D01*
X173505Y127441D01*
X173618Y127421D01*
X173731Y127405D01*
X173845Y127393D01*
X173959Y127385D01*
X174074Y127381D01*
X174188Y127381D01*
X174303Y127385D01*
X174417Y127393D01*
X174531Y127405D01*
X174644Y127421D01*
X174757Y127441D01*
X174869Y127464D01*
X174980Y127492D01*
X175090Y127523D01*
X175199Y127558D01*
X175307Y127596D01*
X175413Y127639D01*
X175518Y127685D01*
X175621Y127735D01*
X175722Y127788D01*
X175822Y127845D01*
X175919Y127905D01*
X176015Y127968D01*
X176108Y128035D01*
X176198Y128104D01*
X176287Y128177D01*
X176372Y128253D01*
X176455Y128332D01*
X176536Y128414D01*
X176613Y128498D01*
X176687Y128585D01*
X176759Y128675D01*
X176827Y128766D01*
X176892Y128861D01*
X176954Y128957D01*
X177012Y129056D01*
X177067Y129156D01*
X177119Y129258D01*
X177166Y129362D01*
X177211Y129468D01*
X177251Y129575D01*
X177288Y129683D01*
X177321Y129793D01*
X177351Y129903D01*
X177376Y130015D01*
X177398Y130127D01*
X177415Y130241D01*
X177429Y130354D01*
X177439Y130468D01*
X177445Y130583D01*
X177447Y130697D01*
X177447Y139319D01*
X182626Y136666D02*
X185942Y139319D01*
X185942Y127381D01*
X182626Y127381D02*
X189258Y127381D01*
D10*
X317500Y76200D02*
X317500Y63500D01*
X311150Y57150D01*
X298450Y57150D01*
X292100Y63500D01*
X311150Y57150D02*
X317500Y50800D01*
X317500Y38100D01*
X311150Y31750D01*
X298450Y31750D01*
X292100Y38100D01*
X292100Y50800D01*
X298450Y57150D01*
X317500Y101600D02*
X311150Y107950D01*
X317500Y101600D02*
X317500Y88900D01*
X311150Y82550D01*
X298450Y82550D01*
X292100Y88900D01*
X292100Y101600D01*
X298450Y107950D01*
X311150Y82550D02*
X317500Y76200D01*
X298450Y82550D02*
X292100Y76200D01*
X292100Y63500D01*
X317500Y139700D02*
X317500Y152400D01*
X317500Y139700D02*
X311150Y133350D01*
X298450Y133350D01*
X292100Y139700D01*
X311150Y133350D02*
X317500Y127000D01*
X317500Y114300D01*
X311150Y107950D01*
X298450Y107950D01*
X292100Y114300D01*
X292100Y127000D01*
X298450Y133350D01*
X298450Y158750D02*
X311150Y158750D01*
X317500Y152400D01*
X298450Y158750D02*
X292100Y152400D01*
X292100Y139700D01*
X317500Y25400D02*
X317500Y12700D01*
X311150Y6350D01*
X298450Y6350D01*
X292100Y12700D01*
X311150Y31750D02*
X317500Y25400D01*
X298450Y31750D02*
X292100Y25400D01*
X292100Y12700D01*
D11*
X323723Y135688D02*
X332613Y135688D01*
X332713Y135686D01*
X332812Y135680D01*
X332912Y135670D01*
X333010Y135657D01*
X333109Y135639D01*
X333206Y135618D01*
X333302Y135593D01*
X333398Y135564D01*
X333492Y135531D01*
X333585Y135495D01*
X333676Y135455D01*
X333766Y135411D01*
X333854Y135364D01*
X333940Y135314D01*
X334024Y135260D01*
X334106Y135203D01*
X334185Y135143D01*
X334263Y135079D01*
X334337Y135013D01*
X334409Y134944D01*
X334478Y134872D01*
X334544Y134798D01*
X334608Y134720D01*
X334668Y134641D01*
X334725Y134559D01*
X334779Y134475D01*
X334829Y134389D01*
X334876Y134301D01*
X334920Y134211D01*
X334960Y134120D01*
X334996Y134027D01*
X335029Y133933D01*
X335058Y133837D01*
X335083Y133741D01*
X335104Y133644D01*
X335122Y133545D01*
X335135Y133447D01*
X335145Y133347D01*
X335151Y133248D01*
X335153Y133148D01*
X335153Y131878D01*
X335153Y141669D02*
X323723Y141669D01*
X323723Y144844D01*
X323725Y144955D01*
X323731Y145065D01*
X323740Y145176D01*
X323754Y145286D01*
X323771Y145395D01*
X323792Y145504D01*
X323817Y145612D01*
X323846Y145719D01*
X323878Y145825D01*
X323914Y145930D01*
X323954Y146033D01*
X323997Y146135D01*
X324044Y146236D01*
X324095Y146335D01*
X324148Y146432D01*
X324205Y146526D01*
X324266Y146619D01*
X324329Y146710D01*
X324396Y146799D01*
X324466Y146885D01*
X324539Y146968D01*
X324614Y147050D01*
X324692Y147128D01*
X324774Y147203D01*
X324857Y147276D01*
X324943Y147346D01*
X325032Y147413D01*
X325123Y147476D01*
X325216Y147537D01*
X325311Y147594D01*
X325407Y147647D01*
X325506Y147698D01*
X325607Y147745D01*
X325709Y147788D01*
X325812Y147828D01*
X325917Y147864D01*
X326023Y147896D01*
X326130Y147925D01*
X326238Y147950D01*
X326347Y147971D01*
X326456Y147988D01*
X326566Y148002D01*
X326677Y148011D01*
X326787Y148017D01*
X326898Y148019D01*
X327009Y148017D01*
X327119Y148011D01*
X327230Y148002D01*
X327340Y147988D01*
X327449Y147971D01*
X327558Y147950D01*
X327666Y147925D01*
X327773Y147896D01*
X327879Y147864D01*
X327984Y147828D01*
X328087Y147788D01*
X328189Y147745D01*
X328290Y147698D01*
X328389Y147647D01*
X328486Y147594D01*
X328580Y147537D01*
X328673Y147476D01*
X328764Y147413D01*
X328853Y147346D01*
X328939Y147276D01*
X329022Y147203D01*
X329104Y147128D01*
X329182Y147050D01*
X329257Y146968D01*
X329330Y146885D01*
X329400Y146799D01*
X329467Y146710D01*
X329530Y146619D01*
X329591Y146526D01*
X329648Y146432D01*
X329701Y146335D01*
X329752Y146236D01*
X329799Y146135D01*
X329842Y146033D01*
X329882Y145930D01*
X329918Y145825D01*
X329950Y145719D01*
X329979Y145612D01*
X330004Y145504D01*
X330025Y145395D01*
X330042Y145286D01*
X330056Y145176D01*
X330065Y145065D01*
X330071Y144955D01*
X330073Y144844D01*
X330073Y141669D01*
X326263Y152527D02*
X323723Y155702D01*
X335153Y155702D01*
X335153Y152527D02*
X335153Y158877D01*
D10*
X12700Y101600D02*
X12700Y88900D01*
X12700Y101600D02*
X19050Y107950D01*
X31750Y107950D01*
X38100Y101600D01*
X19050Y107950D02*
X12700Y114300D01*
X12700Y127000D01*
X19050Y133350D01*
X31750Y133350D01*
X38100Y127000D01*
X38100Y114300D01*
X31750Y107950D01*
X12700Y63500D02*
X19050Y57150D01*
X12700Y63500D02*
X12700Y76200D01*
X19050Y82550D01*
X31750Y82550D01*
X38100Y76200D01*
X38100Y63500D01*
X31750Y57150D01*
X19050Y82550D02*
X12700Y88900D01*
X31750Y82550D02*
X38100Y88900D01*
X38100Y101600D01*
X12700Y25400D02*
X12700Y12700D01*
X12700Y25400D02*
X19050Y31750D01*
X31750Y31750D01*
X38100Y25400D01*
X19050Y31750D02*
X12700Y38100D01*
X12700Y50800D01*
X19050Y57150D01*
X31750Y57150D01*
X38100Y50800D01*
X38100Y38100D01*
X31750Y31750D01*
X31750Y6350D02*
X19050Y6350D01*
X12700Y12700D01*
X31750Y6350D02*
X38100Y12700D01*
X38100Y25400D01*
X12700Y139700D02*
X12700Y152400D01*
X19050Y158750D01*
X31750Y158750D01*
X38100Y152400D01*
X19050Y133350D02*
X12700Y139700D01*
X31750Y133350D02*
X38100Y139700D01*
X38100Y152400D01*
D11*
X3937Y10033D02*
X-4953Y10033D01*
X3937Y10033D02*
X4037Y10031D01*
X4136Y10025D01*
X4236Y10015D01*
X4334Y10002D01*
X4433Y9984D01*
X4530Y9963D01*
X4626Y9938D01*
X4722Y9909D01*
X4816Y9876D01*
X4909Y9840D01*
X5000Y9800D01*
X5090Y9756D01*
X5178Y9709D01*
X5264Y9659D01*
X5348Y9605D01*
X5430Y9548D01*
X5509Y9488D01*
X5587Y9424D01*
X5661Y9358D01*
X5733Y9289D01*
X5802Y9217D01*
X5868Y9143D01*
X5932Y9065D01*
X5992Y8986D01*
X6049Y8904D01*
X6103Y8820D01*
X6153Y8734D01*
X6200Y8646D01*
X6244Y8556D01*
X6284Y8465D01*
X6320Y8372D01*
X6353Y8278D01*
X6382Y8182D01*
X6407Y8086D01*
X6428Y7989D01*
X6446Y7890D01*
X6459Y7792D01*
X6469Y7692D01*
X6475Y7593D01*
X6477Y7493D01*
X6477Y6223D01*
X6477Y16013D02*
X-4953Y16013D01*
X-4953Y19188D01*
X-4951Y19299D01*
X-4945Y19409D01*
X-4936Y19520D01*
X-4922Y19630D01*
X-4905Y19739D01*
X-4884Y19848D01*
X-4859Y19956D01*
X-4830Y20063D01*
X-4798Y20169D01*
X-4762Y20274D01*
X-4722Y20377D01*
X-4679Y20479D01*
X-4632Y20580D01*
X-4581Y20679D01*
X-4528Y20775D01*
X-4471Y20870D01*
X-4410Y20963D01*
X-4347Y21054D01*
X-4280Y21143D01*
X-4210Y21229D01*
X-4137Y21312D01*
X-4062Y21394D01*
X-3984Y21472D01*
X-3902Y21547D01*
X-3819Y21620D01*
X-3733Y21690D01*
X-3644Y21757D01*
X-3553Y21820D01*
X-3460Y21881D01*
X-3366Y21938D01*
X-3269Y21991D01*
X-3170Y22042D01*
X-3069Y22089D01*
X-2967Y22132D01*
X-2864Y22172D01*
X-2759Y22208D01*
X-2653Y22240D01*
X-2546Y22269D01*
X-2438Y22294D01*
X-2329Y22315D01*
X-2220Y22332D01*
X-2110Y22346D01*
X-1999Y22355D01*
X-1889Y22361D01*
X-1778Y22363D01*
X-1667Y22361D01*
X-1557Y22355D01*
X-1446Y22346D01*
X-1336Y22332D01*
X-1227Y22315D01*
X-1118Y22294D01*
X-1010Y22269D01*
X-903Y22240D01*
X-797Y22208D01*
X-692Y22172D01*
X-589Y22132D01*
X-487Y22089D01*
X-386Y22042D01*
X-287Y21991D01*
X-191Y21938D01*
X-96Y21881D01*
X-3Y21820D01*
X88Y21757D01*
X177Y21690D01*
X263Y21620D01*
X346Y21547D01*
X428Y21472D01*
X506Y21394D01*
X581Y21312D01*
X654Y21229D01*
X724Y21143D01*
X791Y21054D01*
X854Y20963D01*
X915Y20870D01*
X972Y20776D01*
X1025Y20679D01*
X1076Y20580D01*
X1123Y20479D01*
X1166Y20377D01*
X1206Y20274D01*
X1242Y20169D01*
X1274Y20063D01*
X1303Y19956D01*
X1328Y19848D01*
X1349Y19739D01*
X1366Y19630D01*
X1380Y19520D01*
X1389Y19409D01*
X1395Y19299D01*
X1397Y19188D01*
X1397Y16013D01*
X-4954Y30364D02*
X-4952Y30468D01*
X-4946Y30573D01*
X-4937Y30677D01*
X-4924Y30780D01*
X-4906Y30883D01*
X-4886Y30985D01*
X-4861Y31087D01*
X-4833Y31187D01*
X-4801Y31287D01*
X-4765Y31385D01*
X-4726Y31482D01*
X-4684Y31577D01*
X-4638Y31671D01*
X-4588Y31763D01*
X-4536Y31853D01*
X-4480Y31941D01*
X-4420Y32027D01*
X-4358Y32111D01*
X-4293Y32192D01*
X-4225Y32271D01*
X-4153Y32348D01*
X-4080Y32421D01*
X-4003Y32493D01*
X-3924Y32561D01*
X-3843Y32626D01*
X-3759Y32688D01*
X-3673Y32748D01*
X-3585Y32804D01*
X-3495Y32856D01*
X-3403Y32906D01*
X-3309Y32952D01*
X-3214Y32994D01*
X-3117Y33033D01*
X-3019Y33069D01*
X-2919Y33101D01*
X-2819Y33129D01*
X-2717Y33154D01*
X-2615Y33174D01*
X-2512Y33192D01*
X-2409Y33205D01*
X-2305Y33214D01*
X-2200Y33220D01*
X-2096Y33222D01*
X-4953Y30364D02*
X-4951Y30246D01*
X-4945Y30127D01*
X-4936Y30009D01*
X-4923Y29892D01*
X-4905Y29775D01*
X-4885Y29658D01*
X-4860Y29542D01*
X-4832Y29427D01*
X-4799Y29314D01*
X-4764Y29201D01*
X-4724Y29089D01*
X-4682Y28979D01*
X-4635Y28870D01*
X-4585Y28762D01*
X-4532Y28657D01*
X-4475Y28553D01*
X-4415Y28451D01*
X-4352Y28351D01*
X-4285Y28253D01*
X-4216Y28157D01*
X-4143Y28064D01*
X-4067Y27973D01*
X-3989Y27884D01*
X-3907Y27798D01*
X-3823Y27715D01*
X-3737Y27634D01*
X-3647Y27557D01*
X-3556Y27482D01*
X-3462Y27410D01*
X-3365Y27341D01*
X-3267Y27276D01*
X-3166Y27213D01*
X-3063Y27154D01*
X-2959Y27098D01*
X-2853Y27046D01*
X-2745Y26997D01*
X-2636Y26952D01*
X-2525Y26910D01*
X-2413Y26872D01*
X126Y32270D02*
X51Y32346D01*
X-28Y32421D01*
X-109Y32492D01*
X-193Y32561D01*
X-279Y32626D01*
X-367Y32688D01*
X-457Y32748D01*
X-549Y32804D01*
X-644Y32857D01*
X-740Y32906D01*
X-838Y32952D01*
X-937Y32995D01*
X-1038Y33034D01*
X-1140Y33069D01*
X-1243Y33101D01*
X-1347Y33129D01*
X-1452Y33154D01*
X-1559Y33175D01*
X-1665Y33192D01*
X-1772Y33205D01*
X-1880Y33214D01*
X-1988Y33220D01*
X-2096Y33222D01*
X127Y32269D02*
X6477Y26872D01*
X6477Y33222D01*
D15*
X126492Y58689D02*
X126492Y61286D01*
X126492Y58689D02*
X126490Y58590D01*
X126484Y58490D01*
X126475Y58391D01*
X126462Y58293D01*
X126445Y58195D01*
X126424Y58097D01*
X126399Y58001D01*
X126371Y57906D01*
X126339Y57812D01*
X126304Y57719D01*
X126265Y57627D01*
X126222Y57537D01*
X126177Y57449D01*
X126127Y57362D01*
X126075Y57278D01*
X126019Y57195D01*
X125961Y57115D01*
X125899Y57037D01*
X125834Y56962D01*
X125766Y56889D01*
X125696Y56819D01*
X125623Y56751D01*
X125548Y56686D01*
X125470Y56624D01*
X125390Y56566D01*
X125307Y56510D01*
X125223Y56458D01*
X125136Y56408D01*
X125048Y56363D01*
X124958Y56320D01*
X124866Y56281D01*
X124773Y56246D01*
X124679Y56214D01*
X124584Y56186D01*
X124488Y56161D01*
X124390Y56140D01*
X124292Y56123D01*
X124194Y56110D01*
X124095Y56101D01*
X123995Y56095D01*
X123896Y56093D01*
X117404Y56093D01*
X117404Y56092D02*
X117305Y56094D01*
X117205Y56100D01*
X117106Y56109D01*
X117008Y56122D01*
X116910Y56140D01*
X116812Y56160D01*
X116716Y56185D01*
X116620Y56213D01*
X116526Y56245D01*
X116433Y56280D01*
X116342Y56319D01*
X116252Y56362D01*
X116163Y56407D01*
X116077Y56457D01*
X115992Y56509D01*
X115910Y56565D01*
X115830Y56624D01*
X115752Y56685D01*
X115676Y56750D01*
X115603Y56818D01*
X115533Y56888D01*
X115465Y56961D01*
X115400Y57037D01*
X115339Y57115D01*
X115280Y57195D01*
X115224Y57277D01*
X115172Y57362D01*
X115123Y57448D01*
X115077Y57537D01*
X115034Y57627D01*
X114995Y57718D01*
X114960Y57811D01*
X114928Y57905D01*
X114900Y58001D01*
X114875Y58097D01*
X114855Y58195D01*
X114837Y58293D01*
X114824Y58391D01*
X114815Y58490D01*
X114809Y58589D01*
X114807Y58689D01*
X114808Y58689D02*
X114808Y61286D01*
X123896Y71760D02*
X123995Y71758D01*
X124095Y71752D01*
X124194Y71743D01*
X124292Y71730D01*
X124390Y71713D01*
X124488Y71692D01*
X124584Y71667D01*
X124679Y71639D01*
X124773Y71607D01*
X124866Y71572D01*
X124958Y71533D01*
X125048Y71490D01*
X125136Y71445D01*
X125223Y71395D01*
X125307Y71343D01*
X125390Y71287D01*
X125470Y71229D01*
X125548Y71167D01*
X125623Y71102D01*
X125696Y71034D01*
X125766Y70964D01*
X125834Y70891D01*
X125899Y70816D01*
X125961Y70738D01*
X126019Y70658D01*
X126075Y70575D01*
X126127Y70491D01*
X126177Y70404D01*
X126222Y70316D01*
X126265Y70226D01*
X126304Y70134D01*
X126339Y70041D01*
X126371Y69947D01*
X126399Y69852D01*
X126424Y69756D01*
X126445Y69658D01*
X126462Y69560D01*
X126475Y69462D01*
X126484Y69363D01*
X126490Y69263D01*
X126492Y69164D01*
X126490Y69020D01*
X126484Y68875D01*
X126475Y68731D01*
X126462Y68588D01*
X126445Y68444D01*
X126424Y68301D01*
X126399Y68159D01*
X126371Y68018D01*
X126339Y67877D01*
X126303Y67737D01*
X126264Y67598D01*
X126221Y67460D01*
X126174Y67324D01*
X126124Y67188D01*
X126070Y67054D01*
X126013Y66922D01*
X125952Y66791D01*
X125888Y66662D01*
X125820Y66534D01*
X125750Y66408D01*
X125675Y66284D01*
X125598Y66163D01*
X125517Y66043D01*
X125434Y65925D01*
X125347Y65810D01*
X125257Y65697D01*
X125164Y65586D01*
X125069Y65478D01*
X124970Y65372D01*
X124869Y65269D01*
X117404Y65595D02*
X117305Y65597D01*
X117205Y65603D01*
X117106Y65612D01*
X117008Y65625D01*
X116910Y65642D01*
X116812Y65663D01*
X116716Y65688D01*
X116621Y65716D01*
X116527Y65748D01*
X116434Y65783D01*
X116342Y65822D01*
X116252Y65865D01*
X116164Y65910D01*
X116077Y65960D01*
X115993Y66012D01*
X115910Y66068D01*
X115830Y66126D01*
X115752Y66188D01*
X115677Y66253D01*
X115604Y66321D01*
X115534Y66391D01*
X115466Y66464D01*
X115401Y66539D01*
X115339Y66617D01*
X115281Y66697D01*
X115225Y66780D01*
X115173Y66864D01*
X115123Y66951D01*
X115078Y67039D01*
X115035Y67129D01*
X114996Y67221D01*
X114961Y67314D01*
X114929Y67408D01*
X114901Y67503D01*
X114876Y67599D01*
X114855Y67697D01*
X114838Y67795D01*
X114825Y67893D01*
X114816Y67992D01*
X114810Y68092D01*
X114808Y68191D01*
X114810Y68327D01*
X114816Y68463D01*
X114825Y68599D01*
X114838Y68735D01*
X114856Y68870D01*
X114876Y69004D01*
X114901Y69138D01*
X114929Y69272D01*
X114962Y69404D01*
X114997Y69535D01*
X115037Y69666D01*
X115080Y69795D01*
X115126Y69923D01*
X115177Y70049D01*
X115230Y70175D01*
X115288Y70298D01*
X115348Y70420D01*
X115412Y70540D01*
X115480Y70659D01*
X115550Y70775D01*
X115624Y70889D01*
X115701Y71002D01*
X115782Y71112D01*
X119676Y66892D02*
X119623Y66806D01*
X119566Y66722D01*
X119507Y66640D01*
X119444Y66560D01*
X119378Y66483D01*
X119310Y66408D01*
X119238Y66336D01*
X119164Y66267D01*
X119087Y66201D01*
X119008Y66138D01*
X118926Y66078D01*
X118842Y66021D01*
X118756Y65967D01*
X118668Y65917D01*
X118578Y65870D01*
X118487Y65826D01*
X118393Y65787D01*
X118299Y65750D01*
X118203Y65718D01*
X118105Y65689D01*
X118007Y65664D01*
X117908Y65643D01*
X117808Y65625D01*
X117708Y65612D01*
X117607Y65602D01*
X117505Y65596D01*
X117404Y65594D01*
X121624Y70463D02*
X121677Y70549D01*
X121734Y70633D01*
X121793Y70715D01*
X121856Y70795D01*
X121922Y70872D01*
X121990Y70947D01*
X122062Y71019D01*
X122136Y71088D01*
X122213Y71154D01*
X122292Y71217D01*
X122374Y71277D01*
X122458Y71334D01*
X122544Y71388D01*
X122632Y71438D01*
X122722Y71485D01*
X122813Y71529D01*
X122907Y71568D01*
X123001Y71605D01*
X123097Y71637D01*
X123195Y71666D01*
X123293Y71691D01*
X123392Y71712D01*
X123492Y71730D01*
X123592Y71743D01*
X123693Y71753D01*
X123795Y71759D01*
X123896Y71761D01*
X121624Y70463D02*
X119676Y66893D01*
X114808Y76773D02*
X126492Y76773D01*
X114808Y76773D02*
X114808Y80019D01*
X114810Y80132D01*
X114816Y80245D01*
X114826Y80358D01*
X114840Y80471D01*
X114857Y80583D01*
X114879Y80694D01*
X114904Y80804D01*
X114934Y80914D01*
X114967Y81022D01*
X115004Y81129D01*
X115044Y81235D01*
X115089Y81339D01*
X115137Y81442D01*
X115188Y81543D01*
X115243Y81642D01*
X115301Y81739D01*
X115363Y81834D01*
X115428Y81927D01*
X115496Y82017D01*
X115567Y82105D01*
X115642Y82191D01*
X115719Y82274D01*
X115799Y82354D01*
X115882Y82431D01*
X115968Y82506D01*
X116056Y82577D01*
X116146Y82645D01*
X116239Y82710D01*
X116334Y82772D01*
X116431Y82830D01*
X116530Y82885D01*
X116631Y82936D01*
X116734Y82984D01*
X116838Y83029D01*
X116944Y83069D01*
X117051Y83106D01*
X117159Y83139D01*
X117269Y83169D01*
X117379Y83194D01*
X117490Y83216D01*
X117602Y83233D01*
X117715Y83247D01*
X117828Y83257D01*
X117941Y83263D01*
X118054Y83265D01*
X118167Y83263D01*
X118280Y83257D01*
X118393Y83247D01*
X118506Y83233D01*
X118618Y83216D01*
X118729Y83194D01*
X118839Y83169D01*
X118949Y83139D01*
X119057Y83106D01*
X119164Y83069D01*
X119270Y83029D01*
X119374Y82984D01*
X119477Y82936D01*
X119578Y82885D01*
X119677Y82830D01*
X119774Y82772D01*
X119869Y82710D01*
X119962Y82645D01*
X120052Y82577D01*
X120140Y82506D01*
X120226Y82431D01*
X120309Y82354D01*
X120389Y82274D01*
X120466Y82191D01*
X120541Y82105D01*
X120612Y82017D01*
X120680Y81927D01*
X120745Y81834D01*
X120807Y81739D01*
X120865Y81642D01*
X120920Y81543D01*
X120971Y81442D01*
X121019Y81339D01*
X121064Y81235D01*
X121104Y81129D01*
X121141Y81022D01*
X121174Y80914D01*
X121204Y80804D01*
X121229Y80694D01*
X121251Y80583D01*
X121268Y80471D01*
X121282Y80358D01*
X121292Y80245D01*
X121298Y80132D01*
X121300Y80019D01*
X121299Y80019D02*
X121299Y76773D01*
X121299Y80668D02*
X126492Y83265D01*
X117729Y94621D02*
X117622Y94619D01*
X117516Y94613D01*
X117410Y94603D01*
X117304Y94590D01*
X117198Y94572D01*
X117094Y94551D01*
X116990Y94526D01*
X116887Y94497D01*
X116786Y94465D01*
X116686Y94428D01*
X116587Y94388D01*
X116489Y94345D01*
X116393Y94298D01*
X116299Y94247D01*
X116207Y94193D01*
X116117Y94136D01*
X116029Y94076D01*
X115944Y94012D01*
X115861Y93945D01*
X115780Y93875D01*
X115702Y93803D01*
X115626Y93727D01*
X115554Y93649D01*
X115484Y93568D01*
X115417Y93485D01*
X115353Y93400D01*
X115293Y93312D01*
X115236Y93222D01*
X115182Y93130D01*
X115131Y93036D01*
X115084Y92940D01*
X115041Y92842D01*
X115001Y92743D01*
X114964Y92643D01*
X114932Y92542D01*
X114903Y92439D01*
X114878Y92335D01*
X114857Y92231D01*
X114839Y92125D01*
X114826Y92019D01*
X114816Y91913D01*
X114810Y91807D01*
X114808Y91700D01*
X114810Y91579D01*
X114816Y91458D01*
X114826Y91338D01*
X114839Y91217D01*
X114857Y91098D01*
X114878Y90978D01*
X114903Y90860D01*
X114932Y90743D01*
X114965Y90626D01*
X115001Y90511D01*
X115042Y90397D01*
X115085Y90284D01*
X115133Y90172D01*
X115184Y90063D01*
X115239Y89955D01*
X115297Y89848D01*
X115358Y89744D01*
X115423Y89642D01*
X115491Y89542D01*
X115562Y89444D01*
X115636Y89348D01*
X115713Y89255D01*
X115794Y89165D01*
X115877Y89077D01*
X115963Y88992D01*
X116052Y88909D01*
X116143Y88830D01*
X116237Y88753D01*
X116333Y88680D01*
X116431Y88610D01*
X116532Y88543D01*
X116635Y88479D01*
X116740Y88419D01*
X116847Y88361D01*
X116955Y88308D01*
X117065Y88258D01*
X117177Y88212D01*
X117290Y88169D01*
X117405Y88130D01*
X120001Y93646D02*
X119923Y93725D01*
X119843Y93801D01*
X119760Y93874D01*
X119674Y93944D01*
X119587Y94011D01*
X119496Y94075D01*
X119404Y94135D01*
X119310Y94193D01*
X119213Y94247D01*
X119115Y94297D01*
X119015Y94344D01*
X118914Y94388D01*
X118811Y94428D01*
X118706Y94464D01*
X118601Y94496D01*
X118494Y94525D01*
X118387Y94550D01*
X118278Y94572D01*
X118169Y94589D01*
X118060Y94603D01*
X117950Y94612D01*
X117839Y94618D01*
X117729Y94620D01*
X120001Y93647D02*
X126492Y88130D01*
X126492Y94621D01*
X126492Y99560D02*
X126492Y103454D01*
X126490Y103553D01*
X126484Y103653D01*
X126475Y103752D01*
X126462Y103850D01*
X126445Y103948D01*
X126424Y104046D01*
X126399Y104142D01*
X126371Y104237D01*
X126339Y104331D01*
X126304Y104424D01*
X126265Y104516D01*
X126222Y104606D01*
X126177Y104694D01*
X126127Y104781D01*
X126075Y104865D01*
X126019Y104948D01*
X125961Y105028D01*
X125899Y105106D01*
X125834Y105181D01*
X125766Y105254D01*
X125696Y105324D01*
X125623Y105392D01*
X125548Y105457D01*
X125470Y105519D01*
X125390Y105577D01*
X125307Y105633D01*
X125223Y105685D01*
X125136Y105735D01*
X125048Y105780D01*
X124958Y105823D01*
X124866Y105862D01*
X124773Y105897D01*
X124679Y105929D01*
X124584Y105957D01*
X124488Y105982D01*
X124390Y106003D01*
X124292Y106020D01*
X124194Y106033D01*
X124095Y106042D01*
X123995Y106048D01*
X123896Y106050D01*
X123896Y106051D02*
X122597Y106051D01*
X122597Y106050D02*
X122498Y106048D01*
X122398Y106042D01*
X122299Y106033D01*
X122201Y106020D01*
X122103Y106003D01*
X122005Y105982D01*
X121909Y105957D01*
X121814Y105929D01*
X121720Y105897D01*
X121627Y105862D01*
X121535Y105823D01*
X121445Y105780D01*
X121357Y105735D01*
X121270Y105685D01*
X121186Y105633D01*
X121103Y105577D01*
X121023Y105519D01*
X120945Y105457D01*
X120870Y105392D01*
X120797Y105324D01*
X120727Y105254D01*
X120659Y105181D01*
X120594Y105106D01*
X120532Y105028D01*
X120474Y104948D01*
X120418Y104865D01*
X120366Y104781D01*
X120316Y104694D01*
X120271Y104606D01*
X120228Y104516D01*
X120189Y104424D01*
X120154Y104331D01*
X120122Y104237D01*
X120094Y104142D01*
X120069Y104046D01*
X120048Y103948D01*
X120031Y103850D01*
X120018Y103752D01*
X120009Y103653D01*
X120003Y103553D01*
X120001Y103454D01*
X120001Y99560D01*
X114808Y99560D01*
X114808Y106051D01*
X117404Y110990D02*
X114808Y114235D01*
X126492Y114235D01*
X126492Y110990D02*
X126492Y117481D01*
X117729Y128911D02*
X117622Y128909D01*
X117516Y128903D01*
X117410Y128893D01*
X117304Y128880D01*
X117198Y128862D01*
X117094Y128841D01*
X116990Y128816D01*
X116887Y128787D01*
X116786Y128755D01*
X116686Y128718D01*
X116587Y128678D01*
X116489Y128635D01*
X116393Y128588D01*
X116299Y128537D01*
X116207Y128483D01*
X116117Y128426D01*
X116029Y128366D01*
X115944Y128302D01*
X115861Y128235D01*
X115780Y128165D01*
X115702Y128093D01*
X115626Y128017D01*
X115554Y127939D01*
X115484Y127858D01*
X115417Y127775D01*
X115353Y127690D01*
X115293Y127602D01*
X115236Y127512D01*
X115182Y127420D01*
X115131Y127326D01*
X115084Y127230D01*
X115041Y127132D01*
X115001Y127033D01*
X114964Y126933D01*
X114932Y126832D01*
X114903Y126729D01*
X114878Y126625D01*
X114857Y126521D01*
X114839Y126415D01*
X114826Y126309D01*
X114816Y126203D01*
X114810Y126097D01*
X114808Y125990D01*
X114810Y125869D01*
X114816Y125748D01*
X114826Y125628D01*
X114839Y125507D01*
X114857Y125388D01*
X114878Y125268D01*
X114903Y125150D01*
X114932Y125033D01*
X114965Y124916D01*
X115001Y124801D01*
X115042Y124687D01*
X115085Y124574D01*
X115133Y124462D01*
X115184Y124353D01*
X115239Y124245D01*
X115297Y124138D01*
X115358Y124034D01*
X115423Y123932D01*
X115491Y123832D01*
X115562Y123734D01*
X115636Y123638D01*
X115713Y123545D01*
X115794Y123455D01*
X115877Y123367D01*
X115963Y123282D01*
X116052Y123199D01*
X116143Y123120D01*
X116237Y123043D01*
X116333Y122970D01*
X116431Y122900D01*
X116532Y122833D01*
X116635Y122769D01*
X116740Y122709D01*
X116847Y122651D01*
X116955Y122598D01*
X117065Y122548D01*
X117177Y122502D01*
X117290Y122459D01*
X117405Y122420D01*
X120001Y127936D02*
X119923Y128015D01*
X119843Y128091D01*
X119760Y128164D01*
X119674Y128234D01*
X119587Y128301D01*
X119496Y128365D01*
X119404Y128425D01*
X119310Y128483D01*
X119213Y128537D01*
X119115Y128587D01*
X119015Y128634D01*
X118914Y128678D01*
X118811Y128718D01*
X118706Y128754D01*
X118601Y128786D01*
X118494Y128815D01*
X118387Y128840D01*
X118278Y128862D01*
X118169Y128879D01*
X118060Y128893D01*
X117950Y128902D01*
X117839Y128908D01*
X117729Y128910D01*
X120001Y127937D02*
X126492Y122420D01*
X126492Y128911D01*
X126492Y136413D02*
X126492Y139009D01*
X126492Y136413D02*
X126490Y136314D01*
X126484Y136214D01*
X126475Y136115D01*
X126462Y136017D01*
X126445Y135919D01*
X126424Y135821D01*
X126399Y135725D01*
X126371Y135630D01*
X126339Y135536D01*
X126304Y135443D01*
X126265Y135351D01*
X126222Y135261D01*
X126177Y135173D01*
X126127Y135086D01*
X126075Y135002D01*
X126019Y134919D01*
X125961Y134839D01*
X125899Y134761D01*
X125834Y134686D01*
X125766Y134613D01*
X125696Y134543D01*
X125623Y134475D01*
X125548Y134410D01*
X125470Y134348D01*
X125390Y134290D01*
X125307Y134234D01*
X125223Y134182D01*
X125136Y134132D01*
X125048Y134087D01*
X124958Y134044D01*
X124866Y134005D01*
X124773Y133970D01*
X124679Y133938D01*
X124584Y133910D01*
X124488Y133885D01*
X124390Y133864D01*
X124292Y133847D01*
X124194Y133834D01*
X124095Y133825D01*
X123995Y133819D01*
X123896Y133817D01*
X123896Y133816D02*
X117404Y133816D01*
X117305Y133818D01*
X117205Y133824D01*
X117106Y133833D01*
X117008Y133846D01*
X116910Y133864D01*
X116812Y133884D01*
X116716Y133909D01*
X116620Y133937D01*
X116526Y133969D01*
X116433Y134004D01*
X116342Y134043D01*
X116252Y134086D01*
X116163Y134131D01*
X116077Y134181D01*
X115992Y134233D01*
X115910Y134289D01*
X115830Y134348D01*
X115752Y134409D01*
X115676Y134474D01*
X115603Y134542D01*
X115533Y134612D01*
X115465Y134685D01*
X115400Y134761D01*
X115339Y134839D01*
X115280Y134919D01*
X115224Y135001D01*
X115172Y135086D01*
X115123Y135172D01*
X115077Y135261D01*
X115034Y135351D01*
X114995Y135442D01*
X114960Y135535D01*
X114928Y135629D01*
X114900Y135725D01*
X114875Y135821D01*
X114855Y135919D01*
X114837Y136017D01*
X114824Y136115D01*
X114815Y136214D01*
X114809Y136313D01*
X114807Y136413D01*
X114808Y136413D02*
X114808Y139009D01*
X116431Y144348D02*
X116638Y144249D01*
X116849Y144156D01*
X117061Y144068D01*
X117275Y143985D01*
X117491Y143907D01*
X117709Y143834D01*
X117929Y143766D01*
X118150Y143704D01*
X118373Y143647D01*
X118597Y143595D01*
X118822Y143549D01*
X119048Y143508D01*
X119275Y143473D01*
X119503Y143443D01*
X119732Y143418D01*
X119961Y143399D01*
X120190Y143385D01*
X120420Y143377D01*
X120650Y143374D01*
X116431Y144348D02*
X116341Y144381D01*
X116252Y144417D01*
X116164Y144457D01*
X116079Y144501D01*
X115995Y144548D01*
X115913Y144598D01*
X115833Y144652D01*
X115756Y144708D01*
X115680Y144768D01*
X115607Y144831D01*
X115537Y144896D01*
X115469Y144965D01*
X115405Y145036D01*
X115343Y145109D01*
X115284Y145185D01*
X115228Y145263D01*
X115175Y145344D01*
X115126Y145426D01*
X115080Y145510D01*
X115037Y145597D01*
X114998Y145684D01*
X114962Y145774D01*
X114930Y145864D01*
X114902Y145956D01*
X114877Y146049D01*
X114856Y146143D01*
X114839Y146237D01*
X114825Y146332D01*
X114816Y146428D01*
X114810Y146524D01*
X114808Y146620D01*
X114810Y146716D01*
X114816Y146812D01*
X114825Y146908D01*
X114839Y147003D01*
X114856Y147097D01*
X114877Y147191D01*
X114902Y147284D01*
X114930Y147376D01*
X114962Y147466D01*
X114998Y147556D01*
X115037Y147644D01*
X115080Y147730D01*
X115126Y147814D01*
X115175Y147896D01*
X115228Y147977D01*
X115284Y148055D01*
X115343Y148131D01*
X115405Y148204D01*
X115469Y148275D01*
X115537Y148344D01*
X115607Y148409D01*
X115680Y148472D01*
X115756Y148532D01*
X115833Y148588D01*
X115913Y148642D01*
X115995Y148692D01*
X116079Y148739D01*
X116164Y148783D01*
X116252Y148823D01*
X116341Y148859D01*
X116431Y148892D01*
X116638Y148991D01*
X116849Y149084D01*
X117061Y149172D01*
X117275Y149255D01*
X117491Y149333D01*
X117709Y149406D01*
X117929Y149474D01*
X118150Y149536D01*
X118373Y149593D01*
X118597Y149645D01*
X118822Y149691D01*
X119048Y149732D01*
X119275Y149767D01*
X119503Y149797D01*
X119732Y149822D01*
X119961Y149841D01*
X120190Y149855D01*
X120420Y149863D01*
X120650Y149866D01*
X120650Y143374D02*
X120880Y143377D01*
X121110Y143385D01*
X121339Y143399D01*
X121568Y143418D01*
X121797Y143443D01*
X122025Y143473D01*
X122252Y143508D01*
X122478Y143549D01*
X122703Y143595D01*
X122927Y143647D01*
X123150Y143704D01*
X123371Y143766D01*
X123591Y143834D01*
X123809Y143907D01*
X124025Y143985D01*
X124239Y144068D01*
X124451Y144156D01*
X124662Y144249D01*
X124869Y144348D01*
X124959Y144381D01*
X125048Y144417D01*
X125136Y144458D01*
X125221Y144501D01*
X125305Y144548D01*
X125387Y144598D01*
X125467Y144652D01*
X125544Y144708D01*
X125620Y144768D01*
X125693Y144831D01*
X125763Y144896D01*
X125831Y144965D01*
X125895Y145036D01*
X125957Y145109D01*
X126016Y145185D01*
X126072Y145263D01*
X126125Y145344D01*
X126174Y145426D01*
X126220Y145510D01*
X126263Y145597D01*
X126302Y145684D01*
X126338Y145774D01*
X126370Y145864D01*
X126398Y145956D01*
X126423Y146049D01*
X126444Y146143D01*
X126461Y146237D01*
X126475Y146332D01*
X126484Y146428D01*
X126490Y146524D01*
X126492Y146620D01*
X124869Y148892D02*
X124662Y148991D01*
X124451Y149084D01*
X124239Y149172D01*
X124025Y149255D01*
X123809Y149333D01*
X123591Y149406D01*
X123371Y149474D01*
X123150Y149536D01*
X122927Y149593D01*
X122703Y149645D01*
X122478Y149691D01*
X122252Y149732D01*
X122025Y149767D01*
X121797Y149797D01*
X121568Y149822D01*
X121339Y149841D01*
X121110Y149855D01*
X120880Y149863D01*
X120650Y149866D01*
X124869Y148892D02*
X124959Y148859D01*
X125048Y148823D01*
X125136Y148783D01*
X125221Y148739D01*
X125305Y148692D01*
X125387Y148642D01*
X125467Y148588D01*
X125544Y148532D01*
X125620Y148472D01*
X125693Y148409D01*
X125763Y148344D01*
X125831Y148275D01*
X125895Y148204D01*
X125957Y148131D01*
X126016Y148055D01*
X126072Y147977D01*
X126125Y147896D01*
X126174Y147814D01*
X126220Y147730D01*
X126263Y147643D01*
X126302Y147556D01*
X126338Y147466D01*
X126370Y147376D01*
X126398Y147284D01*
X126423Y147191D01*
X126444Y147097D01*
X126461Y147003D01*
X126475Y146908D01*
X126484Y146812D01*
X126490Y146716D01*
X126492Y146620D01*
X123896Y144024D02*
X117404Y149217D01*
X114808Y155259D02*
X126492Y155259D01*
X114808Y155259D02*
X114808Y158505D01*
X114810Y158618D01*
X114816Y158731D01*
X114826Y158844D01*
X114840Y158957D01*
X114857Y159069D01*
X114879Y159180D01*
X114904Y159290D01*
X114934Y159400D01*
X114967Y159508D01*
X115004Y159615D01*
X115044Y159721D01*
X115089Y159825D01*
X115137Y159928D01*
X115188Y160029D01*
X115243Y160128D01*
X115301Y160225D01*
X115363Y160320D01*
X115428Y160413D01*
X115496Y160503D01*
X115567Y160591D01*
X115642Y160677D01*
X115719Y160760D01*
X115799Y160840D01*
X115882Y160917D01*
X115968Y160992D01*
X116056Y161063D01*
X116146Y161131D01*
X116239Y161196D01*
X116334Y161258D01*
X116431Y161316D01*
X116530Y161371D01*
X116631Y161422D01*
X116734Y161470D01*
X116838Y161515D01*
X116944Y161555D01*
X117051Y161592D01*
X117159Y161625D01*
X117269Y161655D01*
X117379Y161680D01*
X117490Y161702D01*
X117602Y161719D01*
X117715Y161733D01*
X117828Y161743D01*
X117941Y161749D01*
X118054Y161751D01*
X118167Y161749D01*
X118280Y161743D01*
X118393Y161733D01*
X118506Y161719D01*
X118618Y161702D01*
X118729Y161680D01*
X118839Y161655D01*
X118949Y161625D01*
X119057Y161592D01*
X119164Y161555D01*
X119270Y161515D01*
X119374Y161470D01*
X119477Y161422D01*
X119578Y161371D01*
X119677Y161316D01*
X119774Y161258D01*
X119869Y161196D01*
X119962Y161131D01*
X120052Y161063D01*
X120140Y160992D01*
X120226Y160917D01*
X120309Y160840D01*
X120389Y160760D01*
X120466Y160677D01*
X120541Y160591D01*
X120612Y160503D01*
X120680Y160413D01*
X120745Y160320D01*
X120807Y160225D01*
X120865Y160128D01*
X120920Y160029D01*
X120971Y159928D01*
X121019Y159825D01*
X121064Y159721D01*
X121104Y159615D01*
X121141Y159508D01*
X121174Y159400D01*
X121204Y159290D01*
X121229Y159180D01*
X121251Y159069D01*
X121268Y158957D01*
X121282Y158844D01*
X121292Y158731D01*
X121298Y158618D01*
X121300Y158505D01*
X121299Y158505D02*
X121299Y155259D01*
X121299Y159154D02*
X126492Y161750D01*
X117404Y166616D02*
X114808Y169861D01*
X126492Y169861D01*
X126492Y166616D02*
X126492Y173107D01*
X126492Y178449D02*
X114808Y178449D01*
X114808Y183642D01*
X120001Y183642D02*
X120001Y178449D01*
X177292Y166436D02*
X177292Y163839D01*
X177290Y163740D01*
X177284Y163640D01*
X177275Y163541D01*
X177262Y163443D01*
X177245Y163345D01*
X177224Y163247D01*
X177199Y163151D01*
X177171Y163056D01*
X177139Y162962D01*
X177104Y162869D01*
X177065Y162777D01*
X177022Y162687D01*
X176977Y162599D01*
X176927Y162512D01*
X176875Y162428D01*
X176819Y162345D01*
X176761Y162265D01*
X176699Y162187D01*
X176634Y162112D01*
X176566Y162039D01*
X176496Y161969D01*
X176423Y161901D01*
X176348Y161836D01*
X176270Y161774D01*
X176190Y161716D01*
X176107Y161660D01*
X176023Y161608D01*
X175936Y161558D01*
X175848Y161513D01*
X175758Y161470D01*
X175666Y161431D01*
X175573Y161396D01*
X175479Y161364D01*
X175384Y161336D01*
X175288Y161311D01*
X175190Y161290D01*
X175092Y161273D01*
X174994Y161260D01*
X174895Y161251D01*
X174795Y161245D01*
X174696Y161243D01*
X168204Y161243D01*
X168204Y161242D02*
X168105Y161244D01*
X168005Y161250D01*
X167906Y161259D01*
X167808Y161272D01*
X167710Y161290D01*
X167612Y161310D01*
X167516Y161335D01*
X167420Y161363D01*
X167326Y161395D01*
X167233Y161430D01*
X167142Y161469D01*
X167052Y161512D01*
X166963Y161557D01*
X166877Y161607D01*
X166792Y161659D01*
X166710Y161715D01*
X166630Y161774D01*
X166552Y161835D01*
X166476Y161900D01*
X166403Y161968D01*
X166333Y162038D01*
X166265Y162111D01*
X166200Y162187D01*
X166139Y162265D01*
X166080Y162345D01*
X166024Y162427D01*
X165972Y162512D01*
X165923Y162598D01*
X165877Y162687D01*
X165834Y162777D01*
X165795Y162868D01*
X165760Y162961D01*
X165728Y163055D01*
X165700Y163151D01*
X165675Y163247D01*
X165655Y163345D01*
X165637Y163443D01*
X165624Y163541D01*
X165615Y163640D01*
X165609Y163739D01*
X165607Y163839D01*
X165608Y163839D02*
X165608Y166436D01*
X165608Y174371D02*
X165610Y174478D01*
X165616Y174584D01*
X165626Y174690D01*
X165639Y174796D01*
X165657Y174902D01*
X165678Y175006D01*
X165703Y175110D01*
X165732Y175213D01*
X165764Y175314D01*
X165801Y175414D01*
X165841Y175513D01*
X165884Y175611D01*
X165931Y175707D01*
X165982Y175801D01*
X166036Y175893D01*
X166093Y175983D01*
X166153Y176071D01*
X166217Y176156D01*
X166284Y176239D01*
X166354Y176320D01*
X166426Y176398D01*
X166502Y176474D01*
X166580Y176546D01*
X166661Y176616D01*
X166744Y176683D01*
X166829Y176747D01*
X166917Y176807D01*
X167007Y176864D01*
X167099Y176918D01*
X167193Y176969D01*
X167289Y177016D01*
X167387Y177059D01*
X167486Y177099D01*
X167586Y177136D01*
X167687Y177168D01*
X167790Y177197D01*
X167894Y177222D01*
X167998Y177243D01*
X168104Y177261D01*
X168210Y177274D01*
X168316Y177284D01*
X168422Y177290D01*
X168529Y177292D01*
X165608Y174371D02*
X165610Y174250D01*
X165616Y174129D01*
X165626Y174009D01*
X165639Y173888D01*
X165657Y173769D01*
X165678Y173649D01*
X165703Y173531D01*
X165732Y173414D01*
X165765Y173297D01*
X165801Y173182D01*
X165842Y173068D01*
X165885Y172955D01*
X165933Y172843D01*
X165984Y172734D01*
X166039Y172626D01*
X166097Y172519D01*
X166158Y172415D01*
X166223Y172313D01*
X166291Y172213D01*
X166362Y172115D01*
X166436Y172019D01*
X166513Y171926D01*
X166594Y171836D01*
X166677Y171748D01*
X166763Y171663D01*
X166852Y171580D01*
X166943Y171501D01*
X167037Y171424D01*
X167133Y171351D01*
X167231Y171281D01*
X167332Y171214D01*
X167435Y171150D01*
X167540Y171090D01*
X167647Y171032D01*
X167755Y170979D01*
X167865Y170929D01*
X167977Y170883D01*
X168090Y170840D01*
X168205Y170801D01*
X170801Y176318D02*
X170723Y176397D01*
X170643Y176473D01*
X170560Y176546D01*
X170474Y176616D01*
X170387Y176683D01*
X170296Y176747D01*
X170204Y176807D01*
X170110Y176865D01*
X170013Y176919D01*
X169915Y176969D01*
X169815Y177016D01*
X169714Y177060D01*
X169611Y177100D01*
X169506Y177136D01*
X169401Y177168D01*
X169294Y177197D01*
X169187Y177222D01*
X169078Y177244D01*
X168969Y177261D01*
X168860Y177275D01*
X168750Y177284D01*
X168639Y177290D01*
X168529Y177292D01*
X170801Y176318D02*
X177292Y170801D01*
X177292Y177292D01*
X177292Y153736D02*
X177292Y151139D01*
X177290Y151040D01*
X177284Y150940D01*
X177275Y150841D01*
X177262Y150743D01*
X177245Y150645D01*
X177224Y150547D01*
X177199Y150451D01*
X177171Y150356D01*
X177139Y150262D01*
X177104Y150169D01*
X177065Y150077D01*
X177022Y149987D01*
X176977Y149899D01*
X176927Y149812D01*
X176875Y149728D01*
X176819Y149645D01*
X176761Y149565D01*
X176699Y149487D01*
X176634Y149412D01*
X176566Y149339D01*
X176496Y149269D01*
X176423Y149201D01*
X176348Y149136D01*
X176270Y149074D01*
X176190Y149016D01*
X176107Y148960D01*
X176023Y148908D01*
X175936Y148858D01*
X175848Y148813D01*
X175758Y148770D01*
X175666Y148731D01*
X175573Y148696D01*
X175479Y148664D01*
X175384Y148636D01*
X175288Y148611D01*
X175190Y148590D01*
X175092Y148573D01*
X174994Y148560D01*
X174895Y148551D01*
X174795Y148545D01*
X174696Y148543D01*
X168204Y148543D01*
X168204Y148542D02*
X168105Y148544D01*
X168005Y148550D01*
X167906Y148559D01*
X167808Y148572D01*
X167710Y148590D01*
X167612Y148610D01*
X167516Y148635D01*
X167420Y148663D01*
X167326Y148695D01*
X167233Y148730D01*
X167142Y148769D01*
X167052Y148812D01*
X166963Y148857D01*
X166877Y148907D01*
X166792Y148959D01*
X166710Y149015D01*
X166630Y149074D01*
X166552Y149135D01*
X166476Y149200D01*
X166403Y149268D01*
X166333Y149338D01*
X166265Y149411D01*
X166200Y149487D01*
X166139Y149565D01*
X166080Y149645D01*
X166024Y149727D01*
X165972Y149812D01*
X165923Y149898D01*
X165877Y149987D01*
X165834Y150077D01*
X165795Y150168D01*
X165760Y150261D01*
X165728Y150355D01*
X165700Y150451D01*
X165675Y150547D01*
X165655Y150645D01*
X165637Y150743D01*
X165624Y150841D01*
X165615Y150940D01*
X165609Y151039D01*
X165607Y151139D01*
X165608Y151139D02*
X165608Y153736D01*
X177292Y158101D02*
X177292Y161996D01*
X177290Y162095D01*
X177284Y162195D01*
X177275Y162294D01*
X177262Y162392D01*
X177245Y162490D01*
X177224Y162588D01*
X177199Y162684D01*
X177171Y162779D01*
X177139Y162873D01*
X177104Y162966D01*
X177065Y163058D01*
X177022Y163148D01*
X176977Y163236D01*
X176927Y163323D01*
X176875Y163407D01*
X176819Y163490D01*
X176761Y163570D01*
X176699Y163648D01*
X176634Y163723D01*
X176566Y163796D01*
X176496Y163866D01*
X176423Y163934D01*
X176348Y163999D01*
X176270Y164061D01*
X176190Y164119D01*
X176107Y164175D01*
X176023Y164227D01*
X175936Y164277D01*
X175848Y164322D01*
X175758Y164365D01*
X175666Y164404D01*
X175573Y164439D01*
X175479Y164471D01*
X175384Y164499D01*
X175288Y164524D01*
X175190Y164545D01*
X175092Y164562D01*
X174994Y164575D01*
X174895Y164584D01*
X174795Y164590D01*
X174696Y164592D01*
X173397Y164592D01*
X173298Y164590D01*
X173198Y164584D01*
X173099Y164575D01*
X173001Y164562D01*
X172903Y164545D01*
X172805Y164524D01*
X172709Y164499D01*
X172614Y164471D01*
X172520Y164439D01*
X172427Y164404D01*
X172335Y164365D01*
X172245Y164322D01*
X172157Y164277D01*
X172070Y164227D01*
X171986Y164175D01*
X171903Y164119D01*
X171823Y164061D01*
X171745Y163999D01*
X171670Y163934D01*
X171597Y163866D01*
X171527Y163796D01*
X171459Y163723D01*
X171394Y163648D01*
X171332Y163570D01*
X171274Y163490D01*
X171218Y163407D01*
X171166Y163323D01*
X171116Y163236D01*
X171071Y163148D01*
X171028Y163058D01*
X170989Y162966D01*
X170954Y162873D01*
X170922Y162779D01*
X170894Y162684D01*
X170869Y162588D01*
X170848Y162490D01*
X170831Y162392D01*
X170818Y162294D01*
X170809Y162195D01*
X170803Y162095D01*
X170801Y161996D01*
X170801Y158101D01*
X165608Y158101D01*
X165608Y164592D01*
M02*
