G04 EAGLE Gerber RS-274X export*
G75*
%MOMM*%
%FSLAX34Y34*%
%LPD*%
%INSoldermask Bottom*%
%IPPOS*%
%AMOC8*
5,1,8,0,0,1.08239X$1,22.5*%
G01*
%ADD10P,1.951982X8X22.500000*%
%ADD11C,1.803400*%
%ADD12P,1.649562X8X202.500000*%
%ADD13P,1.649562X8X22.500000*%
%ADD14P,1.649562X8X292.500000*%
%ADD15P,1.649562X8X112.500000*%
%ADD16C,1.727200*%
%ADD17C,0.959600*%


D10*
X266700Y209550D03*
D11*
X241300Y209550D03*
D12*
X254000Y57150D03*
X228600Y57150D03*
D13*
X177800Y203200D03*
X203200Y203200D03*
D14*
X114300Y82550D03*
X114300Y57150D03*
D15*
X146050Y158750D03*
X146050Y184150D03*
X254000Y82550D03*
X254000Y107950D03*
D14*
X139700Y82550D03*
X139700Y57150D03*
D12*
X190500Y57150D03*
X165100Y57150D03*
D16*
X297180Y146050D02*
X312420Y146050D01*
X312420Y120650D02*
X297180Y120650D01*
X297180Y95250D02*
X312420Y95250D01*
X312420Y69850D02*
X297180Y69850D01*
X297180Y44450D02*
X312420Y44450D01*
X312420Y19050D02*
X297180Y19050D01*
X33020Y19050D02*
X17780Y19050D01*
X17780Y44450D02*
X33020Y44450D01*
X33020Y69850D02*
X17780Y69850D01*
X17780Y95250D02*
X33020Y95250D01*
X33020Y120650D02*
X17780Y120650D01*
X17780Y146050D02*
X33020Y146050D01*
D17*
X120650Y101600D03*
X120650Y139700D03*
X69850Y101600D03*
X69850Y139700D03*
X57150Y146050D03*
X57150Y95250D03*
X245364Y129540D03*
M02*
