G04 EAGLE Gerber RS-274X export*
G75*
%MOMM*%
%FSLAX34Y34*%
%LPD*%
%INSolderpaste Top*%
%IPPOS*%
%AMOC8*
5,1,8,0,0,1.08239X$1,22.5*%
G01*
%ADD10R,1.665200X0.364800*%
%ADD11R,3.100000X5.180000*%
%ADD12R,3.200000X1.800000*%
%ADD13R,0.350000X0.250000*%

G36*
X217702Y147175D02*
X217702Y147175D01*
X217704Y147174D01*
X217747Y147194D01*
X217791Y147212D01*
X217791Y147214D01*
X217793Y147215D01*
X217826Y147300D01*
X217826Y158250D01*
X217825Y158252D01*
X217826Y158254D01*
X217806Y158297D01*
X217788Y158341D01*
X217786Y158341D01*
X217785Y158343D01*
X217700Y158376D01*
X204200Y158376D01*
X204198Y158375D01*
X204196Y158376D01*
X204153Y158356D01*
X204109Y158338D01*
X204109Y158336D01*
X204107Y158335D01*
X204074Y158250D01*
X204074Y147300D01*
X204075Y147298D01*
X204074Y147296D01*
X204094Y147253D01*
X204112Y147209D01*
X204114Y147209D01*
X204115Y147207D01*
X204200Y147174D01*
X217700Y147174D01*
X217702Y147175D01*
G37*
G36*
X202202Y147175D02*
X202202Y147175D01*
X202204Y147174D01*
X202247Y147194D01*
X202291Y147212D01*
X202291Y147214D01*
X202293Y147215D01*
X202326Y147300D01*
X202326Y158250D01*
X202325Y158252D01*
X202326Y158254D01*
X202306Y158297D01*
X202288Y158341D01*
X202286Y158341D01*
X202285Y158343D01*
X202200Y158376D01*
X188700Y158376D01*
X188698Y158375D01*
X188696Y158376D01*
X188653Y158356D01*
X188609Y158338D01*
X188609Y158336D01*
X188607Y158335D01*
X188574Y158250D01*
X188574Y147300D01*
X188575Y147298D01*
X188574Y147296D01*
X188594Y147253D01*
X188612Y147209D01*
X188614Y147209D01*
X188615Y147207D01*
X188700Y147174D01*
X202200Y147174D01*
X202202Y147175D01*
G37*
G36*
X217702Y134225D02*
X217702Y134225D01*
X217704Y134224D01*
X217747Y134244D01*
X217791Y134262D01*
X217791Y134264D01*
X217793Y134265D01*
X217826Y134350D01*
X217826Y145300D01*
X217825Y145302D01*
X217826Y145304D01*
X217806Y145347D01*
X217788Y145391D01*
X217786Y145391D01*
X217785Y145393D01*
X217700Y145426D01*
X204200Y145426D01*
X204198Y145425D01*
X204196Y145426D01*
X204153Y145406D01*
X204109Y145388D01*
X204109Y145386D01*
X204107Y145385D01*
X204074Y145300D01*
X204074Y134350D01*
X204075Y134348D01*
X204074Y134346D01*
X204094Y134303D01*
X204112Y134259D01*
X204114Y134259D01*
X204115Y134257D01*
X204200Y134224D01*
X217700Y134224D01*
X217702Y134225D01*
G37*
G36*
X202202Y134225D02*
X202202Y134225D01*
X202204Y134224D01*
X202247Y134244D01*
X202291Y134262D01*
X202291Y134264D01*
X202293Y134265D01*
X202326Y134350D01*
X202326Y145300D01*
X202325Y145302D01*
X202326Y145304D01*
X202306Y145347D01*
X202288Y145391D01*
X202286Y145391D01*
X202285Y145393D01*
X202200Y145426D01*
X188700Y145426D01*
X188698Y145425D01*
X188696Y145426D01*
X188653Y145406D01*
X188609Y145388D01*
X188609Y145386D01*
X188607Y145385D01*
X188574Y145300D01*
X188574Y134350D01*
X188575Y134348D01*
X188574Y134346D01*
X188594Y134303D01*
X188612Y134259D01*
X188614Y134259D01*
X188615Y134257D01*
X188700Y134224D01*
X202200Y134224D01*
X202202Y134225D01*
G37*
G36*
X217702Y121275D02*
X217702Y121275D01*
X217704Y121274D01*
X217747Y121294D01*
X217791Y121312D01*
X217791Y121314D01*
X217793Y121315D01*
X217826Y121400D01*
X217826Y132350D01*
X217825Y132352D01*
X217826Y132354D01*
X217806Y132397D01*
X217788Y132441D01*
X217786Y132441D01*
X217785Y132443D01*
X217700Y132476D01*
X204200Y132476D01*
X204198Y132475D01*
X204196Y132476D01*
X204153Y132456D01*
X204109Y132438D01*
X204109Y132436D01*
X204107Y132435D01*
X204074Y132350D01*
X204074Y121400D01*
X204075Y121398D01*
X204074Y121396D01*
X204094Y121353D01*
X204112Y121309D01*
X204114Y121309D01*
X204115Y121307D01*
X204200Y121274D01*
X217700Y121274D01*
X217702Y121275D01*
G37*
G36*
X202202Y121275D02*
X202202Y121275D01*
X202204Y121274D01*
X202247Y121294D01*
X202291Y121312D01*
X202291Y121314D01*
X202293Y121315D01*
X202326Y121400D01*
X202326Y132350D01*
X202325Y132352D01*
X202326Y132354D01*
X202306Y132397D01*
X202288Y132441D01*
X202286Y132441D01*
X202285Y132443D01*
X202200Y132476D01*
X188700Y132476D01*
X188698Y132475D01*
X188696Y132476D01*
X188653Y132456D01*
X188609Y132438D01*
X188609Y132436D01*
X188607Y132435D01*
X188574Y132350D01*
X188574Y121400D01*
X188575Y121398D01*
X188574Y121396D01*
X188594Y121353D01*
X188612Y121309D01*
X188614Y121309D01*
X188615Y121307D01*
X188700Y121274D01*
X202200Y121274D01*
X202202Y121275D01*
G37*
G36*
X217702Y108325D02*
X217702Y108325D01*
X217704Y108324D01*
X217747Y108344D01*
X217791Y108362D01*
X217791Y108364D01*
X217793Y108365D01*
X217826Y108450D01*
X217826Y119400D01*
X217825Y119402D01*
X217826Y119404D01*
X217806Y119447D01*
X217788Y119491D01*
X217786Y119491D01*
X217785Y119493D01*
X217700Y119526D01*
X204200Y119526D01*
X204198Y119525D01*
X204196Y119526D01*
X204153Y119506D01*
X204109Y119488D01*
X204109Y119486D01*
X204107Y119485D01*
X204074Y119400D01*
X204074Y108450D01*
X204075Y108448D01*
X204074Y108446D01*
X204094Y108403D01*
X204112Y108359D01*
X204114Y108359D01*
X204115Y108357D01*
X204200Y108324D01*
X217700Y108324D01*
X217702Y108325D01*
G37*
G36*
X202202Y108325D02*
X202202Y108325D01*
X202204Y108324D01*
X202247Y108344D01*
X202291Y108362D01*
X202291Y108364D01*
X202293Y108365D01*
X202326Y108450D01*
X202326Y119400D01*
X202325Y119402D01*
X202326Y119404D01*
X202306Y119447D01*
X202288Y119491D01*
X202286Y119491D01*
X202285Y119493D01*
X202200Y119526D01*
X188700Y119526D01*
X188698Y119525D01*
X188696Y119526D01*
X188653Y119506D01*
X188609Y119488D01*
X188609Y119486D01*
X188607Y119485D01*
X188574Y119400D01*
X188574Y108450D01*
X188575Y108448D01*
X188574Y108446D01*
X188594Y108403D01*
X188612Y108359D01*
X188614Y108359D01*
X188615Y108357D01*
X188700Y108324D01*
X202200Y108324D01*
X202202Y108325D01*
G37*
D10*
X175006Y175601D03*
X175006Y169101D03*
X175006Y162601D03*
X175006Y156100D03*
X175006Y149600D03*
X175006Y143100D03*
X175006Y136600D03*
X175006Y130100D03*
X175006Y123600D03*
X175006Y117100D03*
X175006Y110600D03*
X175006Y104100D03*
X175006Y97599D03*
X175006Y91099D03*
X231394Y91099D03*
X231394Y97599D03*
X231394Y104100D03*
X231394Y110600D03*
X231394Y117100D03*
X231394Y123600D03*
X231394Y130100D03*
X231394Y136600D03*
X231394Y143100D03*
X231394Y149600D03*
X231394Y156100D03*
X231394Y162601D03*
X231394Y169101D03*
X231394Y175601D03*
D11*
X203200Y133350D03*
D12*
X95250Y186750D03*
X95250Y130750D03*
D13*
X158750Y173950D03*
X158750Y168950D03*
X158750Y161250D03*
X158750Y156250D03*
M02*
