G04 EAGLE Gerber RS-274X export*
G75*
%MOMM*%
%FSLAX34Y34*%
%LPD*%
%INBottom Copper*%
%IPPOS*%
%AMOC8*
5,1,8,0,0,1.08239X$1,22.5*%
G01*
%ADD10C,1.524000*%
%ADD11C,1.108000*%
%ADD12C,1.705100*%
%ADD13R,1.300000X1.500000*%
%ADD14C,0.756400*%
%ADD15C,0.304800*%
%ADD16C,0.254000*%

G36*
X647678Y-15223D02*
X647678Y-15223D01*
X647810Y-15212D01*
X647836Y-15203D01*
X647862Y-15199D01*
X647985Y-15151D01*
X648111Y-15107D01*
X648133Y-15092D01*
X648158Y-15082D01*
X648265Y-15005D01*
X648376Y-14931D01*
X648394Y-14911D01*
X648415Y-14896D01*
X648500Y-14793D01*
X648589Y-14695D01*
X648601Y-14671D01*
X648618Y-14651D01*
X648675Y-14531D01*
X648736Y-14414D01*
X648742Y-14387D01*
X648754Y-14363D01*
X648779Y-14233D01*
X648809Y-14104D01*
X648809Y-14077D01*
X648814Y-14051D01*
X648805Y-13919D01*
X648803Y-13786D01*
X648796Y-13760D01*
X648794Y-13733D01*
X648753Y-13607D01*
X648718Y-13480D01*
X648701Y-13445D01*
X648696Y-13431D01*
X648684Y-13412D01*
X648646Y-13335D01*
X646554Y-9712D01*
X644839Y-3312D01*
X644839Y3312D01*
X646554Y9712D01*
X649882Y15477D01*
X649907Y15535D01*
X649940Y15589D01*
X649968Y15681D01*
X650006Y15770D01*
X650015Y15833D01*
X650034Y15893D01*
X650038Y15989D01*
X650052Y16085D01*
X650046Y16148D01*
X650049Y16210D01*
X650029Y16305D01*
X650019Y16401D01*
X649997Y16460D01*
X649984Y16522D01*
X649942Y16609D01*
X649908Y16699D01*
X649872Y16751D01*
X649845Y16808D01*
X649782Y16881D01*
X649727Y16960D01*
X649679Y17002D01*
X649638Y17050D01*
X649559Y17105D01*
X649486Y17168D01*
X649430Y17196D01*
X649378Y17233D01*
X649288Y17267D01*
X649202Y17310D01*
X649140Y17323D01*
X649081Y17345D01*
X648985Y17356D01*
X648891Y17376D01*
X648828Y17374D01*
X648765Y17381D01*
X648669Y17367D01*
X648573Y17363D01*
X648512Y17345D01*
X648450Y17336D01*
X648298Y17284D01*
X644544Y15729D01*
X625456Y15729D01*
X621902Y17202D01*
X619182Y19922D01*
X617709Y23476D01*
X617709Y27324D01*
X619182Y30878D01*
X621902Y33598D01*
X625456Y35071D01*
X644544Y35071D01*
X648098Y33598D01*
X650818Y30878D01*
X652291Y27324D01*
X652291Y23476D01*
X650771Y19807D01*
X650752Y19739D01*
X650725Y19675D01*
X650710Y19586D01*
X650687Y19500D01*
X650686Y19430D01*
X650675Y19361D01*
X650683Y19272D01*
X650682Y19182D01*
X650698Y19114D01*
X650705Y19045D01*
X650735Y18960D01*
X650756Y18873D01*
X650789Y18811D01*
X650812Y18745D01*
X650863Y18671D01*
X650905Y18592D01*
X650952Y18540D01*
X650991Y18482D01*
X651058Y18423D01*
X651119Y18356D01*
X651177Y18318D01*
X651229Y18272D01*
X651309Y18231D01*
X651384Y18182D01*
X651450Y18159D01*
X651512Y18127D01*
X651600Y18107D01*
X651685Y18078D01*
X651755Y18073D01*
X651823Y18057D01*
X651912Y18060D01*
X652002Y18053D01*
X652071Y18065D01*
X652141Y18067D01*
X652227Y18092D01*
X652315Y18107D01*
X652379Y18136D01*
X652446Y18156D01*
X652523Y18201D01*
X652605Y18238D01*
X652660Y18282D01*
X652720Y18317D01*
X652841Y18423D01*
X654551Y20134D01*
X660288Y23446D01*
X666688Y25161D01*
X673312Y25161D01*
X679712Y23446D01*
X685449Y20134D01*
X686173Y19410D01*
X686282Y19325D01*
X686389Y19236D01*
X686408Y19228D01*
X686424Y19215D01*
X686552Y19160D01*
X686677Y19101D01*
X686697Y19097D01*
X686716Y19089D01*
X686854Y19067D01*
X686990Y19041D01*
X687010Y19042D01*
X687030Y19039D01*
X687169Y19052D01*
X687307Y19061D01*
X687326Y19067D01*
X687346Y19069D01*
X687477Y19116D01*
X687609Y19159D01*
X687627Y19170D01*
X687646Y19176D01*
X687760Y19254D01*
X687878Y19329D01*
X687892Y19344D01*
X687909Y19355D01*
X688001Y19459D01*
X688096Y19560D01*
X688106Y19578D01*
X688119Y19593D01*
X688182Y19717D01*
X688250Y19839D01*
X688255Y19859D01*
X688264Y19877D01*
X688294Y20013D01*
X688329Y20147D01*
X688331Y20175D01*
X688334Y20187D01*
X688333Y20207D01*
X688339Y20308D01*
X688339Y470570D01*
X688324Y470688D01*
X688317Y470807D01*
X688304Y470845D01*
X688299Y470886D01*
X688256Y470996D01*
X688219Y471109D01*
X688197Y471144D01*
X688182Y471181D01*
X688113Y471277D01*
X688049Y471378D01*
X688019Y471406D01*
X687996Y471439D01*
X687904Y471515D01*
X687817Y471596D01*
X687782Y471616D01*
X687751Y471641D01*
X687643Y471692D01*
X687539Y471750D01*
X687499Y471760D01*
X687463Y471777D01*
X687346Y471799D01*
X687231Y471829D01*
X687171Y471833D01*
X687151Y471837D01*
X687130Y471835D01*
X687070Y471839D01*
X676808Y471839D01*
X676670Y471822D01*
X676531Y471809D01*
X676512Y471802D01*
X676492Y471799D01*
X676363Y471748D01*
X676232Y471701D01*
X676215Y471690D01*
X676196Y471682D01*
X676084Y471601D01*
X675969Y471523D01*
X675955Y471507D01*
X675939Y471496D01*
X675850Y471388D01*
X675758Y471284D01*
X675749Y471266D01*
X675736Y471251D01*
X675677Y471125D01*
X675614Y471001D01*
X675609Y470981D01*
X675601Y470963D01*
X675575Y470827D01*
X675544Y470691D01*
X675545Y470670D01*
X675541Y470651D01*
X675550Y470512D01*
X675554Y470373D01*
X675559Y470353D01*
X675561Y470333D01*
X675603Y470201D01*
X675642Y470067D01*
X675652Y470050D01*
X675659Y470031D01*
X675733Y469913D01*
X675804Y469793D01*
X675822Y469772D01*
X675829Y469762D01*
X675844Y469748D01*
X675910Y469673D01*
X680134Y465449D01*
X683446Y459712D01*
X685161Y453312D01*
X685161Y446688D01*
X683446Y440288D01*
X680134Y434551D01*
X675449Y429866D01*
X669712Y426554D01*
X663312Y424839D01*
X656688Y424839D01*
X650288Y426554D01*
X644551Y429866D01*
X639866Y434551D01*
X636554Y440288D01*
X634839Y446688D01*
X634839Y453312D01*
X636554Y459712D01*
X639866Y465449D01*
X644090Y469673D01*
X644175Y469782D01*
X644264Y469889D01*
X644272Y469908D01*
X644285Y469924D01*
X644340Y470052D01*
X644399Y470177D01*
X644403Y470197D01*
X644411Y470216D01*
X644433Y470354D01*
X644459Y470490D01*
X644458Y470510D01*
X644461Y470530D01*
X644448Y470669D01*
X644439Y470807D01*
X644433Y470826D01*
X644431Y470846D01*
X644384Y470978D01*
X644341Y471109D01*
X644330Y471127D01*
X644324Y471146D01*
X644246Y471261D01*
X644171Y471378D01*
X644156Y471392D01*
X644145Y471409D01*
X644041Y471501D01*
X643940Y471596D01*
X643922Y471606D01*
X643907Y471619D01*
X643782Y471683D01*
X643661Y471750D01*
X643641Y471755D01*
X643623Y471764D01*
X643488Y471794D01*
X643353Y471829D01*
X643325Y471831D01*
X643313Y471834D01*
X643293Y471833D01*
X643192Y471839D01*
X46808Y471839D01*
X46670Y471822D01*
X46531Y471809D01*
X46512Y471802D01*
X46492Y471799D01*
X46363Y471748D01*
X46232Y471701D01*
X46215Y471690D01*
X46196Y471682D01*
X46084Y471601D01*
X45969Y471523D01*
X45955Y471507D01*
X45939Y471496D01*
X45850Y471388D01*
X45758Y471284D01*
X45749Y471266D01*
X45736Y471251D01*
X45677Y471125D01*
X45614Y471001D01*
X45609Y470981D01*
X45601Y470963D01*
X45575Y470827D01*
X45544Y470691D01*
X45545Y470670D01*
X45541Y470651D01*
X45550Y470512D01*
X45554Y470373D01*
X45559Y470353D01*
X45561Y470333D01*
X45603Y470201D01*
X45642Y470067D01*
X45652Y470050D01*
X45659Y470031D01*
X45733Y469913D01*
X45804Y469793D01*
X45822Y469772D01*
X45829Y469762D01*
X45844Y469748D01*
X45910Y469673D01*
X50134Y465449D01*
X53446Y459712D01*
X55161Y453312D01*
X55161Y446688D01*
X53446Y440288D01*
X50134Y434551D01*
X45449Y429866D01*
X39712Y426554D01*
X33312Y424839D01*
X26688Y424839D01*
X20288Y426554D01*
X14551Y429866D01*
X12327Y432090D01*
X12218Y432175D01*
X12111Y432264D01*
X12092Y432272D01*
X12076Y432285D01*
X11948Y432340D01*
X11823Y432399D01*
X11803Y432403D01*
X11784Y432411D01*
X11646Y432433D01*
X11510Y432459D01*
X11490Y432458D01*
X11470Y432461D01*
X11331Y432448D01*
X11193Y432439D01*
X11174Y432433D01*
X11154Y432431D01*
X11022Y432384D01*
X10891Y432341D01*
X10873Y432330D01*
X10854Y432324D01*
X10739Y432246D01*
X10622Y432171D01*
X10608Y432156D01*
X10591Y432145D01*
X10499Y432041D01*
X10404Y431940D01*
X10394Y431922D01*
X10381Y431907D01*
X10317Y431782D01*
X10250Y431661D01*
X10245Y431641D01*
X10236Y431623D01*
X10206Y431488D01*
X10171Y431353D01*
X10169Y431325D01*
X10166Y431313D01*
X10167Y431293D01*
X10161Y431192D01*
X10161Y28808D01*
X10178Y28670D01*
X10191Y28531D01*
X10198Y28512D01*
X10201Y28492D01*
X10252Y28363D01*
X10299Y28232D01*
X10310Y28215D01*
X10318Y28196D01*
X10399Y28084D01*
X10477Y27969D01*
X10493Y27955D01*
X10504Y27939D01*
X10612Y27850D01*
X10716Y27758D01*
X10734Y27749D01*
X10749Y27736D01*
X10875Y27677D01*
X10999Y27614D01*
X11019Y27609D01*
X11037Y27601D01*
X11173Y27575D01*
X11309Y27544D01*
X11330Y27545D01*
X11349Y27541D01*
X11488Y27550D01*
X11627Y27554D01*
X11647Y27559D01*
X11667Y27561D01*
X11799Y27603D01*
X11933Y27642D01*
X11950Y27652D01*
X11969Y27659D01*
X12087Y27733D01*
X12207Y27804D01*
X12228Y27822D01*
X12238Y27829D01*
X12252Y27844D01*
X12327Y27910D01*
X14551Y30134D01*
X20288Y33446D01*
X26688Y35161D01*
X33312Y35161D01*
X39712Y33446D01*
X45449Y30134D01*
X50134Y25449D01*
X53446Y19712D01*
X55161Y13312D01*
X55161Y6688D01*
X53446Y288D01*
X50134Y-5449D01*
X45449Y-10134D01*
X40708Y-12871D01*
X40592Y-12959D01*
X40474Y-13044D01*
X40465Y-13055D01*
X40455Y-13063D01*
X40364Y-13177D01*
X40271Y-13289D01*
X40266Y-13302D01*
X40257Y-13312D01*
X40197Y-13446D01*
X40136Y-13577D01*
X40133Y-13590D01*
X40128Y-13603D01*
X40103Y-13747D01*
X40076Y-13890D01*
X40077Y-13903D01*
X40075Y-13916D01*
X40087Y-14062D01*
X40096Y-14207D01*
X40100Y-14220D01*
X40101Y-14233D01*
X40149Y-14371D01*
X40194Y-14509D01*
X40201Y-14521D01*
X40205Y-14534D01*
X40286Y-14655D01*
X40364Y-14778D01*
X40374Y-14787D01*
X40381Y-14799D01*
X40489Y-14896D01*
X40596Y-14996D01*
X40607Y-15003D01*
X40617Y-15012D01*
X40747Y-15079D01*
X40874Y-15150D01*
X40887Y-15153D01*
X40899Y-15159D01*
X41041Y-15193D01*
X41182Y-15229D01*
X41200Y-15230D01*
X41209Y-15232D01*
X41226Y-15232D01*
X41343Y-15239D01*
X647547Y-15239D01*
X647678Y-15223D01*
G37*
%LPC*%
G36*
X28556Y66529D02*
X28556Y66529D01*
X25002Y68002D01*
X22282Y70722D01*
X20809Y74276D01*
X20809Y78124D01*
X22282Y81678D01*
X25002Y84398D01*
X28556Y85871D01*
X47644Y85871D01*
X51198Y84398D01*
X51853Y83744D01*
X51947Y83671D01*
X52036Y83592D01*
X52072Y83574D01*
X52104Y83549D01*
X52213Y83502D01*
X52319Y83447D01*
X52359Y83439D01*
X52396Y83423D01*
X52514Y83404D01*
X52629Y83378D01*
X52670Y83379D01*
X52710Y83373D01*
X52828Y83384D01*
X52947Y83387D01*
X52986Y83399D01*
X53026Y83403D01*
X53139Y83443D01*
X53253Y83476D01*
X53288Y83496D01*
X53326Y83510D01*
X53424Y83577D01*
X53527Y83637D01*
X53572Y83677D01*
X53589Y83689D01*
X53602Y83704D01*
X53648Y83744D01*
X72508Y102604D01*
X72568Y102682D01*
X72636Y102754D01*
X72665Y102807D01*
X72702Y102855D01*
X72742Y102946D01*
X72790Y103033D01*
X72805Y103091D01*
X72829Y103147D01*
X72844Y103245D01*
X72869Y103341D01*
X72875Y103441D01*
X72879Y103461D01*
X72877Y103473D01*
X72879Y103501D01*
X72879Y230219D01*
X72862Y230356D01*
X72849Y230495D01*
X72842Y230514D01*
X72839Y230534D01*
X72788Y230663D01*
X72741Y230794D01*
X72730Y230811D01*
X72722Y230830D01*
X72641Y230943D01*
X72563Y231058D01*
X72547Y231071D01*
X72536Y231087D01*
X72428Y231176D01*
X72324Y231268D01*
X72306Y231277D01*
X72291Y231290D01*
X72165Y231349D01*
X72041Y231413D01*
X72021Y231417D01*
X72003Y231426D01*
X71867Y231452D01*
X71731Y231482D01*
X71710Y231482D01*
X71691Y231486D01*
X71552Y231477D01*
X71413Y231473D01*
X71393Y231467D01*
X71373Y231466D01*
X71241Y231423D01*
X71107Y231384D01*
X71090Y231374D01*
X71071Y231368D01*
X70953Y231293D01*
X70833Y231223D01*
X70812Y231204D01*
X70802Y231198D01*
X70788Y231183D01*
X70713Y231116D01*
X67192Y227596D01*
X67132Y227518D01*
X67064Y227446D01*
X67035Y227393D01*
X66998Y227345D01*
X66958Y227254D01*
X66910Y227167D01*
X66895Y227109D01*
X66871Y227053D01*
X66856Y226955D01*
X66831Y226859D01*
X66825Y226759D01*
X66821Y226739D01*
X66823Y226727D01*
X66821Y226699D01*
X66821Y176425D01*
X51994Y161598D01*
X51921Y161503D01*
X51842Y161414D01*
X51824Y161378D01*
X51799Y161346D01*
X51752Y161237D01*
X51697Y161131D01*
X51689Y161092D01*
X51673Y161055D01*
X51654Y160937D01*
X51628Y160821D01*
X51629Y160780D01*
X51623Y160740D01*
X51634Y160622D01*
X51637Y160503D01*
X51649Y160464D01*
X51653Y160424D01*
X51693Y160312D01*
X51726Y160197D01*
X51746Y160163D01*
X51760Y160125D01*
X51827Y160026D01*
X51887Y159923D01*
X51927Y159878D01*
X51939Y159861D01*
X51954Y159848D01*
X51994Y159803D01*
X53918Y157878D01*
X55391Y154324D01*
X55391Y150476D01*
X53918Y146922D01*
X51198Y144202D01*
X47644Y142729D01*
X28556Y142729D01*
X25002Y144202D01*
X22282Y146922D01*
X20809Y150476D01*
X20809Y154324D01*
X22282Y157878D01*
X25002Y160598D01*
X28556Y162071D01*
X42549Y162071D01*
X42647Y162083D01*
X42746Y162086D01*
X42804Y162103D01*
X42864Y162111D01*
X42956Y162147D01*
X43052Y162175D01*
X43104Y162205D01*
X43160Y162228D01*
X43240Y162286D01*
X43325Y162336D01*
X43401Y162402D01*
X43417Y162414D01*
X43425Y162424D01*
X43446Y162442D01*
X46966Y165963D01*
X47052Y166072D01*
X47140Y166179D01*
X47149Y166198D01*
X47161Y166214D01*
X47217Y166342D01*
X47276Y166467D01*
X47280Y166487D01*
X47288Y166506D01*
X47310Y166644D01*
X47336Y166780D01*
X47334Y166800D01*
X47337Y166820D01*
X47324Y166959D01*
X47316Y167097D01*
X47310Y167116D01*
X47308Y167136D01*
X47260Y167268D01*
X47218Y167399D01*
X47207Y167417D01*
X47200Y167436D01*
X47122Y167551D01*
X47048Y167668D01*
X47033Y167682D01*
X47021Y167699D01*
X46917Y167791D01*
X46816Y167886D01*
X46798Y167896D01*
X46783Y167909D01*
X46659Y167972D01*
X46537Y168040D01*
X46518Y168045D01*
X46500Y168054D01*
X46364Y168084D01*
X46230Y168119D01*
X46201Y168121D01*
X46189Y168124D01*
X46169Y168123D01*
X46069Y168129D01*
X28556Y168129D01*
X25002Y169602D01*
X22282Y172322D01*
X20809Y175876D01*
X20809Y179724D01*
X22282Y183278D01*
X25002Y185998D01*
X28556Y187471D01*
X47644Y187471D01*
X51198Y185998D01*
X53918Y183278D01*
X55391Y179724D01*
X55391Y177451D01*
X55408Y177314D01*
X55421Y177175D01*
X55428Y177156D01*
X55431Y177136D01*
X55482Y177006D01*
X55529Y176876D01*
X55540Y176859D01*
X55548Y176840D01*
X55629Y176727D01*
X55707Y176612D01*
X55723Y176599D01*
X55734Y176583D01*
X55842Y176494D01*
X55946Y176402D01*
X55964Y176393D01*
X55979Y176380D01*
X56105Y176321D01*
X56229Y176257D01*
X56249Y176253D01*
X56267Y176244D01*
X56403Y176218D01*
X56539Y176188D01*
X56560Y176188D01*
X56579Y176184D01*
X56718Y176193D01*
X56857Y176197D01*
X56877Y176203D01*
X56897Y176204D01*
X57029Y176247D01*
X57163Y176286D01*
X57180Y176296D01*
X57199Y176302D01*
X57317Y176377D01*
X57437Y176447D01*
X57458Y176466D01*
X57468Y176472D01*
X57482Y176487D01*
X57557Y176554D01*
X59808Y178804D01*
X59868Y178882D01*
X59936Y178954D01*
X59965Y179007D01*
X60002Y179055D01*
X60042Y179146D01*
X60090Y179233D01*
X60105Y179291D01*
X60129Y179347D01*
X60144Y179445D01*
X60169Y179541D01*
X60175Y179641D01*
X60179Y179661D01*
X60177Y179673D01*
X60179Y179701D01*
X60179Y229975D01*
X62496Y232292D01*
X116958Y286754D01*
X119275Y289071D01*
X429519Y289071D01*
X429656Y289088D01*
X429795Y289101D01*
X429814Y289108D01*
X429834Y289111D01*
X429963Y289162D01*
X430094Y289209D01*
X430111Y289220D01*
X430130Y289228D01*
X430242Y289309D01*
X430357Y289387D01*
X430371Y289403D01*
X430387Y289414D01*
X430476Y289522D01*
X430568Y289626D01*
X430577Y289644D01*
X430590Y289659D01*
X430649Y289785D01*
X430712Y289909D01*
X430717Y289929D01*
X430725Y289947D01*
X430752Y290084D01*
X430782Y290219D01*
X430781Y290240D01*
X430785Y290259D01*
X430777Y290398D01*
X430772Y290537D01*
X430767Y290557D01*
X430765Y290577D01*
X430723Y290709D01*
X430684Y290843D01*
X430674Y290860D01*
X430667Y290879D01*
X430593Y290997D01*
X430522Y291117D01*
X430504Y291138D01*
X430497Y291148D01*
X430482Y291162D01*
X430416Y291237D01*
X428682Y292972D01*
X427209Y296526D01*
X427209Y300374D01*
X428682Y303928D01*
X431402Y306648D01*
X434956Y308121D01*
X454044Y308121D01*
X457598Y306648D01*
X460318Y303928D01*
X460662Y303099D01*
X460686Y303056D01*
X460703Y303009D01*
X460765Y302918D01*
X460819Y302823D01*
X460854Y302787D01*
X460882Y302746D01*
X460964Y302673D01*
X461041Y302594D01*
X461083Y302569D01*
X461120Y302536D01*
X461218Y302486D01*
X461312Y302428D01*
X461359Y302414D01*
X461403Y302391D01*
X461511Y302367D01*
X461616Y302335D01*
X461665Y302332D01*
X461714Y302321D01*
X461823Y302325D01*
X461933Y302319D01*
X461982Y302330D01*
X462032Y302331D01*
X462137Y302362D01*
X462245Y302384D01*
X462289Y302406D01*
X462337Y302419D01*
X462432Y302475D01*
X462530Y302523D01*
X462568Y302556D01*
X462611Y302581D01*
X462732Y302687D01*
X483737Y323693D01*
X483810Y323787D01*
X483889Y323876D01*
X483907Y323912D01*
X483932Y323944D01*
X483980Y324053D01*
X484034Y324159D01*
X484043Y324199D01*
X484059Y324236D01*
X484077Y324354D01*
X484103Y324470D01*
X484102Y324510D01*
X484108Y324550D01*
X484097Y324669D01*
X484094Y324788D01*
X484082Y324826D01*
X484079Y324867D01*
X484038Y324979D01*
X484005Y325093D01*
X483985Y325128D01*
X483971Y325166D01*
X483904Y325264D01*
X483844Y325367D01*
X483804Y325412D01*
X483792Y325429D01*
X483777Y325442D01*
X483737Y325488D01*
X483325Y325900D01*
X482169Y328690D01*
X482169Y331710D01*
X483325Y334500D01*
X485460Y336635D01*
X488250Y337791D01*
X502350Y337791D01*
X505140Y336635D01*
X507275Y334500D01*
X508431Y331710D01*
X508431Y328690D01*
X507275Y325900D01*
X505140Y323765D01*
X502350Y322609D01*
X493290Y322609D01*
X493192Y322597D01*
X493093Y322594D01*
X493035Y322577D01*
X492975Y322569D01*
X492883Y322533D01*
X492788Y322505D01*
X492736Y322475D01*
X492679Y322452D01*
X492599Y322394D01*
X492514Y322344D01*
X492438Y322278D01*
X492422Y322266D01*
X492414Y322256D01*
X492393Y322238D01*
X465031Y294875D01*
X461955Y294875D01*
X461926Y294872D01*
X461896Y294874D01*
X461768Y294852D01*
X461639Y294835D01*
X461612Y294825D01*
X461583Y294820D01*
X461464Y294766D01*
X461344Y294718D01*
X461320Y294701D01*
X461293Y294689D01*
X461191Y294608D01*
X461086Y294532D01*
X461068Y294509D01*
X461044Y294490D01*
X460966Y294387D01*
X460884Y294287D01*
X460871Y294260D01*
X460853Y294236D01*
X460782Y294092D01*
X460318Y292972D01*
X458584Y291237D01*
X458499Y291128D01*
X458410Y291021D01*
X458401Y291002D01*
X458389Y290986D01*
X458334Y290858D01*
X458275Y290733D01*
X458271Y290713D01*
X458263Y290694D01*
X458241Y290556D01*
X458215Y290420D01*
X458216Y290400D01*
X458213Y290380D01*
X458226Y290241D01*
X458235Y290103D01*
X458241Y290084D01*
X458243Y290064D01*
X458290Y289932D01*
X458333Y289801D01*
X458343Y289783D01*
X458350Y289764D01*
X458428Y289649D01*
X458503Y289532D01*
X458517Y289518D01*
X458529Y289501D01*
X458633Y289409D01*
X458734Y289314D01*
X458752Y289304D01*
X458767Y289291D01*
X458891Y289227D01*
X459013Y289160D01*
X459032Y289155D01*
X459050Y289146D01*
X459186Y289116D01*
X459321Y289081D01*
X459349Y289079D01*
X459361Y289076D01*
X459381Y289077D01*
X459481Y289071D01*
X490325Y289071D01*
X492034Y287362D01*
X492112Y287302D01*
X492184Y287234D01*
X492237Y287205D01*
X492285Y287168D01*
X492376Y287128D01*
X492463Y287080D01*
X492521Y287065D01*
X492577Y287041D01*
X492675Y287026D01*
X492771Y287001D01*
X492871Y286995D01*
X492891Y286991D01*
X492903Y286993D01*
X492931Y286991D01*
X502350Y286991D01*
X505140Y285835D01*
X507275Y283700D01*
X508431Y280910D01*
X508431Y277890D01*
X507275Y275100D01*
X505140Y272965D01*
X502350Y271809D01*
X488250Y271809D01*
X485460Y272965D01*
X483325Y275100D01*
X482169Y277890D01*
X482169Y281160D01*
X482154Y281278D01*
X482147Y281397D01*
X482134Y281435D01*
X482129Y281476D01*
X482086Y281586D01*
X482049Y281699D01*
X482027Y281734D01*
X482012Y281771D01*
X481943Y281867D01*
X481879Y281968D01*
X481849Y281996D01*
X481826Y282029D01*
X481734Y282105D01*
X481647Y282186D01*
X481612Y282206D01*
X481581Y282231D01*
X481473Y282282D01*
X481369Y282340D01*
X481329Y282350D01*
X481293Y282367D01*
X481176Y282389D01*
X481061Y282419D01*
X481001Y282423D01*
X480981Y282427D01*
X480960Y282425D01*
X480900Y282429D01*
X459481Y282429D01*
X459344Y282412D01*
X459205Y282399D01*
X459186Y282392D01*
X459166Y282389D01*
X459037Y282338D01*
X458906Y282291D01*
X458889Y282280D01*
X458870Y282272D01*
X458758Y282191D01*
X458643Y282113D01*
X458629Y282097D01*
X458613Y282086D01*
X458524Y281978D01*
X458432Y281874D01*
X458423Y281856D01*
X458410Y281841D01*
X458351Y281715D01*
X458288Y281591D01*
X458283Y281571D01*
X458275Y281553D01*
X458248Y281416D01*
X458218Y281281D01*
X458219Y281260D01*
X458215Y281241D01*
X458223Y281102D01*
X458228Y280963D01*
X458233Y280943D01*
X458235Y280923D01*
X458277Y280791D01*
X458316Y280657D01*
X458326Y280640D01*
X458333Y280621D01*
X458407Y280503D01*
X458478Y280383D01*
X458496Y280362D01*
X458503Y280352D01*
X458518Y280338D01*
X458584Y280263D01*
X460318Y278528D01*
X461791Y274974D01*
X461791Y271126D01*
X460318Y267572D01*
X458584Y265837D01*
X458499Y265728D01*
X458410Y265621D01*
X458401Y265602D01*
X458389Y265586D01*
X458334Y265458D01*
X458275Y265333D01*
X458271Y265313D01*
X458263Y265294D01*
X458241Y265156D01*
X458215Y265020D01*
X458216Y265000D01*
X458213Y264980D01*
X458226Y264841D01*
X458235Y264703D01*
X458241Y264684D01*
X458243Y264664D01*
X458290Y264532D01*
X458333Y264401D01*
X458343Y264383D01*
X458350Y264364D01*
X458428Y264249D01*
X458503Y264132D01*
X458517Y264118D01*
X458529Y264101D01*
X458633Y264009D01*
X458734Y263914D01*
X458752Y263904D01*
X458767Y263891D01*
X458891Y263827D01*
X459013Y263760D01*
X459032Y263755D01*
X459050Y263746D01*
X459186Y263716D01*
X459321Y263681D01*
X459349Y263679D01*
X459361Y263676D01*
X459381Y263677D01*
X459481Y263671D01*
X490325Y263671D01*
X492034Y261962D01*
X492112Y261902D01*
X492184Y261834D01*
X492237Y261805D01*
X492285Y261768D01*
X492376Y261728D01*
X492463Y261680D01*
X492521Y261665D01*
X492577Y261641D01*
X492675Y261626D01*
X492771Y261601D01*
X492871Y261595D01*
X492891Y261591D01*
X492903Y261593D01*
X492931Y261591D01*
X502350Y261591D01*
X505140Y260435D01*
X507275Y258300D01*
X508431Y255510D01*
X508431Y252490D01*
X507275Y249700D01*
X505140Y247565D01*
X504540Y247317D01*
X504480Y247282D01*
X504415Y247256D01*
X504342Y247204D01*
X504264Y247159D01*
X504214Y247111D01*
X504158Y247070D01*
X504100Y247000D01*
X504036Y246938D01*
X503999Y246878D01*
X503955Y246825D01*
X503916Y246743D01*
X503869Y246667D01*
X503849Y246600D01*
X503819Y246537D01*
X503802Y246449D01*
X503776Y246363D01*
X503773Y246293D01*
X503759Y246224D01*
X503765Y246135D01*
X503761Y246045D01*
X503775Y245977D01*
X503779Y245907D01*
X503807Y245822D01*
X503825Y245734D01*
X503856Y245671D01*
X503877Y245605D01*
X503925Y245529D01*
X503965Y245448D01*
X504010Y245395D01*
X504047Y245336D01*
X504113Y245274D01*
X504171Y245206D01*
X504228Y245166D01*
X504279Y245118D01*
X504358Y245075D01*
X504431Y245023D01*
X504496Y244998D01*
X504557Y244964D01*
X504644Y244942D01*
X504728Y244910D01*
X504798Y244902D01*
X504865Y244885D01*
X505026Y244875D01*
X557153Y244875D01*
X557251Y244887D01*
X557350Y244890D01*
X557408Y244907D01*
X557468Y244915D01*
X557560Y244951D01*
X557655Y244979D01*
X557708Y245009D01*
X557764Y245032D01*
X557844Y245090D01*
X557929Y245140D01*
X558005Y245206D01*
X558021Y245218D01*
X558029Y245228D01*
X558050Y245246D01*
X560117Y247313D01*
X560190Y247407D01*
X560269Y247496D01*
X560287Y247532D01*
X560312Y247564D01*
X560359Y247674D01*
X560413Y247780D01*
X560422Y247819D01*
X560438Y247856D01*
X560457Y247974D01*
X560483Y248090D01*
X560482Y248130D01*
X560488Y248170D01*
X560477Y248289D01*
X560473Y248408D01*
X560462Y248447D01*
X560458Y248487D01*
X560418Y248599D01*
X560385Y248713D01*
X560364Y248748D01*
X560351Y248786D01*
X560284Y248885D01*
X560223Y248987D01*
X560184Y249033D01*
X560172Y249049D01*
X560157Y249063D01*
X560117Y249108D01*
X559525Y249700D01*
X558369Y252490D01*
X558369Y255510D01*
X559525Y258300D01*
X561660Y260435D01*
X564450Y261591D01*
X578550Y261591D01*
X581340Y260435D01*
X583475Y258300D01*
X584631Y255510D01*
X584631Y252490D01*
X583475Y249700D01*
X581340Y247565D01*
X578550Y246409D01*
X569131Y246409D01*
X569033Y246397D01*
X568934Y246394D01*
X568876Y246377D01*
X568816Y246369D01*
X568724Y246333D01*
X568629Y246305D01*
X568576Y246275D01*
X568520Y246252D01*
X568440Y246194D01*
X568355Y246144D01*
X568279Y246078D01*
X568263Y246066D01*
X568255Y246056D01*
X568234Y246038D01*
X562746Y240550D01*
X562686Y240472D01*
X562618Y240400D01*
X562589Y240347D01*
X562552Y240299D01*
X562512Y240208D01*
X562464Y240121D01*
X562449Y240063D01*
X562425Y240007D01*
X562410Y239909D01*
X562391Y239835D01*
X560281Y237725D01*
X505026Y237725D01*
X504957Y237717D01*
X504887Y237718D01*
X504800Y237697D01*
X504711Y237685D01*
X504646Y237660D01*
X504578Y237643D01*
X504498Y237601D01*
X504415Y237568D01*
X504358Y237527D01*
X504297Y237495D01*
X504230Y237434D01*
X504158Y237382D01*
X504113Y237328D01*
X504061Y237281D01*
X504012Y237206D01*
X503955Y237137D01*
X503925Y237073D01*
X503887Y237015D01*
X503857Y236930D01*
X503819Y236849D01*
X503806Y236780D01*
X503783Y236714D01*
X503776Y236625D01*
X503759Y236537D01*
X503764Y236467D01*
X503758Y236397D01*
X503774Y236309D01*
X503779Y236219D01*
X503801Y236153D01*
X503813Y236084D01*
X503850Y236002D01*
X503877Y235917D01*
X503915Y235858D01*
X503943Y235794D01*
X503999Y235724D01*
X504047Y235648D01*
X504098Y235600D01*
X504142Y235546D01*
X504214Y235492D01*
X504279Y235430D01*
X504340Y235396D01*
X504396Y235354D01*
X504540Y235283D01*
X505140Y235035D01*
X507275Y232900D01*
X508431Y230110D01*
X508431Y227090D01*
X507275Y224300D01*
X505140Y222165D01*
X502350Y221009D01*
X488250Y221009D01*
X485460Y222165D01*
X483325Y224300D01*
X482169Y227090D01*
X482169Y230110D01*
X483325Y232900D01*
X485460Y235035D01*
X486060Y235283D01*
X486120Y235318D01*
X486185Y235344D01*
X486258Y235396D01*
X486336Y235441D01*
X486386Y235489D01*
X486442Y235530D01*
X486500Y235600D01*
X486564Y235662D01*
X486601Y235722D01*
X486645Y235775D01*
X486684Y235857D01*
X486731Y235933D01*
X486751Y236000D01*
X486781Y236063D01*
X486798Y236151D01*
X486824Y236237D01*
X486827Y236307D01*
X486841Y236376D01*
X486835Y236465D01*
X486839Y236555D01*
X486825Y236623D01*
X486821Y236693D01*
X486793Y236778D01*
X486775Y236866D01*
X486744Y236929D01*
X486723Y236995D01*
X486675Y237071D01*
X486635Y237152D01*
X486590Y237205D01*
X486553Y237264D01*
X486487Y237326D01*
X486429Y237394D01*
X486372Y237434D01*
X486321Y237482D01*
X486242Y237525D01*
X486169Y237577D01*
X486104Y237602D01*
X486043Y237636D01*
X485956Y237658D01*
X485872Y237690D01*
X485802Y237698D01*
X485735Y237715D01*
X485574Y237725D01*
X478256Y237725D01*
X478158Y237713D01*
X478059Y237710D01*
X478001Y237693D01*
X477941Y237685D01*
X477849Y237649D01*
X477754Y237621D01*
X477702Y237591D01*
X477645Y237568D01*
X477565Y237510D01*
X477480Y237460D01*
X477404Y237394D01*
X477388Y237382D01*
X477380Y237372D01*
X477359Y237354D01*
X471381Y231375D01*
X459735Y231375D01*
X459597Y231358D01*
X459459Y231345D01*
X459440Y231338D01*
X459420Y231335D01*
X459291Y231284D01*
X459160Y231237D01*
X459143Y231226D01*
X459124Y231218D01*
X459012Y231137D01*
X458897Y231059D01*
X458883Y231043D01*
X458867Y231032D01*
X458778Y230924D01*
X458686Y230820D01*
X458677Y230802D01*
X458664Y230787D01*
X458605Y230661D01*
X458542Y230537D01*
X458537Y230517D01*
X458529Y230499D01*
X458502Y230362D01*
X458472Y230227D01*
X458473Y230206D01*
X458469Y230187D01*
X458477Y230048D01*
X458482Y229909D01*
X458487Y229889D01*
X458489Y229869D01*
X458531Y229737D01*
X458570Y229603D01*
X458580Y229586D01*
X458587Y229567D01*
X458661Y229449D01*
X458732Y229329D01*
X458750Y229308D01*
X458757Y229298D01*
X458772Y229284D01*
X458838Y229209D01*
X460318Y227728D01*
X461791Y224174D01*
X461791Y220326D01*
X460318Y216772D01*
X457598Y214052D01*
X454044Y212579D01*
X434956Y212579D01*
X431402Y214052D01*
X428682Y216772D01*
X427209Y220326D01*
X427209Y224174D01*
X428682Y227728D01*
X430162Y229209D01*
X430247Y229318D01*
X430336Y229425D01*
X430345Y229444D01*
X430357Y229460D01*
X430412Y229588D01*
X430471Y229713D01*
X430475Y229733D01*
X430483Y229752D01*
X430505Y229890D01*
X430531Y230026D01*
X430530Y230046D01*
X430533Y230066D01*
X430520Y230205D01*
X430511Y230343D01*
X430505Y230362D01*
X430503Y230382D01*
X430456Y230514D01*
X430413Y230645D01*
X430403Y230663D01*
X430396Y230682D01*
X430318Y230797D01*
X430243Y230914D01*
X430229Y230928D01*
X430217Y230945D01*
X430113Y231037D01*
X430012Y231132D01*
X429994Y231142D01*
X429979Y231155D01*
X429855Y231219D01*
X429733Y231286D01*
X429714Y231291D01*
X429696Y231300D01*
X429560Y231330D01*
X429425Y231365D01*
X429397Y231367D01*
X429385Y231370D01*
X429365Y231369D01*
X429265Y231375D01*
X134997Y231375D01*
X134899Y231363D01*
X134800Y231360D01*
X134742Y231343D01*
X134682Y231335D01*
X134590Y231299D01*
X134495Y231271D01*
X134442Y231241D01*
X134386Y231218D01*
X134306Y231160D01*
X134221Y231110D01*
X134145Y231044D01*
X134129Y231032D01*
X134121Y231022D01*
X134100Y231004D01*
X116587Y213491D01*
X116514Y213396D01*
X116435Y213307D01*
X116417Y213271D01*
X116392Y213239D01*
X116345Y213130D01*
X116291Y213024D01*
X116282Y212985D01*
X116266Y212948D01*
X116247Y212830D01*
X116221Y212714D01*
X116222Y212673D01*
X116216Y212633D01*
X116227Y212515D01*
X116231Y212396D01*
X116242Y212357D01*
X116246Y212317D01*
X116286Y212205D01*
X116319Y212090D01*
X116339Y212056D01*
X116353Y212018D01*
X116420Y211919D01*
X116480Y211817D01*
X116520Y211771D01*
X116532Y211754D01*
X116547Y211741D01*
X116587Y211696D01*
X119092Y209191D01*
X120702Y205304D01*
X120702Y201096D01*
X119092Y197209D01*
X116116Y194234D01*
X112229Y192624D01*
X90971Y192624D01*
X87084Y194234D01*
X84108Y197209D01*
X82498Y201096D01*
X82498Y205304D01*
X84108Y209191D01*
X87084Y212166D01*
X90971Y213776D01*
X106954Y213776D01*
X107052Y213789D01*
X107152Y213792D01*
X107210Y213808D01*
X107270Y213816D01*
X107362Y213853D01*
X107457Y213880D01*
X107509Y213911D01*
X107566Y213933D01*
X107646Y213991D01*
X107731Y214042D01*
X107806Y214108D01*
X107823Y214120D01*
X107831Y214129D01*
X107852Y214148D01*
X129404Y235700D01*
X129464Y235778D01*
X129532Y235850D01*
X129561Y235903D01*
X129598Y235951D01*
X129638Y236042D01*
X129686Y236129D01*
X129701Y236187D01*
X129725Y236243D01*
X129740Y236341D01*
X129759Y236415D01*
X131869Y238525D01*
X429265Y238525D01*
X429403Y238542D01*
X429541Y238555D01*
X429560Y238562D01*
X429580Y238565D01*
X429709Y238616D01*
X429840Y238663D01*
X429857Y238674D01*
X429876Y238682D01*
X429988Y238763D01*
X430103Y238841D01*
X430117Y238857D01*
X430133Y238868D01*
X430222Y238976D01*
X430314Y239080D01*
X430323Y239098D01*
X430336Y239113D01*
X430395Y239239D01*
X430458Y239363D01*
X430463Y239383D01*
X430471Y239401D01*
X430498Y239538D01*
X430528Y239673D01*
X430527Y239694D01*
X430531Y239713D01*
X430523Y239852D01*
X430518Y239991D01*
X430513Y240011D01*
X430511Y240031D01*
X430469Y240163D01*
X430430Y240297D01*
X430420Y240314D01*
X430413Y240333D01*
X430339Y240451D01*
X430268Y240571D01*
X430250Y240592D01*
X430243Y240602D01*
X430228Y240616D01*
X430162Y240691D01*
X428682Y242172D01*
X427209Y245726D01*
X427209Y249574D01*
X428682Y253128D01*
X430416Y254863D01*
X430501Y254972D01*
X430590Y255079D01*
X430599Y255098D01*
X430611Y255114D01*
X430666Y255242D01*
X430725Y255367D01*
X430729Y255387D01*
X430737Y255406D01*
X430759Y255544D01*
X430785Y255680D01*
X430784Y255700D01*
X430787Y255720D01*
X430774Y255859D01*
X430765Y255997D01*
X430759Y256016D01*
X430757Y256036D01*
X430710Y256168D01*
X430667Y256299D01*
X430657Y256317D01*
X430650Y256336D01*
X430572Y256451D01*
X430497Y256568D01*
X430483Y256582D01*
X430471Y256599D01*
X430367Y256691D01*
X430266Y256786D01*
X430248Y256796D01*
X430233Y256809D01*
X430109Y256873D01*
X429987Y256940D01*
X429968Y256945D01*
X429950Y256954D01*
X429814Y256984D01*
X429679Y257019D01*
X429651Y257021D01*
X429639Y257024D01*
X429619Y257023D01*
X429519Y257029D01*
X109851Y257029D01*
X109753Y257017D01*
X109654Y257014D01*
X109596Y256997D01*
X109536Y256989D01*
X109444Y256953D01*
X109349Y256925D01*
X109296Y256895D01*
X109240Y256872D01*
X109160Y256814D01*
X109075Y256764D01*
X108999Y256698D01*
X108983Y256686D01*
X108975Y256676D01*
X108954Y256658D01*
X79892Y227596D01*
X79832Y227518D01*
X79764Y227446D01*
X79735Y227393D01*
X79698Y227345D01*
X79658Y227254D01*
X79610Y227167D01*
X79595Y227109D01*
X79571Y227053D01*
X79556Y226955D01*
X79531Y226859D01*
X79525Y226759D01*
X79521Y226739D01*
X79523Y226727D01*
X79521Y226699D01*
X79521Y100225D01*
X55762Y76466D01*
X55702Y76388D01*
X55634Y76316D01*
X55605Y76263D01*
X55568Y76215D01*
X55528Y76124D01*
X55480Y76037D01*
X55465Y75979D01*
X55441Y75923D01*
X55426Y75825D01*
X55401Y75729D01*
X55395Y75629D01*
X55391Y75609D01*
X55393Y75597D01*
X55391Y75569D01*
X55391Y74276D01*
X53918Y70722D01*
X51198Y68002D01*
X47644Y66529D01*
X28556Y66529D01*
G37*
%LPD*%
%LPC*%
G36*
X434956Y339579D02*
X434956Y339579D01*
X431402Y341052D01*
X428682Y343772D01*
X427209Y347326D01*
X427209Y351174D01*
X428682Y354728D01*
X431402Y357448D01*
X434956Y358921D01*
X448590Y358921D01*
X448688Y358933D01*
X448787Y358936D01*
X448845Y358953D01*
X448905Y358961D01*
X448997Y358997D01*
X449092Y359025D01*
X449144Y359055D01*
X449201Y359078D01*
X449281Y359136D01*
X449366Y359186D01*
X449442Y359252D01*
X449458Y359264D01*
X449466Y359274D01*
X449487Y359292D01*
X453275Y363080D01*
X453348Y363174D01*
X453426Y363263D01*
X453445Y363299D01*
X453470Y363331D01*
X453517Y363441D01*
X453571Y363547D01*
X453580Y363586D01*
X453596Y363623D01*
X453615Y363741D01*
X453641Y363857D01*
X453639Y363897D01*
X453646Y363937D01*
X453635Y364056D01*
X453631Y364175D01*
X453620Y364214D01*
X453616Y364254D01*
X453576Y364366D01*
X453543Y364480D01*
X453522Y364515D01*
X453508Y364553D01*
X453442Y364652D01*
X453381Y364754D01*
X453341Y364800D01*
X453330Y364816D01*
X453315Y364830D01*
X453275Y364875D01*
X451849Y366301D01*
X451849Y382999D01*
X453051Y384201D01*
X467749Y384201D01*
X469003Y382948D01*
X469097Y382875D01*
X469186Y382796D01*
X469222Y382778D01*
X469254Y382753D01*
X469363Y382705D01*
X469469Y382651D01*
X469508Y382642D01*
X469546Y382626D01*
X469663Y382608D01*
X469779Y382582D01*
X469820Y382583D01*
X469860Y382577D01*
X469978Y382588D01*
X470097Y382591D01*
X470136Y382603D01*
X470176Y382606D01*
X470288Y382647D01*
X470403Y382680D01*
X470438Y382700D01*
X470476Y382714D01*
X470574Y382781D01*
X470677Y382841D01*
X470722Y382881D01*
X470739Y382893D01*
X470752Y382908D01*
X470798Y382948D01*
X472051Y384201D01*
X486749Y384201D01*
X487951Y382999D01*
X487951Y371680D01*
X487963Y371582D01*
X487966Y371483D01*
X487983Y371425D01*
X487991Y371365D01*
X488027Y371273D01*
X488055Y371178D01*
X488085Y371126D01*
X488108Y371069D01*
X488166Y370989D01*
X488216Y370904D01*
X488282Y370828D01*
X488294Y370812D01*
X488304Y370804D01*
X488322Y370783D01*
X495543Y363562D01*
X495621Y363502D01*
X495693Y363434D01*
X495746Y363405D01*
X495794Y363368D01*
X495885Y363328D01*
X495972Y363280D01*
X496030Y363265D01*
X496086Y363241D01*
X496184Y363226D01*
X496280Y363201D01*
X496380Y363195D01*
X496400Y363191D01*
X496412Y363193D01*
X496440Y363191D01*
X502350Y363191D01*
X505140Y362035D01*
X507275Y359900D01*
X508431Y357110D01*
X508431Y354090D01*
X507275Y351300D01*
X505140Y349165D01*
X502350Y348009D01*
X488250Y348009D01*
X485460Y349165D01*
X483325Y351300D01*
X482169Y354090D01*
X482169Y357110D01*
X483325Y359900D01*
X485312Y361887D01*
X485385Y361981D01*
X485464Y362071D01*
X485482Y362107D01*
X485507Y362139D01*
X485555Y362248D01*
X485609Y362354D01*
X485618Y362393D01*
X485634Y362430D01*
X485652Y362548D01*
X485678Y362664D01*
X485677Y362704D01*
X485683Y362744D01*
X485672Y362863D01*
X485669Y362982D01*
X485657Y363021D01*
X485654Y363061D01*
X485613Y363173D01*
X485580Y363287D01*
X485560Y363322D01*
X485546Y363360D01*
X485479Y363459D01*
X485419Y363561D01*
X485379Y363607D01*
X485367Y363623D01*
X485352Y363637D01*
X485312Y363682D01*
X484267Y364728D01*
X484189Y364788D01*
X484117Y364856D01*
X484064Y364885D01*
X484016Y364922D01*
X483925Y364962D01*
X483838Y365010D01*
X483780Y365025D01*
X483724Y365049D01*
X483626Y365064D01*
X483530Y365089D01*
X483430Y365095D01*
X483410Y365099D01*
X483398Y365097D01*
X483370Y365099D01*
X472051Y365099D01*
X470798Y366352D01*
X470703Y366425D01*
X470614Y366504D01*
X470578Y366522D01*
X470546Y366547D01*
X470437Y366595D01*
X470331Y366649D01*
X470292Y366658D01*
X470254Y366674D01*
X470137Y366692D01*
X470021Y366718D01*
X469980Y366717D01*
X469940Y366723D01*
X469822Y366712D01*
X469703Y366709D01*
X469664Y366697D01*
X469624Y366694D01*
X469511Y366653D01*
X469397Y366620D01*
X469363Y366600D01*
X469324Y366586D01*
X469226Y366519D01*
X469123Y366459D01*
X469078Y366419D01*
X469061Y366407D01*
X469048Y366392D01*
X469003Y366352D01*
X467749Y365099D01*
X465244Y365099D01*
X465126Y365084D01*
X465007Y365077D01*
X464969Y365064D01*
X464928Y365059D01*
X464818Y365016D01*
X464705Y364979D01*
X464670Y364957D01*
X464633Y364942D01*
X464537Y364873D01*
X464436Y364809D01*
X464408Y364779D01*
X464375Y364756D01*
X464299Y364664D01*
X464218Y364577D01*
X464198Y364542D01*
X464173Y364511D01*
X464122Y364403D01*
X464064Y364299D01*
X464054Y364259D01*
X464037Y364223D01*
X464015Y364106D01*
X463985Y363991D01*
X463981Y363931D01*
X463977Y363911D01*
X463979Y363890D01*
X463975Y363830D01*
X463975Y363669D01*
X458573Y358268D01*
X458500Y358174D01*
X458422Y358085D01*
X458403Y358049D01*
X458379Y358017D01*
X458331Y357907D01*
X458277Y357802D01*
X458268Y357762D01*
X458252Y357725D01*
X458233Y357607D01*
X458207Y357491D01*
X458209Y357451D01*
X458202Y357411D01*
X458213Y357292D01*
X458217Y357173D01*
X458228Y357134D01*
X458232Y357094D01*
X458272Y356982D01*
X458306Y356868D01*
X458326Y356833D01*
X458340Y356795D01*
X458407Y356696D01*
X458467Y356594D01*
X458507Y356549D01*
X458518Y356532D01*
X458534Y356518D01*
X458573Y356473D01*
X460318Y354728D01*
X461791Y351174D01*
X461791Y347326D01*
X460318Y343772D01*
X457598Y341052D01*
X454044Y339579D01*
X434956Y339579D01*
G37*
%LPD*%
%LPC*%
G36*
X625456Y284969D02*
X625456Y284969D01*
X621902Y286442D01*
X619182Y289162D01*
X618316Y291251D01*
X618312Y291259D01*
X618309Y291268D01*
X618233Y291397D01*
X618159Y291527D01*
X618152Y291534D01*
X618148Y291542D01*
X618041Y291663D01*
X584537Y325167D01*
X584443Y325240D01*
X584354Y325319D01*
X584318Y325337D01*
X584286Y325362D01*
X584176Y325409D01*
X584070Y325463D01*
X584031Y325472D01*
X583994Y325488D01*
X583876Y325507D01*
X583760Y325533D01*
X583720Y325532D01*
X583680Y325538D01*
X583561Y325527D01*
X583442Y325523D01*
X583403Y325512D01*
X583363Y325508D01*
X583251Y325468D01*
X583137Y325435D01*
X583102Y325414D01*
X583064Y325401D01*
X582965Y325334D01*
X582863Y325273D01*
X582818Y325234D01*
X582801Y325222D01*
X582787Y325207D01*
X582742Y325167D01*
X581340Y323765D01*
X578550Y322609D01*
X564450Y322609D01*
X561660Y323765D01*
X559525Y325900D01*
X558369Y328690D01*
X558369Y331710D01*
X559525Y334500D01*
X561660Y336635D01*
X564450Y337791D01*
X578550Y337791D01*
X581340Y336635D01*
X583475Y334500D01*
X583556Y334304D01*
X583571Y334279D01*
X583580Y334251D01*
X583649Y334141D01*
X583714Y334028D01*
X583734Y334007D01*
X583750Y333982D01*
X583845Y333893D01*
X583935Y333800D01*
X583960Y333784D01*
X583982Y333764D01*
X584095Y333701D01*
X584206Y333633D01*
X584234Y333625D01*
X584260Y333610D01*
X584386Y333578D01*
X584510Y333540D01*
X584539Y333538D01*
X584568Y333531D01*
X584729Y333521D01*
X585575Y333521D01*
X618182Y300914D01*
X618277Y300841D01*
X618366Y300762D01*
X618402Y300744D01*
X618434Y300719D01*
X618543Y300672D01*
X618649Y300617D01*
X618688Y300609D01*
X618725Y300593D01*
X618843Y300574D01*
X618959Y300548D01*
X619000Y300549D01*
X619040Y300543D01*
X619158Y300554D01*
X619277Y300557D01*
X619316Y300569D01*
X619356Y300573D01*
X619468Y300613D01*
X619583Y300646D01*
X619617Y300666D01*
X619655Y300680D01*
X619754Y300747D01*
X619857Y300807D01*
X619902Y300847D01*
X619919Y300859D01*
X619932Y300874D01*
X619977Y300914D01*
X621902Y302838D01*
X625456Y304311D01*
X644544Y304311D01*
X648098Y302838D01*
X650818Y300118D01*
X652291Y296564D01*
X652291Y292716D01*
X650818Y289162D01*
X648098Y286442D01*
X644544Y284969D01*
X625456Y284969D01*
G37*
%LPD*%
%LPC*%
G36*
X43889Y348739D02*
X43889Y348739D01*
X36846Y351656D01*
X31456Y357046D01*
X28539Y364089D01*
X28539Y371711D01*
X31456Y378754D01*
X36846Y384144D01*
X43889Y387061D01*
X51511Y387061D01*
X58554Y384144D01*
X63944Y378754D01*
X66861Y371711D01*
X66861Y364089D01*
X63944Y357046D01*
X58554Y351656D01*
X51511Y348739D01*
X43889Y348739D01*
G37*
%LPD*%
%LPC*%
G36*
X43889Y298739D02*
X43889Y298739D01*
X36846Y301656D01*
X31456Y307046D01*
X28539Y314089D01*
X28539Y321711D01*
X31456Y328754D01*
X36846Y334144D01*
X43889Y337061D01*
X51511Y337061D01*
X58554Y334144D01*
X63944Y328754D01*
X66861Y321711D01*
X66861Y314089D01*
X63944Y307046D01*
X58554Y301656D01*
X51511Y298739D01*
X43889Y298739D01*
G37*
%LPD*%
%LPC*%
G36*
X369371Y40224D02*
X369371Y40224D01*
X365484Y41834D01*
X362508Y44809D01*
X360898Y48696D01*
X360898Y52904D01*
X362508Y56791D01*
X365484Y59766D01*
X369371Y61376D01*
X390629Y61376D01*
X394516Y59766D01*
X397492Y56791D01*
X399102Y52904D01*
X399102Y48696D01*
X397492Y44809D01*
X394516Y41834D01*
X390629Y40224D01*
X369371Y40224D01*
G37*
%LPD*%
%LPC*%
G36*
X369371Y141824D02*
X369371Y141824D01*
X365484Y143434D01*
X362508Y146409D01*
X360898Y150296D01*
X360898Y154504D01*
X362508Y158391D01*
X365484Y161366D01*
X369371Y162976D01*
X390629Y162976D01*
X394516Y161366D01*
X397492Y158391D01*
X399102Y154504D01*
X399102Y150296D01*
X397492Y146409D01*
X394516Y143434D01*
X390629Y141824D01*
X369371Y141824D01*
G37*
%LPD*%
%LPC*%
G36*
X90971Y65624D02*
X90971Y65624D01*
X87084Y67234D01*
X84108Y70209D01*
X82498Y74096D01*
X82498Y78304D01*
X84108Y82191D01*
X87084Y85166D01*
X90971Y86776D01*
X112229Y86776D01*
X116116Y85166D01*
X119092Y82191D01*
X120702Y78304D01*
X120702Y74096D01*
X119092Y70209D01*
X116116Y67234D01*
X112229Y65624D01*
X90971Y65624D01*
G37*
%LPD*%
%LPC*%
G36*
X90971Y141824D02*
X90971Y141824D01*
X87084Y143434D01*
X84108Y146409D01*
X82498Y150296D01*
X82498Y154504D01*
X84108Y158391D01*
X87084Y161366D01*
X90971Y162976D01*
X112229Y162976D01*
X116116Y161366D01*
X119092Y158391D01*
X120702Y154504D01*
X120702Y150296D01*
X119092Y146409D01*
X116116Y143434D01*
X112229Y141824D01*
X90971Y141824D01*
G37*
%LPD*%
%LPC*%
G36*
X90971Y167224D02*
X90971Y167224D01*
X87084Y168834D01*
X84108Y171809D01*
X82498Y175696D01*
X82498Y179904D01*
X84108Y183791D01*
X87084Y186766D01*
X90971Y188376D01*
X112229Y188376D01*
X116116Y186766D01*
X119092Y183791D01*
X120702Y179904D01*
X120702Y175696D01*
X119092Y171809D01*
X116116Y168834D01*
X112229Y167224D01*
X90971Y167224D01*
G37*
%LPD*%
%LPC*%
G36*
X369371Y167224D02*
X369371Y167224D01*
X365484Y168834D01*
X362508Y171809D01*
X360898Y175696D01*
X360898Y179904D01*
X362508Y183791D01*
X365484Y186766D01*
X369371Y188376D01*
X390629Y188376D01*
X394516Y186766D01*
X397492Y183791D01*
X399102Y179904D01*
X399102Y175696D01*
X397492Y171809D01*
X394516Y168834D01*
X390629Y167224D01*
X369371Y167224D01*
G37*
%LPD*%
%LPC*%
G36*
X369371Y14824D02*
X369371Y14824D01*
X365484Y16434D01*
X362508Y19409D01*
X360898Y23296D01*
X360898Y27504D01*
X362508Y31391D01*
X365484Y34366D01*
X369371Y35976D01*
X390629Y35976D01*
X394516Y34366D01*
X397492Y31391D01*
X399102Y27504D01*
X399102Y23296D01*
X397492Y19409D01*
X394516Y16434D01*
X390629Y14824D01*
X369371Y14824D01*
G37*
%LPD*%
%LPC*%
G36*
X369371Y116424D02*
X369371Y116424D01*
X365484Y118034D01*
X362508Y121009D01*
X360898Y124896D01*
X360898Y129104D01*
X362508Y132991D01*
X365484Y135966D01*
X369371Y137576D01*
X390629Y137576D01*
X394516Y135966D01*
X397492Y132991D01*
X399102Y129104D01*
X399102Y124896D01*
X397492Y121009D01*
X394516Y118034D01*
X390629Y116424D01*
X369371Y116424D01*
G37*
%LPD*%
%LPC*%
G36*
X90971Y116424D02*
X90971Y116424D01*
X87084Y118034D01*
X84108Y121009D01*
X82498Y124896D01*
X82498Y129104D01*
X84108Y132991D01*
X87084Y135966D01*
X90971Y137576D01*
X112229Y137576D01*
X116116Y135966D01*
X119092Y132991D01*
X120702Y129104D01*
X120702Y124896D01*
X119092Y121009D01*
X116116Y118034D01*
X112229Y116424D01*
X90971Y116424D01*
G37*
%LPD*%
%LPC*%
G36*
X369371Y65624D02*
X369371Y65624D01*
X365484Y67234D01*
X362508Y70209D01*
X360898Y74096D01*
X360898Y78304D01*
X362508Y82191D01*
X365484Y85166D01*
X369371Y86776D01*
X390629Y86776D01*
X394516Y85166D01*
X397492Y82191D01*
X399102Y78304D01*
X399102Y74096D01*
X397492Y70209D01*
X394516Y67234D01*
X390629Y65624D01*
X369371Y65624D01*
G37*
%LPD*%
%LPC*%
G36*
X369371Y91024D02*
X369371Y91024D01*
X365484Y92634D01*
X362508Y95609D01*
X360898Y99496D01*
X360898Y103704D01*
X362508Y107591D01*
X365484Y110566D01*
X369371Y112176D01*
X390629Y112176D01*
X394516Y110566D01*
X397492Y107591D01*
X399102Y103704D01*
X399102Y99496D01*
X397492Y95609D01*
X394516Y92634D01*
X390629Y91024D01*
X369371Y91024D01*
G37*
%LPD*%
%LPC*%
G36*
X369371Y192624D02*
X369371Y192624D01*
X365484Y194234D01*
X362508Y197209D01*
X360898Y201096D01*
X360898Y205304D01*
X362508Y209191D01*
X365484Y212166D01*
X369371Y213776D01*
X390629Y213776D01*
X394516Y212166D01*
X397492Y209191D01*
X399102Y205304D01*
X399102Y201096D01*
X397492Y197209D01*
X394516Y194234D01*
X390629Y192624D01*
X369371Y192624D01*
G37*
%LPD*%
%LPC*%
G36*
X90971Y91024D02*
X90971Y91024D01*
X87084Y92634D01*
X84108Y95609D01*
X82498Y99496D01*
X82498Y103704D01*
X84108Y107591D01*
X87084Y110566D01*
X90971Y112176D01*
X112229Y112176D01*
X116116Y110566D01*
X119092Y107591D01*
X120702Y103704D01*
X120702Y99496D01*
X119092Y95609D01*
X116116Y92634D01*
X112229Y91024D01*
X90971Y91024D01*
G37*
%LPD*%
%LPC*%
G36*
X625456Y66529D02*
X625456Y66529D01*
X621902Y68002D01*
X619182Y70722D01*
X617709Y74276D01*
X617709Y78124D01*
X619182Y81678D01*
X621902Y84398D01*
X625456Y85871D01*
X644544Y85871D01*
X648098Y84398D01*
X650818Y81678D01*
X652291Y78124D01*
X652291Y74276D01*
X650818Y70722D01*
X648098Y68002D01*
X644544Y66529D01*
X625456Y66529D01*
G37*
%LPD*%
%LPC*%
G36*
X625456Y259569D02*
X625456Y259569D01*
X621902Y261042D01*
X619182Y263762D01*
X617709Y267316D01*
X617709Y271164D01*
X619182Y274718D01*
X621902Y277438D01*
X625456Y278911D01*
X644544Y278911D01*
X648098Y277438D01*
X650818Y274718D01*
X652291Y271164D01*
X652291Y267316D01*
X650818Y263762D01*
X648098Y261042D01*
X644544Y259569D01*
X625456Y259569D01*
G37*
%LPD*%
%LPC*%
G36*
X625456Y91929D02*
X625456Y91929D01*
X621902Y93402D01*
X619182Y96122D01*
X617709Y99676D01*
X617709Y103524D01*
X619182Y107078D01*
X621902Y109798D01*
X625456Y111271D01*
X644544Y111271D01*
X648098Y109798D01*
X650818Y107078D01*
X652291Y103524D01*
X652291Y99676D01*
X650818Y96122D01*
X648098Y93402D01*
X644544Y91929D01*
X625456Y91929D01*
G37*
%LPD*%
%LPC*%
G36*
X28556Y91929D02*
X28556Y91929D01*
X25002Y93402D01*
X22282Y96122D01*
X20809Y99676D01*
X20809Y103524D01*
X22282Y107078D01*
X25002Y109798D01*
X28556Y111271D01*
X47644Y111271D01*
X51198Y109798D01*
X53918Y107078D01*
X55391Y103524D01*
X55391Y99676D01*
X53918Y96122D01*
X51198Y93402D01*
X47644Y91929D01*
X28556Y91929D01*
G37*
%LPD*%
%LPC*%
G36*
X625456Y117329D02*
X625456Y117329D01*
X621902Y118802D01*
X619182Y121522D01*
X617709Y125076D01*
X617709Y128924D01*
X619182Y132478D01*
X621902Y135198D01*
X625456Y136671D01*
X644544Y136671D01*
X648098Y135198D01*
X650818Y132478D01*
X652291Y128924D01*
X652291Y125076D01*
X650818Y121522D01*
X648098Y118802D01*
X644544Y117329D01*
X625456Y117329D01*
G37*
%LPD*%
%LPC*%
G36*
X625456Y310369D02*
X625456Y310369D01*
X621902Y311842D01*
X619182Y314562D01*
X617709Y318116D01*
X617709Y321964D01*
X619182Y325518D01*
X621902Y328238D01*
X625456Y329711D01*
X644544Y329711D01*
X648098Y328238D01*
X650818Y325518D01*
X652291Y321964D01*
X652291Y318116D01*
X650818Y314562D01*
X648098Y311842D01*
X644544Y310369D01*
X625456Y310369D01*
G37*
%LPD*%
%LPC*%
G36*
X434956Y314179D02*
X434956Y314179D01*
X431402Y315652D01*
X428682Y318372D01*
X427209Y321926D01*
X427209Y325774D01*
X428682Y329328D01*
X431402Y332048D01*
X434956Y333521D01*
X454044Y333521D01*
X457598Y332048D01*
X460318Y329328D01*
X461791Y325774D01*
X461791Y321926D01*
X460318Y318372D01*
X457598Y315652D01*
X454044Y314179D01*
X434956Y314179D01*
G37*
%LPD*%
%LPC*%
G36*
X625456Y142729D02*
X625456Y142729D01*
X621902Y144202D01*
X619182Y146922D01*
X617709Y150476D01*
X617709Y154324D01*
X619182Y157878D01*
X621902Y160598D01*
X625456Y162071D01*
X644544Y162071D01*
X648098Y160598D01*
X650818Y157878D01*
X652291Y154324D01*
X652291Y150476D01*
X650818Y146922D01*
X648098Y144202D01*
X644544Y142729D01*
X625456Y142729D01*
G37*
%LPD*%
%LPC*%
G36*
X28556Y41129D02*
X28556Y41129D01*
X25002Y42602D01*
X22282Y45322D01*
X20809Y48876D01*
X20809Y52724D01*
X22282Y56278D01*
X25002Y58998D01*
X28556Y60471D01*
X47644Y60471D01*
X51198Y58998D01*
X53918Y56278D01*
X55391Y52724D01*
X55391Y48876D01*
X53918Y45322D01*
X51198Y42602D01*
X47644Y41129D01*
X28556Y41129D01*
G37*
%LPD*%
%LPC*%
G36*
X625456Y41129D02*
X625456Y41129D01*
X621902Y42602D01*
X619182Y45322D01*
X617709Y48876D01*
X617709Y52724D01*
X619182Y56278D01*
X621902Y58998D01*
X625456Y60471D01*
X644544Y60471D01*
X648098Y58998D01*
X650818Y56278D01*
X652291Y52724D01*
X652291Y48876D01*
X650818Y45322D01*
X648098Y42602D01*
X644544Y41129D01*
X625456Y41129D01*
G37*
%LPD*%
%LPC*%
G36*
X625456Y335769D02*
X625456Y335769D01*
X621902Y337242D01*
X619182Y339962D01*
X617709Y343516D01*
X617709Y347364D01*
X619182Y350918D01*
X621902Y353638D01*
X625456Y355111D01*
X644544Y355111D01*
X648098Y353638D01*
X650818Y350918D01*
X652291Y347364D01*
X652291Y343516D01*
X650818Y339962D01*
X648098Y337242D01*
X644544Y335769D01*
X625456Y335769D01*
G37*
%LPD*%
%LPC*%
G36*
X625456Y234169D02*
X625456Y234169D01*
X621902Y235642D01*
X619182Y238362D01*
X617709Y241916D01*
X617709Y245764D01*
X619182Y249318D01*
X621902Y252038D01*
X625456Y253511D01*
X644544Y253511D01*
X648098Y252038D01*
X650818Y249318D01*
X652291Y245764D01*
X652291Y241916D01*
X650818Y238362D01*
X648098Y235642D01*
X644544Y234169D01*
X625456Y234169D01*
G37*
%LPD*%
%LPC*%
G36*
X564450Y170209D02*
X564450Y170209D01*
X561660Y171365D01*
X559525Y173500D01*
X558369Y176290D01*
X558369Y179310D01*
X559525Y182100D01*
X561660Y184235D01*
X564450Y185391D01*
X578550Y185391D01*
X581340Y184235D01*
X583475Y182100D01*
X584631Y179310D01*
X584631Y176290D01*
X583475Y173500D01*
X581340Y171365D01*
X578550Y170209D01*
X564450Y170209D01*
G37*
%LPD*%
%LPC*%
G36*
X488250Y170209D02*
X488250Y170209D01*
X485460Y171365D01*
X483325Y173500D01*
X482169Y176290D01*
X482169Y179310D01*
X483325Y182100D01*
X485460Y184235D01*
X488250Y185391D01*
X502350Y185391D01*
X505140Y184235D01*
X507275Y182100D01*
X508431Y179310D01*
X508431Y176290D01*
X507275Y173500D01*
X505140Y171365D01*
X502350Y170209D01*
X488250Y170209D01*
G37*
%LPD*%
%LPC*%
G36*
X488250Y17809D02*
X488250Y17809D01*
X485460Y18965D01*
X483325Y21100D01*
X482169Y23890D01*
X482169Y26910D01*
X483325Y29700D01*
X485460Y31835D01*
X488250Y32991D01*
X502350Y32991D01*
X505140Y31835D01*
X507275Y29700D01*
X508431Y26910D01*
X508431Y23890D01*
X507275Y21100D01*
X505140Y18965D01*
X502350Y17809D01*
X488250Y17809D01*
G37*
%LPD*%
%LPC*%
G36*
X564450Y17809D02*
X564450Y17809D01*
X561660Y18965D01*
X559525Y21100D01*
X558369Y23890D01*
X558369Y26910D01*
X559525Y29700D01*
X561660Y31835D01*
X564450Y32991D01*
X578550Y32991D01*
X581340Y31835D01*
X583475Y29700D01*
X584631Y26910D01*
X584631Y23890D01*
X583475Y21100D01*
X581340Y18965D01*
X578550Y17809D01*
X564450Y17809D01*
G37*
%LPD*%
%LPC*%
G36*
X488250Y43209D02*
X488250Y43209D01*
X485460Y44365D01*
X483325Y46500D01*
X482169Y49290D01*
X482169Y52310D01*
X483325Y55100D01*
X485460Y57235D01*
X488250Y58391D01*
X502350Y58391D01*
X505140Y57235D01*
X507275Y55100D01*
X508431Y52310D01*
X508431Y49290D01*
X507275Y46500D01*
X505140Y44365D01*
X502350Y43209D01*
X488250Y43209D01*
G37*
%LPD*%
%LPC*%
G36*
X564450Y43209D02*
X564450Y43209D01*
X561660Y44365D01*
X559525Y46500D01*
X558369Y49290D01*
X558369Y52310D01*
X559525Y55100D01*
X561660Y57235D01*
X564450Y58391D01*
X578550Y58391D01*
X581340Y57235D01*
X583475Y55100D01*
X584631Y52310D01*
X584631Y49290D01*
X583475Y46500D01*
X581340Y44365D01*
X578550Y43209D01*
X564450Y43209D01*
G37*
%LPD*%
%LPC*%
G36*
X488250Y68609D02*
X488250Y68609D01*
X485460Y69765D01*
X483325Y71900D01*
X482169Y74690D01*
X482169Y77710D01*
X483325Y80500D01*
X485460Y82635D01*
X488250Y83791D01*
X502350Y83791D01*
X505140Y82635D01*
X507275Y80500D01*
X508431Y77710D01*
X508431Y74690D01*
X507275Y71900D01*
X505140Y69765D01*
X502350Y68609D01*
X488250Y68609D01*
G37*
%LPD*%
%LPC*%
G36*
X564450Y68609D02*
X564450Y68609D01*
X561660Y69765D01*
X559525Y71900D01*
X558369Y74690D01*
X558369Y77710D01*
X559525Y80500D01*
X561660Y82635D01*
X564450Y83791D01*
X578550Y83791D01*
X581340Y82635D01*
X583475Y80500D01*
X584631Y77710D01*
X584631Y74690D01*
X583475Y71900D01*
X581340Y69765D01*
X578550Y68609D01*
X564450Y68609D01*
G37*
%LPD*%
%LPC*%
G36*
X564450Y144809D02*
X564450Y144809D01*
X561660Y145965D01*
X559525Y148100D01*
X558369Y150890D01*
X558369Y153910D01*
X559525Y156700D01*
X561660Y158835D01*
X564450Y159991D01*
X578550Y159991D01*
X581340Y158835D01*
X583475Y156700D01*
X584631Y153910D01*
X584631Y150890D01*
X583475Y148100D01*
X581340Y145965D01*
X578550Y144809D01*
X564450Y144809D01*
G37*
%LPD*%
%LPC*%
G36*
X488250Y144809D02*
X488250Y144809D01*
X485460Y145965D01*
X483325Y148100D01*
X482169Y150890D01*
X482169Y153910D01*
X483325Y156700D01*
X485460Y158835D01*
X488250Y159991D01*
X502350Y159991D01*
X505140Y158835D01*
X507275Y156700D01*
X508431Y153910D01*
X508431Y150890D01*
X507275Y148100D01*
X505140Y145965D01*
X502350Y144809D01*
X488250Y144809D01*
G37*
%LPD*%
%LPC*%
G36*
X564450Y348009D02*
X564450Y348009D01*
X561660Y349165D01*
X559525Y351300D01*
X558369Y354090D01*
X558369Y357110D01*
X559525Y359900D01*
X561660Y362035D01*
X564450Y363191D01*
X578550Y363191D01*
X581340Y362035D01*
X583475Y359900D01*
X584631Y357110D01*
X584631Y354090D01*
X583475Y351300D01*
X581340Y349165D01*
X578550Y348009D01*
X564450Y348009D01*
G37*
%LPD*%
%LPC*%
G36*
X564450Y195609D02*
X564450Y195609D01*
X561660Y196765D01*
X559525Y198900D01*
X558369Y201690D01*
X558369Y204710D01*
X559525Y207500D01*
X561660Y209635D01*
X564450Y210791D01*
X578550Y210791D01*
X581340Y209635D01*
X583475Y207500D01*
X584631Y204710D01*
X584631Y201690D01*
X583475Y198900D01*
X581340Y196765D01*
X578550Y195609D01*
X564450Y195609D01*
G37*
%LPD*%
%LPC*%
G36*
X564450Y297209D02*
X564450Y297209D01*
X561660Y298365D01*
X559525Y300500D01*
X558369Y303290D01*
X558369Y306310D01*
X559525Y309100D01*
X561660Y311235D01*
X564450Y312391D01*
X578550Y312391D01*
X581340Y311235D01*
X583475Y309100D01*
X584631Y306310D01*
X584631Y303290D01*
X583475Y300500D01*
X581340Y298365D01*
X578550Y297209D01*
X564450Y297209D01*
G37*
%LPD*%
%LPC*%
G36*
X488250Y94009D02*
X488250Y94009D01*
X485460Y95165D01*
X483325Y97300D01*
X482169Y100090D01*
X482169Y103110D01*
X483325Y105900D01*
X485460Y108035D01*
X488250Y109191D01*
X502350Y109191D01*
X505140Y108035D01*
X507275Y105900D01*
X508431Y103110D01*
X508431Y100090D01*
X507275Y97300D01*
X505140Y95165D01*
X502350Y94009D01*
X488250Y94009D01*
G37*
%LPD*%
%LPC*%
G36*
X564450Y94009D02*
X564450Y94009D01*
X561660Y95165D01*
X559525Y97300D01*
X558369Y100090D01*
X558369Y103110D01*
X559525Y105900D01*
X561660Y108035D01*
X564450Y109191D01*
X578550Y109191D01*
X581340Y108035D01*
X583475Y105900D01*
X584631Y103110D01*
X584631Y100090D01*
X583475Y97300D01*
X581340Y95165D01*
X578550Y94009D01*
X564450Y94009D01*
G37*
%LPD*%
%LPC*%
G36*
X564450Y119409D02*
X564450Y119409D01*
X561660Y120565D01*
X559525Y122700D01*
X558369Y125490D01*
X558369Y128510D01*
X559525Y131300D01*
X561660Y133435D01*
X564450Y134591D01*
X578550Y134591D01*
X581340Y133435D01*
X583475Y131300D01*
X584631Y128510D01*
X584631Y125490D01*
X583475Y122700D01*
X581340Y120565D01*
X578550Y119409D01*
X564450Y119409D01*
G37*
%LPD*%
%LPC*%
G36*
X488250Y119409D02*
X488250Y119409D01*
X485460Y120565D01*
X483325Y122700D01*
X482169Y125490D01*
X482169Y128510D01*
X483325Y131300D01*
X485460Y133435D01*
X488250Y134591D01*
X502350Y134591D01*
X505140Y133435D01*
X507275Y131300D01*
X508431Y128510D01*
X508431Y125490D01*
X507275Y122700D01*
X505140Y120565D01*
X502350Y119409D01*
X488250Y119409D01*
G37*
%LPD*%
%LPC*%
G36*
X488250Y297209D02*
X488250Y297209D01*
X485460Y298365D01*
X483325Y300500D01*
X482169Y303290D01*
X482169Y306310D01*
X483325Y309100D01*
X485460Y311235D01*
X488250Y312391D01*
X502350Y312391D01*
X505140Y311235D01*
X507275Y309100D01*
X508431Y306310D01*
X508431Y303290D01*
X507275Y300500D01*
X505140Y298365D01*
X502350Y297209D01*
X488250Y297209D01*
G37*
%LPD*%
%LPC*%
G36*
X564450Y271809D02*
X564450Y271809D01*
X561660Y272965D01*
X559525Y275100D01*
X558369Y277890D01*
X558369Y280910D01*
X559525Y283700D01*
X561660Y285835D01*
X564450Y286991D01*
X578550Y286991D01*
X581340Y285835D01*
X583475Y283700D01*
X584631Y280910D01*
X584631Y277890D01*
X583475Y275100D01*
X581340Y272965D01*
X578550Y271809D01*
X564450Y271809D01*
G37*
%LPD*%
%LPC*%
G36*
X564450Y221009D02*
X564450Y221009D01*
X561660Y222165D01*
X559525Y224300D01*
X558369Y227090D01*
X558369Y230110D01*
X559525Y232900D01*
X561660Y235035D01*
X564450Y236191D01*
X578550Y236191D01*
X581340Y235035D01*
X583475Y232900D01*
X584631Y230110D01*
X584631Y227090D01*
X583475Y224300D01*
X581340Y222165D01*
X578550Y221009D01*
X564450Y221009D01*
G37*
%LPD*%
%LPC*%
G36*
X104139Y53339D02*
X104139Y53339D01*
X104139Y61866D01*
X110996Y61866D01*
X112717Y61594D01*
X114374Y61055D01*
X115925Y60265D01*
X117335Y59241D01*
X118566Y58009D01*
X119590Y56600D01*
X120381Y55048D01*
X120919Y53391D01*
X120927Y53339D01*
X104139Y53339D01*
G37*
%LPD*%
%LPC*%
G36*
X104139Y27939D02*
X104139Y27939D01*
X104139Y36466D01*
X110996Y36466D01*
X112717Y36194D01*
X114374Y35655D01*
X115925Y34865D01*
X117335Y33841D01*
X118566Y32609D01*
X119590Y31200D01*
X120381Y29648D01*
X120919Y27991D01*
X120927Y27939D01*
X104139Y27939D01*
G37*
%LPD*%
%LPC*%
G36*
X82273Y53339D02*
X82273Y53339D01*
X82281Y53391D01*
X82819Y55048D01*
X83610Y56600D01*
X84634Y58009D01*
X85865Y59241D01*
X87275Y60265D01*
X88826Y61055D01*
X90483Y61594D01*
X92204Y61866D01*
X99061Y61866D01*
X99061Y53339D01*
X82273Y53339D01*
G37*
%LPD*%
%LPC*%
G36*
X82273Y27939D02*
X82273Y27939D01*
X82281Y27991D01*
X82819Y29648D01*
X83610Y31200D01*
X84634Y32609D01*
X85865Y33841D01*
X87275Y34865D01*
X88826Y35655D01*
X90483Y36194D01*
X92204Y36466D01*
X99061Y36466D01*
X99061Y27939D01*
X82273Y27939D01*
G37*
%LPD*%
%LPC*%
G36*
X104139Y14334D02*
X104139Y14334D01*
X104139Y22861D01*
X120927Y22861D01*
X120919Y22809D01*
X120381Y21152D01*
X119590Y19600D01*
X118566Y18191D01*
X117335Y16959D01*
X115925Y15935D01*
X114374Y15145D01*
X112717Y14606D01*
X110996Y14334D01*
X104139Y14334D01*
G37*
%LPD*%
%LPC*%
G36*
X104139Y39734D02*
X104139Y39734D01*
X104139Y48261D01*
X120927Y48261D01*
X120919Y48209D01*
X120381Y46552D01*
X119590Y45000D01*
X118566Y43591D01*
X117335Y42359D01*
X115925Y41335D01*
X114374Y40545D01*
X112717Y40006D01*
X110996Y39734D01*
X104139Y39734D01*
G37*
%LPD*%
%LPC*%
G36*
X92204Y14334D02*
X92204Y14334D01*
X90483Y14606D01*
X88826Y15145D01*
X87275Y15935D01*
X86843Y16249D01*
X85865Y16959D01*
X84634Y18191D01*
X83610Y19600D01*
X82819Y21152D01*
X82281Y22809D01*
X82273Y22861D01*
X99061Y22861D01*
X99061Y14334D01*
X92204Y14334D01*
G37*
%LPD*%
%LPC*%
G36*
X92204Y39734D02*
X92204Y39734D01*
X90483Y40006D01*
X88826Y40545D01*
X87275Y41335D01*
X85865Y42359D01*
X84634Y43591D01*
X83610Y45000D01*
X82819Y46552D01*
X82281Y48209D01*
X82273Y48261D01*
X99061Y48261D01*
X99061Y39734D01*
X92204Y39734D01*
G37*
%LPD*%
%LPC*%
G36*
X637539Y180339D02*
X637539Y180339D01*
X637539Y187961D01*
X643420Y187961D01*
X644999Y187711D01*
X646520Y187216D01*
X647945Y186490D01*
X649239Y185550D01*
X650370Y184419D01*
X651310Y183125D01*
X652036Y181700D01*
X652479Y180339D01*
X637539Y180339D01*
G37*
%LPD*%
%LPC*%
G36*
X637539Y373379D02*
X637539Y373379D01*
X637539Y381001D01*
X643420Y381001D01*
X644999Y380751D01*
X646520Y380256D01*
X647945Y379530D01*
X649239Y378590D01*
X650370Y377459D01*
X651310Y376165D01*
X652036Y374740D01*
X652479Y373379D01*
X637539Y373379D01*
G37*
%LPD*%
%LPC*%
G36*
X40639Y129539D02*
X40639Y129539D01*
X40639Y137161D01*
X46520Y137161D01*
X48099Y136911D01*
X49620Y136416D01*
X51045Y135690D01*
X52339Y134750D01*
X53470Y133619D01*
X54410Y132325D01*
X55136Y130900D01*
X55579Y129539D01*
X40639Y129539D01*
G37*
%LPD*%
%LPC*%
G36*
X20621Y129539D02*
X20621Y129539D01*
X21064Y130900D01*
X21790Y132325D01*
X22730Y133619D01*
X23861Y134750D01*
X25155Y135690D01*
X26580Y136416D01*
X28101Y136911D01*
X29680Y137161D01*
X35561Y137161D01*
X35561Y129539D01*
X20621Y129539D01*
G37*
%LPD*%
%LPC*%
G36*
X617521Y373379D02*
X617521Y373379D01*
X617964Y374740D01*
X618690Y376165D01*
X619630Y377459D01*
X620761Y378590D01*
X622055Y379530D01*
X623480Y380256D01*
X625001Y380751D01*
X626580Y381001D01*
X632461Y381001D01*
X632461Y373379D01*
X617521Y373379D01*
G37*
%LPD*%
%LPC*%
G36*
X617521Y180339D02*
X617521Y180339D01*
X617964Y181700D01*
X618690Y183125D01*
X619630Y184419D01*
X620761Y185550D01*
X622055Y186490D01*
X623480Y187216D01*
X625001Y187711D01*
X626580Y187961D01*
X632461Y187961D01*
X632461Y180339D01*
X617521Y180339D01*
G37*
%LPD*%
%LPC*%
G36*
X637539Y167639D02*
X637539Y167639D01*
X637539Y175261D01*
X652479Y175261D01*
X652036Y173900D01*
X651310Y172475D01*
X650370Y171181D01*
X649239Y170050D01*
X647945Y169110D01*
X646520Y168384D01*
X644999Y167889D01*
X643420Y167639D01*
X637539Y167639D01*
G37*
%LPD*%
%LPC*%
G36*
X637539Y360679D02*
X637539Y360679D01*
X637539Y368301D01*
X652479Y368301D01*
X652036Y366940D01*
X651310Y365515D01*
X650370Y364221D01*
X649239Y363090D01*
X647945Y362150D01*
X646520Y361424D01*
X644999Y360929D01*
X643420Y360679D01*
X637539Y360679D01*
G37*
%LPD*%
%LPC*%
G36*
X40639Y116839D02*
X40639Y116839D01*
X40639Y124461D01*
X55579Y124461D01*
X55136Y123100D01*
X54410Y121675D01*
X53470Y120381D01*
X52339Y119250D01*
X51045Y118310D01*
X49620Y117584D01*
X48099Y117089D01*
X46520Y116839D01*
X40639Y116839D01*
G37*
%LPD*%
%LPC*%
G36*
X626580Y167639D02*
X626580Y167639D01*
X625001Y167889D01*
X623480Y168384D01*
X622055Y169110D01*
X620761Y170050D01*
X619630Y171181D01*
X618690Y172475D01*
X617964Y173900D01*
X617521Y175261D01*
X632461Y175261D01*
X632461Y167639D01*
X626580Y167639D01*
G37*
%LPD*%
%LPC*%
G36*
X626580Y360679D02*
X626580Y360679D01*
X625001Y360929D01*
X623480Y361424D01*
X622055Y362150D01*
X620761Y363090D01*
X619630Y364221D01*
X618690Y365515D01*
X617964Y366940D01*
X617521Y368301D01*
X632461Y368301D01*
X632461Y360679D01*
X626580Y360679D01*
G37*
%LPD*%
%LPC*%
G36*
X29680Y116839D02*
X29680Y116839D01*
X28101Y117089D01*
X26580Y117584D01*
X25155Y118310D01*
X23861Y119250D01*
X22730Y120381D01*
X21790Y121675D01*
X21064Y123100D01*
X20621Y124461D01*
X35561Y124461D01*
X35561Y116839D01*
X29680Y116839D01*
G37*
%LPD*%
%LPC*%
G36*
X496799Y204699D02*
X496799Y204699D01*
X496799Y211281D01*
X501636Y211281D01*
X503197Y210970D01*
X504668Y210361D01*
X505991Y209477D01*
X507117Y208351D01*
X508001Y207028D01*
X508610Y205557D01*
X508781Y204699D01*
X496799Y204699D01*
G37*
%LPD*%
%LPC*%
G36*
X481819Y204699D02*
X481819Y204699D01*
X481990Y205557D01*
X482599Y207028D01*
X483483Y208351D01*
X484609Y209477D01*
X485932Y210361D01*
X487403Y210970D01*
X488964Y211281D01*
X493801Y211281D01*
X493801Y204699D01*
X481819Y204699D01*
G37*
%LPD*%
%LPC*%
G36*
X496799Y195119D02*
X496799Y195119D01*
X496799Y201701D01*
X508781Y201701D01*
X508610Y200843D01*
X508001Y199372D01*
X507117Y198049D01*
X505991Y196923D01*
X504668Y196039D01*
X503197Y195430D01*
X501636Y195119D01*
X496799Y195119D01*
G37*
%LPD*%
%LPC*%
G36*
X488964Y195119D02*
X488964Y195119D01*
X487403Y195430D01*
X485932Y196039D01*
X484609Y196923D01*
X483483Y198049D01*
X482599Y199372D01*
X481990Y200843D01*
X481819Y201701D01*
X493801Y201701D01*
X493801Y195119D01*
X488964Y195119D01*
G37*
%LPD*%
%LPC*%
G36*
X101599Y50799D02*
X101599Y50799D01*
X101599Y50801D01*
X101601Y50801D01*
X101601Y50799D01*
X101599Y50799D01*
G37*
%LPD*%
%LPC*%
G36*
X634999Y177799D02*
X634999Y177799D01*
X634999Y177801D01*
X635001Y177801D01*
X635001Y177799D01*
X634999Y177799D01*
G37*
%LPD*%
%LPC*%
G36*
X101599Y25399D02*
X101599Y25399D01*
X101599Y25401D01*
X101601Y25401D01*
X101601Y25399D01*
X101599Y25399D01*
G37*
%LPD*%
%LPC*%
G36*
X38099Y126999D02*
X38099Y126999D01*
X38099Y127001D01*
X38101Y127001D01*
X38101Y126999D01*
X38099Y126999D01*
G37*
%LPD*%
%LPC*%
G36*
X634999Y370839D02*
X634999Y370839D01*
X634999Y370841D01*
X635001Y370841D01*
X635001Y370839D01*
X634999Y370839D01*
G37*
%LPD*%
D10*
X45720Y50800D02*
X30480Y50800D01*
X30480Y76200D02*
X45720Y76200D01*
X45720Y101600D02*
X30480Y101600D01*
X30480Y127000D02*
X45720Y127000D01*
X45720Y152400D02*
X30480Y152400D01*
X30480Y177800D02*
X45720Y177800D01*
X627380Y370840D02*
X642620Y370840D01*
X642620Y345440D02*
X627380Y345440D01*
X627380Y320040D02*
X642620Y320040D01*
X642620Y294640D02*
X627380Y294640D01*
X627380Y269240D02*
X642620Y269240D01*
X642620Y243840D02*
X627380Y243840D01*
D11*
X577040Y25400D02*
X565960Y25400D01*
X500840Y25400D02*
X489760Y25400D01*
X489760Y50800D02*
X500840Y50800D01*
X500840Y76200D02*
X489760Y76200D01*
X565960Y50800D02*
X577040Y50800D01*
X577040Y76200D02*
X565960Y76200D01*
X500840Y101600D02*
X489760Y101600D01*
X489760Y127000D02*
X500840Y127000D01*
X500840Y152400D02*
X489760Y152400D01*
X489760Y177800D02*
X500840Y177800D01*
X500840Y203200D02*
X489760Y203200D01*
X489760Y228600D02*
X500840Y228600D01*
X500840Y254000D02*
X489760Y254000D01*
X489760Y279400D02*
X500840Y279400D01*
X500840Y304800D02*
X489760Y304800D01*
X489760Y330200D02*
X500840Y330200D01*
X500840Y355600D02*
X489760Y355600D01*
X565960Y355600D02*
X577040Y355600D01*
X577040Y330200D02*
X565960Y330200D01*
X565960Y304800D02*
X577040Y304800D01*
X577040Y279400D02*
X565960Y279400D01*
X565960Y254000D02*
X577040Y254000D01*
X577040Y228600D02*
X565960Y228600D01*
X565960Y203200D02*
X577040Y203200D01*
X577040Y177800D02*
X565960Y177800D01*
X565960Y152400D02*
X577040Y152400D01*
X577040Y127000D02*
X565960Y127000D01*
X565960Y101600D02*
X577040Y101600D01*
D12*
X110126Y203200D02*
X93075Y203200D01*
X93075Y177800D02*
X110126Y177800D01*
X110126Y152400D02*
X93075Y152400D01*
X93075Y127000D02*
X110126Y127000D01*
X110126Y101600D02*
X93075Y101600D01*
X93075Y76200D02*
X110126Y76200D01*
X110126Y50800D02*
X93075Y50800D01*
X93075Y25400D02*
X110126Y25400D01*
X371475Y25400D02*
X388526Y25400D01*
X388526Y50800D02*
X371475Y50800D01*
X371475Y76200D02*
X388526Y76200D01*
X388526Y101600D02*
X371475Y101600D01*
X371475Y127000D02*
X388526Y127000D01*
X388526Y152400D02*
X371475Y152400D01*
X371475Y177800D02*
X388526Y177800D01*
X388526Y203200D02*
X371475Y203200D01*
D10*
X627380Y177800D02*
X642620Y177800D01*
X642620Y152400D02*
X627380Y152400D01*
X627380Y127000D02*
X642620Y127000D01*
X642620Y101600D02*
X627380Y101600D01*
X627380Y76200D02*
X642620Y76200D01*
X642620Y50800D02*
X627380Y50800D01*
X627380Y25400D02*
X642620Y25400D01*
X452120Y222250D02*
X436880Y222250D01*
X436880Y247650D02*
X452120Y247650D01*
X452120Y273050D02*
X436880Y273050D01*
X436880Y298450D02*
X452120Y298450D01*
X452120Y323850D02*
X436880Y323850D01*
X436880Y349250D02*
X452120Y349250D01*
D13*
X479400Y374650D03*
X460400Y374650D03*
D14*
X228600Y304800D03*
X304800Y298450D03*
X431800Y425450D03*
D15*
X479400Y374650D02*
X495300Y358750D01*
X495300Y355600D01*
X495300Y330200D02*
X463550Y298450D01*
X444500Y298450D01*
D16*
X571500Y330200D02*
X584200Y330200D01*
X622300Y292100D01*
X632460Y292100D01*
X635000Y294640D01*
X120650Y285750D02*
X63500Y228600D01*
X63500Y177800D01*
X38100Y152400D01*
X488950Y285750D02*
X495300Y279400D01*
X488950Y285750D02*
X120650Y285750D01*
X488950Y260350D02*
X495300Y254000D01*
X488950Y260350D02*
X107950Y260350D01*
X76200Y228600D01*
X76200Y101600D01*
X50800Y76200D01*
X38100Y76200D01*
X101600Y203200D02*
X133350Y234950D01*
X558800Y241300D02*
X571500Y254000D01*
D15*
X558800Y241300D02*
X476250Y241300D01*
X469900Y234950D01*
X133350Y234950D01*
X460400Y365150D02*
X460400Y374650D01*
X460400Y365150D02*
X444500Y349250D01*
M02*
