G04 EAGLE Gerber RS-274X export*
G75*
%MOMM*%
%FSLAX34Y34*%
%LPD*%
%INTop Copper*%
%IPPOS*%
%AMOC8*
5,1,8,0,0,1.08239X$1,22.5*%
G01*
%ADD10R,1.600000X3.500000*%
%ADD11R,1.500000X1.300000*%
%ADD12R,4.000000X2.500000*%
%ADD13R,7.000000X4.000000*%
%ADD14C,1.524000*%
%ADD15R,1.300000X1.500000*%
%ADD16C,1.108000*%
%ADD17R,3.311800X1.111800*%
%ADD18R,1.600200X0.838200*%
%ADD19R,1.600200X3.048000*%
%ADD20C,1.705100*%
%ADD21R,1.900000X0.400000*%
%ADD22R,1.320800X0.558800*%
%ADD23R,0.787400X0.889000*%
%ADD24R,3.400000X1.900000*%
%ADD25C,0.812800*%
%ADD26C,0.254000*%
%ADD27C,0.756400*%
%ADD28C,0.304800*%

G36*
X647678Y-15223D02*
X647678Y-15223D01*
X647810Y-15212D01*
X647836Y-15203D01*
X647862Y-15199D01*
X647985Y-15151D01*
X648111Y-15107D01*
X648133Y-15092D01*
X648158Y-15082D01*
X648265Y-15005D01*
X648376Y-14931D01*
X648394Y-14911D01*
X648415Y-14896D01*
X648500Y-14793D01*
X648589Y-14695D01*
X648601Y-14671D01*
X648618Y-14651D01*
X648675Y-14531D01*
X648736Y-14414D01*
X648742Y-14387D01*
X648754Y-14363D01*
X648779Y-14233D01*
X648809Y-14104D01*
X648809Y-14077D01*
X648814Y-14051D01*
X648805Y-13919D01*
X648803Y-13786D01*
X648796Y-13760D01*
X648794Y-13733D01*
X648753Y-13607D01*
X648718Y-13480D01*
X648701Y-13445D01*
X648696Y-13431D01*
X648684Y-13412D01*
X648646Y-13335D01*
X646554Y-9712D01*
X644839Y-3312D01*
X644839Y3312D01*
X646554Y9712D01*
X649882Y15477D01*
X649907Y15535D01*
X649940Y15589D01*
X649968Y15681D01*
X650006Y15770D01*
X650015Y15833D01*
X650034Y15893D01*
X650038Y15989D01*
X650052Y16085D01*
X650046Y16148D01*
X650049Y16210D01*
X650029Y16305D01*
X650019Y16401D01*
X649997Y16460D01*
X649984Y16522D01*
X649942Y16609D01*
X649908Y16699D01*
X649872Y16751D01*
X649845Y16808D01*
X649782Y16881D01*
X649727Y16960D01*
X649679Y17002D01*
X649638Y17050D01*
X649559Y17105D01*
X649486Y17168D01*
X649430Y17196D01*
X649378Y17233D01*
X649288Y17267D01*
X649202Y17310D01*
X649140Y17323D01*
X649081Y17345D01*
X648985Y17356D01*
X648891Y17376D01*
X648828Y17374D01*
X648765Y17381D01*
X648669Y17367D01*
X648573Y17363D01*
X648512Y17345D01*
X648450Y17336D01*
X648298Y17284D01*
X644544Y15729D01*
X625456Y15729D01*
X621902Y17202D01*
X619182Y19922D01*
X617709Y23476D01*
X617709Y27324D01*
X619182Y30878D01*
X621902Y33598D01*
X625456Y35071D01*
X644544Y35071D01*
X648098Y33598D01*
X648753Y32944D01*
X648847Y32871D01*
X648936Y32792D01*
X648972Y32774D01*
X649004Y32749D01*
X649113Y32702D01*
X649219Y32647D01*
X649259Y32639D01*
X649296Y32623D01*
X649414Y32604D01*
X649529Y32578D01*
X649570Y32579D01*
X649610Y32573D01*
X649728Y32584D01*
X649847Y32587D01*
X649886Y32599D01*
X649926Y32603D01*
X650039Y32643D01*
X650153Y32676D01*
X650188Y32696D01*
X650226Y32710D01*
X650324Y32777D01*
X650427Y32837D01*
X650472Y32877D01*
X650489Y32889D01*
X650502Y32904D01*
X650548Y32944D01*
X656708Y39104D01*
X656768Y39182D01*
X656836Y39254D01*
X656865Y39307D01*
X656902Y39355D01*
X656942Y39446D01*
X656990Y39533D01*
X657005Y39591D01*
X657029Y39647D01*
X657044Y39745D01*
X657069Y39841D01*
X657075Y39941D01*
X657079Y39961D01*
X657077Y39973D01*
X657079Y40001D01*
X657079Y188599D01*
X657067Y188697D01*
X657064Y188796D01*
X657047Y188854D01*
X657039Y188914D01*
X657003Y189006D01*
X656975Y189101D01*
X656945Y189154D01*
X656922Y189210D01*
X656864Y189290D01*
X656814Y189375D01*
X656748Y189451D01*
X656736Y189467D01*
X656726Y189475D01*
X656708Y189496D01*
X646696Y199508D01*
X646618Y199568D01*
X646546Y199636D01*
X646493Y199665D01*
X646445Y199702D01*
X646354Y199742D01*
X646267Y199790D01*
X646209Y199805D01*
X646153Y199829D01*
X646055Y199844D01*
X645959Y199869D01*
X645859Y199875D01*
X645839Y199879D01*
X645827Y199877D01*
X645799Y199879D01*
X633625Y199879D01*
X608596Y224908D01*
X608518Y224968D01*
X608446Y225036D01*
X608393Y225065D01*
X608345Y225102D01*
X608254Y225142D01*
X608167Y225190D01*
X608109Y225205D01*
X608053Y225229D01*
X607955Y225244D01*
X607859Y225269D01*
X607759Y225275D01*
X607739Y225279D01*
X607727Y225277D01*
X607699Y225279D01*
X584729Y225279D01*
X584700Y225276D01*
X584670Y225278D01*
X584542Y225256D01*
X584413Y225239D01*
X584386Y225229D01*
X584357Y225224D01*
X584238Y225170D01*
X584118Y225122D01*
X584094Y225105D01*
X584067Y225093D01*
X583965Y225012D01*
X583860Y224936D01*
X583841Y224913D01*
X583818Y224894D01*
X583740Y224791D01*
X583657Y224691D01*
X583645Y224664D01*
X583627Y224640D01*
X583556Y224496D01*
X583475Y224300D01*
X581340Y222165D01*
X578550Y221009D01*
X564450Y221009D01*
X561660Y222165D01*
X559525Y224300D01*
X558369Y227090D01*
X558369Y230110D01*
X559525Y232900D01*
X561660Y235035D01*
X564450Y236191D01*
X578550Y236191D01*
X581340Y235035D01*
X583475Y232900D01*
X583556Y232704D01*
X583571Y232679D01*
X583580Y232651D01*
X583649Y232541D01*
X583714Y232428D01*
X583734Y232407D01*
X583750Y232382D01*
X583845Y232293D01*
X583935Y232200D01*
X583960Y232184D01*
X583982Y232164D01*
X584096Y232101D01*
X584206Y232033D01*
X584234Y232025D01*
X584260Y232010D01*
X584386Y231978D01*
X584510Y231940D01*
X584539Y231938D01*
X584568Y231931D01*
X584729Y231921D01*
X610975Y231921D01*
X636004Y206892D01*
X636082Y206832D01*
X636154Y206764D01*
X636207Y206735D01*
X636255Y206698D01*
X636346Y206658D01*
X636433Y206610D01*
X636491Y206595D01*
X636547Y206571D01*
X636645Y206556D01*
X636741Y206531D01*
X636841Y206525D01*
X636861Y206521D01*
X636873Y206523D01*
X636901Y206521D01*
X649075Y206521D01*
X663721Y191875D01*
X663721Y36725D01*
X652662Y25666D01*
X652602Y25588D01*
X652534Y25516D01*
X652505Y25463D01*
X652468Y25415D01*
X652428Y25324D01*
X652380Y25237D01*
X652365Y25179D01*
X652341Y25123D01*
X652326Y25025D01*
X652301Y24929D01*
X652295Y24829D01*
X652291Y24809D01*
X652293Y24797D01*
X652291Y24769D01*
X652291Y23476D01*
X650771Y19807D01*
X650752Y19739D01*
X650725Y19675D01*
X650710Y19586D01*
X650687Y19500D01*
X650686Y19430D01*
X650675Y19361D01*
X650683Y19272D01*
X650682Y19182D01*
X650698Y19114D01*
X650705Y19045D01*
X650735Y18960D01*
X650756Y18873D01*
X650789Y18811D01*
X650812Y18745D01*
X650863Y18671D01*
X650905Y18592D01*
X650952Y18540D01*
X650991Y18482D01*
X651058Y18423D01*
X651119Y18356D01*
X651177Y18318D01*
X651229Y18272D01*
X651309Y18231D01*
X651384Y18182D01*
X651450Y18159D01*
X651512Y18127D01*
X651600Y18107D01*
X651685Y18078D01*
X651755Y18073D01*
X651823Y18057D01*
X651912Y18060D01*
X652002Y18053D01*
X652071Y18065D01*
X652141Y18067D01*
X652227Y18092D01*
X652315Y18107D01*
X652379Y18136D01*
X652446Y18156D01*
X652523Y18201D01*
X652605Y18238D01*
X652660Y18282D01*
X652720Y18317D01*
X652841Y18423D01*
X654551Y20134D01*
X660288Y23446D01*
X666688Y25161D01*
X673312Y25161D01*
X679712Y23446D01*
X685449Y20134D01*
X686173Y19410D01*
X686282Y19325D01*
X686389Y19236D01*
X686408Y19228D01*
X686424Y19215D01*
X686552Y19160D01*
X686677Y19101D01*
X686697Y19097D01*
X686716Y19089D01*
X686854Y19067D01*
X686990Y19041D01*
X687010Y19042D01*
X687030Y19039D01*
X687169Y19052D01*
X687307Y19061D01*
X687326Y19067D01*
X687346Y19069D01*
X687477Y19116D01*
X687609Y19159D01*
X687627Y19170D01*
X687646Y19176D01*
X687760Y19254D01*
X687878Y19329D01*
X687892Y19344D01*
X687909Y19355D01*
X688001Y19459D01*
X688096Y19560D01*
X688106Y19578D01*
X688119Y19593D01*
X688182Y19717D01*
X688250Y19839D01*
X688255Y19859D01*
X688264Y19877D01*
X688294Y20013D01*
X688329Y20147D01*
X688331Y20175D01*
X688334Y20187D01*
X688333Y20207D01*
X688339Y20308D01*
X688339Y470570D01*
X688324Y470688D01*
X688317Y470807D01*
X688304Y470845D01*
X688299Y470886D01*
X688256Y470996D01*
X688219Y471109D01*
X688197Y471144D01*
X688182Y471181D01*
X688113Y471277D01*
X688049Y471378D01*
X688019Y471406D01*
X687996Y471439D01*
X687904Y471515D01*
X687817Y471596D01*
X687782Y471616D01*
X687751Y471641D01*
X687643Y471692D01*
X687539Y471750D01*
X687499Y471760D01*
X687463Y471777D01*
X687346Y471799D01*
X687231Y471829D01*
X687171Y471833D01*
X687151Y471837D01*
X687130Y471835D01*
X687070Y471839D01*
X676808Y471839D01*
X676670Y471822D01*
X676531Y471809D01*
X676512Y471802D01*
X676492Y471799D01*
X676363Y471748D01*
X676232Y471701D01*
X676215Y471690D01*
X676196Y471682D01*
X676084Y471601D01*
X675969Y471523D01*
X675955Y471507D01*
X675939Y471496D01*
X675850Y471388D01*
X675758Y471284D01*
X675749Y471266D01*
X675736Y471251D01*
X675677Y471125D01*
X675614Y471001D01*
X675609Y470981D01*
X675601Y470963D01*
X675575Y470827D01*
X675544Y470691D01*
X675545Y470670D01*
X675541Y470651D01*
X675550Y470512D01*
X675554Y470373D01*
X675559Y470353D01*
X675561Y470333D01*
X675603Y470201D01*
X675642Y470067D01*
X675652Y470050D01*
X675659Y470031D01*
X675733Y469913D01*
X675804Y469793D01*
X675822Y469772D01*
X675829Y469762D01*
X675844Y469748D01*
X675910Y469673D01*
X680134Y465449D01*
X683446Y459712D01*
X685161Y453312D01*
X685161Y446688D01*
X683446Y440288D01*
X680134Y434551D01*
X675449Y429866D01*
X669712Y426554D01*
X663312Y424839D01*
X656688Y424839D01*
X650288Y426554D01*
X644551Y429866D01*
X639866Y434551D01*
X636554Y440288D01*
X634839Y446688D01*
X634839Y453312D01*
X636554Y459712D01*
X639866Y465449D01*
X644090Y469673D01*
X644175Y469782D01*
X644264Y469889D01*
X644272Y469908D01*
X644285Y469924D01*
X644340Y470052D01*
X644399Y470177D01*
X644403Y470197D01*
X644411Y470216D01*
X644433Y470354D01*
X644459Y470490D01*
X644458Y470510D01*
X644461Y470530D01*
X644448Y470669D01*
X644439Y470807D01*
X644433Y470826D01*
X644431Y470846D01*
X644384Y470978D01*
X644341Y471109D01*
X644330Y471127D01*
X644324Y471146D01*
X644246Y471261D01*
X644171Y471378D01*
X644156Y471392D01*
X644145Y471409D01*
X644041Y471501D01*
X643940Y471596D01*
X643922Y471606D01*
X643907Y471619D01*
X643782Y471683D01*
X643661Y471750D01*
X643641Y471755D01*
X643623Y471764D01*
X643488Y471794D01*
X643353Y471829D01*
X643325Y471831D01*
X643313Y471834D01*
X643293Y471833D01*
X643192Y471839D01*
X46808Y471839D01*
X46670Y471822D01*
X46531Y471809D01*
X46512Y471802D01*
X46492Y471799D01*
X46363Y471748D01*
X46232Y471701D01*
X46215Y471690D01*
X46196Y471682D01*
X46084Y471601D01*
X45969Y471523D01*
X45955Y471507D01*
X45939Y471496D01*
X45850Y471388D01*
X45758Y471284D01*
X45749Y471266D01*
X45736Y471251D01*
X45677Y471125D01*
X45614Y471001D01*
X45609Y470981D01*
X45601Y470963D01*
X45575Y470827D01*
X45544Y470691D01*
X45545Y470670D01*
X45541Y470651D01*
X45550Y470512D01*
X45554Y470373D01*
X45559Y470353D01*
X45561Y470333D01*
X45603Y470201D01*
X45642Y470067D01*
X45652Y470050D01*
X45659Y470031D01*
X45733Y469913D01*
X45804Y469793D01*
X45822Y469772D01*
X45829Y469762D01*
X45844Y469748D01*
X45910Y469673D01*
X50134Y465449D01*
X53446Y459712D01*
X55161Y453312D01*
X55161Y446688D01*
X53446Y440288D01*
X50134Y434551D01*
X48190Y432607D01*
X48105Y432498D01*
X48016Y432391D01*
X48008Y432372D01*
X47995Y432356D01*
X47940Y432228D01*
X47881Y432103D01*
X47877Y432083D01*
X47869Y432064D01*
X47847Y431926D01*
X47821Y431790D01*
X47822Y431770D01*
X47819Y431750D01*
X47832Y431611D01*
X47841Y431473D01*
X47847Y431454D01*
X47849Y431434D01*
X47896Y431302D01*
X47939Y431171D01*
X47950Y431153D01*
X47956Y431134D01*
X48034Y431019D01*
X48109Y430902D01*
X48124Y430888D01*
X48135Y430871D01*
X48239Y430779D01*
X48340Y430684D01*
X48358Y430674D01*
X48373Y430661D01*
X48498Y430597D01*
X48619Y430530D01*
X48639Y430525D01*
X48657Y430516D01*
X48792Y430486D01*
X48927Y430451D01*
X48955Y430449D01*
X48967Y430446D01*
X48987Y430447D01*
X49088Y430441D01*
X77661Y430441D01*
X77661Y410439D01*
X42659Y410439D01*
X42659Y426057D01*
X42643Y426188D01*
X42632Y426321D01*
X42623Y426346D01*
X42619Y426373D01*
X42571Y426496D01*
X42527Y426621D01*
X42512Y426643D01*
X42502Y426669D01*
X42425Y426776D01*
X42351Y426886D01*
X42331Y426904D01*
X42316Y426926D01*
X42214Y427010D01*
X42115Y427099D01*
X42091Y427112D01*
X42071Y427129D01*
X41951Y427185D01*
X41834Y427247D01*
X41807Y427253D01*
X41783Y427264D01*
X41653Y427289D01*
X41524Y427319D01*
X41497Y427319D01*
X41471Y427324D01*
X41339Y427316D01*
X41206Y427313D01*
X41180Y427306D01*
X41153Y427304D01*
X41027Y427263D01*
X40900Y427228D01*
X40865Y427211D01*
X40851Y427206D01*
X40832Y427195D01*
X40755Y427157D01*
X39712Y426554D01*
X33312Y424839D01*
X26688Y424839D01*
X20288Y426554D01*
X14551Y429866D01*
X12327Y432090D01*
X12218Y432175D01*
X12111Y432264D01*
X12092Y432272D01*
X12076Y432285D01*
X11948Y432340D01*
X11823Y432399D01*
X11803Y432403D01*
X11784Y432411D01*
X11646Y432433D01*
X11510Y432459D01*
X11490Y432458D01*
X11470Y432461D01*
X11331Y432448D01*
X11193Y432439D01*
X11174Y432433D01*
X11154Y432431D01*
X11022Y432384D01*
X10891Y432341D01*
X10873Y432330D01*
X10854Y432324D01*
X10739Y432246D01*
X10622Y432171D01*
X10608Y432156D01*
X10591Y432145D01*
X10499Y432041D01*
X10404Y431940D01*
X10394Y431922D01*
X10381Y431907D01*
X10317Y431782D01*
X10250Y431661D01*
X10245Y431641D01*
X10236Y431623D01*
X10206Y431488D01*
X10171Y431353D01*
X10169Y431325D01*
X10166Y431313D01*
X10167Y431293D01*
X10161Y431192D01*
X10161Y28808D01*
X10178Y28670D01*
X10191Y28531D01*
X10198Y28512D01*
X10201Y28492D01*
X10252Y28363D01*
X10299Y28232D01*
X10310Y28215D01*
X10318Y28196D01*
X10399Y28084D01*
X10477Y27969D01*
X10493Y27955D01*
X10504Y27939D01*
X10612Y27850D01*
X10716Y27758D01*
X10734Y27749D01*
X10749Y27736D01*
X10875Y27677D01*
X10999Y27614D01*
X11019Y27609D01*
X11037Y27601D01*
X11173Y27575D01*
X11309Y27544D01*
X11330Y27545D01*
X11349Y27541D01*
X11488Y27550D01*
X11627Y27554D01*
X11647Y27559D01*
X11667Y27561D01*
X11799Y27603D01*
X11933Y27642D01*
X11950Y27652D01*
X11969Y27659D01*
X12087Y27733D01*
X12207Y27804D01*
X12228Y27822D01*
X12238Y27829D01*
X12252Y27844D01*
X12327Y27910D01*
X14551Y30134D01*
X20288Y33446D01*
X26688Y35161D01*
X33312Y35161D01*
X39712Y33446D01*
X45449Y30134D01*
X50134Y25449D01*
X53446Y19712D01*
X55161Y13312D01*
X55161Y6688D01*
X53446Y288D01*
X50134Y-5449D01*
X45449Y-10134D01*
X40708Y-12871D01*
X40592Y-12959D01*
X40474Y-13044D01*
X40465Y-13055D01*
X40455Y-13063D01*
X40364Y-13177D01*
X40271Y-13289D01*
X40266Y-13302D01*
X40257Y-13312D01*
X40197Y-13446D01*
X40136Y-13577D01*
X40133Y-13590D01*
X40128Y-13603D01*
X40103Y-13747D01*
X40076Y-13890D01*
X40077Y-13903D01*
X40075Y-13916D01*
X40087Y-14062D01*
X40096Y-14207D01*
X40100Y-14220D01*
X40101Y-14233D01*
X40149Y-14371D01*
X40194Y-14509D01*
X40201Y-14521D01*
X40205Y-14534D01*
X40286Y-14655D01*
X40364Y-14778D01*
X40374Y-14787D01*
X40381Y-14799D01*
X40489Y-14896D01*
X40596Y-14996D01*
X40607Y-15003D01*
X40617Y-15012D01*
X40747Y-15079D01*
X40874Y-15150D01*
X40887Y-15153D01*
X40899Y-15159D01*
X41041Y-15193D01*
X41182Y-15229D01*
X41200Y-15230D01*
X41209Y-15232D01*
X41226Y-15232D01*
X41343Y-15239D01*
X647547Y-15239D01*
X647678Y-15223D01*
G37*
%LPC*%
G36*
X382201Y338149D02*
X382201Y338149D01*
X380999Y339351D01*
X380999Y346870D01*
X380987Y346968D01*
X380984Y347067D01*
X380967Y347125D01*
X380959Y347185D01*
X380923Y347277D01*
X380895Y347372D01*
X380865Y347424D01*
X380842Y347481D01*
X380784Y347561D01*
X380734Y347646D01*
X380668Y347722D01*
X380656Y347738D01*
X380646Y347746D01*
X380628Y347767D01*
X365817Y362578D01*
X365739Y362638D01*
X365667Y362706D01*
X365614Y362735D01*
X365566Y362772D01*
X365475Y362812D01*
X365388Y362860D01*
X365330Y362875D01*
X365274Y362899D01*
X365176Y362914D01*
X365080Y362939D01*
X364980Y362945D01*
X364960Y362949D01*
X364948Y362947D01*
X364920Y362949D01*
X353601Y362949D01*
X352399Y364151D01*
X352399Y378849D01*
X353652Y380103D01*
X353725Y380197D01*
X353804Y380286D01*
X353822Y380322D01*
X353847Y380354D01*
X353895Y380463D01*
X353949Y380569D01*
X353958Y380608D01*
X353974Y380646D01*
X353992Y380763D01*
X354018Y380879D01*
X354017Y380920D01*
X354023Y380960D01*
X354012Y381078D01*
X354009Y381197D01*
X353997Y381236D01*
X353994Y381276D01*
X353953Y381388D01*
X353920Y381503D01*
X353900Y381538D01*
X353886Y381576D01*
X353819Y381674D01*
X353759Y381777D01*
X353719Y381822D01*
X353707Y381839D01*
X353692Y381852D01*
X353652Y381898D01*
X352399Y383151D01*
X352399Y385656D01*
X352384Y385774D01*
X352377Y385893D01*
X352364Y385931D01*
X352359Y385972D01*
X352316Y386082D01*
X352279Y386195D01*
X352257Y386230D01*
X352242Y386267D01*
X352173Y386363D01*
X352109Y386464D01*
X352079Y386492D01*
X352056Y386525D01*
X351964Y386601D01*
X351877Y386682D01*
X351842Y386702D01*
X351811Y386727D01*
X351703Y386778D01*
X351599Y386836D01*
X351559Y386846D01*
X351523Y386863D01*
X351406Y386885D01*
X351291Y386915D01*
X351231Y386919D01*
X351211Y386923D01*
X351190Y386921D01*
X351130Y386925D01*
X341020Y386925D01*
X340902Y386910D01*
X340783Y386903D01*
X340745Y386890D01*
X340704Y386885D01*
X340594Y386842D01*
X340481Y386805D01*
X340446Y386783D01*
X340409Y386768D01*
X340313Y386699D01*
X340212Y386635D01*
X340184Y386605D01*
X340151Y386582D01*
X340075Y386490D01*
X339994Y386403D01*
X339974Y386368D01*
X339949Y386337D01*
X339898Y386229D01*
X339840Y386125D01*
X339830Y386085D01*
X339813Y386049D01*
X339791Y385932D01*
X339761Y385817D01*
X339757Y385757D01*
X339753Y385737D01*
X339755Y385716D01*
X339751Y385656D01*
X339751Y383151D01*
X338764Y382164D01*
X338687Y382065D01*
X338605Y381970D01*
X338590Y381939D01*
X338569Y381913D01*
X338520Y381798D01*
X338464Y381685D01*
X338456Y381652D01*
X338443Y381621D01*
X338423Y381497D01*
X338397Y381374D01*
X338399Y381340D01*
X338393Y381307D01*
X338405Y381182D01*
X338410Y381056D01*
X338420Y381024D01*
X338423Y380990D01*
X338466Y380872D01*
X338502Y380752D01*
X338519Y380723D01*
X338531Y380691D01*
X338601Y380587D01*
X338666Y380479D01*
X338690Y380456D01*
X338709Y380428D01*
X338803Y380345D01*
X338893Y380257D01*
X338934Y380230D01*
X338948Y380217D01*
X338967Y380208D01*
X339027Y380168D01*
X339260Y380033D01*
X339733Y379560D01*
X340068Y378981D01*
X340241Y378334D01*
X340241Y374039D01*
X331470Y374039D01*
X331352Y374024D01*
X331233Y374017D01*
X331195Y374004D01*
X331155Y373999D01*
X331044Y373955D01*
X330931Y373919D01*
X330896Y373897D01*
X330859Y373882D01*
X330763Y373812D01*
X330662Y373749D01*
X330634Y373719D01*
X330602Y373695D01*
X330526Y373604D01*
X330444Y373517D01*
X330425Y373482D01*
X330399Y373450D01*
X330348Y373343D01*
X330291Y373239D01*
X330280Y373199D01*
X330263Y373163D01*
X330241Y373046D01*
X330211Y372931D01*
X330207Y372870D01*
X330203Y372850D01*
X330205Y372830D01*
X330201Y372770D01*
X330201Y371499D01*
X330199Y371499D01*
X330199Y372770D01*
X330184Y372888D01*
X330177Y373007D01*
X330164Y373045D01*
X330159Y373085D01*
X330115Y373196D01*
X330079Y373309D01*
X330057Y373344D01*
X330042Y373381D01*
X329972Y373477D01*
X329909Y373578D01*
X329879Y373606D01*
X329855Y373638D01*
X329764Y373714D01*
X329677Y373796D01*
X329642Y373815D01*
X329610Y373841D01*
X329503Y373892D01*
X329399Y373949D01*
X329359Y373960D01*
X329323Y373977D01*
X329206Y373999D01*
X329091Y374029D01*
X329030Y374033D01*
X329010Y374037D01*
X328990Y374035D01*
X328930Y374039D01*
X320159Y374039D01*
X320159Y378334D01*
X320332Y378981D01*
X320667Y379560D01*
X321140Y380033D01*
X321373Y380168D01*
X321473Y380243D01*
X321577Y380314D01*
X321599Y380339D01*
X321626Y380360D01*
X321704Y380458D01*
X321787Y380553D01*
X321803Y380583D01*
X321824Y380609D01*
X321875Y380724D01*
X321932Y380836D01*
X321939Y380869D01*
X321953Y380899D01*
X321974Y381024D01*
X322002Y381146D01*
X322001Y381180D01*
X322006Y381213D01*
X321996Y381338D01*
X321992Y381464D01*
X321983Y381496D01*
X321980Y381530D01*
X321939Y381649D01*
X321904Y381769D01*
X321886Y381798D01*
X321875Y381830D01*
X321806Y381935D01*
X321742Y382043D01*
X321710Y382080D01*
X321700Y382095D01*
X321683Y382110D01*
X321636Y382164D01*
X320649Y383151D01*
X320649Y397849D01*
X321851Y399051D01*
X338549Y399051D01*
X339751Y397849D01*
X339751Y395344D01*
X339766Y395226D01*
X339773Y395107D01*
X339786Y395069D01*
X339791Y395028D01*
X339834Y394918D01*
X339871Y394805D01*
X339893Y394770D01*
X339908Y394733D01*
X339977Y394637D01*
X340041Y394536D01*
X340071Y394508D01*
X340094Y394475D01*
X340186Y394399D01*
X340273Y394318D01*
X340308Y394298D01*
X340339Y394273D01*
X340447Y394222D01*
X340551Y394164D01*
X340591Y394154D01*
X340627Y394137D01*
X340744Y394115D01*
X340859Y394085D01*
X340919Y394081D01*
X340939Y394077D01*
X340960Y394079D01*
X341020Y394075D01*
X351130Y394075D01*
X351248Y394090D01*
X351367Y394097D01*
X351405Y394110D01*
X351446Y394115D01*
X351556Y394158D01*
X351669Y394195D01*
X351704Y394217D01*
X351741Y394232D01*
X351837Y394301D01*
X351938Y394365D01*
X351966Y394395D01*
X351999Y394418D01*
X352075Y394510D01*
X352156Y394597D01*
X352176Y394632D01*
X352201Y394663D01*
X352252Y394771D01*
X352310Y394875D01*
X352320Y394915D01*
X352337Y394951D01*
X352359Y395068D01*
X352389Y395183D01*
X352393Y395243D01*
X352397Y395263D01*
X352395Y395284D01*
X352399Y395344D01*
X352399Y397849D01*
X353601Y399051D01*
X357106Y399051D01*
X357224Y399066D01*
X357343Y399073D01*
X357381Y399086D01*
X357422Y399091D01*
X357532Y399134D01*
X357645Y399171D01*
X357680Y399193D01*
X357717Y399208D01*
X357813Y399277D01*
X357914Y399341D01*
X357942Y399371D01*
X357975Y399394D01*
X358051Y399486D01*
X358132Y399573D01*
X358152Y399608D01*
X358177Y399639D01*
X358228Y399747D01*
X358286Y399851D01*
X358296Y399891D01*
X358313Y399927D01*
X358335Y400044D01*
X358365Y400159D01*
X358369Y400219D01*
X358373Y400239D01*
X358371Y400260D01*
X358375Y400320D01*
X358375Y414231D01*
X376319Y432175D01*
X378863Y432175D01*
X378961Y432187D01*
X379060Y432190D01*
X379118Y432207D01*
X379178Y432215D01*
X379270Y432251D01*
X379366Y432279D01*
X379418Y432309D01*
X379474Y432332D01*
X379554Y432390D01*
X379639Y432440D01*
X379715Y432506D01*
X379731Y432518D01*
X379739Y432528D01*
X379760Y432546D01*
X380659Y433445D01*
X395565Y433445D01*
X396767Y432243D01*
X396767Y424930D01*
X396750Y424912D01*
X396728Y424870D01*
X396699Y424833D01*
X396655Y424730D01*
X396602Y424630D01*
X396592Y424584D01*
X396573Y424541D01*
X396555Y424430D01*
X396530Y424321D01*
X396531Y424273D01*
X396523Y424227D01*
X396534Y424115D01*
X396536Y424003D01*
X396549Y423957D01*
X396553Y423910D01*
X396591Y423805D01*
X396621Y423696D01*
X396653Y423631D01*
X396660Y423611D01*
X396671Y423596D01*
X396693Y423552D01*
X397084Y422875D01*
X397257Y422228D01*
X397257Y421988D01*
X397274Y421851D01*
X397287Y421712D01*
X397294Y421693D01*
X397297Y421673D01*
X397348Y421544D01*
X397395Y421413D01*
X397406Y421396D01*
X397414Y421377D01*
X397495Y421265D01*
X397573Y421150D01*
X397589Y421136D01*
X397600Y421120D01*
X397708Y421031D01*
X397812Y420939D01*
X397830Y420930D01*
X397845Y420917D01*
X397971Y420858D01*
X398095Y420795D01*
X398115Y420790D01*
X398133Y420781D01*
X398269Y420755D01*
X398405Y420725D01*
X398426Y420726D01*
X398445Y420722D01*
X398584Y420730D01*
X398723Y420735D01*
X398743Y420740D01*
X398763Y420741D01*
X398895Y420784D01*
X399029Y420823D01*
X399046Y420833D01*
X399065Y420839D01*
X399183Y420914D01*
X399303Y420984D01*
X399324Y421003D01*
X399334Y421010D01*
X399348Y421025D01*
X399423Y421091D01*
X402962Y424629D01*
X403022Y424707D01*
X403090Y424779D01*
X403119Y424832D01*
X403156Y424880D01*
X403196Y424971D01*
X403244Y425058D01*
X403259Y425116D01*
X403283Y425172D01*
X403298Y425270D01*
X403323Y425366D01*
X403329Y425466D01*
X403333Y425486D01*
X403331Y425498D01*
X403333Y425526D01*
X403333Y432243D01*
X404535Y433445D01*
X419441Y433445D01*
X420643Y432243D01*
X420643Y430294D01*
X420658Y430176D01*
X420665Y430057D01*
X420678Y430019D01*
X420683Y429978D01*
X420726Y429868D01*
X420763Y429755D01*
X420785Y429720D01*
X420800Y429683D01*
X420869Y429587D01*
X420933Y429486D01*
X420963Y429458D01*
X420986Y429425D01*
X421078Y429349D01*
X421165Y429268D01*
X421200Y429248D01*
X421231Y429223D01*
X421339Y429172D01*
X421443Y429114D01*
X421483Y429104D01*
X421519Y429087D01*
X421636Y429065D01*
X421751Y429035D01*
X421811Y429031D01*
X421831Y429027D01*
X421852Y429029D01*
X421912Y429025D01*
X426600Y429025D01*
X426698Y429037D01*
X426797Y429040D01*
X426856Y429057D01*
X426916Y429065D01*
X427008Y429101D01*
X427103Y429129D01*
X427155Y429159D01*
X427211Y429182D01*
X427292Y429240D01*
X427377Y429290D01*
X427452Y429356D01*
X427469Y429368D01*
X427477Y429378D01*
X427498Y429396D01*
X428496Y430395D01*
X430640Y431283D01*
X432960Y431283D01*
X435104Y430395D01*
X436102Y429396D01*
X436132Y429373D01*
X438946Y426559D01*
X442833Y422672D01*
X442911Y422612D01*
X442983Y422544D01*
X443036Y422515D01*
X443084Y422478D01*
X443175Y422438D01*
X443262Y422390D01*
X443320Y422375D01*
X443376Y422351D01*
X443474Y422336D01*
X443570Y422311D01*
X443670Y422305D01*
X443690Y422301D01*
X443702Y422303D01*
X443730Y422301D01*
X455049Y422301D01*
X456302Y421048D01*
X456397Y420975D01*
X456486Y420896D01*
X456522Y420878D01*
X456554Y420853D01*
X456663Y420805D01*
X456769Y420751D01*
X456808Y420742D01*
X456846Y420726D01*
X456963Y420708D01*
X457079Y420682D01*
X457120Y420683D01*
X457160Y420677D01*
X457278Y420688D01*
X457397Y420691D01*
X457436Y420703D01*
X457476Y420706D01*
X457589Y420747D01*
X457703Y420780D01*
X457737Y420800D01*
X457776Y420814D01*
X457874Y420881D01*
X457977Y420941D01*
X458022Y420981D01*
X458039Y420993D01*
X458052Y421008D01*
X458097Y421048D01*
X459351Y422301D01*
X474049Y422301D01*
X475251Y421099D01*
X475251Y417340D01*
X475266Y417222D01*
X475273Y417103D01*
X475286Y417065D01*
X475291Y417024D01*
X475334Y416914D01*
X475371Y416801D01*
X475393Y416766D01*
X475408Y416729D01*
X475477Y416633D01*
X475541Y416532D01*
X475571Y416504D01*
X475594Y416471D01*
X475686Y416395D01*
X475773Y416314D01*
X475808Y416294D01*
X475839Y416269D01*
X475947Y416218D01*
X476051Y416160D01*
X476091Y416150D01*
X476127Y416133D01*
X476244Y416111D01*
X476359Y416081D01*
X476419Y416077D01*
X476439Y416073D01*
X476460Y416075D01*
X476520Y416071D01*
X479521Y416071D01*
X479639Y416086D01*
X479758Y416093D01*
X479796Y416106D01*
X479837Y416111D01*
X479947Y416154D01*
X480060Y416191D01*
X480095Y416213D01*
X480132Y416228D01*
X480228Y416297D01*
X480329Y416361D01*
X480357Y416391D01*
X480390Y416414D01*
X480466Y416506D01*
X480547Y416593D01*
X480567Y416628D01*
X480592Y416659D01*
X480643Y416767D01*
X480701Y416871D01*
X480711Y416911D01*
X480728Y416947D01*
X480750Y417064D01*
X480780Y417179D01*
X480784Y417239D01*
X480788Y417259D01*
X480786Y417280D01*
X480790Y417340D01*
X480790Y418208D01*
X481992Y419410D01*
X516808Y419410D01*
X518010Y418208D01*
X518010Y416390D01*
X518025Y416272D01*
X518032Y416153D01*
X518045Y416115D01*
X518050Y416074D01*
X518093Y415964D01*
X518130Y415851D01*
X518152Y415816D01*
X518167Y415779D01*
X518236Y415683D01*
X518300Y415582D01*
X518330Y415554D01*
X518353Y415521D01*
X518445Y415445D01*
X518532Y415364D01*
X518567Y415344D01*
X518598Y415319D01*
X518706Y415268D01*
X518810Y415210D01*
X518850Y415200D01*
X518886Y415183D01*
X519003Y415161D01*
X519118Y415131D01*
X519178Y415127D01*
X519198Y415123D01*
X519219Y415125D01*
X519279Y415121D01*
X547521Y415121D01*
X547639Y415136D01*
X547758Y415143D01*
X547796Y415156D01*
X547837Y415161D01*
X547947Y415204D01*
X548060Y415241D01*
X548095Y415263D01*
X548132Y415278D01*
X548228Y415347D01*
X548329Y415411D01*
X548357Y415441D01*
X548390Y415464D01*
X548466Y415556D01*
X548547Y415643D01*
X548567Y415678D01*
X548592Y415709D01*
X548643Y415817D01*
X548701Y415921D01*
X548711Y415961D01*
X548728Y415997D01*
X548750Y416114D01*
X548780Y416229D01*
X548784Y416289D01*
X548788Y416309D01*
X548786Y416330D01*
X548790Y416390D01*
X548790Y418208D01*
X549992Y419410D01*
X584808Y419410D01*
X586010Y418208D01*
X586010Y405392D01*
X584808Y404190D01*
X549992Y404190D01*
X548790Y405392D01*
X548790Y407210D01*
X548775Y407328D01*
X548768Y407447D01*
X548755Y407485D01*
X548750Y407526D01*
X548707Y407636D01*
X548670Y407749D01*
X548648Y407784D01*
X548633Y407821D01*
X548564Y407917D01*
X548500Y408018D01*
X548470Y408046D01*
X548447Y408079D01*
X548355Y408155D01*
X548268Y408236D01*
X548233Y408256D01*
X548202Y408281D01*
X548094Y408332D01*
X547990Y408390D01*
X547950Y408400D01*
X547914Y408417D01*
X547797Y408439D01*
X547682Y408469D01*
X547622Y408473D01*
X547602Y408477D01*
X547581Y408475D01*
X547521Y408479D01*
X519279Y408479D01*
X519161Y408464D01*
X519042Y408457D01*
X519004Y408444D01*
X518963Y408439D01*
X518853Y408396D01*
X518740Y408359D01*
X518705Y408337D01*
X518668Y408322D01*
X518572Y408253D01*
X518471Y408189D01*
X518443Y408159D01*
X518410Y408136D01*
X518334Y408044D01*
X518253Y407957D01*
X518233Y407922D01*
X518208Y407891D01*
X518157Y407783D01*
X518099Y407679D01*
X518089Y407639D01*
X518072Y407603D01*
X518050Y407486D01*
X518020Y407371D01*
X518016Y407310D01*
X518012Y407291D01*
X518014Y407270D01*
X518010Y407210D01*
X518010Y405392D01*
X516808Y404190D01*
X481992Y404190D01*
X480790Y405392D01*
X480790Y408160D01*
X480775Y408278D01*
X480768Y408397D01*
X480755Y408435D01*
X480750Y408476D01*
X480707Y408586D01*
X480670Y408699D01*
X480648Y408734D01*
X480633Y408771D01*
X480564Y408867D01*
X480500Y408968D01*
X480470Y408996D01*
X480447Y409029D01*
X480355Y409105D01*
X480268Y409186D01*
X480233Y409206D01*
X480202Y409231D01*
X480094Y409282D01*
X479990Y409340D01*
X479950Y409350D01*
X479914Y409367D01*
X479797Y409389D01*
X479682Y409419D01*
X479622Y409423D01*
X479602Y409427D01*
X479581Y409425D01*
X479521Y409429D01*
X476520Y409429D01*
X476402Y409414D01*
X476283Y409407D01*
X476245Y409394D01*
X476204Y409389D01*
X476094Y409346D01*
X475981Y409309D01*
X475946Y409287D01*
X475909Y409272D01*
X475813Y409203D01*
X475712Y409139D01*
X475684Y409109D01*
X475651Y409086D01*
X475575Y408994D01*
X475494Y408907D01*
X475474Y408872D01*
X475449Y408841D01*
X475398Y408733D01*
X475340Y408629D01*
X475330Y408589D01*
X475313Y408553D01*
X475291Y408436D01*
X475261Y408321D01*
X475257Y408261D01*
X475253Y408241D01*
X475255Y408220D01*
X475251Y408160D01*
X475251Y404401D01*
X474049Y403199D01*
X471290Y403199D01*
X471172Y403184D01*
X471053Y403177D01*
X471015Y403164D01*
X470974Y403159D01*
X470864Y403116D01*
X470751Y403079D01*
X470716Y403057D01*
X470679Y403042D01*
X470583Y402973D01*
X470482Y402909D01*
X470454Y402879D01*
X470421Y402856D01*
X470345Y402764D01*
X470264Y402677D01*
X470244Y402642D01*
X470219Y402611D01*
X470168Y402503D01*
X470110Y402399D01*
X470100Y402359D01*
X470083Y402323D01*
X470061Y402206D01*
X470031Y402091D01*
X470027Y402031D01*
X470023Y402011D01*
X470025Y401990D01*
X470021Y401930D01*
X470021Y386101D01*
X470033Y386003D01*
X470036Y385904D01*
X470053Y385846D01*
X470061Y385786D01*
X470097Y385694D01*
X470125Y385599D01*
X470155Y385546D01*
X470178Y385490D01*
X470236Y385410D01*
X470286Y385325D01*
X470352Y385249D01*
X470364Y385233D01*
X470374Y385225D01*
X470392Y385204D01*
X492034Y363562D01*
X492112Y363502D01*
X492184Y363434D01*
X492237Y363405D01*
X492285Y363368D01*
X492376Y363328D01*
X492463Y363280D01*
X492521Y363265D01*
X492577Y363241D01*
X492675Y363226D01*
X492771Y363201D01*
X492871Y363195D01*
X492891Y363191D01*
X492903Y363193D01*
X492931Y363191D01*
X502350Y363191D01*
X505140Y362035D01*
X507275Y359900D01*
X508431Y357110D01*
X508431Y354090D01*
X507275Y351300D01*
X505140Y349165D01*
X502350Y348009D01*
X488250Y348009D01*
X485460Y349165D01*
X483325Y351300D01*
X482169Y354090D01*
X482169Y357110D01*
X483325Y359900D01*
X483917Y360492D01*
X483990Y360586D01*
X484069Y360675D01*
X484087Y360711D01*
X484112Y360743D01*
X484159Y360853D01*
X484213Y360958D01*
X484222Y360998D01*
X484238Y361035D01*
X484257Y361153D01*
X484283Y361269D01*
X484282Y361309D01*
X484288Y361349D01*
X484277Y361468D01*
X484273Y361587D01*
X484262Y361625D01*
X484258Y361666D01*
X484218Y361778D01*
X484185Y361892D01*
X484164Y361927D01*
X484151Y361965D01*
X484084Y362063D01*
X484023Y362166D01*
X483983Y362211D01*
X483972Y362228D01*
X483957Y362242D01*
X483917Y362287D01*
X463379Y382825D01*
X463379Y401930D01*
X463364Y402048D01*
X463357Y402167D01*
X463344Y402205D01*
X463339Y402246D01*
X463296Y402356D01*
X463259Y402469D01*
X463237Y402504D01*
X463222Y402541D01*
X463153Y402637D01*
X463089Y402738D01*
X463059Y402766D01*
X463036Y402799D01*
X462944Y402875D01*
X462857Y402956D01*
X462822Y402976D01*
X462791Y403001D01*
X462683Y403052D01*
X462579Y403110D01*
X462539Y403120D01*
X462503Y403137D01*
X462386Y403159D01*
X462271Y403189D01*
X462211Y403193D01*
X462191Y403197D01*
X462170Y403195D01*
X462110Y403199D01*
X459351Y403199D01*
X458097Y404452D01*
X458003Y404525D01*
X457914Y404604D01*
X457878Y404622D01*
X457846Y404647D01*
X457737Y404695D01*
X457631Y404749D01*
X457592Y404758D01*
X457554Y404774D01*
X457437Y404792D01*
X457321Y404818D01*
X457280Y404817D01*
X457240Y404823D01*
X457122Y404812D01*
X457003Y404809D01*
X456964Y404797D01*
X456924Y404794D01*
X456812Y404753D01*
X456697Y404720D01*
X456662Y404700D01*
X456624Y404686D01*
X456526Y404619D01*
X456423Y404559D01*
X456378Y404519D01*
X456361Y404507D01*
X456348Y404492D01*
X456302Y404452D01*
X455049Y403199D01*
X440351Y403199D01*
X439149Y404401D01*
X439149Y415720D01*
X439137Y415818D01*
X439134Y415917D01*
X439117Y415975D01*
X439109Y416035D01*
X439073Y416127D01*
X439045Y416222D01*
X439015Y416274D01*
X438992Y416331D01*
X438934Y416411D01*
X438884Y416496D01*
X438818Y416572D01*
X438806Y416588D01*
X438796Y416596D01*
X438778Y416617D01*
X435552Y419843D01*
X435529Y419861D01*
X435509Y419883D01*
X435403Y419958D01*
X435301Y420038D01*
X435273Y420049D01*
X435249Y420066D01*
X435128Y420112D01*
X435009Y420164D01*
X434980Y420169D01*
X434952Y420179D01*
X434823Y420193D01*
X434695Y420214D01*
X434665Y420211D01*
X434636Y420214D01*
X434507Y420196D01*
X434378Y420184D01*
X434350Y420174D01*
X434321Y420170D01*
X434169Y420118D01*
X432960Y419617D01*
X430640Y419617D01*
X428496Y420505D01*
X427498Y421504D01*
X427419Y421564D01*
X427347Y421632D01*
X427294Y421661D01*
X427246Y421698D01*
X427156Y421738D01*
X427069Y421786D01*
X427010Y421801D01*
X426955Y421825D01*
X426857Y421840D01*
X426761Y421865D01*
X426661Y421871D01*
X426641Y421875D01*
X426628Y421873D01*
X426600Y421875D01*
X413657Y421875D01*
X412885Y422647D01*
X412791Y422720D01*
X412702Y422799D01*
X412666Y422817D01*
X412634Y422842D01*
X412525Y422889D01*
X412419Y422943D01*
X412380Y422952D01*
X412342Y422968D01*
X412225Y422987D01*
X412109Y423013D01*
X412068Y423012D01*
X412028Y423018D01*
X411910Y423007D01*
X411791Y423003D01*
X411752Y422992D01*
X411712Y422988D01*
X411599Y422948D01*
X411485Y422915D01*
X411450Y422894D01*
X411412Y422881D01*
X411314Y422814D01*
X411211Y422753D01*
X411166Y422714D01*
X411149Y422702D01*
X411136Y422687D01*
X411090Y422647D01*
X405055Y416611D01*
X404970Y416502D01*
X404881Y416395D01*
X404872Y416376D01*
X404860Y416360D01*
X404805Y416232D01*
X404745Y416107D01*
X404742Y416087D01*
X404734Y416068D01*
X404712Y415930D01*
X404686Y415794D01*
X404687Y415774D01*
X404684Y415754D01*
X404697Y415615D01*
X404705Y415477D01*
X404712Y415458D01*
X404714Y415438D01*
X404761Y415306D01*
X404803Y415175D01*
X404814Y415157D01*
X404821Y415138D01*
X404899Y415023D01*
X404974Y414906D01*
X404988Y414892D01*
X405000Y414875D01*
X405104Y414783D01*
X405205Y414688D01*
X405223Y414678D01*
X405238Y414665D01*
X405362Y414601D01*
X405484Y414534D01*
X405503Y414529D01*
X405521Y414520D01*
X405657Y414490D01*
X405792Y414455D01*
X405820Y414453D01*
X405832Y414450D01*
X405852Y414451D01*
X405952Y414445D01*
X419441Y414445D01*
X420643Y413243D01*
X420643Y405957D01*
X419441Y404755D01*
X416832Y404755D01*
X416714Y404740D01*
X416595Y404733D01*
X416557Y404720D01*
X416516Y404715D01*
X416406Y404672D01*
X416293Y404635D01*
X416258Y404613D01*
X416221Y404598D01*
X416125Y404529D01*
X416024Y404465D01*
X415996Y404435D01*
X415963Y404412D01*
X415887Y404320D01*
X415806Y404233D01*
X415786Y404198D01*
X415761Y404167D01*
X415710Y404059D01*
X415652Y403955D01*
X415642Y403915D01*
X415625Y403879D01*
X415603Y403762D01*
X415573Y403647D01*
X415569Y403587D01*
X415565Y403567D01*
X415567Y403546D01*
X415563Y403486D01*
X415563Y397361D01*
X415575Y397263D01*
X415578Y397164D01*
X415595Y397106D01*
X415603Y397046D01*
X415639Y396954D01*
X415667Y396858D01*
X415697Y396806D01*
X415720Y396750D01*
X415778Y396670D01*
X415828Y396585D01*
X415894Y396509D01*
X415906Y396493D01*
X415916Y396485D01*
X415934Y396464D01*
X415944Y396454D01*
X415944Y385866D01*
X414742Y384664D01*
X405170Y384664D01*
X403968Y385866D01*
X403968Y396454D01*
X405170Y397656D01*
X407144Y397656D01*
X407262Y397671D01*
X407381Y397678D01*
X407419Y397691D01*
X407460Y397696D01*
X407570Y397739D01*
X407683Y397776D01*
X407718Y397798D01*
X407755Y397813D01*
X407851Y397882D01*
X407952Y397946D01*
X407980Y397976D01*
X408013Y397999D01*
X408089Y398091D01*
X408170Y398178D01*
X408190Y398213D01*
X408215Y398244D01*
X408266Y398352D01*
X408324Y398456D01*
X408334Y398496D01*
X408351Y398532D01*
X408373Y398649D01*
X408403Y398764D01*
X408407Y398824D01*
X408411Y398844D01*
X408409Y398865D01*
X408413Y398925D01*
X408413Y403486D01*
X408398Y403604D01*
X408391Y403723D01*
X408378Y403761D01*
X408373Y403802D01*
X408330Y403912D01*
X408293Y404025D01*
X408271Y404060D01*
X408256Y404097D01*
X408187Y404193D01*
X408123Y404294D01*
X408093Y404322D01*
X408070Y404355D01*
X407978Y404431D01*
X407891Y404512D01*
X407856Y404532D01*
X407825Y404557D01*
X407717Y404608D01*
X407613Y404666D01*
X407573Y404676D01*
X407537Y404693D01*
X407420Y404715D01*
X407305Y404745D01*
X407245Y404749D01*
X407225Y404753D01*
X407204Y404751D01*
X407144Y404755D01*
X404535Y404755D01*
X403333Y405957D01*
X403333Y411749D01*
X403316Y411887D01*
X403303Y412026D01*
X403296Y412045D01*
X403293Y412065D01*
X403242Y412194D01*
X403195Y412325D01*
X403184Y412342D01*
X403176Y412360D01*
X403095Y412473D01*
X403017Y412588D01*
X403001Y412601D01*
X402990Y412618D01*
X402882Y412707D01*
X402778Y412798D01*
X402760Y412808D01*
X402745Y412821D01*
X402619Y412880D01*
X402495Y412943D01*
X402475Y412948D01*
X402457Y412956D01*
X402321Y412982D01*
X402185Y413013D01*
X402164Y413012D01*
X402145Y413016D01*
X402006Y413007D01*
X401867Y413003D01*
X401847Y412997D01*
X401827Y412996D01*
X401695Y412953D01*
X401561Y412915D01*
X401544Y412904D01*
X401525Y412898D01*
X401407Y412824D01*
X401287Y412753D01*
X401266Y412735D01*
X401256Y412728D01*
X401242Y412713D01*
X401167Y412647D01*
X397138Y408619D01*
X397078Y408540D01*
X397010Y408468D01*
X396981Y408415D01*
X396944Y408367D01*
X396904Y408276D01*
X396856Y408190D01*
X396841Y408131D01*
X396817Y408076D01*
X396802Y407978D01*
X396777Y407882D01*
X396771Y407782D01*
X396767Y407761D01*
X396769Y407749D01*
X396767Y407721D01*
X396767Y405957D01*
X395565Y404755D01*
X392956Y404755D01*
X392838Y404740D01*
X392719Y404733D01*
X392681Y404720D01*
X392640Y404715D01*
X392530Y404672D01*
X392417Y404635D01*
X392382Y404613D01*
X392345Y404598D01*
X392249Y404529D01*
X392148Y404465D01*
X392120Y404435D01*
X392087Y404412D01*
X392011Y404320D01*
X391930Y404233D01*
X391910Y404198D01*
X391885Y404167D01*
X391834Y404059D01*
X391776Y403955D01*
X391766Y403915D01*
X391749Y403879D01*
X391727Y403762D01*
X391697Y403647D01*
X391693Y403587D01*
X391689Y403567D01*
X391691Y403546D01*
X391687Y403486D01*
X391687Y398925D01*
X391702Y398807D01*
X391709Y398688D01*
X391722Y398650D01*
X391727Y398609D01*
X391770Y398499D01*
X391807Y398386D01*
X391829Y398351D01*
X391844Y398314D01*
X391913Y398218D01*
X391977Y398117D01*
X392007Y398089D01*
X392030Y398056D01*
X392122Y397980D01*
X392209Y397899D01*
X392244Y397879D01*
X392275Y397854D01*
X392383Y397803D01*
X392487Y397745D01*
X392527Y397735D01*
X392563Y397718D01*
X392680Y397696D01*
X392795Y397666D01*
X392855Y397662D01*
X392875Y397658D01*
X392896Y397660D01*
X392956Y397656D01*
X395438Y397656D01*
X396640Y396454D01*
X396640Y385866D01*
X395438Y384664D01*
X385866Y384664D01*
X384664Y385866D01*
X384664Y391567D01*
X384652Y391665D01*
X384649Y391764D01*
X384632Y391822D01*
X384624Y391882D01*
X384588Y391974D01*
X384560Y392069D01*
X384537Y392109D01*
X384537Y403486D01*
X384522Y403604D01*
X384515Y403723D01*
X384502Y403761D01*
X384497Y403802D01*
X384454Y403912D01*
X384417Y404025D01*
X384395Y404060D01*
X384380Y404097D01*
X384311Y404193D01*
X384247Y404294D01*
X384217Y404322D01*
X384194Y404355D01*
X384102Y404431D01*
X384015Y404512D01*
X383980Y404532D01*
X383949Y404557D01*
X383841Y404608D01*
X383737Y404666D01*
X383697Y404676D01*
X383661Y404693D01*
X383544Y404715D01*
X383429Y404745D01*
X383369Y404749D01*
X383349Y404753D01*
X383328Y404751D01*
X383268Y404755D01*
X380659Y404755D01*
X379457Y405957D01*
X379457Y413270D01*
X379474Y413288D01*
X379496Y413330D01*
X379525Y413367D01*
X379569Y413470D01*
X379622Y413570D01*
X379632Y413616D01*
X379651Y413659D01*
X379669Y413770D01*
X379694Y413879D01*
X379693Y413927D01*
X379701Y413973D01*
X379690Y414085D01*
X379688Y414197D01*
X379675Y414243D01*
X379671Y414290D01*
X379633Y414395D01*
X379603Y414504D01*
X379571Y414569D01*
X379564Y414589D01*
X379553Y414604D01*
X379531Y414648D01*
X379140Y415325D01*
X378967Y415972D01*
X378967Y417704D01*
X387985Y417704D01*
X388103Y417719D01*
X388222Y417726D01*
X388260Y417738D01*
X388300Y417744D01*
X388411Y417787D01*
X388524Y417824D01*
X388558Y417846D01*
X388596Y417861D01*
X388692Y417930D01*
X388793Y417994D01*
X388821Y418024D01*
X388853Y418047D01*
X388929Y418139D01*
X389011Y418226D01*
X389030Y418261D01*
X389056Y418292D01*
X389107Y418400D01*
X389164Y418504D01*
X389174Y418544D01*
X389192Y418580D01*
X389214Y418697D01*
X389244Y418812D01*
X389248Y418872D01*
X389251Y418892D01*
X389250Y418913D01*
X389254Y418973D01*
X389254Y419227D01*
X389239Y419345D01*
X389232Y419464D01*
X389219Y419502D01*
X389214Y419543D01*
X389170Y419653D01*
X389134Y419766D01*
X389112Y419801D01*
X389097Y419838D01*
X389027Y419934D01*
X388964Y420035D01*
X388934Y420063D01*
X388910Y420096D01*
X388819Y420172D01*
X388732Y420253D01*
X388697Y420273D01*
X388665Y420298D01*
X388558Y420349D01*
X388453Y420407D01*
X388414Y420417D01*
X388378Y420434D01*
X388261Y420456D01*
X388145Y420486D01*
X388085Y420490D01*
X388065Y420494D01*
X388045Y420492D01*
X387985Y420496D01*
X378967Y420496D01*
X378967Y421648D01*
X378950Y421785D01*
X378937Y421924D01*
X378930Y421943D01*
X378927Y421963D01*
X378876Y422092D01*
X378829Y422223D01*
X378818Y422240D01*
X378810Y422259D01*
X378729Y422371D01*
X378651Y422486D01*
X378635Y422500D01*
X378624Y422516D01*
X378516Y422605D01*
X378412Y422697D01*
X378394Y422706D01*
X378379Y422719D01*
X378253Y422778D01*
X378129Y422841D01*
X378109Y422846D01*
X378091Y422855D01*
X377954Y422881D01*
X377819Y422911D01*
X377798Y422910D01*
X377779Y422914D01*
X377640Y422906D01*
X377501Y422901D01*
X377481Y422896D01*
X377461Y422895D01*
X377329Y422852D01*
X377195Y422813D01*
X377178Y422803D01*
X377159Y422797D01*
X377041Y422722D01*
X376921Y422651D01*
X376900Y422633D01*
X376890Y422626D01*
X376876Y422612D01*
X376801Y422545D01*
X365896Y411641D01*
X365836Y411563D01*
X365768Y411491D01*
X365739Y411438D01*
X365702Y411390D01*
X365662Y411299D01*
X365614Y411212D01*
X365599Y411154D01*
X365575Y411098D01*
X365560Y411000D01*
X365535Y410904D01*
X365529Y410804D01*
X365525Y410784D01*
X365527Y410772D01*
X365525Y410744D01*
X365525Y400320D01*
X365540Y400202D01*
X365547Y400083D01*
X365560Y400045D01*
X365565Y400004D01*
X365608Y399894D01*
X365645Y399781D01*
X365667Y399746D01*
X365682Y399709D01*
X365751Y399613D01*
X365815Y399512D01*
X365845Y399484D01*
X365868Y399451D01*
X365960Y399375D01*
X366047Y399294D01*
X366082Y399274D01*
X366113Y399249D01*
X366221Y399198D01*
X366325Y399140D01*
X366365Y399130D01*
X366401Y399113D01*
X366518Y399091D01*
X366633Y399061D01*
X366693Y399057D01*
X366713Y399053D01*
X366734Y399055D01*
X366794Y399051D01*
X370299Y399051D01*
X371501Y397849D01*
X371501Y383151D01*
X370248Y381898D01*
X370175Y381803D01*
X370096Y381714D01*
X370078Y381678D01*
X370053Y381646D01*
X370005Y381537D01*
X369951Y381431D01*
X369942Y381392D01*
X369926Y381354D01*
X369908Y381237D01*
X369882Y381121D01*
X369883Y381080D01*
X369877Y381040D01*
X369888Y380922D01*
X369891Y380803D01*
X369903Y380764D01*
X369906Y380724D01*
X369947Y380611D01*
X369980Y380497D01*
X370000Y380463D01*
X370014Y380424D01*
X370081Y380326D01*
X370141Y380223D01*
X370181Y380178D01*
X370193Y380161D01*
X370208Y380148D01*
X370248Y380103D01*
X371501Y378849D01*
X371501Y367530D01*
X371513Y367432D01*
X371516Y367333D01*
X371533Y367275D01*
X371541Y367215D01*
X371577Y367123D01*
X371605Y367028D01*
X371635Y366976D01*
X371658Y366919D01*
X371716Y366839D01*
X371766Y366754D01*
X371832Y366678D01*
X371844Y366662D01*
X371854Y366654D01*
X371872Y366633D01*
X378833Y359673D01*
X378942Y359588D01*
X378999Y359540D01*
X379016Y359526D01*
X379019Y359525D01*
X379049Y359499D01*
X379068Y359490D01*
X379084Y359478D01*
X379212Y359423D01*
X379297Y359382D01*
X379299Y359381D01*
X379337Y359363D01*
X379357Y359360D01*
X379376Y359352D01*
X379514Y359330D01*
X379650Y359304D01*
X379670Y359305D01*
X379690Y359302D01*
X379829Y359315D01*
X379967Y359323D01*
X379986Y359330D01*
X380006Y359332D01*
X380138Y359379D01*
X380269Y359421D01*
X380287Y359432D01*
X380306Y359439D01*
X380421Y359517D01*
X380497Y359566D01*
X380507Y359571D01*
X380508Y359573D01*
X380538Y359592D01*
X380552Y359606D01*
X380569Y359618D01*
X380601Y359655D01*
X380628Y359678D01*
X382201Y361251D01*
X395206Y361251D01*
X395324Y361266D01*
X395443Y361273D01*
X395481Y361286D01*
X395522Y361291D01*
X395632Y361334D01*
X395745Y361371D01*
X395780Y361393D01*
X395817Y361408D01*
X395913Y361477D01*
X396014Y361541D01*
X396042Y361571D01*
X396075Y361594D01*
X396151Y361686D01*
X396232Y361773D01*
X396252Y361808D01*
X396277Y361839D01*
X396328Y361947D01*
X396386Y362051D01*
X396396Y362091D01*
X396413Y362127D01*
X396435Y362244D01*
X396465Y362359D01*
X396469Y362419D01*
X396473Y362439D01*
X396471Y362460D01*
X396475Y362520D01*
X396475Y363075D01*
X396460Y363193D01*
X396453Y363312D01*
X396440Y363350D01*
X396435Y363391D01*
X396392Y363501D01*
X396355Y363614D01*
X396333Y363649D01*
X396318Y363686D01*
X396249Y363782D01*
X396185Y363883D01*
X396155Y363911D01*
X396132Y363944D01*
X396040Y364020D01*
X395953Y364101D01*
X395918Y364121D01*
X395887Y364146D01*
X395779Y364197D01*
X395675Y364255D01*
X395635Y364265D01*
X395599Y364282D01*
X395575Y364286D01*
X394316Y365546D01*
X394316Y376134D01*
X395518Y377336D01*
X405090Y377336D01*
X406292Y376134D01*
X406292Y365546D01*
X405090Y364344D01*
X404894Y364344D01*
X404776Y364329D01*
X404657Y364322D01*
X404619Y364309D01*
X404578Y364304D01*
X404468Y364261D01*
X404355Y364224D01*
X404320Y364202D01*
X404283Y364187D01*
X404187Y364118D01*
X404086Y364054D01*
X404058Y364024D01*
X404025Y364001D01*
X403949Y363909D01*
X403868Y363822D01*
X403848Y363787D01*
X403823Y363756D01*
X403772Y363648D01*
X403714Y363544D01*
X403704Y363504D01*
X403687Y363468D01*
X403665Y363351D01*
X403635Y363236D01*
X403631Y363176D01*
X403627Y363156D01*
X403629Y363135D01*
X403625Y363075D01*
X403625Y362520D01*
X403640Y362402D01*
X403647Y362283D01*
X403660Y362245D01*
X403665Y362204D01*
X403708Y362094D01*
X403745Y361981D01*
X403767Y361946D01*
X403782Y361909D01*
X403851Y361813D01*
X403915Y361712D01*
X403945Y361684D01*
X403968Y361651D01*
X404060Y361575D01*
X404147Y361494D01*
X404182Y361474D01*
X404213Y361449D01*
X404321Y361398D01*
X404425Y361340D01*
X404465Y361330D01*
X404501Y361313D01*
X404618Y361291D01*
X404733Y361261D01*
X404793Y361257D01*
X404813Y361253D01*
X404834Y361255D01*
X404894Y361251D01*
X417899Y361251D01*
X419101Y360049D01*
X419101Y339351D01*
X417899Y338149D01*
X382201Y338149D01*
G37*
%LPD*%
%LPC*%
G36*
X90971Y141824D02*
X90971Y141824D01*
X87084Y143434D01*
X84108Y146409D01*
X82498Y150296D01*
X82498Y154504D01*
X84108Y158391D01*
X87084Y161366D01*
X90971Y162976D01*
X112229Y162976D01*
X116164Y161346D01*
X116196Y161318D01*
X116232Y161300D01*
X116264Y161275D01*
X116373Y161228D01*
X116479Y161174D01*
X116519Y161165D01*
X116556Y161149D01*
X116673Y161130D01*
X116789Y161104D01*
X116830Y161105D01*
X116870Y161099D01*
X116988Y161110D01*
X117107Y161114D01*
X117146Y161125D01*
X117186Y161129D01*
X117299Y161169D01*
X117413Y161202D01*
X117448Y161223D01*
X117486Y161236D01*
X117584Y161303D01*
X117687Y161364D01*
X117732Y161403D01*
X117749Y161415D01*
X117762Y161430D01*
X117808Y161470D01*
X202810Y246472D01*
X202870Y246550D01*
X202938Y246622D01*
X202967Y246675D01*
X203004Y246723D01*
X203044Y246814D01*
X203092Y246901D01*
X203107Y246959D01*
X203131Y247015D01*
X203146Y247113D01*
X203171Y247209D01*
X203177Y247309D01*
X203181Y247329D01*
X203179Y247341D01*
X203181Y247369D01*
X203181Y274289D01*
X203166Y274407D01*
X203159Y274526D01*
X203146Y274564D01*
X203141Y274605D01*
X203098Y274715D01*
X203061Y274828D01*
X203039Y274863D01*
X203024Y274900D01*
X202955Y274996D01*
X202891Y275097D01*
X202861Y275125D01*
X202838Y275158D01*
X202746Y275234D01*
X202659Y275315D01*
X202624Y275335D01*
X202593Y275360D01*
X202485Y275411D01*
X202381Y275469D01*
X202341Y275479D01*
X202305Y275496D01*
X202188Y275518D01*
X202073Y275548D01*
X202013Y275552D01*
X201993Y275556D01*
X201972Y275554D01*
X201912Y275558D01*
X200329Y275558D01*
X200261Y275596D01*
X200203Y275611D01*
X200147Y275635D01*
X200050Y275650D01*
X199954Y275675D01*
X199853Y275681D01*
X199833Y275685D01*
X199821Y275683D01*
X199793Y275685D01*
X195380Y275685D01*
X193132Y276616D01*
X162516Y307232D01*
X161585Y309480D01*
X161585Y321080D01*
X161570Y321198D01*
X161563Y321317D01*
X161550Y321355D01*
X161545Y321396D01*
X161502Y321506D01*
X161465Y321619D01*
X161443Y321654D01*
X161428Y321691D01*
X161359Y321787D01*
X161295Y321888D01*
X161265Y321916D01*
X161242Y321949D01*
X161150Y322025D01*
X161063Y322106D01*
X161028Y322126D01*
X160997Y322151D01*
X160889Y322202D01*
X160785Y322260D01*
X160745Y322270D01*
X160709Y322287D01*
X160592Y322309D01*
X160477Y322339D01*
X160417Y322343D01*
X160397Y322347D01*
X160376Y322345D01*
X160316Y322349D01*
X146851Y322349D01*
X145649Y323551D01*
X145649Y350249D01*
X146851Y351451D01*
X173077Y351451D01*
X173176Y351463D01*
X173275Y351466D01*
X173333Y351483D01*
X173393Y351491D01*
X173485Y351527D01*
X173580Y351555D01*
X173632Y351585D01*
X173689Y351608D01*
X173769Y351666D01*
X173854Y351716D01*
X173930Y351782D01*
X173946Y351794D01*
X173954Y351804D01*
X173975Y351822D01*
X194036Y371884D01*
X196284Y372815D01*
X229980Y372815D01*
X230098Y372830D01*
X230217Y372837D01*
X230255Y372850D01*
X230296Y372855D01*
X230406Y372898D01*
X230519Y372935D01*
X230554Y372957D01*
X230591Y372972D01*
X230687Y373041D01*
X230788Y373105D01*
X230816Y373135D01*
X230849Y373158D01*
X230925Y373250D01*
X231006Y373337D01*
X231026Y373372D01*
X231051Y373403D01*
X231102Y373511D01*
X231160Y373615D01*
X231170Y373655D01*
X231187Y373691D01*
X231209Y373808D01*
X231239Y373923D01*
X231243Y373983D01*
X231247Y374003D01*
X231245Y374024D01*
X231249Y374084D01*
X231249Y385049D01*
X232451Y386251D01*
X250149Y386251D01*
X251351Y385049D01*
X251351Y348351D01*
X250149Y347149D01*
X232451Y347149D01*
X231249Y348351D01*
X231249Y359316D01*
X231234Y359434D01*
X231227Y359553D01*
X231214Y359591D01*
X231209Y359632D01*
X231166Y359742D01*
X231129Y359855D01*
X231107Y359890D01*
X231092Y359927D01*
X231023Y360023D01*
X230959Y360124D01*
X230929Y360152D01*
X230906Y360185D01*
X230814Y360260D01*
X230727Y360342D01*
X230692Y360362D01*
X230661Y360387D01*
X230553Y360438D01*
X230449Y360496D01*
X230409Y360506D01*
X230373Y360523D01*
X230256Y360545D01*
X230141Y360575D01*
X230081Y360579D01*
X230061Y360583D01*
X230040Y360581D01*
X229980Y360585D01*
X200559Y360585D01*
X200460Y360573D01*
X200361Y360570D01*
X200303Y360553D01*
X200243Y360545D01*
X200151Y360509D01*
X200056Y360481D01*
X200004Y360451D01*
X199947Y360428D01*
X199867Y360370D01*
X199782Y360320D01*
X199706Y360254D01*
X199690Y360242D01*
X199682Y360232D01*
X199661Y360214D01*
X190122Y350675D01*
X190062Y350597D01*
X189994Y350525D01*
X189965Y350472D01*
X189928Y350424D01*
X189888Y350333D01*
X189840Y350246D01*
X189825Y350188D01*
X189801Y350132D01*
X189786Y350034D01*
X189761Y349938D01*
X189755Y349838D01*
X189751Y349818D01*
X189753Y349805D01*
X189751Y349777D01*
X189751Y323551D01*
X188549Y322349D01*
X175084Y322349D01*
X174966Y322334D01*
X174847Y322327D01*
X174809Y322314D01*
X174768Y322309D01*
X174658Y322266D01*
X174545Y322229D01*
X174510Y322207D01*
X174473Y322192D01*
X174377Y322123D01*
X174276Y322059D01*
X174248Y322029D01*
X174215Y322006D01*
X174139Y321914D01*
X174058Y321827D01*
X174038Y321792D01*
X174013Y321761D01*
X173962Y321653D01*
X173904Y321549D01*
X173894Y321509D01*
X173877Y321473D01*
X173855Y321356D01*
X173825Y321241D01*
X173821Y321181D01*
X173817Y321161D01*
X173819Y321140D01*
X173815Y321080D01*
X173815Y313755D01*
X173827Y313656D01*
X173830Y313557D01*
X173847Y313499D01*
X173855Y313439D01*
X173891Y313347D01*
X173919Y313252D01*
X173949Y313200D01*
X173972Y313143D01*
X174030Y313063D01*
X174080Y312978D01*
X174146Y312902D01*
X174158Y312886D01*
X174168Y312878D01*
X174186Y312857D01*
X198757Y288286D01*
X198835Y288226D01*
X198907Y288158D01*
X198960Y288129D01*
X199008Y288092D01*
X199099Y288052D01*
X199186Y288004D01*
X199244Y287989D01*
X199300Y287965D01*
X199398Y287950D01*
X199494Y287925D01*
X199594Y287919D01*
X199614Y287915D01*
X199627Y287917D01*
X199655Y287915D01*
X199793Y287915D01*
X199891Y287927D01*
X199990Y287930D01*
X200048Y287947D01*
X200108Y287955D01*
X200201Y287991D01*
X200296Y288019D01*
X200335Y288042D01*
X218146Y288042D01*
X219348Y286840D01*
X219348Y276760D01*
X218146Y275558D01*
X216680Y275558D01*
X216562Y275543D01*
X216443Y275536D01*
X216405Y275523D01*
X216364Y275518D01*
X216254Y275475D01*
X216141Y275438D01*
X216106Y275416D01*
X216069Y275401D01*
X215973Y275332D01*
X215872Y275268D01*
X215844Y275238D01*
X215811Y275215D01*
X215735Y275123D01*
X215654Y275036D01*
X215634Y275001D01*
X215609Y274970D01*
X215558Y274862D01*
X215500Y274758D01*
X215490Y274718D01*
X215473Y274682D01*
X215451Y274565D01*
X215421Y274450D01*
X215417Y274390D01*
X215413Y274370D01*
X215415Y274349D01*
X215411Y274289D01*
X215411Y243095D01*
X214480Y240847D01*
X120849Y147216D01*
X119460Y146641D01*
X119452Y146636D01*
X119443Y146634D01*
X119315Y146558D01*
X119184Y146483D01*
X119177Y146477D01*
X119169Y146472D01*
X119048Y146366D01*
X116116Y143434D01*
X112229Y141824D01*
X90971Y141824D01*
G37*
%LPD*%
%LPC*%
G36*
X488250Y43209D02*
X488250Y43209D01*
X485460Y44365D01*
X483325Y46500D01*
X483244Y46696D01*
X483229Y46721D01*
X483220Y46749D01*
X483151Y46859D01*
X483086Y46972D01*
X483066Y46993D01*
X483050Y47018D01*
X482955Y47107D01*
X482865Y47200D01*
X482840Y47216D01*
X482818Y47236D01*
X482704Y47299D01*
X482594Y47367D01*
X482566Y47375D01*
X482540Y47390D01*
X482414Y47422D01*
X482290Y47460D01*
X482261Y47462D01*
X482232Y47469D01*
X482071Y47479D01*
X468525Y47479D01*
X397141Y118863D01*
X397046Y118936D01*
X396957Y119015D01*
X396921Y119033D01*
X396889Y119058D01*
X396780Y119105D01*
X396674Y119159D01*
X396635Y119168D01*
X396598Y119184D01*
X396480Y119203D01*
X396364Y119229D01*
X396323Y119228D01*
X396283Y119234D01*
X396165Y119223D01*
X396046Y119219D01*
X396007Y119208D01*
X395967Y119204D01*
X395855Y119164D01*
X395740Y119131D01*
X395706Y119111D01*
X395668Y119097D01*
X395569Y119030D01*
X395466Y118970D01*
X395421Y118930D01*
X395404Y118918D01*
X395391Y118903D01*
X395346Y118863D01*
X394516Y118034D01*
X390629Y116424D01*
X369371Y116424D01*
X365484Y118034D01*
X362508Y121009D01*
X360898Y124896D01*
X360898Y129104D01*
X362508Y132991D01*
X365484Y135966D01*
X369371Y137576D01*
X390629Y137576D01*
X394516Y135966D01*
X397492Y132991D01*
X399102Y129104D01*
X399102Y126820D01*
X399114Y126722D01*
X399117Y126623D01*
X399134Y126565D01*
X399142Y126505D01*
X399178Y126413D01*
X399206Y126318D01*
X399236Y126265D01*
X399259Y126209D01*
X399317Y126129D01*
X399367Y126044D01*
X399433Y125968D01*
X399445Y125952D01*
X399455Y125944D01*
X399473Y125923D01*
X400913Y124484D01*
X401022Y124399D01*
X401129Y124310D01*
X401148Y124301D01*
X401164Y124289D01*
X401291Y124234D01*
X401417Y124174D01*
X401437Y124170D01*
X401456Y124162D01*
X401594Y124140D01*
X401730Y124114D01*
X401750Y124116D01*
X401770Y124113D01*
X401909Y124126D01*
X402047Y124134D01*
X402066Y124140D01*
X402086Y124142D01*
X402218Y124190D01*
X402349Y124232D01*
X402367Y124243D01*
X402386Y124250D01*
X402501Y124328D01*
X402618Y124402D01*
X402632Y124417D01*
X402649Y124429D01*
X402741Y124533D01*
X402836Y124634D01*
X402846Y124652D01*
X402859Y124667D01*
X402923Y124791D01*
X402990Y124913D01*
X402995Y124932D01*
X403004Y124950D01*
X403034Y125086D01*
X403069Y125220D01*
X403071Y125249D01*
X403074Y125261D01*
X403073Y125281D01*
X403079Y125381D01*
X403079Y137799D01*
X403067Y137897D01*
X403064Y137996D01*
X403047Y138054D01*
X403039Y138114D01*
X403003Y138206D01*
X402975Y138301D01*
X402945Y138354D01*
X402922Y138410D01*
X402864Y138490D01*
X402814Y138575D01*
X402748Y138651D01*
X402736Y138667D01*
X402726Y138675D01*
X402708Y138696D01*
X397141Y144263D01*
X397046Y144336D01*
X396957Y144415D01*
X396921Y144433D01*
X396889Y144458D01*
X396780Y144505D01*
X396674Y144559D01*
X396635Y144568D01*
X396598Y144584D01*
X396480Y144603D01*
X396364Y144629D01*
X396323Y144628D01*
X396283Y144634D01*
X396165Y144623D01*
X396046Y144619D01*
X396007Y144608D01*
X395967Y144604D01*
X395855Y144564D01*
X395740Y144531D01*
X395706Y144511D01*
X395668Y144497D01*
X395569Y144430D01*
X395466Y144370D01*
X395421Y144330D01*
X395404Y144318D01*
X395391Y144303D01*
X395346Y144263D01*
X394516Y143434D01*
X390629Y141824D01*
X369371Y141824D01*
X365484Y143434D01*
X362508Y146409D01*
X360898Y150296D01*
X360898Y154504D01*
X362508Y158391D01*
X365484Y161366D01*
X369371Y162976D01*
X390629Y162976D01*
X394516Y161366D01*
X397492Y158391D01*
X399102Y154504D01*
X399102Y152220D01*
X399114Y152122D01*
X399117Y152023D01*
X399134Y151965D01*
X399142Y151905D01*
X399178Y151813D01*
X399206Y151718D01*
X399236Y151665D01*
X399259Y151609D01*
X399317Y151529D01*
X399367Y151444D01*
X399433Y151368D01*
X399445Y151352D01*
X399455Y151344D01*
X399473Y151323D01*
X409721Y141075D01*
X409721Y128901D01*
X409733Y128803D01*
X409736Y128704D01*
X409753Y128646D01*
X409761Y128586D01*
X409797Y128494D01*
X409825Y128399D01*
X409855Y128346D01*
X409878Y128290D01*
X409936Y128210D01*
X409986Y128125D01*
X410052Y128049D01*
X410064Y128033D01*
X410074Y128025D01*
X410092Y128004D01*
X413613Y124484D01*
X413722Y124398D01*
X413829Y124310D01*
X413848Y124301D01*
X413864Y124289D01*
X413992Y124233D01*
X414117Y124174D01*
X414137Y124170D01*
X414156Y124162D01*
X414294Y124140D01*
X414430Y124114D01*
X414450Y124116D01*
X414470Y124113D01*
X414609Y124126D01*
X414747Y124134D01*
X414766Y124140D01*
X414786Y124142D01*
X414918Y124190D01*
X415049Y124232D01*
X415067Y124243D01*
X415086Y124250D01*
X415201Y124328D01*
X415318Y124402D01*
X415332Y124417D01*
X415349Y124429D01*
X415441Y124533D01*
X415536Y124634D01*
X415546Y124652D01*
X415559Y124667D01*
X415623Y124791D01*
X415690Y124913D01*
X415695Y124932D01*
X415704Y124950D01*
X415734Y125086D01*
X415769Y125220D01*
X415771Y125249D01*
X415774Y125261D01*
X415773Y125281D01*
X415779Y125381D01*
X415779Y150499D01*
X415767Y150597D01*
X415764Y150696D01*
X415747Y150754D01*
X415739Y150814D01*
X415703Y150906D01*
X415675Y151001D01*
X415645Y151054D01*
X415622Y151110D01*
X415564Y151190D01*
X415514Y151275D01*
X415448Y151351D01*
X415436Y151367D01*
X415426Y151375D01*
X415408Y151396D01*
X397141Y169663D01*
X397046Y169736D01*
X396957Y169815D01*
X396921Y169833D01*
X396889Y169858D01*
X396780Y169905D01*
X396674Y169959D01*
X396635Y169968D01*
X396598Y169984D01*
X396480Y170003D01*
X396364Y170029D01*
X396323Y170028D01*
X396283Y170034D01*
X396165Y170023D01*
X396046Y170019D01*
X396007Y170008D01*
X395967Y170004D01*
X395855Y169964D01*
X395740Y169931D01*
X395706Y169911D01*
X395668Y169897D01*
X395569Y169830D01*
X395466Y169770D01*
X395421Y169730D01*
X395404Y169718D01*
X395391Y169703D01*
X395346Y169663D01*
X394516Y168834D01*
X390629Y167224D01*
X369371Y167224D01*
X365484Y168834D01*
X362508Y171809D01*
X360898Y175696D01*
X360898Y179904D01*
X362508Y183791D01*
X365484Y186766D01*
X369371Y188376D01*
X390629Y188376D01*
X394516Y186766D01*
X397492Y183791D01*
X399102Y179904D01*
X399102Y177620D01*
X399114Y177522D01*
X399117Y177423D01*
X399134Y177365D01*
X399142Y177305D01*
X399178Y177213D01*
X399206Y177118D01*
X399236Y177065D01*
X399259Y177009D01*
X399317Y176929D01*
X399367Y176844D01*
X399433Y176768D01*
X399445Y176752D01*
X399455Y176744D01*
X399473Y176723D01*
X422421Y153775D01*
X422421Y128901D01*
X422433Y128803D01*
X422436Y128704D01*
X422453Y128646D01*
X422461Y128586D01*
X422497Y128494D01*
X422525Y128399D01*
X422555Y128346D01*
X422578Y128290D01*
X422636Y128210D01*
X422686Y128125D01*
X422752Y128049D01*
X422764Y128033D01*
X422774Y128025D01*
X422792Y128004D01*
X445504Y105292D01*
X445582Y105232D01*
X445654Y105164D01*
X445707Y105135D01*
X445755Y105098D01*
X445846Y105058D01*
X445933Y105010D01*
X445991Y104995D01*
X446047Y104971D01*
X446145Y104956D01*
X446241Y104931D01*
X446341Y104925D01*
X446361Y104921D01*
X446373Y104923D01*
X446401Y104921D01*
X482071Y104921D01*
X482101Y104924D01*
X482130Y104922D01*
X482258Y104944D01*
X482387Y104961D01*
X482414Y104971D01*
X482443Y104977D01*
X482562Y105030D01*
X482682Y105078D01*
X482706Y105095D01*
X482733Y105107D01*
X482835Y105188D01*
X482940Y105264D01*
X482959Y105287D01*
X482982Y105306D01*
X483060Y105409D01*
X483143Y105509D01*
X483155Y105536D01*
X483173Y105560D01*
X483244Y105704D01*
X483325Y105900D01*
X485460Y108035D01*
X488250Y109191D01*
X502350Y109191D01*
X505140Y108035D01*
X507275Y105900D01*
X508431Y103110D01*
X508431Y100090D01*
X507275Y97300D01*
X505140Y95165D01*
X502350Y94009D01*
X488250Y94009D01*
X485460Y95165D01*
X483325Y97300D01*
X483244Y97496D01*
X483229Y97521D01*
X483220Y97549D01*
X483151Y97659D01*
X483086Y97772D01*
X483066Y97793D01*
X483050Y97818D01*
X482955Y97907D01*
X482865Y98000D01*
X482840Y98016D01*
X482818Y98036D01*
X482705Y98099D01*
X482594Y98167D01*
X482566Y98175D01*
X482540Y98190D01*
X482414Y98222D01*
X482290Y98260D01*
X482261Y98262D01*
X482232Y98269D01*
X482071Y98279D01*
X442881Y98279D01*
X442744Y98262D01*
X442605Y98249D01*
X442586Y98242D01*
X442566Y98239D01*
X442437Y98188D01*
X442306Y98141D01*
X442289Y98130D01*
X442270Y98122D01*
X442158Y98041D01*
X442042Y97963D01*
X442029Y97947D01*
X442013Y97936D01*
X441924Y97828D01*
X441832Y97724D01*
X441823Y97706D01*
X441810Y97691D01*
X441751Y97565D01*
X441687Y97441D01*
X441683Y97421D01*
X441674Y97403D01*
X441648Y97267D01*
X441618Y97131D01*
X441618Y97110D01*
X441614Y97091D01*
X441623Y96952D01*
X441627Y96813D01*
X441633Y96793D01*
X441634Y96773D01*
X441677Y96641D01*
X441716Y96507D01*
X441726Y96490D01*
X441732Y96471D01*
X441807Y96353D01*
X441877Y96233D01*
X441896Y96212D01*
X441902Y96202D01*
X441917Y96188D01*
X441984Y96113D01*
X458204Y79892D01*
X458282Y79832D01*
X458354Y79764D01*
X458407Y79735D01*
X458455Y79698D01*
X458546Y79658D01*
X458633Y79610D01*
X458691Y79595D01*
X458747Y79571D01*
X458845Y79556D01*
X458941Y79531D01*
X459041Y79525D01*
X459061Y79521D01*
X459073Y79523D01*
X459101Y79521D01*
X482071Y79521D01*
X482100Y79524D01*
X482130Y79522D01*
X482258Y79544D01*
X482387Y79561D01*
X482414Y79571D01*
X482443Y79576D01*
X482562Y79630D01*
X482682Y79678D01*
X482706Y79695D01*
X482733Y79707D01*
X482835Y79788D01*
X482940Y79864D01*
X482959Y79887D01*
X482982Y79906D01*
X483060Y80009D01*
X483143Y80109D01*
X483155Y80136D01*
X483173Y80160D01*
X483244Y80304D01*
X483325Y80500D01*
X485460Y82635D01*
X488250Y83791D01*
X502350Y83791D01*
X505140Y82635D01*
X507275Y80500D01*
X508431Y77710D01*
X508431Y74690D01*
X507275Y71900D01*
X505140Y69765D01*
X502350Y68609D01*
X488250Y68609D01*
X485460Y69765D01*
X483325Y71900D01*
X483244Y72096D01*
X483229Y72121D01*
X483220Y72149D01*
X483151Y72259D01*
X483086Y72372D01*
X483066Y72393D01*
X483050Y72418D01*
X482955Y72507D01*
X482865Y72600D01*
X482840Y72616D01*
X482818Y72636D01*
X482704Y72699D01*
X482594Y72767D01*
X482566Y72775D01*
X482540Y72790D01*
X482414Y72822D01*
X482290Y72860D01*
X482261Y72862D01*
X482232Y72869D01*
X482071Y72879D01*
X455581Y72879D01*
X455444Y72862D01*
X455305Y72849D01*
X455286Y72842D01*
X455266Y72839D01*
X455137Y72788D01*
X455006Y72741D01*
X454989Y72730D01*
X454970Y72722D01*
X454858Y72641D01*
X454742Y72563D01*
X454729Y72547D01*
X454713Y72536D01*
X454624Y72428D01*
X454532Y72324D01*
X454523Y72306D01*
X454510Y72291D01*
X454451Y72165D01*
X454387Y72041D01*
X454383Y72021D01*
X454374Y72003D01*
X454348Y71867D01*
X454318Y71731D01*
X454318Y71710D01*
X454314Y71691D01*
X454323Y71552D01*
X454327Y71413D01*
X454333Y71393D01*
X454334Y71373D01*
X454377Y71241D01*
X454416Y71107D01*
X454426Y71090D01*
X454432Y71071D01*
X454507Y70953D01*
X454577Y70833D01*
X454596Y70812D01*
X454602Y70802D01*
X454617Y70788D01*
X454684Y70713D01*
X470904Y54492D01*
X470982Y54432D01*
X471054Y54364D01*
X471107Y54335D01*
X471155Y54298D01*
X471246Y54258D01*
X471333Y54210D01*
X471391Y54195D01*
X471447Y54171D01*
X471545Y54156D01*
X471641Y54131D01*
X471741Y54125D01*
X471761Y54121D01*
X471773Y54123D01*
X471801Y54121D01*
X482071Y54121D01*
X482100Y54124D01*
X482130Y54122D01*
X482258Y54144D01*
X482387Y54161D01*
X482414Y54171D01*
X482443Y54176D01*
X482562Y54230D01*
X482682Y54278D01*
X482706Y54295D01*
X482733Y54307D01*
X482835Y54388D01*
X482940Y54464D01*
X482959Y54487D01*
X482982Y54506D01*
X483060Y54609D01*
X483143Y54709D01*
X483155Y54736D01*
X483173Y54760D01*
X483244Y54904D01*
X483325Y55100D01*
X485460Y57235D01*
X488250Y58391D01*
X502350Y58391D01*
X505140Y57235D01*
X507275Y55100D01*
X508431Y52310D01*
X508431Y49290D01*
X507275Y46500D01*
X505140Y44365D01*
X502350Y43209D01*
X488250Y43209D01*
G37*
%LPD*%
%LPC*%
G36*
X429425Y-3321D02*
X429425Y-3321D01*
X401624Y24480D01*
X401593Y24504D01*
X401567Y24534D01*
X401468Y24601D01*
X401373Y24674D01*
X401336Y24690D01*
X401304Y24713D01*
X401191Y24753D01*
X401081Y24801D01*
X401042Y24807D01*
X401004Y24821D01*
X400886Y24832D01*
X400767Y24851D01*
X400727Y24847D01*
X400688Y24851D01*
X400570Y24832D01*
X400450Y24821D01*
X400413Y24807D01*
X400374Y24801D01*
X400264Y24754D01*
X400151Y24713D01*
X400118Y24691D01*
X400082Y24675D01*
X399987Y24602D01*
X399888Y24535D01*
X399862Y24505D01*
X399830Y24480D01*
X399757Y24386D01*
X399678Y24296D01*
X399659Y24261D01*
X399635Y24229D01*
X399587Y24120D01*
X399533Y24013D01*
X399524Y23974D01*
X399508Y23938D01*
X399473Y23781D01*
X399319Y22809D01*
X398781Y21152D01*
X397990Y19600D01*
X396966Y18191D01*
X395735Y16959D01*
X394325Y15935D01*
X392774Y15145D01*
X391117Y14606D01*
X389396Y14334D01*
X382539Y14334D01*
X382539Y24130D01*
X382524Y24248D01*
X382517Y24367D01*
X382504Y24405D01*
X382499Y24445D01*
X382456Y24556D01*
X382419Y24669D01*
X382397Y24703D01*
X382382Y24741D01*
X382312Y24837D01*
X382249Y24938D01*
X382219Y24966D01*
X382195Y24998D01*
X382104Y25074D01*
X382017Y25156D01*
X381982Y25175D01*
X381951Y25201D01*
X381843Y25252D01*
X381739Y25309D01*
X381699Y25320D01*
X381663Y25337D01*
X381546Y25359D01*
X381431Y25389D01*
X381370Y25393D01*
X381350Y25397D01*
X381330Y25395D01*
X381270Y25399D01*
X379999Y25399D01*
X379999Y25401D01*
X381270Y25401D01*
X381388Y25416D01*
X381507Y25423D01*
X381545Y25436D01*
X381585Y25441D01*
X381696Y25485D01*
X381809Y25521D01*
X381844Y25543D01*
X381881Y25558D01*
X381977Y25628D01*
X382078Y25691D01*
X382106Y25721D01*
X382139Y25745D01*
X382214Y25836D01*
X382296Y25923D01*
X382316Y25958D01*
X382341Y25990D01*
X382392Y26097D01*
X382450Y26202D01*
X382460Y26241D01*
X382477Y26277D01*
X382499Y26394D01*
X382529Y26509D01*
X382533Y26570D01*
X382537Y26590D01*
X382535Y26610D01*
X382539Y26670D01*
X382539Y36466D01*
X386573Y36466D01*
X386711Y36484D01*
X386850Y36497D01*
X386869Y36504D01*
X386889Y36506D01*
X387018Y36557D01*
X387149Y36604D01*
X387166Y36616D01*
X387185Y36623D01*
X387297Y36705D01*
X387412Y36783D01*
X387425Y36798D01*
X387442Y36810D01*
X387531Y36917D01*
X387623Y37021D01*
X387632Y37039D01*
X387645Y37055D01*
X387704Y37181D01*
X387767Y37305D01*
X387772Y37324D01*
X387780Y37343D01*
X387806Y37479D01*
X387837Y37615D01*
X387836Y37635D01*
X387840Y37655D01*
X387831Y37793D01*
X387827Y37933D01*
X387822Y37952D01*
X387820Y37972D01*
X387778Y38104D01*
X387739Y38238D01*
X387728Y38256D01*
X387722Y38275D01*
X387648Y38393D01*
X387577Y38512D01*
X387559Y38533D01*
X387552Y38544D01*
X387537Y38558D01*
X387471Y38633D01*
X386252Y39852D01*
X386174Y39913D01*
X386101Y39981D01*
X386048Y40010D01*
X386000Y40047D01*
X385910Y40086D01*
X385823Y40134D01*
X385764Y40149D01*
X385709Y40173D01*
X385611Y40189D01*
X385515Y40214D01*
X385415Y40220D01*
X385395Y40223D01*
X385382Y40222D01*
X385354Y40224D01*
X369371Y40224D01*
X365484Y41834D01*
X362508Y44809D01*
X360898Y48696D01*
X360898Y52904D01*
X362508Y56791D01*
X365484Y59766D01*
X369371Y61376D01*
X390629Y61376D01*
X394516Y59766D01*
X397492Y56791D01*
X399102Y52904D01*
X399102Y48696D01*
X397492Y44809D01*
X394987Y42304D01*
X394914Y42210D01*
X394835Y42121D01*
X394817Y42085D01*
X394792Y42053D01*
X394745Y41944D01*
X394691Y41838D01*
X394682Y41798D01*
X394666Y41761D01*
X394647Y41644D01*
X394621Y41528D01*
X394622Y41487D01*
X394616Y41447D01*
X394627Y41329D01*
X394631Y41210D01*
X394642Y41171D01*
X394646Y41131D01*
X394686Y41018D01*
X394719Y40904D01*
X394739Y40869D01*
X394753Y40831D01*
X394820Y40733D01*
X394880Y40630D01*
X394920Y40585D01*
X394932Y40568D01*
X394947Y40555D01*
X394987Y40509D01*
X431804Y3692D01*
X431882Y3632D01*
X431954Y3564D01*
X432007Y3535D01*
X432055Y3498D01*
X432146Y3458D01*
X432233Y3410D01*
X432291Y3395D01*
X432347Y3371D01*
X432445Y3356D01*
X432541Y3331D01*
X432641Y3325D01*
X432661Y3321D01*
X432673Y3323D01*
X432701Y3321D01*
X569599Y3321D01*
X569697Y3333D01*
X569796Y3336D01*
X569854Y3353D01*
X569914Y3361D01*
X570006Y3397D01*
X570101Y3425D01*
X570154Y3455D01*
X570210Y3478D01*
X570290Y3536D01*
X570375Y3586D01*
X570451Y3652D01*
X570467Y3664D01*
X570475Y3674D01*
X570496Y3692D01*
X593208Y26404D01*
X593268Y26482D01*
X593336Y26554D01*
X593365Y26607D01*
X593402Y26655D01*
X593442Y26746D01*
X593490Y26833D01*
X593505Y26891D01*
X593529Y26947D01*
X593544Y27045D01*
X593569Y27141D01*
X593575Y27241D01*
X593579Y27261D01*
X593577Y27273D01*
X593579Y27301D01*
X593579Y36199D01*
X593567Y36297D01*
X593564Y36396D01*
X593547Y36454D01*
X593539Y36514D01*
X593503Y36606D01*
X593475Y36701D01*
X593445Y36754D01*
X593422Y36810D01*
X593364Y36890D01*
X593314Y36975D01*
X593248Y37051D01*
X593236Y37067D01*
X593226Y37075D01*
X593208Y37096D01*
X584537Y45767D01*
X584443Y45840D01*
X584354Y45919D01*
X584318Y45937D01*
X584286Y45962D01*
X584176Y46009D01*
X584070Y46063D01*
X584031Y46072D01*
X583994Y46088D01*
X583876Y46107D01*
X583760Y46133D01*
X583720Y46132D01*
X583680Y46138D01*
X583561Y46127D01*
X583442Y46123D01*
X583403Y46112D01*
X583363Y46108D01*
X583251Y46068D01*
X583137Y46035D01*
X583102Y46014D01*
X583064Y46001D01*
X582965Y45934D01*
X582863Y45873D01*
X582818Y45834D01*
X582801Y45822D01*
X582787Y45807D01*
X582742Y45767D01*
X581340Y44365D01*
X578550Y43209D01*
X564450Y43209D01*
X561660Y44365D01*
X559525Y46500D01*
X558369Y49290D01*
X558369Y52310D01*
X559525Y55100D01*
X561660Y57235D01*
X564450Y58391D01*
X578550Y58391D01*
X581340Y57235D01*
X583475Y55100D01*
X583556Y54904D01*
X583571Y54879D01*
X583580Y54851D01*
X583649Y54741D01*
X583714Y54628D01*
X583734Y54607D01*
X583750Y54582D01*
X583845Y54493D01*
X583935Y54400D01*
X583960Y54384D01*
X583982Y54364D01*
X584095Y54301D01*
X584206Y54233D01*
X584234Y54225D01*
X584260Y54210D01*
X584386Y54178D01*
X584510Y54140D01*
X584539Y54138D01*
X584568Y54131D01*
X584729Y54121D01*
X585575Y54121D01*
X600221Y39475D01*
X600221Y24025D01*
X597904Y21708D01*
X575192Y-1004D01*
X572875Y-3321D01*
X429425Y-3321D01*
G37*
%LPD*%
%LPC*%
G36*
X469899Y180999D02*
X469899Y180999D01*
X469899Y182270D01*
X469884Y182388D01*
X469877Y182507D01*
X469864Y182545D01*
X469859Y182585D01*
X469815Y182696D01*
X469779Y182809D01*
X469757Y182844D01*
X469742Y182881D01*
X469672Y182977D01*
X469609Y183078D01*
X469579Y183106D01*
X469555Y183138D01*
X469464Y183214D01*
X469377Y183296D01*
X469342Y183315D01*
X469310Y183341D01*
X469203Y183392D01*
X469099Y183449D01*
X469059Y183460D01*
X469023Y183477D01*
X468906Y183499D01*
X468791Y183529D01*
X468730Y183533D01*
X468710Y183537D01*
X468690Y183535D01*
X468630Y183539D01*
X459859Y183539D01*
X459859Y187834D01*
X460032Y188481D01*
X460367Y189060D01*
X460840Y189533D01*
X461073Y189668D01*
X461173Y189743D01*
X461277Y189814D01*
X461299Y189839D01*
X461326Y189860D01*
X461404Y189958D01*
X461487Y190053D01*
X461503Y190083D01*
X461524Y190109D01*
X461575Y190224D01*
X461632Y190336D01*
X461639Y190369D01*
X461653Y190399D01*
X461674Y190524D01*
X461702Y190646D01*
X461701Y190680D01*
X461706Y190713D01*
X461696Y190838D01*
X461692Y190964D01*
X461683Y190996D01*
X461680Y191030D01*
X461639Y191149D01*
X461604Y191269D01*
X461586Y191298D01*
X461575Y191330D01*
X461506Y191435D01*
X461442Y191543D01*
X461410Y191580D01*
X461400Y191595D01*
X461383Y191610D01*
X461336Y191664D01*
X460349Y192651D01*
X460349Y205939D01*
X460332Y206076D01*
X460319Y206215D01*
X460312Y206234D01*
X460309Y206254D01*
X460258Y206383D01*
X460211Y206514D01*
X460200Y206531D01*
X460192Y206550D01*
X460111Y206663D01*
X460033Y206778D01*
X460017Y206791D01*
X460006Y206807D01*
X459898Y206896D01*
X459794Y206988D01*
X459776Y206997D01*
X459761Y207010D01*
X459635Y207069D01*
X459511Y207133D01*
X459491Y207137D01*
X459473Y207146D01*
X459337Y207172D01*
X459201Y207202D01*
X459180Y207202D01*
X459161Y207206D01*
X459022Y207197D01*
X458883Y207193D01*
X458863Y207187D01*
X458843Y207186D01*
X458711Y207143D01*
X458577Y207104D01*
X458560Y207094D01*
X458541Y207088D01*
X458423Y207013D01*
X458303Y206943D01*
X458282Y206924D01*
X458272Y206918D01*
X458258Y206903D01*
X458183Y206836D01*
X453542Y202196D01*
X451225Y199879D01*
X399446Y199879D01*
X399416Y199876D01*
X399387Y199878D01*
X399259Y199856D01*
X399130Y199839D01*
X399103Y199829D01*
X399074Y199824D01*
X398955Y199770D01*
X398834Y199722D01*
X398811Y199705D01*
X398784Y199693D01*
X398682Y199612D01*
X398577Y199536D01*
X398558Y199513D01*
X398535Y199494D01*
X398457Y199391D01*
X398374Y199291D01*
X398362Y199264D01*
X398344Y199240D01*
X398273Y199096D01*
X397492Y197209D01*
X394516Y194234D01*
X390629Y192624D01*
X369371Y192624D01*
X365484Y194234D01*
X362508Y197209D01*
X360898Y201096D01*
X360898Y205304D01*
X362508Y209191D01*
X365484Y212166D01*
X369371Y213776D01*
X390629Y213776D01*
X394516Y212166D01*
X397492Y209191D01*
X398273Y207304D01*
X398288Y207279D01*
X398297Y207251D01*
X398366Y207141D01*
X398431Y207028D01*
X398451Y207007D01*
X398467Y206982D01*
X398562Y206893D01*
X398652Y206800D01*
X398677Y206784D01*
X398699Y206764D01*
X398812Y206701D01*
X398923Y206633D01*
X398951Y206625D01*
X398977Y206610D01*
X399103Y206578D01*
X399227Y206540D01*
X399256Y206538D01*
X399285Y206531D01*
X399446Y206521D01*
X447949Y206521D01*
X448047Y206533D01*
X448146Y206536D01*
X448204Y206553D01*
X448264Y206561D01*
X448356Y206597D01*
X448451Y206625D01*
X448504Y206655D01*
X448560Y206678D01*
X448640Y206736D01*
X448725Y206786D01*
X448801Y206852D01*
X448817Y206864D01*
X448825Y206874D01*
X448846Y206892D01*
X451876Y209923D01*
X451962Y210032D01*
X452050Y210139D01*
X452059Y210158D01*
X452071Y210174D01*
X452127Y210302D01*
X452186Y210427D01*
X452190Y210447D01*
X452198Y210466D01*
X452220Y210604D01*
X452246Y210740D01*
X452244Y210760D01*
X452247Y210780D01*
X452234Y210919D01*
X452226Y211057D01*
X452220Y211076D01*
X452218Y211096D01*
X452171Y211227D01*
X452128Y211359D01*
X452117Y211377D01*
X452110Y211396D01*
X452032Y211511D01*
X451958Y211628D01*
X451943Y211642D01*
X451931Y211659D01*
X451827Y211751D01*
X451726Y211846D01*
X451708Y211856D01*
X451693Y211869D01*
X451569Y211933D01*
X451447Y212000D01*
X451428Y212005D01*
X451410Y212014D01*
X451274Y212044D01*
X451140Y212079D01*
X451111Y212081D01*
X451099Y212084D01*
X451079Y212083D01*
X450979Y212089D01*
X447039Y212089D01*
X447039Y219711D01*
X461139Y219711D01*
X461237Y219723D01*
X461336Y219726D01*
X461394Y219743D01*
X461454Y219751D01*
X461546Y219787D01*
X461642Y219815D01*
X461694Y219845D01*
X461750Y219868D01*
X461830Y219926D01*
X461915Y219976D01*
X461991Y220042D01*
X462007Y220054D01*
X462015Y220064D01*
X462036Y220083D01*
X473875Y231921D01*
X482071Y231921D01*
X482101Y231924D01*
X482130Y231922D01*
X482258Y231944D01*
X482387Y231961D01*
X482414Y231971D01*
X482443Y231977D01*
X482562Y232030D01*
X482682Y232078D01*
X482706Y232095D01*
X482733Y232107D01*
X482835Y232188D01*
X482940Y232264D01*
X482959Y232287D01*
X482982Y232306D01*
X483060Y232409D01*
X483143Y232509D01*
X483155Y232536D01*
X483173Y232560D01*
X483244Y232704D01*
X483325Y232900D01*
X485460Y235035D01*
X488250Y236191D01*
X502350Y236191D01*
X505140Y235035D01*
X507275Y232900D01*
X508431Y230110D01*
X508431Y227090D01*
X507275Y224300D01*
X505140Y222165D01*
X502350Y221009D01*
X488250Y221009D01*
X485460Y222165D01*
X483325Y224300D01*
X483244Y224496D01*
X483229Y224521D01*
X483220Y224549D01*
X483151Y224659D01*
X483086Y224772D01*
X483066Y224793D01*
X483050Y224818D01*
X482955Y224907D01*
X482865Y225000D01*
X482840Y225016D01*
X482818Y225036D01*
X482705Y225099D01*
X482594Y225167D01*
X482566Y225175D01*
X482540Y225190D01*
X482414Y225222D01*
X482290Y225260D01*
X482261Y225262D01*
X482232Y225269D01*
X482071Y225279D01*
X477151Y225279D01*
X477053Y225267D01*
X476954Y225264D01*
X476896Y225247D01*
X476836Y225239D01*
X476744Y225203D01*
X476649Y225175D01*
X476596Y225145D01*
X476540Y225122D01*
X476460Y225064D01*
X476375Y225014D01*
X476299Y224948D01*
X476283Y224936D01*
X476275Y224926D01*
X476254Y224908D01*
X462064Y210717D01*
X461978Y210608D01*
X461890Y210501D01*
X461881Y210482D01*
X461869Y210466D01*
X461813Y210338D01*
X461754Y210213D01*
X461750Y210193D01*
X461742Y210174D01*
X461720Y210036D01*
X461694Y209900D01*
X461696Y209880D01*
X461693Y209860D01*
X461706Y209721D01*
X461714Y209583D01*
X461720Y209564D01*
X461722Y209544D01*
X461770Y209412D01*
X461812Y209281D01*
X461823Y209263D01*
X461830Y209244D01*
X461908Y209129D01*
X461982Y209012D01*
X461997Y208998D01*
X462009Y208981D01*
X462113Y208889D01*
X462214Y208794D01*
X462232Y208784D01*
X462247Y208771D01*
X462371Y208707D01*
X462493Y208640D01*
X462512Y208635D01*
X462530Y208626D01*
X462666Y208596D01*
X462800Y208561D01*
X462829Y208559D01*
X462841Y208556D01*
X462861Y208557D01*
X462961Y208551D01*
X478249Y208551D01*
X479599Y207202D01*
X479608Y207179D01*
X479677Y207083D01*
X479741Y206982D01*
X479771Y206954D01*
X479794Y206921D01*
X479886Y206845D01*
X479973Y206764D01*
X480008Y206744D01*
X480039Y206719D01*
X480147Y206668D01*
X480251Y206610D01*
X480291Y206600D01*
X480327Y206583D01*
X480444Y206561D01*
X480559Y206531D01*
X480619Y206527D01*
X480639Y206523D01*
X480660Y206525D01*
X480720Y206521D01*
X482071Y206521D01*
X482101Y206524D01*
X482130Y206522D01*
X482258Y206544D01*
X482387Y206561D01*
X482414Y206571D01*
X482443Y206577D01*
X482562Y206630D01*
X482682Y206678D01*
X482706Y206695D01*
X482733Y206707D01*
X482835Y206788D01*
X482940Y206864D01*
X482959Y206887D01*
X482982Y206906D01*
X483060Y207009D01*
X483143Y207109D01*
X483155Y207136D01*
X483173Y207160D01*
X483244Y207304D01*
X483325Y207500D01*
X485460Y209635D01*
X488250Y210791D01*
X502350Y210791D01*
X505140Y209635D01*
X507275Y207500D01*
X508431Y204710D01*
X508431Y201690D01*
X507275Y198900D01*
X505140Y196765D01*
X502350Y195609D01*
X488250Y195609D01*
X485460Y196765D01*
X483325Y198900D01*
X483244Y199096D01*
X483229Y199121D01*
X483220Y199149D01*
X483151Y199259D01*
X483086Y199372D01*
X483066Y199393D01*
X483050Y199418D01*
X482955Y199507D01*
X482865Y199600D01*
X482840Y199616D01*
X482818Y199636D01*
X482705Y199699D01*
X482594Y199767D01*
X482566Y199775D01*
X482540Y199790D01*
X482414Y199822D01*
X482290Y199860D01*
X482261Y199862D01*
X482232Y199869D01*
X482071Y199879D01*
X480720Y199879D01*
X480602Y199864D01*
X480483Y199857D01*
X480445Y199844D01*
X480404Y199839D01*
X480294Y199796D01*
X480181Y199759D01*
X480146Y199737D01*
X480109Y199722D01*
X480013Y199653D01*
X479912Y199589D01*
X479884Y199559D01*
X479851Y199536D01*
X479775Y199444D01*
X479694Y199357D01*
X479674Y199322D01*
X479649Y199291D01*
X479598Y199183D01*
X479540Y199079D01*
X479530Y199039D01*
X479513Y199003D01*
X479491Y198886D01*
X479461Y198771D01*
X479457Y198711D01*
X479453Y198691D01*
X479455Y198670D01*
X479451Y198610D01*
X479451Y192651D01*
X478464Y191664D01*
X478387Y191565D01*
X478305Y191470D01*
X478290Y191439D01*
X478269Y191413D01*
X478220Y191298D01*
X478164Y191185D01*
X478156Y191152D01*
X478143Y191121D01*
X478123Y190997D01*
X478097Y190874D01*
X478099Y190840D01*
X478093Y190807D01*
X478105Y190682D01*
X478110Y190556D01*
X478120Y190524D01*
X478123Y190490D01*
X478166Y190372D01*
X478202Y190252D01*
X478219Y190223D01*
X478231Y190191D01*
X478301Y190087D01*
X478366Y189979D01*
X478390Y189956D01*
X478409Y189928D01*
X478503Y189845D01*
X478593Y189757D01*
X478634Y189730D01*
X478648Y189717D01*
X478667Y189708D01*
X478727Y189668D01*
X478960Y189533D01*
X479433Y189060D01*
X479768Y188481D01*
X479941Y187834D01*
X479941Y183539D01*
X471170Y183539D01*
X471052Y183524D01*
X470933Y183517D01*
X470895Y183504D01*
X470855Y183499D01*
X470744Y183455D01*
X470631Y183419D01*
X470596Y183397D01*
X470559Y183382D01*
X470463Y183312D01*
X470362Y183249D01*
X470334Y183219D01*
X470302Y183195D01*
X470226Y183104D01*
X470144Y183017D01*
X470125Y182982D01*
X470099Y182950D01*
X470048Y182843D01*
X469991Y182739D01*
X469980Y182699D01*
X469963Y182663D01*
X469941Y182546D01*
X469911Y182431D01*
X469907Y182370D01*
X469903Y182350D01*
X469905Y182330D01*
X469901Y182270D01*
X469901Y180999D01*
X469899Y180999D01*
G37*
%LPD*%
%LPC*%
G36*
X90971Y116424D02*
X90971Y116424D01*
X87084Y118034D01*
X84108Y121009D01*
X82695Y124421D01*
X82691Y124429D01*
X82688Y124438D01*
X82612Y124567D01*
X82538Y124697D01*
X82531Y124703D01*
X82527Y124711D01*
X82420Y124832D01*
X60215Y147038D01*
X58316Y148936D01*
X57707Y150407D01*
X57638Y150527D01*
X57573Y150650D01*
X57560Y150665D01*
X57550Y150683D01*
X57453Y150782D01*
X57359Y150886D01*
X57342Y150897D01*
X57328Y150911D01*
X57210Y150984D01*
X57094Y151060D01*
X57074Y151067D01*
X57057Y151078D01*
X56924Y151118D01*
X56793Y151164D01*
X56773Y151165D01*
X56753Y151171D01*
X56615Y151178D01*
X56476Y151189D01*
X56456Y151185D01*
X56436Y151186D01*
X56300Y151158D01*
X56162Y151134D01*
X56144Y151126D01*
X56124Y151122D01*
X55999Y151061D01*
X55872Y151004D01*
X55857Y150991D01*
X55838Y150982D01*
X55733Y150892D01*
X55624Y150805D01*
X55612Y150789D01*
X55596Y150776D01*
X55517Y150663D01*
X55433Y150551D01*
X55420Y150526D01*
X55413Y150516D01*
X55406Y150497D01*
X55362Y150407D01*
X53918Y146922D01*
X51198Y144202D01*
X47644Y142729D01*
X28556Y142729D01*
X25002Y144202D01*
X22282Y146922D01*
X20809Y150476D01*
X20809Y154324D01*
X22282Y157878D01*
X25002Y160598D01*
X28556Y162071D01*
X47644Y162071D01*
X51198Y160598D01*
X53918Y157878D01*
X54943Y155404D01*
X54978Y155343D01*
X55004Y155278D01*
X55056Y155205D01*
X55101Y155127D01*
X55149Y155077D01*
X55190Y155021D01*
X55260Y154963D01*
X55322Y154899D01*
X55382Y154863D01*
X55435Y154818D01*
X55517Y154780D01*
X55593Y154733D01*
X55660Y154712D01*
X55723Y154682D01*
X55811Y154666D01*
X55897Y154639D01*
X55967Y154636D01*
X56036Y154623D01*
X56125Y154628D01*
X56215Y154624D01*
X56283Y154638D01*
X56353Y154642D01*
X56438Y154670D01*
X56526Y154688D01*
X56589Y154719D01*
X56655Y154740D01*
X56731Y154788D01*
X56812Y154828D01*
X56865Y154873D01*
X56924Y154911D01*
X56986Y154976D01*
X57054Y155034D01*
X57094Y155091D01*
X57142Y155142D01*
X57185Y155221D01*
X57237Y155294D01*
X57262Y155360D01*
X57296Y155421D01*
X57318Y155508D01*
X57350Y155592D01*
X57358Y155661D01*
X57375Y155729D01*
X57385Y155889D01*
X57385Y162041D01*
X57373Y162140D01*
X57370Y162239D01*
X57353Y162297D01*
X57345Y162357D01*
X57309Y162449D01*
X57281Y162544D01*
X57251Y162596D01*
X57228Y162653D01*
X57170Y162733D01*
X57120Y162818D01*
X57054Y162894D01*
X57042Y162910D01*
X57032Y162918D01*
X57014Y162939D01*
X51199Y168754D01*
X51175Y168772D01*
X51156Y168794D01*
X51050Y168869D01*
X50947Y168949D01*
X50920Y168960D01*
X50896Y168977D01*
X50775Y169023D01*
X50656Y169075D01*
X50626Y169080D01*
X50599Y169090D01*
X50470Y169105D01*
X50342Y169125D01*
X50312Y169122D01*
X50283Y169125D01*
X50154Y169107D01*
X50025Y169095D01*
X49997Y169085D01*
X49968Y169081D01*
X49816Y169029D01*
X47644Y168129D01*
X28556Y168129D01*
X25002Y169602D01*
X22282Y172322D01*
X20809Y175876D01*
X20809Y179724D01*
X22282Y183278D01*
X25002Y185998D01*
X28556Y187471D01*
X47644Y187471D01*
X51198Y185998D01*
X53998Y183198D01*
X54005Y183193D01*
X54011Y183186D01*
X54131Y183095D01*
X54226Y183022D01*
X68684Y168564D01*
X69615Y166316D01*
X69615Y155459D01*
X69627Y155360D01*
X69630Y155261D01*
X69647Y155203D01*
X69655Y155143D01*
X69691Y155051D01*
X69719Y154956D01*
X69749Y154904D01*
X69772Y154847D01*
X69830Y154767D01*
X69880Y154682D01*
X69946Y154606D01*
X69958Y154590D01*
X69968Y154582D01*
X69986Y154561D01*
X87543Y137004D01*
X87566Y136986D01*
X87586Y136964D01*
X87691Y136889D01*
X87794Y136810D01*
X87821Y136798D01*
X87846Y136781D01*
X87967Y136735D01*
X88086Y136683D01*
X88115Y136679D01*
X88143Y136668D01*
X88272Y136654D01*
X88400Y136633D01*
X88430Y136636D01*
X88459Y136633D01*
X88587Y136651D01*
X88717Y136663D01*
X88745Y136673D01*
X88774Y136677D01*
X88926Y136729D01*
X90971Y137576D01*
X112229Y137576D01*
X116116Y135966D01*
X119092Y132991D01*
X120702Y129104D01*
X120702Y124896D01*
X119092Y121009D01*
X116116Y118034D01*
X112229Y116424D01*
X90971Y116424D01*
G37*
%LPD*%
%LPC*%
G36*
X28556Y41129D02*
X28556Y41129D01*
X25002Y42602D01*
X22282Y45322D01*
X20809Y48876D01*
X20809Y52724D01*
X22282Y56278D01*
X25002Y58998D01*
X28556Y60471D01*
X47644Y60471D01*
X49816Y59571D01*
X49844Y59563D01*
X49870Y59550D01*
X49997Y59521D01*
X50122Y59487D01*
X50152Y59487D01*
X50181Y59480D01*
X50310Y59484D01*
X50440Y59482D01*
X50469Y59489D01*
X50498Y59490D01*
X50623Y59526D01*
X50749Y59556D01*
X50776Y59570D01*
X50804Y59578D01*
X50916Y59644D01*
X51031Y59705D01*
X51053Y59725D01*
X51078Y59740D01*
X51199Y59846D01*
X57014Y65661D01*
X57074Y65739D01*
X57142Y65811D01*
X57171Y65864D01*
X57208Y65912D01*
X57248Y66003D01*
X57296Y66090D01*
X57311Y66148D01*
X57335Y66204D01*
X57350Y66302D01*
X57375Y66398D01*
X57381Y66498D01*
X57385Y66518D01*
X57383Y66531D01*
X57385Y66559D01*
X57385Y72711D01*
X57377Y72780D01*
X57378Y72850D01*
X57357Y72937D01*
X57345Y73026D01*
X57320Y73091D01*
X57303Y73159D01*
X57261Y73238D01*
X57228Y73322D01*
X57187Y73378D01*
X57155Y73440D01*
X57094Y73507D01*
X57042Y73579D01*
X56988Y73624D01*
X56941Y73675D01*
X56866Y73725D01*
X56797Y73782D01*
X56733Y73812D01*
X56675Y73850D01*
X56590Y73879D01*
X56509Y73918D01*
X56440Y73931D01*
X56374Y73953D01*
X56285Y73961D01*
X56197Y73977D01*
X56127Y73973D01*
X56057Y73979D01*
X55969Y73963D01*
X55879Y73958D01*
X55813Y73936D01*
X55744Y73924D01*
X55662Y73887D01*
X55577Y73860D01*
X55518Y73822D01*
X55454Y73794D01*
X55384Y73737D01*
X55308Y73689D01*
X55260Y73639D01*
X55206Y73595D01*
X55151Y73523D01*
X55090Y73458D01*
X55056Y73397D01*
X55014Y73341D01*
X54943Y73196D01*
X53918Y70722D01*
X51198Y68002D01*
X47644Y66529D01*
X28556Y66529D01*
X25002Y68002D01*
X22282Y70722D01*
X20809Y74276D01*
X20809Y78124D01*
X22282Y81678D01*
X25002Y84398D01*
X28556Y85871D01*
X47644Y85871D01*
X51198Y84398D01*
X53918Y81678D01*
X55362Y78193D01*
X55375Y78170D01*
X55383Y78146D01*
X55437Y78060D01*
X55496Y77950D01*
X55509Y77935D01*
X55519Y77917D01*
X55544Y77892D01*
X55553Y77877D01*
X55608Y77825D01*
X55616Y77817D01*
X55710Y77714D01*
X55727Y77703D01*
X55741Y77689D01*
X55778Y77666D01*
X55785Y77659D01*
X55823Y77638D01*
X55859Y77616D01*
X55975Y77540D01*
X55995Y77533D01*
X56012Y77522D01*
X56060Y77508D01*
X56063Y77506D01*
X56080Y77501D01*
X56144Y77482D01*
X56276Y77436D01*
X56296Y77435D01*
X56316Y77429D01*
X56379Y77426D01*
X56530Y77416D01*
X56593Y77411D01*
X56613Y77415D01*
X56633Y77414D01*
X56770Y77442D01*
X56846Y77455D01*
X56853Y77456D01*
X56854Y77456D01*
X56907Y77466D01*
X56925Y77474D01*
X56945Y77478D01*
X57070Y77539D01*
X57121Y77562D01*
X57148Y77573D01*
X57154Y77577D01*
X57197Y77596D01*
X57212Y77609D01*
X57231Y77618D01*
X57336Y77708D01*
X57358Y77725D01*
X57406Y77760D01*
X57414Y77770D01*
X57445Y77795D01*
X57457Y77811D01*
X57473Y77824D01*
X57550Y77935D01*
X57608Y78005D01*
X57618Y78024D01*
X57636Y78049D01*
X57649Y78074D01*
X57656Y78084D01*
X57663Y78103D01*
X57707Y78193D01*
X58316Y79664D01*
X82420Y103768D01*
X82426Y103775D01*
X82433Y103781D01*
X82523Y103900D01*
X82615Y104019D01*
X82619Y104028D01*
X82624Y104035D01*
X82695Y104179D01*
X84108Y107591D01*
X87084Y110566D01*
X90971Y112176D01*
X112229Y112176D01*
X116116Y110566D01*
X119092Y107591D01*
X120702Y103704D01*
X120702Y99496D01*
X119092Y95609D01*
X116116Y92634D01*
X112229Y91024D01*
X90971Y91024D01*
X88926Y91871D01*
X88898Y91878D01*
X88871Y91892D01*
X88745Y91920D01*
X88619Y91955D01*
X88590Y91955D01*
X88561Y91962D01*
X88431Y91958D01*
X88302Y91960D01*
X88273Y91953D01*
X88243Y91952D01*
X88119Y91916D01*
X87992Y91885D01*
X87966Y91872D01*
X87938Y91863D01*
X87826Y91798D01*
X87711Y91737D01*
X87689Y91717D01*
X87664Y91702D01*
X87543Y91596D01*
X69986Y74039D01*
X69926Y73961D01*
X69858Y73889D01*
X69829Y73836D01*
X69792Y73788D01*
X69752Y73697D01*
X69704Y73610D01*
X69689Y73552D01*
X69665Y73496D01*
X69650Y73398D01*
X69625Y73302D01*
X69619Y73202D01*
X69615Y73182D01*
X69617Y73169D01*
X69615Y73141D01*
X69615Y62284D01*
X68684Y60036D01*
X66785Y58138D01*
X54211Y45563D01*
X54134Y45519D01*
X54127Y45513D01*
X54119Y45508D01*
X53998Y45402D01*
X51198Y42602D01*
X47644Y41129D01*
X28556Y41129D01*
G37*
%LPD*%
%LPC*%
G36*
X457095Y8109D02*
X457095Y8109D01*
X397141Y68063D01*
X397046Y68136D01*
X396957Y68215D01*
X396921Y68233D01*
X396889Y68258D01*
X396780Y68305D01*
X396674Y68359D01*
X396635Y68368D01*
X396598Y68384D01*
X396480Y68403D01*
X396364Y68429D01*
X396323Y68428D01*
X396283Y68434D01*
X396165Y68423D01*
X396046Y68419D01*
X396007Y68408D01*
X395967Y68404D01*
X395855Y68364D01*
X395740Y68331D01*
X395706Y68311D01*
X395668Y68297D01*
X395569Y68230D01*
X395466Y68170D01*
X395421Y68130D01*
X395404Y68118D01*
X395391Y68103D01*
X395346Y68063D01*
X394516Y67234D01*
X390629Y65624D01*
X369371Y65624D01*
X365484Y67234D01*
X362508Y70209D01*
X360898Y74096D01*
X360898Y78304D01*
X362508Y82191D01*
X365484Y85166D01*
X369371Y86776D01*
X390629Y86776D01*
X394516Y85166D01*
X397492Y82191D01*
X399102Y78304D01*
X399102Y76020D01*
X399114Y75922D01*
X399117Y75823D01*
X399134Y75765D01*
X399142Y75705D01*
X399178Y75613D01*
X399206Y75518D01*
X399236Y75465D01*
X399259Y75409D01*
X399317Y75329D01*
X399367Y75244D01*
X399433Y75168D01*
X399445Y75152D01*
X399455Y75144D01*
X399473Y75123D01*
X459474Y15122D01*
X459552Y15062D01*
X459624Y14994D01*
X459677Y14965D01*
X459725Y14928D01*
X459816Y14888D01*
X459903Y14840D01*
X459961Y14825D01*
X460017Y14801D01*
X460115Y14786D01*
X460211Y14761D01*
X460311Y14755D01*
X460331Y14751D01*
X460343Y14753D01*
X460371Y14751D01*
X555629Y14751D01*
X555727Y14763D01*
X555826Y14766D01*
X555884Y14783D01*
X555944Y14791D01*
X556036Y14827D01*
X556131Y14855D01*
X556184Y14885D01*
X556240Y14908D01*
X556320Y14966D01*
X556405Y15016D01*
X556481Y15082D01*
X556497Y15094D01*
X556505Y15104D01*
X556526Y15122D01*
X560117Y18713D01*
X560190Y18807D01*
X560269Y18896D01*
X560287Y18932D01*
X560312Y18964D01*
X560359Y19074D01*
X560413Y19180D01*
X560422Y19219D01*
X560438Y19256D01*
X560457Y19374D01*
X560483Y19490D01*
X560482Y19530D01*
X560488Y19570D01*
X560477Y19689D01*
X560473Y19808D01*
X560462Y19847D01*
X560458Y19887D01*
X560418Y19999D01*
X560385Y20113D01*
X560364Y20148D01*
X560351Y20186D01*
X560284Y20285D01*
X560223Y20387D01*
X560183Y20433D01*
X560172Y20449D01*
X560157Y20463D01*
X560117Y20508D01*
X559525Y21100D01*
X558369Y23890D01*
X558369Y26910D01*
X559525Y29700D01*
X561660Y31835D01*
X564450Y32991D01*
X578550Y32991D01*
X581340Y31835D01*
X583475Y29700D01*
X584631Y26910D01*
X584631Y23890D01*
X583475Y21100D01*
X581340Y18965D01*
X578550Y17809D01*
X569131Y17809D01*
X569033Y17797D01*
X568934Y17794D01*
X568876Y17777D01*
X568816Y17769D01*
X568724Y17733D01*
X568629Y17705D01*
X568576Y17675D01*
X568520Y17652D01*
X568440Y17594D01*
X568355Y17544D01*
X568279Y17478D01*
X568263Y17466D01*
X568255Y17456D01*
X568234Y17438D01*
X558905Y8109D01*
X457095Y8109D01*
G37*
%LPD*%
%LPC*%
G36*
X42659Y280439D02*
X42659Y280439D01*
X42659Y298400D01*
X42656Y298430D01*
X42658Y298459D01*
X42636Y298587D01*
X42619Y298716D01*
X42609Y298743D01*
X42604Y298772D01*
X42550Y298891D01*
X42502Y299012D01*
X42485Y299036D01*
X42473Y299062D01*
X42392Y299164D01*
X42316Y299269D01*
X42293Y299288D01*
X42274Y299311D01*
X42171Y299389D01*
X42071Y299472D01*
X42044Y299484D01*
X42020Y299502D01*
X41876Y299573D01*
X36846Y301656D01*
X31456Y307046D01*
X28539Y314089D01*
X28539Y321711D01*
X31456Y328754D01*
X36846Y334144D01*
X43889Y337061D01*
X51511Y337061D01*
X58554Y334144D01*
X63944Y328754D01*
X66861Y321711D01*
X66861Y314089D01*
X63944Y307046D01*
X59505Y302607D01*
X59420Y302498D01*
X59331Y302391D01*
X59322Y302372D01*
X59310Y302356D01*
X59254Y302228D01*
X59195Y302103D01*
X59192Y302083D01*
X59184Y302064D01*
X59162Y301926D01*
X59136Y301790D01*
X59137Y301770D01*
X59134Y301750D01*
X59147Y301611D01*
X59155Y301473D01*
X59162Y301454D01*
X59164Y301434D01*
X59211Y301302D01*
X59253Y301171D01*
X59264Y301153D01*
X59271Y301134D01*
X59349Y301019D01*
X59424Y300902D01*
X59438Y300888D01*
X59450Y300871D01*
X59554Y300779D01*
X59655Y300684D01*
X59673Y300674D01*
X59688Y300661D01*
X59812Y300597D01*
X59934Y300530D01*
X59953Y300525D01*
X59971Y300516D01*
X60107Y300486D01*
X60242Y300451D01*
X60270Y300449D01*
X60282Y300446D01*
X60302Y300447D01*
X60402Y300441D01*
X77661Y300441D01*
X77661Y280439D01*
X42659Y280439D01*
G37*
%LPD*%
%LPC*%
G36*
X43889Y348739D02*
X43889Y348739D01*
X36846Y351656D01*
X31456Y357046D01*
X28539Y364089D01*
X28539Y371711D01*
X31456Y378754D01*
X36846Y384144D01*
X41876Y386227D01*
X41901Y386242D01*
X41929Y386251D01*
X42039Y386320D01*
X42152Y386384D01*
X42173Y386405D01*
X42198Y386421D01*
X42287Y386515D01*
X42380Y386606D01*
X42396Y386631D01*
X42416Y386652D01*
X42479Y386766D01*
X42547Y386877D01*
X42555Y386905D01*
X42570Y386931D01*
X42602Y387057D01*
X42640Y387181D01*
X42642Y387210D01*
X42649Y387239D01*
X42659Y387400D01*
X42659Y405361D01*
X77661Y405361D01*
X77661Y385359D01*
X60402Y385359D01*
X60265Y385342D01*
X60126Y385329D01*
X60107Y385322D01*
X60087Y385319D01*
X59958Y385268D01*
X59827Y385221D01*
X59810Y385210D01*
X59791Y385202D01*
X59679Y385121D01*
X59564Y385043D01*
X59550Y385027D01*
X59534Y385016D01*
X59445Y384908D01*
X59353Y384804D01*
X59344Y384786D01*
X59331Y384771D01*
X59272Y384645D01*
X59208Y384521D01*
X59204Y384501D01*
X59195Y384483D01*
X59169Y384347D01*
X59139Y384211D01*
X59139Y384190D01*
X59136Y384171D01*
X59144Y384032D01*
X59148Y383893D01*
X59154Y383873D01*
X59155Y383853D01*
X59198Y383721D01*
X59237Y383587D01*
X59247Y383570D01*
X59253Y383551D01*
X59328Y383433D01*
X59398Y383313D01*
X59417Y383292D01*
X59424Y383282D01*
X59439Y383268D01*
X59505Y383193D01*
X63944Y378754D01*
X66861Y371711D01*
X66861Y364089D01*
X63944Y357046D01*
X58554Y351656D01*
X51511Y348739D01*
X43889Y348739D01*
G37*
%LPD*%
%LPC*%
G36*
X488250Y17809D02*
X488250Y17809D01*
X485460Y18965D01*
X483325Y21100D01*
X483244Y21296D01*
X483229Y21321D01*
X483220Y21349D01*
X483151Y21459D01*
X483086Y21572D01*
X483066Y21593D01*
X483050Y21618D01*
X482955Y21707D01*
X482865Y21800D01*
X482840Y21816D01*
X482818Y21836D01*
X482704Y21899D01*
X482594Y21967D01*
X482566Y21975D01*
X482540Y21990D01*
X482414Y22022D01*
X482290Y22060D01*
X482261Y22062D01*
X482232Y22069D01*
X482071Y22079D01*
X468525Y22079D01*
X397141Y93463D01*
X397046Y93536D01*
X396957Y93615D01*
X396921Y93633D01*
X396889Y93658D01*
X396780Y93705D01*
X396674Y93759D01*
X396635Y93768D01*
X396598Y93784D01*
X396480Y93803D01*
X396364Y93829D01*
X396323Y93828D01*
X396283Y93834D01*
X396165Y93823D01*
X396046Y93819D01*
X396007Y93808D01*
X395967Y93804D01*
X395855Y93764D01*
X395740Y93731D01*
X395706Y93711D01*
X395668Y93697D01*
X395569Y93630D01*
X395466Y93570D01*
X395421Y93530D01*
X395404Y93518D01*
X395391Y93503D01*
X395346Y93463D01*
X394516Y92634D01*
X390629Y91024D01*
X369371Y91024D01*
X365484Y92634D01*
X362508Y95609D01*
X360898Y99496D01*
X360898Y103704D01*
X362508Y107591D01*
X365484Y110566D01*
X369371Y112176D01*
X390629Y112176D01*
X394516Y110566D01*
X397492Y107591D01*
X399102Y103704D01*
X399102Y101420D01*
X399114Y101322D01*
X399117Y101223D01*
X399134Y101165D01*
X399142Y101105D01*
X399178Y101013D01*
X399206Y100918D01*
X399236Y100865D01*
X399259Y100809D01*
X399317Y100729D01*
X399367Y100644D01*
X399433Y100568D01*
X399445Y100552D01*
X399455Y100544D01*
X399473Y100523D01*
X470904Y29092D01*
X470982Y29032D01*
X471054Y28964D01*
X471107Y28935D01*
X471155Y28898D01*
X471246Y28858D01*
X471333Y28810D01*
X471391Y28795D01*
X471447Y28771D01*
X471545Y28756D01*
X471641Y28731D01*
X471741Y28725D01*
X471761Y28721D01*
X471773Y28723D01*
X471801Y28721D01*
X482071Y28721D01*
X482100Y28724D01*
X482130Y28722D01*
X482258Y28744D01*
X482387Y28761D01*
X482414Y28771D01*
X482443Y28776D01*
X482562Y28830D01*
X482682Y28878D01*
X482706Y28895D01*
X482733Y28907D01*
X482835Y28988D01*
X482940Y29064D01*
X482959Y29087D01*
X482982Y29106D01*
X483060Y29209D01*
X483143Y29309D01*
X483155Y29336D01*
X483173Y29360D01*
X483244Y29504D01*
X483325Y29700D01*
X485460Y31835D01*
X488250Y32991D01*
X502350Y32991D01*
X505140Y31835D01*
X507275Y29700D01*
X508431Y26910D01*
X508431Y23890D01*
X507275Y21100D01*
X505140Y18965D01*
X502350Y17809D01*
X488250Y17809D01*
G37*
%LPD*%
%LPC*%
G36*
X488250Y119409D02*
X488250Y119409D01*
X485460Y120565D01*
X483325Y122700D01*
X483244Y122896D01*
X483229Y122921D01*
X483220Y122949D01*
X483151Y123059D01*
X483086Y123172D01*
X483066Y123193D01*
X483050Y123218D01*
X482956Y123307D01*
X482865Y123400D01*
X482840Y123416D01*
X482818Y123436D01*
X482705Y123499D01*
X482594Y123567D01*
X482566Y123575D01*
X482540Y123590D01*
X482414Y123622D01*
X482290Y123660D01*
X482261Y123662D01*
X482232Y123669D01*
X482071Y123679D01*
X480805Y123679D01*
X480707Y123667D01*
X480607Y123664D01*
X480557Y123649D01*
X459551Y123649D01*
X459192Y124008D01*
X459114Y124068D01*
X459042Y124136D01*
X458989Y124165D01*
X458941Y124202D01*
X458850Y124242D01*
X458763Y124290D01*
X458705Y124305D01*
X458649Y124329D01*
X458551Y124344D01*
X458455Y124369D01*
X458355Y124375D01*
X458335Y124379D01*
X458323Y124377D01*
X458295Y124379D01*
X455320Y124379D01*
X455202Y124364D01*
X455083Y124357D01*
X455045Y124344D01*
X455004Y124339D01*
X454894Y124296D01*
X454781Y124259D01*
X454746Y124237D01*
X454709Y124222D01*
X454613Y124153D01*
X454512Y124089D01*
X454484Y124059D01*
X454451Y124036D01*
X454375Y123944D01*
X454294Y123857D01*
X454274Y123822D01*
X454249Y123791D01*
X454198Y123683D01*
X454140Y123579D01*
X454130Y123539D01*
X454113Y123503D01*
X454091Y123386D01*
X454061Y123271D01*
X454057Y123211D01*
X454053Y123191D01*
X454053Y123190D01*
X454055Y123170D01*
X454051Y123110D01*
X454051Y122851D01*
X452849Y121649D01*
X436151Y121649D01*
X434949Y122851D01*
X434949Y137549D01*
X436202Y138802D01*
X436275Y138897D01*
X436354Y138986D01*
X436372Y139022D01*
X436397Y139054D01*
X436445Y139163D01*
X436499Y139269D01*
X436508Y139308D01*
X436524Y139346D01*
X436542Y139463D01*
X436568Y139579D01*
X436567Y139620D01*
X436573Y139660D01*
X436562Y139778D01*
X436559Y139897D01*
X436547Y139936D01*
X436544Y139976D01*
X436503Y140089D01*
X436470Y140203D01*
X436450Y140237D01*
X436436Y140276D01*
X436369Y140374D01*
X436309Y140477D01*
X436269Y140522D01*
X436257Y140539D01*
X436242Y140552D01*
X436202Y140597D01*
X434949Y141851D01*
X434949Y156549D01*
X436151Y157751D01*
X452849Y157751D01*
X454051Y156549D01*
X454051Y156290D01*
X454066Y156172D01*
X454073Y156053D01*
X454086Y156015D01*
X454091Y155974D01*
X454134Y155864D01*
X454171Y155751D01*
X454193Y155716D01*
X454208Y155679D01*
X454277Y155583D01*
X454341Y155482D01*
X454371Y155454D01*
X454394Y155421D01*
X454486Y155345D01*
X454573Y155264D01*
X454608Y155244D01*
X454639Y155219D01*
X454747Y155168D01*
X454851Y155110D01*
X454891Y155100D01*
X454927Y155083D01*
X455044Y155061D01*
X455159Y155031D01*
X455219Y155027D01*
X455239Y155023D01*
X455260Y155025D01*
X455320Y155021D01*
X458295Y155021D01*
X458393Y155033D01*
X458492Y155036D01*
X458550Y155053D01*
X458610Y155061D01*
X458702Y155097D01*
X458798Y155125D01*
X458850Y155155D01*
X458906Y155178D01*
X458986Y155236D01*
X459072Y155286D01*
X459147Y155352D01*
X459163Y155364D01*
X459171Y155374D01*
X459192Y155393D01*
X459551Y155751D01*
X480249Y155751D01*
X480608Y155393D01*
X480686Y155332D01*
X480758Y155264D01*
X480811Y155235D01*
X480859Y155198D01*
X480950Y155158D01*
X481037Y155110D01*
X481095Y155095D01*
X481151Y155071D01*
X481249Y155056D01*
X481344Y155031D01*
X481444Y155025D01*
X481465Y155021D01*
X481477Y155023D01*
X481505Y155021D01*
X481781Y155021D01*
X481811Y155024D01*
X481840Y155022D01*
X481968Y155044D01*
X482097Y155061D01*
X482124Y155071D01*
X482153Y155076D01*
X482272Y155130D01*
X482393Y155178D01*
X482416Y155195D01*
X482443Y155207D01*
X482545Y155288D01*
X482650Y155364D01*
X482669Y155387D01*
X482692Y155406D01*
X482770Y155509D01*
X482853Y155609D01*
X482865Y155636D01*
X482883Y155660D01*
X482954Y155804D01*
X483325Y156700D01*
X485460Y158835D01*
X488250Y159991D01*
X502350Y159991D01*
X505140Y158835D01*
X507275Y156700D01*
X508431Y153910D01*
X508431Y150890D01*
X507275Y148100D01*
X505140Y145965D01*
X502350Y144809D01*
X488250Y144809D01*
X485460Y145965D01*
X483418Y148008D01*
X483339Y148068D01*
X483267Y148136D01*
X483214Y148165D01*
X483166Y148202D01*
X483075Y148242D01*
X482989Y148290D01*
X482930Y148305D01*
X482874Y148329D01*
X482776Y148344D01*
X482681Y148369D01*
X482581Y148375D01*
X482560Y148379D01*
X482548Y148377D01*
X482520Y148379D01*
X481505Y148379D01*
X481407Y148367D01*
X481308Y148364D01*
X481250Y148347D01*
X481190Y148339D01*
X481098Y148303D01*
X481002Y148275D01*
X480950Y148245D01*
X480894Y148222D01*
X480814Y148164D01*
X480728Y148114D01*
X480653Y148048D01*
X480637Y148036D01*
X480629Y148026D01*
X480608Y148007D01*
X480249Y147649D01*
X459551Y147649D01*
X459192Y148007D01*
X459114Y148068D01*
X459042Y148136D01*
X458989Y148165D01*
X458941Y148202D01*
X458850Y148242D01*
X458763Y148290D01*
X458705Y148305D01*
X458649Y148329D01*
X458551Y148344D01*
X458456Y148369D01*
X458356Y148375D01*
X458335Y148379D01*
X458323Y148377D01*
X458295Y148379D01*
X455320Y148379D01*
X455202Y148364D01*
X455083Y148357D01*
X455045Y148344D01*
X455004Y148339D01*
X454894Y148296D01*
X454781Y148259D01*
X454746Y148237D01*
X454709Y148222D01*
X454613Y148153D01*
X454512Y148089D01*
X454484Y148059D01*
X454451Y148036D01*
X454375Y147944D01*
X454294Y147857D01*
X454274Y147822D01*
X454249Y147791D01*
X454198Y147683D01*
X454140Y147579D01*
X454130Y147539D01*
X454113Y147503D01*
X454091Y147386D01*
X454061Y147271D01*
X454057Y147211D01*
X454053Y147191D01*
X454055Y147170D01*
X454051Y147110D01*
X454051Y141851D01*
X452798Y140597D01*
X452725Y140503D01*
X452646Y140414D01*
X452628Y140378D01*
X452603Y140346D01*
X452555Y140237D01*
X452501Y140131D01*
X452492Y140092D01*
X452476Y140054D01*
X452458Y139937D01*
X452432Y139821D01*
X452433Y139780D01*
X452427Y139740D01*
X452438Y139622D01*
X452441Y139503D01*
X452453Y139464D01*
X452456Y139424D01*
X452497Y139312D01*
X452530Y139197D01*
X452550Y139162D01*
X452564Y139124D01*
X452631Y139026D01*
X452691Y138923D01*
X452731Y138878D01*
X452743Y138861D01*
X452758Y138848D01*
X452798Y138802D01*
X454051Y137549D01*
X454051Y132290D01*
X454066Y132172D01*
X454073Y132053D01*
X454086Y132015D01*
X454091Y131974D01*
X454134Y131864D01*
X454171Y131751D01*
X454193Y131716D01*
X454208Y131679D01*
X454277Y131583D01*
X454341Y131482D01*
X454371Y131454D01*
X454394Y131421D01*
X454486Y131345D01*
X454573Y131264D01*
X454608Y131244D01*
X454639Y131219D01*
X454747Y131168D01*
X454851Y131110D01*
X454891Y131100D01*
X454927Y131083D01*
X455044Y131061D01*
X455159Y131031D01*
X455219Y131027D01*
X455239Y131023D01*
X455260Y131025D01*
X455320Y131021D01*
X458295Y131021D01*
X458393Y131033D01*
X458492Y131036D01*
X458550Y131053D01*
X458610Y131061D01*
X458702Y131097D01*
X458798Y131125D01*
X458850Y131155D01*
X458906Y131178D01*
X458986Y131236D01*
X459071Y131286D01*
X459147Y131352D01*
X459163Y131364D01*
X459171Y131374D01*
X459192Y131392D01*
X459551Y131751D01*
X480249Y131751D01*
X481213Y130787D01*
X481252Y130757D01*
X481286Y130720D01*
X481377Y130660D01*
X481464Y130592D01*
X481510Y130573D01*
X481551Y130545D01*
X481655Y130510D01*
X481756Y130466D01*
X481805Y130458D01*
X481852Y130442D01*
X481962Y130433D01*
X482070Y130416D01*
X482120Y130421D01*
X482169Y130417D01*
X482277Y130436D01*
X482387Y130446D01*
X482434Y130463D01*
X482483Y130471D01*
X482583Y130516D01*
X482686Y130553D01*
X482727Y130581D01*
X482773Y130602D01*
X482858Y130670D01*
X482949Y130732D01*
X482982Y130769D01*
X483021Y130800D01*
X483087Y130888D01*
X483160Y130970D01*
X483182Y131015D01*
X483212Y131054D01*
X483283Y131199D01*
X483325Y131300D01*
X485460Y133435D01*
X488250Y134591D01*
X502350Y134591D01*
X505140Y133435D01*
X507275Y131300D01*
X508431Y128510D01*
X508431Y125490D01*
X507275Y122700D01*
X505140Y120565D01*
X502350Y119409D01*
X488250Y119409D01*
G37*
%LPD*%
%LPC*%
G36*
X434956Y263379D02*
X434956Y263379D01*
X431402Y264852D01*
X428682Y267572D01*
X427209Y271126D01*
X427209Y274974D01*
X427913Y276673D01*
X427921Y276702D01*
X427934Y276728D01*
X427963Y276855D01*
X427997Y276980D01*
X427998Y277009D01*
X428004Y277038D01*
X428000Y277168D01*
X428002Y277298D01*
X427995Y277327D01*
X427994Y277356D01*
X427958Y277481D01*
X427928Y277607D01*
X427914Y277633D01*
X427906Y277662D01*
X427840Y277774D01*
X427779Y277888D01*
X427760Y277910D01*
X427745Y277936D01*
X427638Y278056D01*
X406917Y298778D01*
X406839Y298838D01*
X406767Y298906D01*
X406714Y298935D01*
X406666Y298972D01*
X406575Y299012D01*
X406488Y299060D01*
X406430Y299075D01*
X406374Y299099D01*
X406276Y299114D01*
X406180Y299139D01*
X406080Y299145D01*
X406060Y299149D01*
X406048Y299147D01*
X406020Y299149D01*
X382201Y299149D01*
X380999Y300351D01*
X380999Y321049D01*
X382201Y322251D01*
X417899Y322251D01*
X419101Y321049D01*
X419101Y300351D01*
X418175Y299425D01*
X418102Y299331D01*
X418024Y299242D01*
X418005Y299206D01*
X417980Y299174D01*
X417933Y299065D01*
X417879Y298959D01*
X417870Y298919D01*
X417854Y298882D01*
X417835Y298764D01*
X417809Y298648D01*
X417811Y298608D01*
X417804Y298568D01*
X417815Y298449D01*
X417819Y298330D01*
X417830Y298292D01*
X417834Y298251D01*
X417874Y298139D01*
X417907Y298025D01*
X417928Y297990D01*
X417942Y297952D01*
X418008Y297854D01*
X418069Y297751D01*
X418109Y297706D01*
X418120Y297689D01*
X418135Y297675D01*
X418175Y297630D01*
X433033Y282772D01*
X433057Y282754D01*
X433076Y282732D01*
X433182Y282657D01*
X433284Y282577D01*
X433312Y282566D01*
X433336Y282549D01*
X433457Y282503D01*
X433576Y282451D01*
X433606Y282446D01*
X433633Y282436D01*
X433762Y282421D01*
X433890Y282401D01*
X433920Y282404D01*
X433949Y282401D01*
X434078Y282419D01*
X434207Y282431D01*
X434235Y282441D01*
X434264Y282445D01*
X434416Y282497D01*
X434956Y282721D01*
X454044Y282721D01*
X457598Y281248D01*
X460318Y278528D01*
X461791Y274974D01*
X461791Y271126D01*
X460318Y267572D01*
X457598Y264852D01*
X454044Y263379D01*
X434956Y263379D01*
G37*
%LPD*%
%LPC*%
G36*
X625456Y259569D02*
X625456Y259569D01*
X621902Y261042D01*
X619182Y263762D01*
X618316Y265851D01*
X618312Y265859D01*
X618309Y265868D01*
X618233Y265997D01*
X618159Y266127D01*
X618152Y266134D01*
X618148Y266142D01*
X618041Y266263D01*
X606279Y278025D01*
X606279Y315599D01*
X606267Y315697D01*
X606264Y315796D01*
X606247Y315854D01*
X606239Y315914D01*
X606203Y316006D01*
X606175Y316101D01*
X606145Y316154D01*
X606122Y316210D01*
X606064Y316290D01*
X606014Y316375D01*
X605948Y316451D01*
X605936Y316467D01*
X605926Y316475D01*
X605908Y316496D01*
X574766Y347638D01*
X574688Y347698D01*
X574616Y347766D01*
X574563Y347795D01*
X574515Y347832D01*
X574424Y347872D01*
X574337Y347920D01*
X574279Y347935D01*
X574223Y347959D01*
X574125Y347974D01*
X574029Y347999D01*
X573929Y348005D01*
X573909Y348009D01*
X573897Y348007D01*
X573869Y348009D01*
X564450Y348009D01*
X561660Y349165D01*
X559525Y351300D01*
X558369Y354090D01*
X558369Y357110D01*
X559525Y359900D01*
X561660Y362035D01*
X564450Y363191D01*
X578550Y363191D01*
X581340Y362035D01*
X583475Y359900D01*
X584631Y357110D01*
X584631Y354090D01*
X583475Y351300D01*
X582883Y350708D01*
X582810Y350614D01*
X582731Y350525D01*
X582713Y350489D01*
X582688Y350457D01*
X582641Y350348D01*
X582587Y350242D01*
X582578Y350202D01*
X582562Y350165D01*
X582543Y350047D01*
X582517Y349931D01*
X582518Y349891D01*
X582512Y349851D01*
X582523Y349732D01*
X582527Y349613D01*
X582538Y349575D01*
X582542Y349534D01*
X582582Y349422D01*
X582615Y349308D01*
X582636Y349273D01*
X582649Y349235D01*
X582716Y349137D01*
X582777Y349034D01*
X582817Y348989D01*
X582828Y348972D01*
X582843Y348958D01*
X582883Y348913D01*
X610604Y321192D01*
X612921Y318875D01*
X612921Y281301D01*
X612933Y281203D01*
X612936Y281104D01*
X612953Y281046D01*
X612961Y280986D01*
X612997Y280894D01*
X613025Y280799D01*
X613055Y280746D01*
X613078Y280690D01*
X613136Y280610D01*
X613186Y280525D01*
X613252Y280449D01*
X613264Y280433D01*
X613274Y280425D01*
X613292Y280404D01*
X618182Y275514D01*
X618277Y275441D01*
X618366Y275362D01*
X618402Y275344D01*
X618434Y275319D01*
X618543Y275272D01*
X618649Y275217D01*
X618688Y275209D01*
X618725Y275193D01*
X618843Y275174D01*
X618959Y275148D01*
X619000Y275149D01*
X619040Y275143D01*
X619158Y275154D01*
X619277Y275157D01*
X619316Y275169D01*
X619356Y275173D01*
X619468Y275213D01*
X619583Y275246D01*
X619617Y275266D01*
X619655Y275280D01*
X619754Y275347D01*
X619857Y275407D01*
X619902Y275447D01*
X619919Y275459D01*
X619932Y275474D01*
X619977Y275514D01*
X621902Y277438D01*
X625456Y278911D01*
X644544Y278911D01*
X648098Y277438D01*
X650818Y274718D01*
X652291Y271164D01*
X652291Y267316D01*
X650818Y263762D01*
X648098Y261042D01*
X644544Y259569D01*
X625456Y259569D01*
G37*
%LPD*%
%LPC*%
G36*
X564450Y144809D02*
X564450Y144809D01*
X561660Y145965D01*
X559525Y148100D01*
X558369Y150890D01*
X558369Y153910D01*
X559525Y156700D01*
X561660Y158835D01*
X564450Y159991D01*
X566910Y159991D01*
X567028Y160006D01*
X567147Y160013D01*
X567185Y160026D01*
X567226Y160031D01*
X567336Y160074D01*
X567449Y160111D01*
X567484Y160133D01*
X567521Y160148D01*
X567617Y160217D01*
X567718Y160281D01*
X567746Y160311D01*
X567779Y160334D01*
X567855Y160426D01*
X567936Y160513D01*
X567956Y160548D01*
X567981Y160579D01*
X568032Y160687D01*
X568090Y160791D01*
X568100Y160831D01*
X568117Y160867D01*
X568139Y160984D01*
X568169Y161099D01*
X568173Y161159D01*
X568177Y161179D01*
X568175Y161200D01*
X568179Y161260D01*
X568179Y168940D01*
X568164Y169058D01*
X568157Y169177D01*
X568144Y169215D01*
X568139Y169256D01*
X568096Y169366D01*
X568059Y169479D01*
X568037Y169514D01*
X568022Y169551D01*
X567953Y169647D01*
X567889Y169748D01*
X567859Y169776D01*
X567836Y169809D01*
X567744Y169885D01*
X567657Y169966D01*
X567622Y169986D01*
X567591Y170011D01*
X567483Y170062D01*
X567379Y170120D01*
X567339Y170130D01*
X567303Y170147D01*
X567186Y170169D01*
X567071Y170199D01*
X567011Y170203D01*
X566991Y170207D01*
X566970Y170205D01*
X566910Y170209D01*
X564450Y170209D01*
X561660Y171365D01*
X559525Y173500D01*
X558369Y176290D01*
X558369Y179310D01*
X559525Y182100D01*
X561660Y184235D01*
X564450Y185391D01*
X578550Y185391D01*
X581340Y184235D01*
X583475Y182100D01*
X583556Y181904D01*
X583571Y181879D01*
X583580Y181851D01*
X583649Y181741D01*
X583714Y181628D01*
X583734Y181607D01*
X583750Y181582D01*
X583845Y181493D01*
X583935Y181400D01*
X583960Y181384D01*
X583982Y181364D01*
X584096Y181301D01*
X584206Y181233D01*
X584234Y181225D01*
X584260Y181210D01*
X584386Y181178D01*
X584510Y181140D01*
X584539Y181138D01*
X584568Y181131D01*
X584729Y181121D01*
X586080Y181121D01*
X586198Y181136D01*
X586317Y181143D01*
X586355Y181156D01*
X586396Y181161D01*
X586506Y181204D01*
X586619Y181241D01*
X586654Y181263D01*
X586691Y181278D01*
X586787Y181347D01*
X586888Y181411D01*
X586916Y181441D01*
X586949Y181464D01*
X587025Y181556D01*
X587106Y181643D01*
X587126Y181678D01*
X587151Y181709D01*
X587202Y181817D01*
X587260Y181921D01*
X587270Y181961D01*
X587287Y181997D01*
X587309Y182114D01*
X587339Y182229D01*
X587343Y182289D01*
X587347Y182309D01*
X587345Y182330D01*
X587349Y182390D01*
X587349Y188349D01*
X588336Y189336D01*
X588413Y189435D01*
X588495Y189530D01*
X588510Y189561D01*
X588531Y189587D01*
X588580Y189702D01*
X588636Y189815D01*
X588644Y189848D01*
X588657Y189879D01*
X588677Y190003D01*
X588703Y190126D01*
X588701Y190160D01*
X588707Y190193D01*
X588695Y190318D01*
X588690Y190444D01*
X588680Y190476D01*
X588677Y190510D01*
X588634Y190628D01*
X588598Y190748D01*
X588581Y190777D01*
X588569Y190809D01*
X588499Y190913D01*
X588434Y191021D01*
X588410Y191044D01*
X588391Y191072D01*
X588297Y191155D01*
X588207Y191243D01*
X588166Y191270D01*
X588152Y191283D01*
X588133Y191292D01*
X588073Y191332D01*
X587840Y191467D01*
X587367Y191940D01*
X587032Y192519D01*
X586859Y193166D01*
X586859Y197461D01*
X595630Y197461D01*
X595748Y197476D01*
X595867Y197483D01*
X595905Y197496D01*
X595945Y197501D01*
X596056Y197544D01*
X596169Y197581D01*
X596204Y197603D01*
X596241Y197618D01*
X596337Y197688D01*
X596438Y197751D01*
X596466Y197781D01*
X596498Y197805D01*
X596574Y197896D01*
X596656Y197983D01*
X596675Y198018D01*
X596701Y198049D01*
X596752Y198157D01*
X596809Y198261D01*
X596820Y198301D01*
X596837Y198337D01*
X596859Y198454D01*
X596889Y198569D01*
X596893Y198630D01*
X596897Y198650D01*
X596895Y198670D01*
X596899Y198730D01*
X596899Y200001D01*
X596901Y200001D01*
X596901Y198730D01*
X596916Y198612D01*
X596923Y198493D01*
X596936Y198455D01*
X596941Y198415D01*
X596985Y198304D01*
X597021Y198191D01*
X597043Y198156D01*
X597058Y198119D01*
X597128Y198023D01*
X597191Y197922D01*
X597221Y197894D01*
X597245Y197861D01*
X597336Y197786D01*
X597423Y197704D01*
X597458Y197684D01*
X597490Y197659D01*
X597597Y197608D01*
X597701Y197550D01*
X597741Y197540D01*
X597777Y197523D01*
X597894Y197501D01*
X598009Y197471D01*
X598070Y197467D01*
X598090Y197463D01*
X598110Y197465D01*
X598170Y197461D01*
X606941Y197461D01*
X606941Y193166D01*
X606768Y192519D01*
X606433Y191940D01*
X605960Y191467D01*
X605727Y191332D01*
X605627Y191257D01*
X605523Y191186D01*
X605501Y191161D01*
X605474Y191140D01*
X605396Y191042D01*
X605313Y190947D01*
X605297Y190917D01*
X605276Y190891D01*
X605225Y190776D01*
X605168Y190664D01*
X605161Y190631D01*
X605147Y190601D01*
X605126Y190476D01*
X605098Y190354D01*
X605099Y190320D01*
X605094Y190287D01*
X605104Y190162D01*
X605108Y190036D01*
X605117Y190004D01*
X605120Y189970D01*
X605161Y189851D01*
X605196Y189731D01*
X605214Y189702D01*
X605225Y189670D01*
X605294Y189565D01*
X605358Y189457D01*
X605390Y189420D01*
X605400Y189405D01*
X605417Y189390D01*
X605464Y189336D01*
X606451Y188349D01*
X606451Y173651D01*
X605249Y172449D01*
X588551Y172449D01*
X587201Y173798D01*
X587192Y173821D01*
X587123Y173917D01*
X587059Y174018D01*
X587029Y174046D01*
X587006Y174079D01*
X586914Y174155D01*
X586827Y174236D01*
X586792Y174256D01*
X586761Y174281D01*
X586653Y174332D01*
X586549Y174390D01*
X586509Y174400D01*
X586473Y174417D01*
X586356Y174439D01*
X586241Y174469D01*
X586181Y174473D01*
X586161Y174477D01*
X586140Y174475D01*
X586080Y174479D01*
X584729Y174479D01*
X584700Y174476D01*
X584670Y174478D01*
X584542Y174456D01*
X584413Y174439D01*
X584386Y174429D01*
X584357Y174424D01*
X584238Y174370D01*
X584118Y174322D01*
X584094Y174305D01*
X584067Y174293D01*
X583965Y174212D01*
X583860Y174136D01*
X583841Y174113D01*
X583818Y174094D01*
X583740Y173991D01*
X583657Y173891D01*
X583645Y173864D01*
X583627Y173840D01*
X583556Y173696D01*
X583475Y173500D01*
X581340Y171365D01*
X578550Y170209D01*
X576090Y170209D01*
X575972Y170194D01*
X575853Y170187D01*
X575815Y170174D01*
X575774Y170169D01*
X575664Y170126D01*
X575551Y170089D01*
X575516Y170067D01*
X575479Y170052D01*
X575383Y169983D01*
X575282Y169919D01*
X575254Y169889D01*
X575221Y169866D01*
X575145Y169774D01*
X575064Y169687D01*
X575044Y169652D01*
X575019Y169621D01*
X574968Y169513D01*
X574910Y169409D01*
X574900Y169369D01*
X574883Y169333D01*
X574861Y169216D01*
X574831Y169101D01*
X574827Y169041D01*
X574823Y169021D01*
X574825Y169000D01*
X574821Y168940D01*
X574821Y161260D01*
X574836Y161142D01*
X574843Y161023D01*
X574856Y160985D01*
X574861Y160944D01*
X574904Y160834D01*
X574941Y160721D01*
X574963Y160686D01*
X574978Y160649D01*
X575047Y160553D01*
X575111Y160452D01*
X575141Y160424D01*
X575164Y160391D01*
X575256Y160315D01*
X575343Y160234D01*
X575378Y160214D01*
X575409Y160189D01*
X575517Y160138D01*
X575621Y160080D01*
X575661Y160070D01*
X575697Y160053D01*
X575814Y160031D01*
X575929Y160001D01*
X575989Y159997D01*
X576009Y159993D01*
X576030Y159995D01*
X576090Y159991D01*
X578550Y159991D01*
X581340Y158835D01*
X583475Y156700D01*
X584631Y153910D01*
X584631Y150890D01*
X583475Y148100D01*
X581340Y145965D01*
X578550Y144809D01*
X564450Y144809D01*
G37*
%LPD*%
%LPC*%
G36*
X625456Y66529D02*
X625456Y66529D01*
X621902Y68002D01*
X619182Y70722D01*
X618612Y72096D01*
X618598Y72121D01*
X618589Y72149D01*
X618519Y72259D01*
X618455Y72372D01*
X618434Y72393D01*
X618419Y72418D01*
X618324Y72507D01*
X618234Y72600D01*
X618208Y72616D01*
X618187Y72636D01*
X618073Y72699D01*
X617963Y72767D01*
X617934Y72775D01*
X617908Y72790D01*
X617783Y72822D01*
X617659Y72860D01*
X617629Y72862D01*
X617601Y72869D01*
X617440Y72879D01*
X608225Y72879D01*
X584537Y96567D01*
X584443Y96640D01*
X584354Y96719D01*
X584318Y96737D01*
X584286Y96762D01*
X584176Y96809D01*
X584070Y96863D01*
X584031Y96872D01*
X583994Y96888D01*
X583876Y96907D01*
X583760Y96933D01*
X583720Y96932D01*
X583680Y96938D01*
X583561Y96927D01*
X583442Y96923D01*
X583403Y96912D01*
X583363Y96908D01*
X583251Y96868D01*
X583137Y96835D01*
X583102Y96814D01*
X583064Y96801D01*
X582965Y96734D01*
X582863Y96673D01*
X582818Y96634D01*
X582801Y96622D01*
X582787Y96607D01*
X582742Y96567D01*
X581340Y95165D01*
X578550Y94009D01*
X564450Y94009D01*
X561660Y95165D01*
X559525Y97300D01*
X558369Y100090D01*
X558369Y103110D01*
X559525Y105900D01*
X561660Y108035D01*
X564450Y109191D01*
X578550Y109191D01*
X581340Y108035D01*
X583475Y105900D01*
X583556Y105704D01*
X583571Y105679D01*
X583580Y105651D01*
X583649Y105541D01*
X583714Y105428D01*
X583734Y105407D01*
X583750Y105382D01*
X583845Y105293D01*
X583935Y105200D01*
X583960Y105184D01*
X583982Y105164D01*
X584096Y105101D01*
X584206Y105033D01*
X584234Y105025D01*
X584260Y105010D01*
X584386Y104978D01*
X584510Y104940D01*
X584539Y104938D01*
X584568Y104931D01*
X584729Y104921D01*
X585575Y104921D01*
X610604Y79892D01*
X610682Y79832D01*
X610754Y79764D01*
X610807Y79735D01*
X610855Y79698D01*
X610946Y79658D01*
X611033Y79610D01*
X611091Y79595D01*
X611147Y79571D01*
X611245Y79556D01*
X611341Y79531D01*
X611441Y79525D01*
X611461Y79521D01*
X611473Y79523D01*
X611501Y79521D01*
X617440Y79521D01*
X617469Y79524D01*
X617499Y79522D01*
X617627Y79544D01*
X617755Y79561D01*
X617783Y79571D01*
X617812Y79576D01*
X617930Y79630D01*
X618051Y79678D01*
X618075Y79695D01*
X618102Y79707D01*
X618203Y79788D01*
X618308Y79864D01*
X618327Y79887D01*
X618350Y79906D01*
X618428Y80009D01*
X618511Y80109D01*
X618524Y80136D01*
X618542Y80160D01*
X618612Y80304D01*
X619182Y81678D01*
X621902Y84398D01*
X625456Y85871D01*
X644544Y85871D01*
X648098Y84398D01*
X650818Y81678D01*
X652291Y78124D01*
X652291Y74276D01*
X650818Y70722D01*
X648098Y68002D01*
X644544Y66529D01*
X625456Y66529D01*
G37*
%LPD*%
%LPC*%
G36*
X625456Y41129D02*
X625456Y41129D01*
X621902Y42602D01*
X619182Y45322D01*
X618612Y46696D01*
X618598Y46721D01*
X618589Y46749D01*
X618519Y46859D01*
X618455Y46972D01*
X618434Y46993D01*
X618419Y47018D01*
X618324Y47107D01*
X618234Y47200D01*
X618208Y47216D01*
X618187Y47236D01*
X618073Y47299D01*
X617963Y47367D01*
X617934Y47375D01*
X617908Y47390D01*
X617783Y47422D01*
X617659Y47460D01*
X617629Y47462D01*
X617601Y47469D01*
X617440Y47479D01*
X608225Y47479D01*
X584537Y71167D01*
X584443Y71240D01*
X584354Y71319D01*
X584318Y71337D01*
X584286Y71362D01*
X584176Y71409D01*
X584070Y71463D01*
X584031Y71472D01*
X583994Y71488D01*
X583876Y71507D01*
X583760Y71533D01*
X583720Y71532D01*
X583680Y71538D01*
X583561Y71527D01*
X583442Y71523D01*
X583403Y71512D01*
X583363Y71508D01*
X583251Y71468D01*
X583137Y71435D01*
X583102Y71414D01*
X583064Y71401D01*
X582965Y71334D01*
X582863Y71273D01*
X582818Y71234D01*
X582801Y71222D01*
X582787Y71207D01*
X582742Y71167D01*
X581340Y69765D01*
X578550Y68609D01*
X564450Y68609D01*
X561660Y69765D01*
X559525Y71900D01*
X558369Y74690D01*
X558369Y77710D01*
X559525Y80500D01*
X561660Y82635D01*
X564450Y83791D01*
X578550Y83791D01*
X581340Y82635D01*
X583475Y80500D01*
X583556Y80304D01*
X583571Y80279D01*
X583580Y80251D01*
X583649Y80141D01*
X583714Y80028D01*
X583734Y80007D01*
X583750Y79982D01*
X583845Y79893D01*
X583935Y79800D01*
X583960Y79784D01*
X583982Y79764D01*
X584095Y79701D01*
X584206Y79633D01*
X584234Y79625D01*
X584260Y79610D01*
X584386Y79578D01*
X584510Y79540D01*
X584539Y79538D01*
X584568Y79531D01*
X584729Y79521D01*
X585575Y79521D01*
X610604Y54492D01*
X610682Y54432D01*
X610754Y54364D01*
X610807Y54335D01*
X610855Y54298D01*
X610946Y54258D01*
X611033Y54210D01*
X611091Y54195D01*
X611147Y54171D01*
X611245Y54156D01*
X611341Y54131D01*
X611441Y54125D01*
X611461Y54121D01*
X611473Y54123D01*
X611501Y54121D01*
X617440Y54121D01*
X617469Y54124D01*
X617499Y54122D01*
X617627Y54144D01*
X617755Y54161D01*
X617783Y54171D01*
X617812Y54176D01*
X617930Y54230D01*
X618051Y54278D01*
X618075Y54295D01*
X618102Y54307D01*
X618203Y54388D01*
X618308Y54464D01*
X618327Y54487D01*
X618350Y54506D01*
X618428Y54609D01*
X618511Y54709D01*
X618524Y54736D01*
X618542Y54760D01*
X618612Y54904D01*
X619182Y56278D01*
X621902Y58998D01*
X625456Y60471D01*
X644544Y60471D01*
X648098Y58998D01*
X650818Y56278D01*
X652291Y52724D01*
X652291Y48876D01*
X650818Y45322D01*
X648098Y42602D01*
X644544Y41129D01*
X625456Y41129D01*
G37*
%LPD*%
%LPC*%
G36*
X625456Y91929D02*
X625456Y91929D01*
X621902Y93402D01*
X619182Y96122D01*
X618612Y97496D01*
X618598Y97521D01*
X618589Y97549D01*
X618519Y97659D01*
X618455Y97772D01*
X618434Y97793D01*
X618419Y97818D01*
X618324Y97907D01*
X618234Y98000D01*
X618208Y98016D01*
X618187Y98036D01*
X618073Y98099D01*
X617963Y98167D01*
X617934Y98175D01*
X617908Y98190D01*
X617783Y98222D01*
X617659Y98260D01*
X617629Y98262D01*
X617601Y98269D01*
X617440Y98279D01*
X608225Y98279D01*
X605908Y100596D01*
X584537Y121967D01*
X584443Y122040D01*
X584354Y122119D01*
X584318Y122137D01*
X584286Y122162D01*
X584176Y122209D01*
X584070Y122263D01*
X584031Y122272D01*
X583994Y122288D01*
X583876Y122307D01*
X583760Y122333D01*
X583720Y122332D01*
X583680Y122338D01*
X583561Y122327D01*
X583442Y122323D01*
X583403Y122312D01*
X583363Y122308D01*
X583251Y122268D01*
X583137Y122235D01*
X583102Y122214D01*
X583064Y122201D01*
X582965Y122134D01*
X582863Y122073D01*
X582818Y122034D01*
X582801Y122022D01*
X582787Y122007D01*
X582742Y121967D01*
X581340Y120565D01*
X578550Y119409D01*
X564450Y119409D01*
X561660Y120565D01*
X559525Y122700D01*
X558369Y125490D01*
X558369Y128510D01*
X559525Y131300D01*
X561660Y133435D01*
X564450Y134591D01*
X578550Y134591D01*
X581340Y133435D01*
X583475Y131300D01*
X583556Y131104D01*
X583571Y131079D01*
X583580Y131051D01*
X583649Y130941D01*
X583714Y130828D01*
X583734Y130807D01*
X583750Y130782D01*
X583845Y130693D01*
X583935Y130600D01*
X583960Y130584D01*
X583982Y130564D01*
X584095Y130501D01*
X584206Y130433D01*
X584234Y130425D01*
X584260Y130410D01*
X584386Y130378D01*
X584510Y130340D01*
X584539Y130338D01*
X584568Y130331D01*
X584729Y130321D01*
X585575Y130321D01*
X587892Y128004D01*
X610604Y105292D01*
X610682Y105232D01*
X610754Y105164D01*
X610807Y105135D01*
X610855Y105098D01*
X610946Y105058D01*
X611033Y105010D01*
X611091Y104995D01*
X611147Y104971D01*
X611245Y104956D01*
X611341Y104931D01*
X611441Y104925D01*
X611461Y104921D01*
X611473Y104923D01*
X611501Y104921D01*
X617440Y104921D01*
X617469Y104924D01*
X617499Y104922D01*
X617627Y104944D01*
X617755Y104961D01*
X617783Y104971D01*
X617812Y104976D01*
X617930Y105030D01*
X618051Y105078D01*
X618075Y105095D01*
X618102Y105107D01*
X618203Y105188D01*
X618308Y105264D01*
X618327Y105287D01*
X618350Y105306D01*
X618428Y105409D01*
X618511Y105509D01*
X618524Y105536D01*
X618542Y105560D01*
X618612Y105704D01*
X619182Y107078D01*
X621902Y109798D01*
X625456Y111271D01*
X644544Y111271D01*
X648098Y109798D01*
X650818Y107078D01*
X652291Y103524D01*
X652291Y99676D01*
X650818Y96122D01*
X648098Y93402D01*
X644544Y91929D01*
X625456Y91929D01*
G37*
%LPD*%
%LPC*%
G36*
X488250Y297209D02*
X488250Y297209D01*
X485460Y298365D01*
X483318Y300507D01*
X483256Y300605D01*
X483192Y300718D01*
X483171Y300739D01*
X483155Y300764D01*
X483061Y300853D01*
X482970Y300946D01*
X482945Y300962D01*
X482924Y300982D01*
X482810Y301045D01*
X482699Y301113D01*
X482671Y301121D01*
X482645Y301136D01*
X482519Y301168D01*
X482395Y301206D01*
X482366Y301208D01*
X482337Y301215D01*
X482176Y301225D01*
X481119Y301225D01*
X462732Y319613D01*
X462693Y319643D01*
X462659Y319680D01*
X462568Y319740D01*
X462481Y319808D01*
X462435Y319827D01*
X462394Y319855D01*
X462290Y319890D01*
X462189Y319934D01*
X462140Y319942D01*
X462093Y319958D01*
X461983Y319967D01*
X461875Y319984D01*
X461825Y319979D01*
X461776Y319983D01*
X461668Y319964D01*
X461558Y319954D01*
X461511Y319937D01*
X461462Y319929D01*
X461362Y319884D01*
X461259Y319846D01*
X461218Y319818D01*
X461172Y319798D01*
X461086Y319729D01*
X460996Y319668D01*
X460963Y319631D01*
X460924Y319599D01*
X460858Y319512D01*
X460785Y319429D01*
X460763Y319385D01*
X460733Y319345D01*
X460662Y319201D01*
X460318Y318372D01*
X457598Y315652D01*
X454044Y314179D01*
X434956Y314179D01*
X431402Y315652D01*
X428682Y318372D01*
X427209Y321926D01*
X427209Y325774D01*
X428682Y329328D01*
X431402Y332048D01*
X434956Y333521D01*
X454044Y333521D01*
X457598Y332048D01*
X460318Y329328D01*
X460782Y328208D01*
X460790Y328195D01*
X460792Y328188D01*
X460798Y328178D01*
X460806Y328155D01*
X460875Y328045D01*
X460940Y327932D01*
X460960Y327911D01*
X460976Y327886D01*
X461071Y327797D01*
X461161Y327704D01*
X461186Y327688D01*
X461208Y327668D01*
X461322Y327605D01*
X461432Y327537D01*
X461460Y327529D01*
X461486Y327514D01*
X461612Y327482D01*
X461736Y327444D01*
X461766Y327442D01*
X461794Y327435D01*
X461955Y327425D01*
X465031Y327425D01*
X482443Y310013D01*
X482537Y309940D01*
X482540Y309937D01*
X482545Y309932D01*
X482546Y309931D01*
X482626Y309861D01*
X482662Y309843D01*
X482694Y309818D01*
X482804Y309770D01*
X482909Y309716D01*
X482949Y309707D01*
X482986Y309691D01*
X483104Y309673D01*
X483220Y309647D01*
X483260Y309648D01*
X483300Y309642D01*
X483419Y309653D01*
X483538Y309656D01*
X483576Y309668D01*
X483617Y309671D01*
X483729Y309712D01*
X483843Y309745D01*
X483878Y309765D01*
X483916Y309779D01*
X484015Y309846D01*
X484117Y309906D01*
X484162Y309946D01*
X484179Y309958D01*
X484193Y309973D01*
X484238Y310013D01*
X485460Y311235D01*
X488250Y312391D01*
X502350Y312391D01*
X505140Y311235D01*
X507275Y309100D01*
X508431Y306310D01*
X508431Y303290D01*
X507275Y300500D01*
X505140Y298365D01*
X502350Y297209D01*
X488250Y297209D01*
G37*
%LPD*%
%LPC*%
G36*
X321351Y258249D02*
X321351Y258249D01*
X320149Y259451D01*
X320149Y282629D01*
X320137Y282727D01*
X320134Y282826D01*
X320117Y282884D01*
X320109Y282944D01*
X320073Y283036D01*
X320045Y283132D01*
X320015Y283184D01*
X319992Y283240D01*
X319934Y283320D01*
X319884Y283405D01*
X319818Y283481D01*
X319806Y283497D01*
X319796Y283505D01*
X319778Y283526D01*
X309849Y293455D01*
X309755Y293528D01*
X309665Y293607D01*
X309629Y293625D01*
X309597Y293650D01*
X309488Y293697D01*
X309382Y293751D01*
X309343Y293760D01*
X309306Y293776D01*
X309188Y293795D01*
X309072Y293821D01*
X309032Y293820D01*
X308992Y293826D01*
X308873Y293815D01*
X308754Y293811D01*
X308715Y293800D01*
X308675Y293796D01*
X308563Y293756D01*
X308449Y293723D01*
X308414Y293702D01*
X308376Y293689D01*
X308277Y293622D01*
X308175Y293561D01*
X308129Y293522D01*
X308113Y293510D01*
X308111Y293508D01*
X305960Y292617D01*
X303640Y292617D01*
X301496Y293505D01*
X299855Y295146D01*
X298967Y297290D01*
X298967Y299610D01*
X299855Y301754D01*
X301496Y303395D01*
X303640Y304283D01*
X305960Y304283D01*
X308104Y303395D01*
X309356Y302142D01*
X309435Y302082D01*
X309507Y302014D01*
X309560Y301985D01*
X309608Y301948D01*
X309698Y301908D01*
X309785Y301860D01*
X309844Y301845D01*
X309899Y301821D01*
X309997Y301806D01*
X310093Y301781D01*
X310193Y301775D01*
X310213Y301771D01*
X310226Y301773D01*
X310254Y301771D01*
X310925Y301771D01*
X313242Y299454D01*
X317983Y294714D01*
X318092Y294628D01*
X318199Y294540D01*
X318218Y294531D01*
X318234Y294519D01*
X318362Y294463D01*
X318487Y294404D01*
X318507Y294400D01*
X318526Y294392D01*
X318664Y294370D01*
X318800Y294344D01*
X318820Y294346D01*
X318840Y294343D01*
X318979Y294356D01*
X319117Y294364D01*
X319136Y294370D01*
X319156Y294372D01*
X319288Y294420D01*
X319419Y294462D01*
X319437Y294473D01*
X319456Y294480D01*
X319571Y294558D01*
X319688Y294632D01*
X319702Y294647D01*
X319719Y294659D01*
X319811Y294763D01*
X319906Y294864D01*
X319916Y294882D01*
X319929Y294897D01*
X319993Y295021D01*
X320060Y295143D01*
X320065Y295162D01*
X320074Y295180D01*
X320104Y295316D01*
X320139Y295450D01*
X320141Y295479D01*
X320144Y295491D01*
X320143Y295511D01*
X320149Y295611D01*
X320149Y296149D01*
X321351Y297351D01*
X339049Y297351D01*
X340251Y296149D01*
X340251Y259451D01*
X339049Y258249D01*
X321351Y258249D01*
G37*
%LPD*%
%LPC*%
G36*
X90971Y65624D02*
X90971Y65624D01*
X87084Y67234D01*
X84108Y70209D01*
X82498Y74096D01*
X82498Y78304D01*
X84108Y82191D01*
X87084Y85166D01*
X90971Y86776D01*
X112229Y86776D01*
X116116Y85166D01*
X119092Y82191D01*
X120702Y78304D01*
X120702Y74096D01*
X119092Y70209D01*
X116116Y67234D01*
X112229Y65624D01*
X90971Y65624D01*
G37*
%LPD*%
%LPC*%
G36*
X90971Y192624D02*
X90971Y192624D01*
X87084Y194234D01*
X84108Y197209D01*
X82498Y201096D01*
X82498Y205304D01*
X84108Y209191D01*
X87084Y212166D01*
X90971Y213776D01*
X112229Y213776D01*
X116116Y212166D01*
X119092Y209191D01*
X120702Y205304D01*
X120702Y201096D01*
X119092Y197209D01*
X116116Y194234D01*
X112229Y192624D01*
X90971Y192624D01*
G37*
%LPD*%
%LPC*%
G36*
X90971Y40224D02*
X90971Y40224D01*
X87084Y41834D01*
X84108Y44809D01*
X82498Y48696D01*
X82498Y52904D01*
X84108Y56791D01*
X87084Y59766D01*
X90971Y61376D01*
X112229Y61376D01*
X116116Y59766D01*
X119092Y56791D01*
X120702Y52904D01*
X120702Y48696D01*
X119092Y44809D01*
X116116Y41834D01*
X112229Y40224D01*
X90971Y40224D01*
G37*
%LPD*%
%LPC*%
G36*
X90971Y14824D02*
X90971Y14824D01*
X87084Y16434D01*
X84108Y19409D01*
X82498Y23296D01*
X82498Y27504D01*
X84108Y31391D01*
X87084Y34366D01*
X90971Y35976D01*
X112229Y35976D01*
X116116Y34366D01*
X119092Y31391D01*
X120702Y27504D01*
X120702Y23296D01*
X119092Y19409D01*
X116116Y16434D01*
X112229Y14824D01*
X90971Y14824D01*
G37*
%LPD*%
%LPC*%
G36*
X82739Y280439D02*
X82739Y280439D01*
X82739Y300441D01*
X115534Y300441D01*
X116181Y300268D01*
X116760Y299933D01*
X117233Y299460D01*
X117568Y298881D01*
X117741Y298234D01*
X117741Y280439D01*
X82739Y280439D01*
G37*
%LPD*%
%LPC*%
G36*
X82739Y410439D02*
X82739Y410439D01*
X82739Y430441D01*
X115534Y430441D01*
X116181Y430268D01*
X116760Y429933D01*
X117233Y429460D01*
X117568Y428881D01*
X117741Y428234D01*
X117741Y410439D01*
X82739Y410439D01*
G37*
%LPD*%
%LPC*%
G36*
X82739Y255359D02*
X82739Y255359D01*
X82739Y275361D01*
X117741Y275361D01*
X117741Y257566D01*
X117568Y256919D01*
X117233Y256340D01*
X116760Y255867D01*
X116181Y255532D01*
X115534Y255359D01*
X82739Y255359D01*
G37*
%LPD*%
%LPC*%
G36*
X82739Y385359D02*
X82739Y385359D01*
X82739Y405361D01*
X117741Y405361D01*
X117741Y387566D01*
X117568Y386919D01*
X117233Y386340D01*
X116760Y385867D01*
X116181Y385532D01*
X115534Y385359D01*
X82739Y385359D01*
G37*
%LPD*%
%LPC*%
G36*
X44866Y255359D02*
X44866Y255359D01*
X44219Y255532D01*
X43640Y255867D01*
X43167Y256340D01*
X42832Y256919D01*
X42659Y257566D01*
X42659Y275361D01*
X77661Y275361D01*
X77661Y255359D01*
X44866Y255359D01*
G37*
%LPD*%
%LPC*%
G36*
X434956Y237979D02*
X434956Y237979D01*
X431402Y239452D01*
X428682Y242172D01*
X427209Y245726D01*
X427209Y249574D01*
X428682Y253128D01*
X431402Y255848D01*
X434956Y257321D01*
X454044Y257321D01*
X457598Y255848D01*
X460318Y253128D01*
X461791Y249574D01*
X461791Y245726D01*
X460318Y242172D01*
X457598Y239452D01*
X454044Y237979D01*
X434956Y237979D01*
G37*
%LPD*%
%LPC*%
G36*
X625456Y234169D02*
X625456Y234169D01*
X621902Y235642D01*
X619182Y238362D01*
X617709Y241916D01*
X617709Y245764D01*
X619182Y249318D01*
X621902Y252038D01*
X625456Y253511D01*
X644544Y253511D01*
X648098Y252038D01*
X650818Y249318D01*
X652291Y245764D01*
X652291Y241916D01*
X650818Y238362D01*
X648098Y235642D01*
X644544Y234169D01*
X625456Y234169D01*
G37*
%LPD*%
%LPC*%
G36*
X625456Y335769D02*
X625456Y335769D01*
X621902Y337242D01*
X619182Y339962D01*
X617709Y343516D01*
X617709Y347364D01*
X619182Y350918D01*
X621902Y353638D01*
X625456Y355111D01*
X644544Y355111D01*
X648098Y353638D01*
X650818Y350918D01*
X652291Y347364D01*
X652291Y343516D01*
X650818Y339962D01*
X648098Y337242D01*
X644544Y335769D01*
X625456Y335769D01*
G37*
%LPD*%
%LPC*%
G36*
X28556Y117329D02*
X28556Y117329D01*
X25002Y118802D01*
X22282Y121522D01*
X20809Y125076D01*
X20809Y128924D01*
X22282Y132478D01*
X25002Y135198D01*
X28556Y136671D01*
X47644Y136671D01*
X51198Y135198D01*
X53918Y132478D01*
X55391Y128924D01*
X55391Y125076D01*
X53918Y121522D01*
X51198Y118802D01*
X47644Y117329D01*
X28556Y117329D01*
G37*
%LPD*%
%LPC*%
G36*
X625456Y361169D02*
X625456Y361169D01*
X621902Y362642D01*
X619182Y365362D01*
X617709Y368916D01*
X617709Y372764D01*
X619182Y376318D01*
X621902Y379038D01*
X625456Y380511D01*
X644544Y380511D01*
X648098Y379038D01*
X650818Y376318D01*
X652291Y372764D01*
X652291Y368916D01*
X650818Y365362D01*
X648098Y362642D01*
X644544Y361169D01*
X625456Y361169D01*
G37*
%LPD*%
%LPC*%
G36*
X625456Y168129D02*
X625456Y168129D01*
X621902Y169602D01*
X619182Y172322D01*
X617709Y175876D01*
X617709Y179724D01*
X619182Y183278D01*
X621902Y185998D01*
X625456Y187471D01*
X644544Y187471D01*
X648098Y185998D01*
X650818Y183278D01*
X652291Y179724D01*
X652291Y175876D01*
X650818Y172322D01*
X648098Y169602D01*
X644544Y168129D01*
X625456Y168129D01*
G37*
%LPD*%
%LPC*%
G36*
X625456Y142729D02*
X625456Y142729D01*
X621902Y144202D01*
X619182Y146922D01*
X617709Y150476D01*
X617709Y154324D01*
X619182Y157878D01*
X621902Y160598D01*
X625456Y162071D01*
X644544Y162071D01*
X648098Y160598D01*
X650818Y157878D01*
X652291Y154324D01*
X652291Y150476D01*
X650818Y146922D01*
X648098Y144202D01*
X644544Y142729D01*
X625456Y142729D01*
G37*
%LPD*%
%LPC*%
G36*
X625456Y284969D02*
X625456Y284969D01*
X621902Y286442D01*
X619182Y289162D01*
X617709Y292716D01*
X617709Y296564D01*
X619182Y300118D01*
X621902Y302838D01*
X625456Y304311D01*
X644544Y304311D01*
X648098Y302838D01*
X650818Y300118D01*
X652291Y296564D01*
X652291Y292716D01*
X650818Y289162D01*
X648098Y286442D01*
X644544Y284969D01*
X625456Y284969D01*
G37*
%LPD*%
%LPC*%
G36*
X434956Y288779D02*
X434956Y288779D01*
X431402Y290252D01*
X428682Y292972D01*
X427209Y296526D01*
X427209Y300374D01*
X428682Y303928D01*
X431402Y306648D01*
X434956Y308121D01*
X454044Y308121D01*
X457598Y306648D01*
X460318Y303928D01*
X461791Y300374D01*
X461791Y296526D01*
X460318Y292972D01*
X457598Y290252D01*
X454044Y288779D01*
X434956Y288779D01*
G37*
%LPD*%
%LPC*%
G36*
X434956Y339579D02*
X434956Y339579D01*
X431402Y341052D01*
X428682Y343772D01*
X427209Y347326D01*
X427209Y351174D01*
X428682Y354728D01*
X431402Y357448D01*
X434956Y358921D01*
X454044Y358921D01*
X457598Y357448D01*
X460318Y354728D01*
X461791Y351174D01*
X461791Y347326D01*
X460318Y343772D01*
X457598Y341052D01*
X454044Y339579D01*
X434956Y339579D01*
G37*
%LPD*%
%LPC*%
G36*
X200446Y298558D02*
X200446Y298558D01*
X199244Y299760D01*
X199244Y309840D01*
X200446Y311042D01*
X218146Y311042D01*
X219348Y309840D01*
X219348Y309390D01*
X219363Y309272D01*
X219370Y309153D01*
X219383Y309115D01*
X219388Y309074D01*
X219431Y308964D01*
X219468Y308851D01*
X219490Y308816D01*
X219505Y308779D01*
X219574Y308683D01*
X219638Y308582D01*
X219668Y308554D01*
X219691Y308521D01*
X219783Y308445D01*
X219870Y308364D01*
X219905Y308344D01*
X219936Y308319D01*
X220044Y308268D01*
X220148Y308210D01*
X220188Y308200D01*
X220224Y308183D01*
X220341Y308161D01*
X220456Y308131D01*
X220516Y308127D01*
X220536Y308123D01*
X220557Y308125D01*
X220617Y308121D01*
X223146Y308121D01*
X223244Y308133D01*
X223343Y308136D01*
X223402Y308153D01*
X223462Y308161D01*
X223554Y308197D01*
X223649Y308225D01*
X223701Y308255D01*
X223757Y308278D01*
X223838Y308336D01*
X223923Y308386D01*
X223998Y308452D01*
X224015Y308464D01*
X224023Y308474D01*
X224044Y308492D01*
X225296Y309745D01*
X227440Y310633D01*
X229760Y310633D01*
X231904Y309745D01*
X233545Y308104D01*
X234433Y305960D01*
X234433Y303640D01*
X233545Y301496D01*
X231904Y299855D01*
X229760Y298967D01*
X227440Y298967D01*
X225296Y299855D01*
X224044Y301108D01*
X223965Y301168D01*
X223893Y301236D01*
X223840Y301265D01*
X223792Y301302D01*
X223702Y301342D01*
X223615Y301390D01*
X223556Y301405D01*
X223501Y301429D01*
X223403Y301444D01*
X223307Y301469D01*
X223207Y301475D01*
X223187Y301479D01*
X223174Y301477D01*
X223146Y301479D01*
X220617Y301479D01*
X220499Y301464D01*
X220380Y301457D01*
X220342Y301444D01*
X220301Y301439D01*
X220191Y301396D01*
X220078Y301359D01*
X220043Y301337D01*
X220006Y301322D01*
X219910Y301253D01*
X219809Y301189D01*
X219781Y301159D01*
X219748Y301136D01*
X219672Y301044D01*
X219591Y300957D01*
X219571Y300922D01*
X219546Y300891D01*
X219495Y300783D01*
X219437Y300679D01*
X219427Y300639D01*
X219410Y300603D01*
X219388Y300486D01*
X219358Y300371D01*
X219354Y300311D01*
X219350Y300291D01*
X219352Y300270D01*
X219348Y300210D01*
X219348Y299760D01*
X218146Y298558D01*
X200446Y298558D01*
G37*
%LPD*%
%LPC*%
G36*
X488250Y271809D02*
X488250Y271809D01*
X485460Y272965D01*
X483325Y275100D01*
X482169Y277890D01*
X482169Y280910D01*
X483325Y283700D01*
X485460Y285835D01*
X488250Y286991D01*
X502350Y286991D01*
X505140Y285835D01*
X507275Y283700D01*
X508431Y280910D01*
X508431Y277890D01*
X507275Y275100D01*
X505140Y272965D01*
X502350Y271809D01*
X488250Y271809D01*
G37*
%LPD*%
%LPC*%
G36*
X488250Y322609D02*
X488250Y322609D01*
X485460Y323765D01*
X483325Y325900D01*
X482169Y328690D01*
X482169Y331710D01*
X483325Y334500D01*
X485460Y336635D01*
X488250Y337791D01*
X502350Y337791D01*
X505140Y336635D01*
X507275Y334500D01*
X508431Y331710D01*
X508431Y328690D01*
X507275Y325900D01*
X505140Y323765D01*
X502350Y322609D01*
X488250Y322609D01*
G37*
%LPD*%
%LPC*%
G36*
X564450Y246409D02*
X564450Y246409D01*
X561660Y247565D01*
X559525Y249700D01*
X558369Y252490D01*
X558369Y255510D01*
X559525Y258300D01*
X561660Y260435D01*
X564450Y261591D01*
X578550Y261591D01*
X581340Y260435D01*
X583475Y258300D01*
X584631Y255510D01*
X584631Y252490D01*
X583475Y249700D01*
X581340Y247565D01*
X578550Y246409D01*
X564450Y246409D01*
G37*
%LPD*%
%LPC*%
G36*
X488250Y246409D02*
X488250Y246409D01*
X485460Y247565D01*
X483325Y249700D01*
X482169Y252490D01*
X482169Y255510D01*
X483325Y258300D01*
X485460Y260435D01*
X488250Y261591D01*
X502350Y261591D01*
X505140Y260435D01*
X507275Y258300D01*
X508431Y255510D01*
X508431Y252490D01*
X507275Y249700D01*
X505140Y247565D01*
X502350Y246409D01*
X488250Y246409D01*
G37*
%LPD*%
%LPC*%
G36*
X564450Y271809D02*
X564450Y271809D01*
X561660Y272965D01*
X559525Y275100D01*
X558369Y277890D01*
X558369Y280910D01*
X559525Y283700D01*
X561660Y285835D01*
X564450Y286991D01*
X578550Y286991D01*
X581340Y285835D01*
X583475Y283700D01*
X584631Y280910D01*
X584631Y277890D01*
X583475Y275100D01*
X581340Y272965D01*
X578550Y271809D01*
X564450Y271809D01*
G37*
%LPD*%
%LPC*%
G36*
X564450Y322609D02*
X564450Y322609D01*
X561660Y323765D01*
X559525Y325900D01*
X558369Y328690D01*
X558369Y331710D01*
X559525Y334500D01*
X561660Y336635D01*
X564450Y337791D01*
X578550Y337791D01*
X581340Y336635D01*
X583475Y334500D01*
X584631Y331710D01*
X584631Y328690D01*
X583475Y325900D01*
X581340Y323765D01*
X578550Y322609D01*
X564450Y322609D01*
G37*
%LPD*%
%LPC*%
G36*
X564450Y297209D02*
X564450Y297209D01*
X561660Y298365D01*
X559525Y300500D01*
X558369Y303290D01*
X558369Y306310D01*
X559525Y309100D01*
X561660Y311235D01*
X564450Y312391D01*
X578550Y312391D01*
X581340Y311235D01*
X583475Y309100D01*
X584631Y306310D01*
X584631Y303290D01*
X583475Y300500D01*
X581340Y298365D01*
X578550Y297209D01*
X564450Y297209D01*
G37*
%LPD*%
%LPC*%
G36*
X572999Y195119D02*
X572999Y195119D01*
X572999Y202970D01*
X572984Y203088D01*
X572977Y203207D01*
X572975Y203214D01*
X572989Y203270D01*
X572993Y203330D01*
X572997Y203350D01*
X572995Y203370D01*
X572999Y203430D01*
X572999Y211281D01*
X577836Y211281D01*
X579397Y210970D01*
X580868Y210361D01*
X582191Y209477D01*
X583317Y208351D01*
X584201Y207028D01*
X584417Y206505D01*
X584452Y206445D01*
X584478Y206380D01*
X584530Y206307D01*
X584575Y206229D01*
X584623Y206179D01*
X584664Y206123D01*
X584734Y206065D01*
X584796Y206001D01*
X584856Y205964D01*
X584909Y205920D01*
X584991Y205881D01*
X585067Y205834D01*
X585134Y205814D01*
X585197Y205784D01*
X585285Y205767D01*
X585371Y205741D01*
X585441Y205738D01*
X585510Y205724D01*
X585599Y205730D01*
X585689Y205726D01*
X585757Y205740D01*
X585827Y205744D01*
X585912Y205772D01*
X586000Y205790D01*
X586063Y205821D01*
X586129Y205842D01*
X586205Y205890D01*
X586286Y205930D01*
X586339Y205975D01*
X586398Y206012D01*
X586460Y206078D01*
X586528Y206136D01*
X586568Y206193D01*
X586616Y206244D01*
X586659Y206323D01*
X586711Y206396D01*
X586736Y206461D01*
X586770Y206522D01*
X586784Y206578D01*
X586815Y206670D01*
X586824Y206693D01*
X586826Y206709D01*
X587032Y207481D01*
X587367Y208060D01*
X587840Y208533D01*
X588419Y208868D01*
X589066Y209041D01*
X594361Y209041D01*
X594361Y202539D01*
X586189Y202539D01*
X586037Y202520D01*
X585884Y202502D01*
X585879Y202500D01*
X585874Y202499D01*
X585731Y202443D01*
X585588Y202388D01*
X585583Y202384D01*
X585578Y202382D01*
X585454Y202292D01*
X585329Y202203D01*
X585325Y202199D01*
X585321Y202195D01*
X585222Y202077D01*
X585124Y201960D01*
X585121Y201955D01*
X585118Y201950D01*
X585052Y201810D01*
X584986Y201673D01*
X584984Y201666D01*
X584982Y201663D01*
X584981Y201654D01*
X584944Y201518D01*
X584810Y200843D01*
X584201Y199372D01*
X583317Y198049D01*
X582191Y196923D01*
X580868Y196039D01*
X579397Y195430D01*
X577836Y195119D01*
X572999Y195119D01*
G37*
%LPD*%
%LPC*%
G36*
X488964Y169719D02*
X488964Y169719D01*
X487403Y170030D01*
X485932Y170639D01*
X484609Y171523D01*
X483483Y172649D01*
X482599Y173972D01*
X482383Y174495D01*
X482348Y174555D01*
X482322Y174620D01*
X482270Y174693D01*
X482225Y174771D01*
X482177Y174821D01*
X482136Y174877D01*
X482066Y174935D01*
X482004Y174999D01*
X481944Y175036D01*
X481891Y175080D01*
X481809Y175119D01*
X481733Y175166D01*
X481666Y175186D01*
X481603Y175216D01*
X481515Y175233D01*
X481429Y175259D01*
X481359Y175263D01*
X481290Y175276D01*
X481201Y175270D01*
X481111Y175274D01*
X481043Y175260D01*
X480973Y175256D01*
X480888Y175228D01*
X480800Y175210D01*
X480737Y175179D01*
X480671Y175158D01*
X480595Y175110D01*
X480514Y175070D01*
X480461Y175025D01*
X480402Y174988D01*
X480340Y174922D01*
X480272Y174864D01*
X480232Y174807D01*
X480184Y174756D01*
X480141Y174677D01*
X480089Y174604D01*
X480064Y174539D01*
X480030Y174478D01*
X480016Y174422D01*
X479985Y174330D01*
X479976Y174307D01*
X479974Y174291D01*
X479768Y173519D01*
X479433Y172940D01*
X478960Y172467D01*
X478381Y172132D01*
X477734Y171959D01*
X472439Y171959D01*
X472439Y178461D01*
X480611Y178461D01*
X480763Y178480D01*
X480916Y178498D01*
X480921Y178500D01*
X480926Y178501D01*
X481068Y178557D01*
X481212Y178612D01*
X481217Y178616D01*
X481222Y178618D01*
X481345Y178707D01*
X481471Y178797D01*
X481475Y178801D01*
X481479Y178805D01*
X481576Y178922D01*
X481676Y179040D01*
X481679Y179045D01*
X481682Y179049D01*
X481747Y179188D01*
X481814Y179327D01*
X481816Y179334D01*
X481818Y179337D01*
X481819Y179346D01*
X481856Y179482D01*
X481990Y180157D01*
X482599Y181628D01*
X483483Y182951D01*
X484609Y184077D01*
X485932Y184961D01*
X487403Y185570D01*
X488964Y185881D01*
X493801Y185881D01*
X493801Y178030D01*
X493816Y177912D01*
X493823Y177793D01*
X493825Y177786D01*
X493811Y177730D01*
X493807Y177670D01*
X493803Y177650D01*
X493805Y177630D01*
X493801Y177570D01*
X493801Y169719D01*
X488964Y169719D01*
G37*
%LPD*%
%LPC*%
G36*
X243839Y423239D02*
X243839Y423239D01*
X243839Y440741D01*
X249634Y440741D01*
X250281Y440568D01*
X250860Y440233D01*
X251333Y439760D01*
X251668Y439181D01*
X251841Y438534D01*
X251841Y423239D01*
X243839Y423239D01*
G37*
%LPD*%
%LPC*%
G36*
X332739Y334339D02*
X332739Y334339D01*
X332739Y351841D01*
X338534Y351841D01*
X339181Y351668D01*
X339760Y351333D01*
X340233Y350860D01*
X340568Y350281D01*
X340741Y349634D01*
X340741Y334339D01*
X332739Y334339D01*
G37*
%LPD*%
%LPC*%
G36*
X243839Y400659D02*
X243839Y400659D01*
X243839Y418161D01*
X251841Y418161D01*
X251841Y402866D01*
X251668Y402219D01*
X251333Y401640D01*
X250860Y401167D01*
X250281Y400832D01*
X249634Y400659D01*
X243839Y400659D01*
G37*
%LPD*%
%LPC*%
G36*
X332739Y311759D02*
X332739Y311759D01*
X332739Y329261D01*
X340741Y329261D01*
X340741Y313966D01*
X340568Y313319D01*
X340233Y312740D01*
X339760Y312267D01*
X339181Y311932D01*
X338534Y311759D01*
X332739Y311759D01*
G37*
%LPD*%
%LPC*%
G36*
X230759Y423239D02*
X230759Y423239D01*
X230759Y438534D01*
X230932Y439181D01*
X231267Y439760D01*
X231740Y440233D01*
X232319Y440568D01*
X232966Y440741D01*
X238761Y440741D01*
X238761Y423239D01*
X230759Y423239D01*
G37*
%LPD*%
%LPC*%
G36*
X319659Y334339D02*
X319659Y334339D01*
X319659Y349634D01*
X319832Y350281D01*
X320167Y350860D01*
X320640Y351333D01*
X321219Y351668D01*
X321866Y351841D01*
X327661Y351841D01*
X327661Y334339D01*
X319659Y334339D01*
G37*
%LPD*%
%LPC*%
G36*
X321866Y311759D02*
X321866Y311759D01*
X321219Y311932D01*
X320640Y312267D01*
X320167Y312740D01*
X319832Y313319D01*
X319659Y313966D01*
X319659Y329261D01*
X327661Y329261D01*
X327661Y311759D01*
X321866Y311759D01*
G37*
%LPD*%
%LPC*%
G36*
X232966Y400659D02*
X232966Y400659D01*
X232319Y400832D01*
X231740Y401167D01*
X231267Y401640D01*
X230932Y402219D01*
X230759Y402866D01*
X230759Y418161D01*
X238761Y418161D01*
X238761Y400659D01*
X232966Y400659D01*
G37*
%LPD*%
%LPC*%
G36*
X275843Y307339D02*
X275843Y307339D01*
X275843Y322581D01*
X281639Y322581D01*
X282286Y322408D01*
X282865Y322073D01*
X283338Y321600D01*
X283673Y321021D01*
X283846Y320374D01*
X283846Y307339D01*
X275843Y307339D01*
G37*
%LPD*%
%LPC*%
G36*
X275843Y287019D02*
X275843Y287019D01*
X275843Y302261D01*
X283846Y302261D01*
X283846Y289226D01*
X283673Y288579D01*
X283338Y288000D01*
X282865Y287527D01*
X282286Y287192D01*
X281639Y287019D01*
X275843Y287019D01*
G37*
%LPD*%
%LPC*%
G36*
X262762Y307339D02*
X262762Y307339D01*
X262762Y320374D01*
X262935Y321021D01*
X263270Y321600D01*
X263743Y322073D01*
X264322Y322408D01*
X264969Y322581D01*
X270765Y322581D01*
X270765Y307339D01*
X262762Y307339D01*
G37*
%LPD*%
%LPC*%
G36*
X264969Y287019D02*
X264969Y287019D01*
X264322Y287192D01*
X263743Y287527D01*
X263270Y288000D01*
X262935Y288579D01*
X262762Y289226D01*
X262762Y302261D01*
X270765Y302261D01*
X270765Y287019D01*
X264969Y287019D01*
G37*
%LPD*%
%LPC*%
G36*
X104139Y180339D02*
X104139Y180339D01*
X104139Y188866D01*
X110996Y188866D01*
X112717Y188594D01*
X114374Y188055D01*
X115925Y187265D01*
X117335Y186241D01*
X118566Y185009D01*
X119590Y183600D01*
X120381Y182048D01*
X120919Y180391D01*
X120927Y180339D01*
X104139Y180339D01*
G37*
%LPD*%
%LPC*%
G36*
X82273Y180339D02*
X82273Y180339D01*
X82281Y180391D01*
X82819Y182048D01*
X83610Y183600D01*
X84634Y185009D01*
X85865Y186241D01*
X87275Y187265D01*
X88826Y188055D01*
X90483Y188594D01*
X92204Y188866D01*
X99061Y188866D01*
X99061Y180339D01*
X82273Y180339D01*
G37*
%LPD*%
%LPC*%
G36*
X360673Y27939D02*
X360673Y27939D01*
X360681Y27991D01*
X361219Y29648D01*
X362010Y31200D01*
X363034Y32609D01*
X364265Y33841D01*
X365675Y34865D01*
X367226Y35655D01*
X368883Y36194D01*
X370604Y36466D01*
X377461Y36466D01*
X377461Y27939D01*
X360673Y27939D01*
G37*
%LPD*%
%LPC*%
G36*
X104139Y166734D02*
X104139Y166734D01*
X104139Y175261D01*
X120927Y175261D01*
X120919Y175209D01*
X120381Y173552D01*
X119590Y172000D01*
X118566Y170591D01*
X117335Y169359D01*
X115925Y168335D01*
X114374Y167545D01*
X112717Y167006D01*
X110996Y166734D01*
X104139Y166734D01*
G37*
%LPD*%
%LPC*%
G36*
X370604Y14334D02*
X370604Y14334D01*
X368883Y14606D01*
X367226Y15145D01*
X365675Y15935D01*
X365243Y16249D01*
X364265Y16959D01*
X363034Y18191D01*
X362010Y19600D01*
X361219Y21152D01*
X360681Y22809D01*
X360673Y22861D01*
X377461Y22861D01*
X377461Y14334D01*
X370604Y14334D01*
G37*
%LPD*%
%LPC*%
G36*
X92204Y166734D02*
X92204Y166734D01*
X90483Y167006D01*
X88826Y167545D01*
X87275Y168335D01*
X86967Y168559D01*
X85865Y169359D01*
X84634Y170591D01*
X83610Y172000D01*
X82819Y173552D01*
X82281Y175209D01*
X82273Y175261D01*
X99061Y175261D01*
X99061Y166734D01*
X92204Y166734D01*
G37*
%LPD*%
%LPC*%
G36*
X40639Y104139D02*
X40639Y104139D01*
X40639Y111761D01*
X46520Y111761D01*
X48099Y111511D01*
X49620Y111016D01*
X51045Y110290D01*
X52339Y109350D01*
X53470Y108219D01*
X54410Y106925D01*
X55136Y105500D01*
X55579Y104139D01*
X40639Y104139D01*
G37*
%LPD*%
%LPC*%
G36*
X447039Y224789D02*
X447039Y224789D01*
X447039Y232411D01*
X452920Y232411D01*
X454499Y232161D01*
X456020Y231666D01*
X457445Y230940D01*
X458739Y230000D01*
X459870Y228869D01*
X460810Y227575D01*
X461536Y226150D01*
X461979Y224789D01*
X447039Y224789D01*
G37*
%LPD*%
%LPC*%
G36*
X637539Y129539D02*
X637539Y129539D01*
X637539Y137161D01*
X643420Y137161D01*
X644999Y136911D01*
X646520Y136416D01*
X647945Y135690D01*
X649239Y134750D01*
X650370Y133619D01*
X651310Y132325D01*
X652036Y130900D01*
X652479Y129539D01*
X637539Y129539D01*
G37*
%LPD*%
%LPC*%
G36*
X637539Y322579D02*
X637539Y322579D01*
X637539Y330201D01*
X643420Y330201D01*
X644999Y329951D01*
X646520Y329456D01*
X647945Y328730D01*
X649239Y327790D01*
X650370Y326659D01*
X651310Y325365D01*
X652036Y323940D01*
X652479Y322579D01*
X637539Y322579D01*
G37*
%LPD*%
%LPC*%
G36*
X427021Y224789D02*
X427021Y224789D01*
X427464Y226150D01*
X428190Y227575D01*
X429130Y228869D01*
X430261Y230000D01*
X431555Y230940D01*
X432980Y231666D01*
X434501Y232161D01*
X436080Y232411D01*
X441961Y232411D01*
X441961Y224789D01*
X427021Y224789D01*
G37*
%LPD*%
%LPC*%
G36*
X617521Y129539D02*
X617521Y129539D01*
X617964Y130900D01*
X618690Y132325D01*
X619630Y133619D01*
X620761Y134750D01*
X622055Y135690D01*
X623480Y136416D01*
X625001Y136911D01*
X626580Y137161D01*
X632461Y137161D01*
X632461Y129539D01*
X617521Y129539D01*
G37*
%LPD*%
%LPC*%
G36*
X20621Y104139D02*
X20621Y104139D01*
X21064Y105500D01*
X21790Y106925D01*
X22730Y108219D01*
X23861Y109350D01*
X25155Y110290D01*
X26580Y111016D01*
X28101Y111511D01*
X29680Y111761D01*
X35561Y111761D01*
X35561Y104139D01*
X20621Y104139D01*
G37*
%LPD*%
%LPC*%
G36*
X617521Y322579D02*
X617521Y322579D01*
X617964Y323940D01*
X618690Y325365D01*
X619630Y326659D01*
X620761Y327790D01*
X622055Y328730D01*
X623480Y329456D01*
X625001Y329951D01*
X626580Y330201D01*
X632461Y330201D01*
X632461Y322579D01*
X617521Y322579D01*
G37*
%LPD*%
%LPC*%
G36*
X637539Y116839D02*
X637539Y116839D01*
X637539Y124461D01*
X652479Y124461D01*
X652036Y123100D01*
X651310Y121675D01*
X650370Y120381D01*
X649239Y119250D01*
X647945Y118310D01*
X646520Y117584D01*
X644999Y117089D01*
X643420Y116839D01*
X637539Y116839D01*
G37*
%LPD*%
%LPC*%
G36*
X637539Y309879D02*
X637539Y309879D01*
X637539Y317501D01*
X652479Y317501D01*
X652036Y316140D01*
X651310Y314715D01*
X650370Y313421D01*
X649239Y312290D01*
X647945Y311350D01*
X646520Y310624D01*
X644999Y310129D01*
X643420Y309879D01*
X637539Y309879D01*
G37*
%LPD*%
%LPC*%
G36*
X40639Y91439D02*
X40639Y91439D01*
X40639Y99061D01*
X55579Y99061D01*
X55136Y97700D01*
X54410Y96275D01*
X53470Y94981D01*
X52339Y93850D01*
X51045Y92910D01*
X49620Y92184D01*
X48099Y91689D01*
X46520Y91439D01*
X40639Y91439D01*
G37*
%LPD*%
%LPC*%
G36*
X436080Y212089D02*
X436080Y212089D01*
X434501Y212339D01*
X432980Y212834D01*
X431555Y213560D01*
X430261Y214500D01*
X429130Y215631D01*
X428190Y216925D01*
X427464Y218350D01*
X427021Y219711D01*
X441961Y219711D01*
X441961Y212089D01*
X436080Y212089D01*
G37*
%LPD*%
%LPC*%
G36*
X626580Y116839D02*
X626580Y116839D01*
X625001Y117089D01*
X623480Y117584D01*
X622055Y118310D01*
X620761Y119250D01*
X619630Y120381D01*
X618690Y121675D01*
X617964Y123100D01*
X617521Y124461D01*
X632461Y124461D01*
X632461Y116839D01*
X626580Y116839D01*
G37*
%LPD*%
%LPC*%
G36*
X626580Y309879D02*
X626580Y309879D01*
X625001Y310129D01*
X623480Y310624D01*
X622055Y311350D01*
X620761Y312290D01*
X619630Y313421D01*
X618690Y314715D01*
X617964Y316140D01*
X617521Y317501D01*
X632461Y317501D01*
X632461Y309879D01*
X626580Y309879D01*
G37*
%LPD*%
%LPC*%
G36*
X29680Y91439D02*
X29680Y91439D01*
X28101Y91689D01*
X26580Y92184D01*
X25155Y92910D01*
X23861Y93850D01*
X22730Y94981D01*
X21790Y96275D01*
X21064Y97700D01*
X20621Y99061D01*
X35561Y99061D01*
X35561Y91439D01*
X29680Y91439D01*
G37*
%LPD*%
%LPC*%
G36*
X569939Y454339D02*
X569939Y454339D01*
X569939Y459900D01*
X584293Y459900D01*
X584940Y459727D01*
X585519Y459392D01*
X585992Y458919D01*
X586327Y458340D01*
X586500Y457693D01*
X586500Y454339D01*
X569939Y454339D01*
G37*
%LPD*%
%LPC*%
G36*
X501939Y454339D02*
X501939Y454339D01*
X501939Y459900D01*
X516293Y459900D01*
X516940Y459727D01*
X517519Y459392D01*
X517992Y458919D01*
X518327Y458340D01*
X518500Y457693D01*
X518500Y454339D01*
X501939Y454339D01*
G37*
%LPD*%
%LPC*%
G36*
X548300Y454339D02*
X548300Y454339D01*
X548300Y457693D01*
X548473Y458340D01*
X548808Y458919D01*
X549281Y459392D01*
X549860Y459727D01*
X550507Y459900D01*
X564861Y459900D01*
X564861Y454339D01*
X548300Y454339D01*
G37*
%LPD*%
%LPC*%
G36*
X480300Y454339D02*
X480300Y454339D01*
X480300Y457693D01*
X480473Y458340D01*
X480808Y458919D01*
X481281Y459392D01*
X481860Y459727D01*
X482507Y459900D01*
X496861Y459900D01*
X496861Y454339D01*
X480300Y454339D01*
G37*
%LPD*%
%LPC*%
G36*
X482507Y443700D02*
X482507Y443700D01*
X481860Y443873D01*
X481281Y444208D01*
X480808Y444681D01*
X480473Y445260D01*
X480300Y445907D01*
X480300Y449261D01*
X496861Y449261D01*
X496861Y443700D01*
X482507Y443700D01*
G37*
%LPD*%
%LPC*%
G36*
X550507Y443700D02*
X550507Y443700D01*
X549860Y443873D01*
X549281Y444208D01*
X548808Y444681D01*
X548473Y445260D01*
X548300Y445907D01*
X548300Y449261D01*
X564861Y449261D01*
X564861Y443700D01*
X550507Y443700D01*
G37*
%LPD*%
%LPC*%
G36*
X501939Y443700D02*
X501939Y443700D01*
X501939Y449261D01*
X518500Y449261D01*
X518500Y445907D01*
X518327Y445260D01*
X517992Y444681D01*
X517519Y444208D01*
X516940Y443873D01*
X516293Y443700D01*
X501939Y443700D01*
G37*
%LPD*%
%LPC*%
G36*
X569939Y443700D02*
X569939Y443700D01*
X569939Y449261D01*
X586500Y449261D01*
X586500Y445907D01*
X586327Y445260D01*
X585992Y444681D01*
X585519Y444208D01*
X584940Y443873D01*
X584293Y443700D01*
X569939Y443700D01*
G37*
%LPD*%
%LPC*%
G36*
X496799Y179299D02*
X496799Y179299D01*
X496799Y185881D01*
X501636Y185881D01*
X503197Y185570D01*
X504668Y184961D01*
X505991Y184077D01*
X507117Y182951D01*
X508001Y181628D01*
X508610Y180157D01*
X508781Y179299D01*
X496799Y179299D01*
G37*
%LPD*%
%LPC*%
G36*
X558019Y204699D02*
X558019Y204699D01*
X558190Y205557D01*
X558799Y207028D01*
X559683Y208351D01*
X560809Y209477D01*
X562132Y210361D01*
X563603Y210970D01*
X565164Y211281D01*
X570001Y211281D01*
X570001Y204699D01*
X558019Y204699D01*
G37*
%LPD*%
%LPC*%
G36*
X496799Y169719D02*
X496799Y169719D01*
X496799Y176301D01*
X508781Y176301D01*
X508610Y175443D01*
X508001Y173972D01*
X507117Y172649D01*
X505991Y171523D01*
X504668Y170639D01*
X503197Y170030D01*
X501636Y169719D01*
X496799Y169719D01*
G37*
%LPD*%
%LPC*%
G36*
X565164Y195119D02*
X565164Y195119D01*
X563603Y195430D01*
X562132Y196039D01*
X560809Y196923D01*
X559683Y198049D01*
X558799Y199372D01*
X558190Y200843D01*
X558019Y201701D01*
X570001Y201701D01*
X570001Y195119D01*
X565164Y195119D01*
G37*
%LPD*%
%LPC*%
G36*
X599439Y202539D02*
X599439Y202539D01*
X599439Y209041D01*
X604734Y209041D01*
X605381Y208868D01*
X605960Y208533D01*
X606433Y208060D01*
X606768Y207481D01*
X606941Y206834D01*
X606941Y202539D01*
X599439Y202539D01*
G37*
%LPD*%
%LPC*%
G36*
X332739Y362459D02*
X332739Y362459D01*
X332739Y368961D01*
X340241Y368961D01*
X340241Y364666D01*
X340068Y364019D01*
X339733Y363440D01*
X339260Y362967D01*
X338681Y362632D01*
X338034Y362459D01*
X332739Y362459D01*
G37*
%LPD*%
%LPC*%
G36*
X462066Y171959D02*
X462066Y171959D01*
X461419Y172132D01*
X460840Y172467D01*
X460367Y172940D01*
X460032Y173519D01*
X459859Y174166D01*
X459859Y178461D01*
X467361Y178461D01*
X467361Y171959D01*
X462066Y171959D01*
G37*
%LPD*%
%LPC*%
G36*
X322366Y362459D02*
X322366Y362459D01*
X321719Y362632D01*
X321140Y362967D01*
X320667Y363440D01*
X320332Y364019D01*
X320159Y364666D01*
X320159Y368961D01*
X327661Y368961D01*
X327661Y362459D01*
X322366Y362459D01*
G37*
%LPD*%
%LPC*%
G36*
X211391Y329895D02*
X211391Y329895D01*
X211391Y334532D01*
X217631Y334532D01*
X218278Y334359D01*
X218857Y334024D01*
X219330Y333551D01*
X219665Y332972D01*
X219838Y332325D01*
X219838Y329895D01*
X211391Y329895D01*
G37*
%LPD*%
%LPC*%
G36*
X198754Y329895D02*
X198754Y329895D01*
X198754Y332325D01*
X198927Y332972D01*
X199262Y333551D01*
X199735Y334024D01*
X200314Y334359D01*
X200961Y334532D01*
X207201Y334532D01*
X207201Y329895D01*
X198754Y329895D01*
G37*
%LPD*%
%LPC*%
G36*
X211391Y321068D02*
X211391Y321068D01*
X211391Y325705D01*
X219838Y325705D01*
X219838Y323275D01*
X219665Y322628D01*
X219330Y322049D01*
X218857Y321576D01*
X218278Y321241D01*
X217631Y321068D01*
X211391Y321068D01*
G37*
%LPD*%
%LPC*%
G36*
X200961Y321068D02*
X200961Y321068D01*
X200314Y321241D01*
X199735Y321576D01*
X199262Y322049D01*
X198927Y322628D01*
X198754Y323275D01*
X198754Y325705D01*
X207201Y325705D01*
X207201Y321068D01*
X200961Y321068D01*
G37*
%LPD*%
%LPC*%
G36*
X457859Y140969D02*
X457859Y140969D01*
X457859Y142034D01*
X458032Y142681D01*
X458367Y143260D01*
X458840Y143733D01*
X459419Y144068D01*
X460066Y144241D01*
X468631Y144241D01*
X468631Y140969D01*
X457859Y140969D01*
G37*
%LPD*%
%LPC*%
G36*
X471169Y140969D02*
X471169Y140969D01*
X471169Y144241D01*
X479734Y144241D01*
X480381Y144068D01*
X480960Y143733D01*
X481433Y143260D01*
X481768Y142681D01*
X481941Y142034D01*
X481941Y140969D01*
X471169Y140969D01*
G37*
%LPD*%
%LPC*%
G36*
X471169Y135159D02*
X471169Y135159D01*
X471169Y138431D01*
X481941Y138431D01*
X481941Y137366D01*
X481768Y136719D01*
X481433Y136140D01*
X480960Y135667D01*
X480381Y135332D01*
X479734Y135159D01*
X471169Y135159D01*
G37*
%LPD*%
%LPC*%
G36*
X460066Y135159D02*
X460066Y135159D01*
X459419Y135332D01*
X458840Y135667D01*
X458367Y136140D01*
X458032Y136719D01*
X457859Y137366D01*
X457859Y138431D01*
X468631Y138431D01*
X468631Y135159D01*
X460066Y135159D01*
G37*
%LPD*%
%LPC*%
G36*
X101599Y177799D02*
X101599Y177799D01*
X101599Y177801D01*
X101601Y177801D01*
X101601Y177799D01*
X101599Y177799D01*
G37*
%LPD*%
%LPC*%
G36*
X38099Y101599D02*
X38099Y101599D01*
X38099Y101601D01*
X38101Y101601D01*
X38101Y101599D01*
X38099Y101599D01*
G37*
%LPD*%
%LPC*%
G36*
X634999Y126999D02*
X634999Y126999D01*
X634999Y127001D01*
X635001Y127001D01*
X635001Y126999D01*
X634999Y126999D01*
G37*
%LPD*%
%LPC*%
G36*
X444499Y222249D02*
X444499Y222249D01*
X444499Y222251D01*
X444501Y222251D01*
X444501Y222249D01*
X444499Y222249D01*
G37*
%LPD*%
%LPC*%
G36*
X634999Y320039D02*
X634999Y320039D01*
X634999Y320041D01*
X635001Y320041D01*
X635001Y320039D01*
X634999Y320039D01*
G37*
%LPD*%
%LPC*%
G36*
X567399Y451799D02*
X567399Y451799D01*
X567399Y451801D01*
X567401Y451801D01*
X567401Y451799D01*
X567399Y451799D01*
G37*
%LPD*%
%LPC*%
G36*
X80199Y277899D02*
X80199Y277899D01*
X80199Y277901D01*
X80201Y277901D01*
X80201Y277899D01*
X80199Y277899D01*
G37*
%LPD*%
%LPC*%
G36*
X241299Y420699D02*
X241299Y420699D01*
X241299Y420701D01*
X241301Y420701D01*
X241301Y420699D01*
X241299Y420699D01*
G37*
%LPD*%
%LPC*%
G36*
X330199Y331799D02*
X330199Y331799D01*
X330199Y331801D01*
X330201Y331801D01*
X330201Y331799D01*
X330199Y331799D01*
G37*
%LPD*%
%LPC*%
G36*
X273303Y304799D02*
X273303Y304799D01*
X273303Y304801D01*
X273305Y304801D01*
X273305Y304799D01*
X273303Y304799D01*
G37*
%LPD*%
%LPC*%
G36*
X499399Y451799D02*
X499399Y451799D01*
X499399Y451801D01*
X499401Y451801D01*
X499401Y451799D01*
X499399Y451799D01*
G37*
%LPD*%
%LPC*%
G36*
X80199Y407899D02*
X80199Y407899D01*
X80199Y407901D01*
X80201Y407901D01*
X80201Y407899D01*
X80199Y407899D01*
G37*
%LPD*%
D10*
X241300Y366700D03*
X241300Y420700D03*
X330200Y277800D03*
X330200Y331800D03*
D11*
X469900Y200000D03*
X469900Y181000D03*
X596900Y181000D03*
X596900Y200000D03*
D12*
X167700Y336900D03*
D13*
X80200Y407900D03*
X80200Y277900D03*
D14*
X45720Y50800D02*
X30480Y50800D01*
X30480Y76200D02*
X45720Y76200D01*
X45720Y101600D02*
X30480Y101600D01*
X30480Y127000D02*
X45720Y127000D01*
X45720Y152400D02*
X30480Y152400D01*
X30480Y177800D02*
X45720Y177800D01*
X627380Y370840D02*
X642620Y370840D01*
X642620Y345440D02*
X627380Y345440D01*
X627380Y320040D02*
X642620Y320040D01*
X642620Y294640D02*
X627380Y294640D01*
X627380Y269240D02*
X642620Y269240D01*
X642620Y243840D02*
X627380Y243840D01*
D15*
X447700Y412750D03*
X466700Y412750D03*
D11*
X444500Y130200D03*
X444500Y149200D03*
D16*
X565960Y25400D02*
X577040Y25400D01*
X500840Y25400D02*
X489760Y25400D01*
X489760Y50800D02*
X500840Y50800D01*
X500840Y76200D02*
X489760Y76200D01*
X565960Y50800D02*
X577040Y50800D01*
X577040Y76200D02*
X565960Y76200D01*
X500840Y101600D02*
X489760Y101600D01*
X489760Y127000D02*
X500840Y127000D01*
X500840Y152400D02*
X489760Y152400D01*
X489760Y177800D02*
X500840Y177800D01*
X500840Y203200D02*
X489760Y203200D01*
X489760Y228600D02*
X500840Y228600D01*
X500840Y254000D02*
X489760Y254000D01*
X489760Y279400D02*
X500840Y279400D01*
X500840Y304800D02*
X489760Y304800D01*
X489760Y330200D02*
X500840Y330200D01*
X500840Y355600D02*
X489760Y355600D01*
X565960Y355600D02*
X577040Y355600D01*
X577040Y330200D02*
X565960Y330200D01*
X565960Y304800D02*
X577040Y304800D01*
X577040Y279400D02*
X565960Y279400D01*
X565960Y254000D02*
X577040Y254000D01*
X577040Y228600D02*
X565960Y228600D01*
X565960Y203200D02*
X577040Y203200D01*
X577040Y177800D02*
X565960Y177800D01*
X565960Y152400D02*
X577040Y152400D01*
X577040Y127000D02*
X565960Y127000D01*
X565960Y101600D02*
X577040Y101600D01*
D17*
X499400Y451800D03*
X499400Y411800D03*
X567400Y411800D03*
X567400Y451800D03*
D18*
X209296Y327800D03*
X209296Y304800D03*
X209296Y281800D03*
D19*
X273304Y304800D03*
D20*
X110126Y203200D02*
X93075Y203200D01*
X93075Y177800D02*
X110126Y177800D01*
X110126Y152400D02*
X93075Y152400D01*
X93075Y127000D02*
X110126Y127000D01*
X110126Y101600D02*
X93075Y101600D01*
X93075Y76200D02*
X110126Y76200D01*
X110126Y50800D02*
X93075Y50800D01*
X93075Y25400D02*
X110126Y25400D01*
X371475Y25400D02*
X388526Y25400D01*
X388526Y50800D02*
X371475Y50800D01*
X371475Y76200D02*
X388526Y76200D01*
X388526Y101600D02*
X371475Y101600D01*
X371475Y127000D02*
X388526Y127000D01*
X388526Y152400D02*
X371475Y152400D01*
X371475Y177800D02*
X388526Y177800D01*
X388526Y203200D02*
X371475Y203200D01*
D21*
X469900Y151700D03*
X469900Y139700D03*
X469900Y127700D03*
D14*
X627380Y177800D02*
X642620Y177800D01*
X642620Y152400D02*
X627380Y152400D01*
X627380Y127000D02*
X642620Y127000D01*
X642620Y101600D02*
X627380Y101600D01*
X627380Y76200D02*
X642620Y76200D01*
X642620Y50800D02*
X627380Y50800D01*
X627380Y25400D02*
X642620Y25400D01*
D22*
X388112Y428600D03*
X388112Y419100D03*
X388112Y409600D03*
X411988Y409600D03*
X411988Y428600D03*
D23*
X409956Y391160D03*
X390652Y391160D03*
X400304Y370840D03*
D14*
X436880Y222250D02*
X452120Y222250D01*
X452120Y247650D02*
X436880Y247650D01*
X436880Y273050D02*
X452120Y273050D01*
X452120Y298450D02*
X436880Y298450D01*
X436880Y323850D02*
X452120Y323850D01*
X452120Y349250D02*
X436880Y349250D01*
D24*
X400050Y349700D03*
X400050Y310700D03*
D11*
X330200Y371500D03*
X330200Y390500D03*
X361950Y390500D03*
X361950Y371500D03*
D25*
X117385Y152400D02*
X101600Y152400D01*
X117385Y152400D02*
X209296Y244311D01*
X209296Y281800D01*
X167700Y336900D02*
X197500Y366700D01*
X241300Y366700D01*
X167700Y336900D02*
X167700Y310696D01*
X196596Y281800D01*
X209296Y281800D01*
D26*
X494600Y151700D02*
X495300Y152400D01*
X494600Y151700D02*
X469900Y151700D01*
X447000Y151700D01*
X444500Y149200D01*
X470600Y127000D02*
X495300Y127000D01*
X470600Y127000D02*
X469900Y127700D01*
X447000Y127700D01*
X444500Y130200D01*
X473100Y203200D02*
X495300Y203200D01*
X473100Y203200D02*
X469900Y200000D01*
X228600Y304800D02*
X209296Y304800D01*
D27*
X228600Y304800D03*
D26*
X309550Y298450D02*
X330200Y277800D01*
X309550Y298450D02*
X304800Y298450D01*
D27*
X304800Y298450D03*
D28*
X390652Y391160D02*
X388112Y393700D01*
X388112Y409600D01*
X398290Y414902D02*
X411988Y428600D01*
X398290Y414902D02*
X398290Y414826D01*
X393064Y409600D01*
X388112Y409600D01*
X415138Y425450D02*
X431800Y425450D01*
X415138Y425450D02*
X411988Y428600D01*
D27*
X431800Y425450D03*
D28*
X435000Y425450D02*
X447700Y412750D01*
X435000Y425450D02*
X431800Y425450D01*
D26*
X466700Y412750D02*
X466700Y384200D01*
X495300Y355600D01*
X499400Y411800D02*
X498450Y412750D01*
X466700Y412750D01*
X499400Y411800D02*
X567400Y411800D01*
D28*
X495300Y304800D02*
X482600Y304800D01*
X463550Y323850D02*
X444500Y323850D01*
X463550Y323850D02*
X482600Y304800D01*
D26*
X571500Y355600D02*
X609600Y317500D01*
X609600Y279400D01*
X619760Y269240D01*
X635000Y269240D01*
D25*
X101600Y127000D02*
X88900Y127000D01*
X63500Y152400D01*
X63500Y165100D01*
X50800Y177800D01*
X38100Y177800D01*
X38100Y50800D02*
X50800Y50800D01*
X63500Y63500D01*
X63500Y76200D01*
X88900Y101600D01*
X101600Y101600D01*
D26*
X380000Y177800D02*
X393700Y177800D01*
X419100Y152400D01*
X419100Y127000D02*
X444500Y101600D01*
X495300Y101600D01*
X419100Y127000D02*
X419100Y152400D01*
X393700Y152400D02*
X380000Y152400D01*
X393700Y152400D02*
X406400Y139700D01*
X406400Y127000D01*
X457200Y76200D01*
X495300Y76200D01*
X393700Y127000D02*
X380000Y127000D01*
X393700Y127000D02*
X469900Y50800D01*
X495300Y50800D01*
X393700Y101600D02*
X380000Y101600D01*
X393700Y101600D02*
X469900Y25400D01*
X495300Y25400D01*
X430800Y0D02*
X380000Y50800D01*
X571500Y0D02*
X596900Y25400D01*
X596900Y38100D01*
X584200Y50800D01*
X571500Y50800D01*
X571500Y0D02*
X430800Y0D01*
X449850Y203200D02*
X475250Y228600D01*
X449850Y203200D02*
X380000Y203200D01*
X475250Y228600D02*
X495300Y228600D01*
X393700Y76200D02*
X380000Y76200D01*
X393700Y76200D02*
X458470Y11430D01*
X557530Y11430D02*
X571500Y25400D01*
X557530Y11430D02*
X458470Y11430D01*
X571500Y127000D02*
X584200Y127000D01*
X609600Y101600D01*
X635000Y101600D01*
X635000Y76200D02*
X609600Y76200D01*
X584200Y101600D01*
X571500Y101600D01*
X609600Y50800D02*
X635000Y50800D01*
X609600Y50800D02*
X584200Y76200D01*
X571500Y76200D01*
X571500Y228600D02*
X609600Y228600D01*
X635000Y203200D01*
X647700Y203200D01*
X660400Y190500D01*
X660400Y38100D01*
X647700Y25400D01*
X635000Y25400D01*
X593700Y177800D02*
X596900Y181000D01*
X593700Y177800D02*
X571500Y177800D01*
X571500Y152400D01*
D28*
X411988Y393192D02*
X411988Y409600D01*
X411988Y393192D02*
X409956Y391160D01*
X437700Y273050D02*
X444500Y273050D01*
X437700Y273050D02*
X400050Y310700D01*
X361950Y390500D02*
X330200Y390500D01*
X361950Y390500D02*
X361950Y412750D01*
X377800Y428600D01*
X388112Y428600D01*
X400050Y370586D02*
X400050Y349700D01*
X400050Y370586D02*
X400304Y370840D01*
X400050Y349700D02*
X383750Y349700D01*
X361950Y371500D01*
M02*
