G04 EAGLE Gerber RS-274X export*
G75*
%MOMM*%
%FSLAX34Y34*%
%LPD*%
%INSilkscreen Bottom*%
%IPPOS*%
%AMOC8*
5,1,8,0,0,1.08239X$1,22.5*%
G01*
%ADD10C,0.101600*%


D10*
X476899Y387858D02*
X479496Y387858D01*
X479595Y387860D01*
X479695Y387866D01*
X479794Y387875D01*
X479892Y387888D01*
X479990Y387905D01*
X480088Y387926D01*
X480184Y387951D01*
X480279Y387979D01*
X480373Y388011D01*
X480466Y388046D01*
X480558Y388085D01*
X480648Y388128D01*
X480736Y388173D01*
X480823Y388223D01*
X480907Y388275D01*
X480990Y388331D01*
X481070Y388389D01*
X481148Y388451D01*
X481223Y388516D01*
X481296Y388584D01*
X481366Y388654D01*
X481434Y388727D01*
X481499Y388802D01*
X481561Y388880D01*
X481619Y388960D01*
X481675Y389043D01*
X481727Y389127D01*
X481777Y389214D01*
X481822Y389302D01*
X481865Y389392D01*
X481904Y389484D01*
X481939Y389577D01*
X481971Y389671D01*
X481999Y389766D01*
X482024Y389862D01*
X482045Y389960D01*
X482062Y390058D01*
X482075Y390156D01*
X482084Y390255D01*
X482090Y390355D01*
X482092Y390454D01*
X482092Y396946D01*
X482090Y397045D01*
X482084Y397145D01*
X482075Y397244D01*
X482062Y397342D01*
X482045Y397440D01*
X482024Y397538D01*
X481999Y397634D01*
X481971Y397729D01*
X481939Y397823D01*
X481904Y397916D01*
X481865Y398008D01*
X481822Y398098D01*
X481777Y398186D01*
X481727Y398273D01*
X481675Y398357D01*
X481619Y398440D01*
X481561Y398520D01*
X481499Y398598D01*
X481434Y398673D01*
X481366Y398746D01*
X481296Y398816D01*
X481223Y398884D01*
X481148Y398949D01*
X481070Y399011D01*
X480990Y399069D01*
X480907Y399125D01*
X480823Y399177D01*
X480736Y399227D01*
X480648Y399272D01*
X480558Y399315D01*
X480466Y399354D01*
X480373Y399389D01*
X480279Y399421D01*
X480184Y399449D01*
X480088Y399474D01*
X479990Y399495D01*
X479892Y399512D01*
X479794Y399525D01*
X479695Y399534D01*
X479595Y399540D01*
X479496Y399542D01*
X476899Y399542D01*
X472534Y387858D02*
X468639Y387858D01*
X468540Y387860D01*
X468440Y387866D01*
X468341Y387875D01*
X468243Y387888D01*
X468145Y387905D01*
X468047Y387926D01*
X467951Y387951D01*
X467856Y387979D01*
X467762Y388011D01*
X467669Y388046D01*
X467577Y388085D01*
X467487Y388128D01*
X467399Y388173D01*
X467312Y388223D01*
X467228Y388275D01*
X467145Y388331D01*
X467065Y388389D01*
X466987Y388451D01*
X466912Y388516D01*
X466839Y388584D01*
X466769Y388654D01*
X466701Y388727D01*
X466636Y388802D01*
X466574Y388880D01*
X466516Y388960D01*
X466460Y389043D01*
X466408Y389127D01*
X466358Y389214D01*
X466313Y389302D01*
X466270Y389392D01*
X466231Y389484D01*
X466196Y389577D01*
X466164Y389671D01*
X466136Y389766D01*
X466111Y389862D01*
X466090Y389960D01*
X466073Y390058D01*
X466060Y390156D01*
X466051Y390255D01*
X466045Y390355D01*
X466043Y390454D01*
X466043Y391753D01*
X466045Y391852D01*
X466051Y391952D01*
X466060Y392051D01*
X466073Y392149D01*
X466090Y392247D01*
X466111Y392345D01*
X466136Y392441D01*
X466164Y392536D01*
X466196Y392630D01*
X466231Y392723D01*
X466270Y392815D01*
X466313Y392905D01*
X466358Y392993D01*
X466408Y393080D01*
X466460Y393164D01*
X466516Y393247D01*
X466574Y393327D01*
X466636Y393405D01*
X466701Y393480D01*
X466769Y393553D01*
X466839Y393623D01*
X466912Y393691D01*
X466987Y393756D01*
X467065Y393818D01*
X467145Y393876D01*
X467228Y393932D01*
X467312Y393984D01*
X467399Y394034D01*
X467487Y394079D01*
X467577Y394122D01*
X467669Y394161D01*
X467762Y394196D01*
X467856Y394228D01*
X467951Y394256D01*
X468047Y394281D01*
X468145Y394302D01*
X468243Y394319D01*
X468341Y394332D01*
X468440Y394341D01*
X468540Y394347D01*
X468639Y394349D01*
X472534Y394349D01*
X472534Y399542D01*
X466043Y399542D01*
M02*
