G04 EAGLE Gerber RS-274X export*
G75*
%MOMM*%
%FSLAX34Y34*%
%LPD*%
%INSoldermask Top*%
%IPPOS*%
%AMOC8*
5,1,8,0,0,1.08239X$1,22.5*%
G01*
%ADD10C,3.203200*%
%ADD11R,1.803200X3.703200*%
%ADD12R,1.703200X1.503200*%
%ADD13R,4.203200X2.703200*%
%ADD14R,7.203200X4.203200*%
%ADD15C,2.003200*%
%ADD16C,1.727200*%
%ADD17R,1.503200X1.703200*%
%ADD18C,1.311200*%
%ADD19R,3.515000X1.315000*%
%ADD20R,1.803400X1.041400*%
%ADD21R,1.803400X3.251200*%
%ADD22C,1.908300*%
%ADD23R,2.103200X0.603200*%
%ADD24R,1.524000X0.762000*%
%ADD25R,0.990600X1.092200*%
%ADD26R,3.603200X2.103200*%


D10*
X30000Y10000D03*
X30000Y450000D03*
X670000Y0D03*
X660000Y450000D03*
D11*
X241300Y366700D03*
X241300Y420700D03*
X330200Y277800D03*
X330200Y331800D03*
D12*
X469900Y200000D03*
X469900Y181000D03*
X596900Y181000D03*
X596900Y200000D03*
D13*
X167700Y336900D03*
D14*
X80200Y407900D03*
X80200Y277900D03*
D15*
X47700Y367900D03*
X47700Y317900D03*
D16*
X45720Y50800D02*
X30480Y50800D01*
X30480Y76200D02*
X45720Y76200D01*
X45720Y101600D02*
X30480Y101600D01*
X30480Y127000D02*
X45720Y127000D01*
X45720Y152400D02*
X30480Y152400D01*
X30480Y177800D02*
X45720Y177800D01*
X627380Y370840D02*
X642620Y370840D01*
X642620Y345440D02*
X627380Y345440D01*
X627380Y320040D02*
X642620Y320040D01*
X642620Y294640D02*
X627380Y294640D01*
X627380Y269240D02*
X642620Y269240D01*
X642620Y243840D02*
X627380Y243840D01*
D17*
X447700Y412750D03*
X466700Y412750D03*
D12*
X444500Y130200D03*
X444500Y149200D03*
D18*
X565960Y25400D02*
X577040Y25400D01*
X500840Y25400D02*
X489760Y25400D01*
X489760Y50800D02*
X500840Y50800D01*
X500840Y76200D02*
X489760Y76200D01*
X565960Y50800D02*
X577040Y50800D01*
X577040Y76200D02*
X565960Y76200D01*
X500840Y101600D02*
X489760Y101600D01*
X489760Y127000D02*
X500840Y127000D01*
X500840Y152400D02*
X489760Y152400D01*
X489760Y177800D02*
X500840Y177800D01*
X500840Y203200D02*
X489760Y203200D01*
X489760Y228600D02*
X500840Y228600D01*
X500840Y254000D02*
X489760Y254000D01*
X489760Y279400D02*
X500840Y279400D01*
X500840Y304800D02*
X489760Y304800D01*
X489760Y330200D02*
X500840Y330200D01*
X500840Y355600D02*
X489760Y355600D01*
X565960Y355600D02*
X577040Y355600D01*
X577040Y330200D02*
X565960Y330200D01*
X565960Y304800D02*
X577040Y304800D01*
X577040Y279400D02*
X565960Y279400D01*
X565960Y254000D02*
X577040Y254000D01*
X577040Y228600D02*
X565960Y228600D01*
X565960Y203200D02*
X577040Y203200D01*
X577040Y177800D02*
X565960Y177800D01*
X565960Y152400D02*
X577040Y152400D01*
X577040Y127000D02*
X565960Y127000D01*
X565960Y101600D02*
X577040Y101600D01*
D19*
X499400Y451800D03*
X499400Y411800D03*
X567400Y411800D03*
X567400Y451800D03*
D20*
X209296Y327800D03*
X209296Y304800D03*
X209296Y281800D03*
D21*
X273304Y304800D03*
D22*
X110126Y203200D02*
X93075Y203200D01*
X93075Y177800D02*
X110126Y177800D01*
X110126Y152400D02*
X93075Y152400D01*
X93075Y127000D02*
X110126Y127000D01*
X110126Y101600D02*
X93075Y101600D01*
X93075Y76200D02*
X110126Y76200D01*
X110126Y50800D02*
X93075Y50800D01*
X93075Y25400D02*
X110126Y25400D01*
X371475Y25400D02*
X388526Y25400D01*
X388526Y50800D02*
X371475Y50800D01*
X371475Y76200D02*
X388526Y76200D01*
X388526Y101600D02*
X371475Y101600D01*
X371475Y127000D02*
X388526Y127000D01*
X388526Y152400D02*
X371475Y152400D01*
X371475Y177800D02*
X388526Y177800D01*
X388526Y203200D02*
X371475Y203200D01*
D23*
X469900Y151700D03*
X469900Y139700D03*
X469900Y127700D03*
D16*
X627380Y177800D02*
X642620Y177800D01*
X642620Y152400D02*
X627380Y152400D01*
X627380Y127000D02*
X642620Y127000D01*
X642620Y101600D02*
X627380Y101600D01*
X627380Y76200D02*
X642620Y76200D01*
X642620Y50800D02*
X627380Y50800D01*
X627380Y25400D02*
X642620Y25400D01*
D24*
X388112Y428600D03*
X388112Y419100D03*
X388112Y409600D03*
X411988Y409600D03*
X411988Y428600D03*
D25*
X409956Y391160D03*
X390652Y391160D03*
X400304Y370840D03*
D16*
X436880Y222250D02*
X452120Y222250D01*
X452120Y247650D02*
X436880Y247650D01*
X436880Y273050D02*
X452120Y273050D01*
X452120Y298450D02*
X436880Y298450D01*
X436880Y323850D02*
X452120Y323850D01*
X452120Y349250D02*
X436880Y349250D01*
D26*
X400050Y349700D03*
X400050Y310700D03*
D12*
X330200Y371500D03*
X330200Y390500D03*
X361950Y390500D03*
X361950Y371500D03*
M02*
