G04 EAGLE Gerber RS-274X export*
G75*
%MOMM*%
%FSLAX34Y34*%
%LPD*%
%INSolderpaste Top*%
%IPPOS*%
%AMOC8*
5,1,8,0,0,1.08239X$1,22.5*%
G01*
%ADD10R,1.600000X3.500000*%
%ADD11R,1.500000X1.300000*%
%ADD12R,4.000000X2.500000*%
%ADD13R,7.000000X4.000000*%
%ADD14R,1.300000X1.500000*%
%ADD15R,3.311800X1.111800*%
%ADD16R,1.600200X0.838200*%
%ADD17R,1.600200X3.048000*%
%ADD18R,1.900000X0.400000*%
%ADD19R,1.320800X0.558800*%
%ADD20R,0.787400X0.889000*%
%ADD21R,3.400000X1.900000*%


D10*
X241300Y366700D03*
X241300Y420700D03*
X330200Y277800D03*
X330200Y331800D03*
D11*
X469900Y200000D03*
X469900Y181000D03*
X596900Y181000D03*
X596900Y200000D03*
D12*
X167700Y336900D03*
D13*
X80200Y407900D03*
X80200Y277900D03*
D14*
X447700Y412750D03*
X466700Y412750D03*
D11*
X444500Y130200D03*
X444500Y149200D03*
D15*
X499400Y451800D03*
X499400Y411800D03*
X567400Y411800D03*
X567400Y451800D03*
D16*
X209296Y327800D03*
X209296Y304800D03*
X209296Y281800D03*
D17*
X273304Y304800D03*
D18*
X469900Y151700D03*
X469900Y139700D03*
X469900Y127700D03*
D19*
X388112Y428600D03*
X388112Y419100D03*
X388112Y409600D03*
X411988Y409600D03*
X411988Y428600D03*
D20*
X409956Y391160D03*
X390652Y391160D03*
X400304Y370840D03*
D21*
X400050Y349700D03*
X400050Y310700D03*
D11*
X330200Y371500D03*
X330200Y390500D03*
X361950Y390500D03*
X361950Y371500D03*
M02*
