M48
;GenerationSoftware,Autodesk,EAGLE,9.5.0*%
;CreationDate,2019-09-23T08:26:26Z*%
FMAT,2
ICI,OFF
METRIC,TZ,000.000
T3C0.350
T2C0.813
T1C1.016
%
G90
M71
T1
X2540Y14605
X2540Y12065
X2540Y9525
X2540Y6985
X2540Y4445
X2540Y1905
X30480Y1905
X30480Y4445
X30480Y6985
X30480Y9525
X30480Y12065
X30480Y14605
T2
X20320Y20320
X11430Y8255
X11430Y5715
X14605Y15875
X14605Y18415
X25400Y8255
X25400Y10795
X13970Y8255
X13970Y5715
X19050Y5715
X16510Y5715
X17780Y20320
X22860Y5715
X25400Y5715
X24130Y20955
X26670Y20955
T3
X24536Y12954
X5715Y9525
X5715Y14605
X6985Y13970
X6985Y10160
X12065Y13970
X12065Y10160
M30