M48
;GenerationSoftware,Autodesk,EAGLE,9.5.1*%
;CreationDate,2019-11-16T09:39:20Z*%
FMAT,2
ICI,OFF
METRIC,TZ,000.000
T6C0.350
T5C0.600
T4C1.016
T3C1.105
T2C1.800
T1C3.000
%
G90
M71
T1
X3000Y1000
X3000Y45000
X67000Y0
X66000Y45000
T2
X4770Y36790
X4770Y31790
T3
X10160Y20320
X10160Y17780
X10160Y15240
X10160Y12700
X10160Y10160
X10160Y7620
X10160Y5080
X10160Y2540
X38000Y2540
X38000Y5080
X38000Y7620
X38000Y10160
X38000Y12700
X38000Y15240
X38000Y17780
X38000Y20320
T4
X44450Y24765
X44450Y34925
X63500Y2540
X63500Y5080
X63500Y7620
X63500Y10160
X63500Y12700
X63500Y15240
X63500Y17780
X44450Y27305
X63500Y24384
X63500Y26924
X63500Y29464
X63500Y32004
X63500Y34544
X63500Y37084
X3810Y17780
X3810Y15240
X3810Y12700
X3810Y10160
X3810Y7620
X3810Y5080
X44450Y29845
X44450Y32385
X44450Y22225
T5
X57150Y12700
X57150Y10160
X57150Y15240
X57150Y17780
X57150Y20320
X57150Y22860
X57150Y25400
X57150Y27940
X57150Y30480
X57150Y33020
X57150Y35560
X49530Y35560
X49530Y33020
X49530Y30480
X49530Y27940
X49530Y25400
X49530Y22860
X49530Y20320
X49530Y17780
X49530Y15240
X49530Y12700
X49530Y10160
X57150Y7620
X57150Y5080
X49530Y7620
X49530Y5080
X49530Y2540
X57150Y2540
T6
X43180Y42545
X30480Y29845
X22860Y30480
M30