G04 EAGLE Gerber RS-274X export*
G75*
%MOMM*%
%FSLAX34Y34*%
%LPD*%
%INTop Copper*%
%IPPOS*%
%AMOC8*
5,1,8,0,0,1.08239X$1,22.5*%
G01*
%ADD10P,1.732040X8X22.500000*%
%ADD11C,1.600200*%
%ADD12P,1.429621X8X202.500000*%
%ADD13P,1.429621X8X292.500000*%
%ADD14P,1.429621X8X112.500000*%
%ADD15P,1.429621X8X22.500000*%
%ADD16R,1.665200X0.364800*%
%ADD17R,3.100000X5.180000*%
%ADD18R,3.200000X1.800000*%
%ADD19R,0.350000X0.250000*%
%ADD20C,1.524000*%
%ADD21C,0.152400*%
%ADD22C,0.756400*%
%ADD23P,0.818720X8X22.500000*%

G36*
X161896Y46497D02*
X161896Y46497D01*
X161986Y46505D01*
X162016Y46517D01*
X162048Y46522D01*
X162129Y46565D01*
X162213Y46601D01*
X162245Y46627D01*
X162266Y46638D01*
X162288Y46661D01*
X162344Y46706D01*
X172750Y57112D01*
X172803Y57186D01*
X172863Y57256D01*
X172875Y57286D01*
X172894Y57312D01*
X172921Y57399D01*
X172955Y57484D01*
X172959Y57525D01*
X172966Y57547D01*
X172965Y57579D01*
X172973Y57651D01*
X172973Y78671D01*
X178885Y84583D01*
X189238Y84583D01*
X189328Y84597D01*
X189419Y84605D01*
X189448Y84617D01*
X189480Y84622D01*
X189561Y84665D01*
X189645Y84701D01*
X189677Y84727D01*
X189698Y84738D01*
X189720Y84761D01*
X189776Y84806D01*
X206834Y101864D01*
X206876Y101922D01*
X206925Y101974D01*
X206947Y102021D01*
X206977Y102063D01*
X206998Y102132D01*
X207029Y102197D01*
X207034Y102249D01*
X207050Y102299D01*
X207048Y102370D01*
X207056Y102441D01*
X207045Y102492D01*
X207043Y102544D01*
X207019Y102612D01*
X207004Y102682D01*
X206977Y102726D01*
X206959Y102775D01*
X206914Y102831D01*
X206877Y102893D01*
X206838Y102927D01*
X206805Y102967D01*
X206745Y103006D01*
X206690Y103053D01*
X206642Y103072D01*
X206598Y103100D01*
X206529Y103118D01*
X206462Y103145D01*
X206391Y103153D01*
X206360Y103161D01*
X206336Y103159D01*
X206296Y103163D01*
X197503Y103163D01*
X196163Y104503D01*
X196163Y108397D01*
X197503Y109737D01*
X208897Y109737D01*
X210237Y108397D01*
X210237Y107810D01*
X210248Y107740D01*
X210250Y107668D01*
X210268Y107619D01*
X210276Y107568D01*
X210310Y107505D01*
X210335Y107437D01*
X210367Y107396D01*
X210392Y107350D01*
X210443Y107301D01*
X210488Y107245D01*
X210532Y107217D01*
X210570Y107181D01*
X210635Y107151D01*
X210695Y107112D01*
X210746Y107099D01*
X210793Y107077D01*
X210864Y107069D01*
X210934Y107052D01*
X210986Y107056D01*
X211037Y107050D01*
X211108Y107066D01*
X211179Y107071D01*
X211227Y107091D01*
X211278Y107103D01*
X211339Y107139D01*
X211405Y107167D01*
X211432Y107189D01*
X219075Y107189D01*
X219095Y107192D01*
X219114Y107190D01*
X219216Y107212D01*
X219318Y107229D01*
X219335Y107238D01*
X219355Y107242D01*
X219444Y107295D01*
X219535Y107344D01*
X219549Y107358D01*
X219566Y107368D01*
X219633Y107447D01*
X219705Y107522D01*
X219713Y107540D01*
X219726Y107555D01*
X219765Y107651D01*
X219808Y107745D01*
X219810Y107765D01*
X219818Y107783D01*
X219836Y107950D01*
X219836Y161528D01*
X220292Y161264D01*
X220302Y161258D01*
X220354Y161208D01*
X220401Y161186D01*
X220443Y161156D01*
X220512Y161135D01*
X220577Y161105D01*
X220629Y161099D01*
X220678Y161084D01*
X220750Y161085D01*
X220821Y161077D01*
X220872Y161088D01*
X220924Y161090D01*
X220992Y161114D01*
X221062Y161130D01*
X221106Y161156D01*
X221155Y161174D01*
X221211Y161219D01*
X221273Y161256D01*
X221307Y161295D01*
X221347Y161328D01*
X221386Y161388D01*
X221433Y161443D01*
X221452Y161491D01*
X221480Y161535D01*
X221498Y161604D01*
X221525Y161671D01*
X221533Y161742D01*
X221541Y161773D01*
X221539Y161797D01*
X221543Y161838D01*
X221543Y165056D01*
X221799Y165312D01*
X221811Y165328D01*
X221827Y165341D01*
X221883Y165428D01*
X221943Y165512D01*
X221949Y165531D01*
X221960Y165548D01*
X221985Y165648D01*
X222015Y165747D01*
X222015Y165767D01*
X222020Y165786D01*
X222012Y165889D01*
X222009Y165993D01*
X222002Y166012D01*
X222001Y166032D01*
X221960Y166126D01*
X221925Y166224D01*
X221912Y166240D01*
X221904Y166258D01*
X221799Y166389D01*
X221543Y166645D01*
X221543Y171393D01*
X221529Y171483D01*
X221521Y171574D01*
X221509Y171604D01*
X221504Y171636D01*
X221461Y171716D01*
X221425Y171800D01*
X221399Y171832D01*
X221388Y171853D01*
X221365Y171875D01*
X221320Y171931D01*
X221035Y172217D01*
X220700Y172796D01*
X220527Y173442D01*
X220527Y174689D01*
X231244Y174689D01*
X231263Y174693D01*
X231283Y174690D01*
X231385Y174712D01*
X231487Y174729D01*
X231504Y174738D01*
X231524Y174743D01*
X231613Y174796D01*
X231704Y174844D01*
X231718Y174859D01*
X231735Y174869D01*
X231802Y174948D01*
X231873Y175023D01*
X231882Y175041D01*
X231895Y175056D01*
X231910Y175095D01*
X231913Y175096D01*
X232004Y175145D01*
X232018Y175159D01*
X232035Y175169D01*
X232102Y175248D01*
X232174Y175323D01*
X232182Y175341D01*
X232195Y175356D01*
X232234Y175452D01*
X232277Y175546D01*
X232279Y175566D01*
X232287Y175584D01*
X232305Y175751D01*
X232305Y179965D01*
X240054Y179965D01*
X240701Y179792D01*
X241280Y179458D01*
X241753Y178985D01*
X242088Y178405D01*
X242261Y177759D01*
X242261Y175895D01*
X242272Y175824D01*
X242274Y175753D01*
X242292Y175704D01*
X242300Y175652D01*
X242334Y175589D01*
X242359Y175522D01*
X242391Y175481D01*
X242416Y175435D01*
X242468Y175385D01*
X242512Y175329D01*
X242556Y175301D01*
X242594Y175265D01*
X242659Y175235D01*
X242719Y175196D01*
X242770Y175184D01*
X242817Y175162D01*
X242888Y175154D01*
X242958Y175136D01*
X243010Y175140D01*
X243061Y175135D01*
X243132Y175150D01*
X243203Y175156D01*
X243251Y175176D01*
X243302Y175187D01*
X243363Y175224D01*
X243429Y175252D01*
X243485Y175297D01*
X243513Y175313D01*
X243528Y175331D01*
X243560Y175357D01*
X267365Y199162D01*
X267418Y199236D01*
X267478Y199305D01*
X267490Y199335D01*
X267509Y199361D01*
X267536Y199448D01*
X267570Y199533D01*
X267574Y199574D01*
X267581Y199597D01*
X267580Y199629D01*
X267588Y199700D01*
X267588Y210497D01*
X269151Y212060D01*
X276602Y219511D01*
X276629Y219548D01*
X276662Y219579D01*
X276675Y219603D01*
X276688Y219616D01*
X276707Y219658D01*
X276745Y219710D01*
X276759Y219754D01*
X276781Y219795D01*
X276787Y219830D01*
X276792Y219839D01*
X276795Y219873D01*
X276818Y219945D01*
X276816Y219991D01*
X276825Y220037D01*
X276818Y220080D01*
X276819Y220083D01*
X276816Y220097D01*
X276813Y220114D01*
X276811Y220191D01*
X276796Y220234D01*
X276789Y220280D01*
X276754Y220349D01*
X276727Y220422D01*
X276698Y220458D01*
X276677Y220499D01*
X276622Y220554D01*
X276573Y220614D01*
X276534Y220639D01*
X276502Y220671D01*
X276382Y220737D01*
X276366Y220747D01*
X276361Y220749D01*
X276355Y220752D01*
X276125Y220847D01*
X273552Y223420D01*
X272160Y226781D01*
X272160Y230419D01*
X273552Y233780D01*
X275200Y235428D01*
X275242Y235486D01*
X275291Y235538D01*
X275313Y235585D01*
X275344Y235627D01*
X275365Y235696D01*
X275395Y235761D01*
X275401Y235813D01*
X275416Y235863D01*
X275414Y235934D01*
X275422Y236005D01*
X275411Y236056D01*
X275410Y236108D01*
X275385Y236176D01*
X275370Y236246D01*
X275343Y236291D01*
X275325Y236339D01*
X275280Y236395D01*
X275244Y236457D01*
X275204Y236491D01*
X275172Y236531D01*
X275111Y236570D01*
X275057Y236617D01*
X275008Y236636D01*
X274965Y236664D01*
X274895Y236682D01*
X274829Y236709D01*
X274757Y236717D01*
X274726Y236725D01*
X274703Y236723D01*
X274662Y236727D01*
X176085Y236727D01*
X176066Y236724D01*
X176046Y236726D01*
X175945Y236704D01*
X175843Y236688D01*
X175825Y236678D01*
X175806Y236674D01*
X175717Y236621D01*
X175625Y236572D01*
X175612Y236558D01*
X175595Y236548D01*
X175527Y236469D01*
X175456Y236394D01*
X175448Y236376D01*
X175435Y236361D01*
X175396Y236265D01*
X175352Y236171D01*
X175350Y236151D01*
X175343Y236133D01*
X175324Y235966D01*
X175324Y222233D01*
X175336Y222162D01*
X175338Y222090D01*
X175356Y222041D01*
X175364Y221990D01*
X175398Y221927D01*
X175422Y221859D01*
X175455Y221819D01*
X175479Y221773D01*
X175531Y221723D01*
X175576Y221667D01*
X175620Y221639D01*
X175657Y221603D01*
X175722Y221573D01*
X175783Y221534D01*
X175833Y221522D01*
X175880Y221500D01*
X175952Y221492D01*
X176021Y221474D01*
X176073Y221478D01*
X176125Y221473D01*
X176195Y221488D01*
X176266Y221493D01*
X176314Y221514D01*
X176365Y221525D01*
X176427Y221562D01*
X176493Y221590D01*
X176549Y221634D01*
X176576Y221651D01*
X176592Y221669D01*
X176624Y221694D01*
X181371Y226442D01*
X184214Y226442D01*
X184214Y216662D01*
X184217Y216642D01*
X184215Y216623D01*
X184237Y216521D01*
X184254Y216419D01*
X184263Y216402D01*
X184268Y216382D01*
X184321Y216293D01*
X184369Y216202D01*
X184384Y216188D01*
X184394Y216171D01*
X184472Y216104D01*
X184547Y216033D01*
X184565Y216024D01*
X184581Y216011D01*
X184677Y215973D01*
X184771Y215929D01*
X184790Y215927D01*
X184809Y215919D01*
X184976Y215901D01*
X185738Y215901D01*
X185738Y215899D01*
X184976Y215899D01*
X184956Y215896D01*
X184936Y215898D01*
X184835Y215876D01*
X184733Y215859D01*
X184715Y215850D01*
X184696Y215846D01*
X184607Y215793D01*
X184515Y215744D01*
X184502Y215730D01*
X184485Y215720D01*
X184417Y215641D01*
X184346Y215566D01*
X184338Y215548D01*
X184325Y215533D01*
X184286Y215437D01*
X184242Y215343D01*
X184240Y215323D01*
X184233Y215305D01*
X184214Y215138D01*
X184214Y205358D01*
X181371Y205358D01*
X176624Y210106D01*
X176566Y210147D01*
X176514Y210197D01*
X176466Y210219D01*
X176424Y210249D01*
X176356Y210270D01*
X176290Y210300D01*
X176239Y210306D01*
X176189Y210321D01*
X176117Y210320D01*
X176046Y210327D01*
X175995Y210316D01*
X175943Y210315D01*
X175876Y210290D01*
X175806Y210275D01*
X175761Y210248D01*
X175712Y210231D01*
X175656Y210186D01*
X175595Y210149D01*
X175561Y210109D01*
X175520Y210077D01*
X175481Y210017D01*
X175435Y209962D01*
X175415Y209914D01*
X175387Y209870D01*
X175370Y209801D01*
X175343Y209734D01*
X175335Y209663D01*
X175327Y209631D01*
X175329Y209608D01*
X175324Y209567D01*
X175324Y199078D01*
X173985Y197738D01*
X152145Y197738D01*
X152075Y197727D01*
X152003Y197725D01*
X151954Y197707D01*
X151903Y197699D01*
X151839Y197665D01*
X151772Y197640D01*
X151731Y197608D01*
X151685Y197583D01*
X151636Y197531D01*
X151580Y197487D01*
X151552Y197443D01*
X151516Y197405D01*
X151486Y197340D01*
X151447Y197280D01*
X151434Y197229D01*
X151412Y197182D01*
X151404Y197111D01*
X151387Y197041D01*
X151391Y196989D01*
X151385Y196938D01*
X151400Y196867D01*
X151406Y196796D01*
X151426Y196748D01*
X151437Y196697D01*
X151474Y196636D01*
X151502Y196570D01*
X151547Y196514D01*
X151564Y196486D01*
X151581Y196471D01*
X151607Y196439D01*
X152591Y195455D01*
X152591Y188720D01*
X152366Y188495D01*
X152354Y188479D01*
X152338Y188466D01*
X152282Y188379D01*
X152222Y188295D01*
X152216Y188276D01*
X152205Y188259D01*
X152180Y188159D01*
X152150Y188060D01*
X152150Y188040D01*
X152145Y188021D01*
X152153Y187918D01*
X152156Y187814D01*
X152163Y187795D01*
X152164Y187776D01*
X152205Y187681D01*
X152241Y187583D01*
X152253Y187568D01*
X152261Y187549D01*
X152366Y187418D01*
X155438Y184346D01*
X157001Y182783D01*
X157001Y177486D01*
X157004Y177466D01*
X157002Y177447D01*
X157024Y177345D01*
X157040Y177243D01*
X157050Y177226D01*
X157054Y177206D01*
X157107Y177117D01*
X157156Y177026D01*
X157170Y177012D01*
X157180Y176995D01*
X157259Y176928D01*
X157334Y176856D01*
X157352Y176848D01*
X157367Y176835D01*
X157463Y176796D01*
X157557Y176753D01*
X157577Y176751D01*
X157595Y176743D01*
X157762Y176725D01*
X157975Y176725D01*
X158066Y176739D01*
X158156Y176747D01*
X158186Y176759D01*
X158218Y176764D01*
X158299Y176807D01*
X158383Y176843D01*
X158415Y176869D01*
X158436Y176880D01*
X158458Y176903D01*
X158514Y176948D01*
X159454Y177887D01*
X164671Y177887D01*
X164761Y177902D01*
X164852Y177909D01*
X164882Y177922D01*
X164914Y177927D01*
X164995Y177970D01*
X165078Y178006D01*
X165111Y178031D01*
X165131Y178042D01*
X165153Y178066D01*
X165209Y178110D01*
X166048Y178949D01*
X183964Y178949D01*
X184857Y178056D01*
X184857Y173145D01*
X184601Y172889D01*
X184589Y172873D01*
X184573Y172860D01*
X184517Y172773D01*
X184457Y172689D01*
X184451Y172670D01*
X184440Y172653D01*
X184415Y172553D01*
X184385Y172454D01*
X184385Y172434D01*
X184380Y172415D01*
X184388Y172312D01*
X184391Y172208D01*
X184398Y172190D01*
X184399Y172170D01*
X184440Y172075D01*
X184475Y171977D01*
X184488Y171962D01*
X184496Y171943D01*
X184601Y171812D01*
X184857Y171556D01*
X184857Y166645D01*
X184601Y166389D01*
X184589Y166373D01*
X184573Y166360D01*
X184517Y166273D01*
X184457Y166189D01*
X184451Y166170D01*
X184440Y166153D01*
X184415Y166053D01*
X184385Y165954D01*
X184385Y165934D01*
X184380Y165915D01*
X184388Y165812D01*
X184391Y165708D01*
X184398Y165689D01*
X184399Y165670D01*
X184440Y165575D01*
X184475Y165477D01*
X184488Y165462D01*
X184496Y165443D01*
X184601Y165312D01*
X184857Y165056D01*
X184857Y161838D01*
X184868Y161767D01*
X184870Y161695D01*
X184888Y161646D01*
X184896Y161595D01*
X184930Y161532D01*
X184955Y161464D01*
X184976Y161437D01*
X184976Y105268D01*
X184967Y105257D01*
X184948Y105209D01*
X184920Y105165D01*
X184902Y105096D01*
X184875Y105029D01*
X184867Y104958D01*
X184859Y104927D01*
X184861Y104903D01*
X184857Y104862D01*
X184857Y101644D01*
X184601Y101388D01*
X184589Y101372D01*
X184573Y101359D01*
X184517Y101272D01*
X184457Y101188D01*
X184451Y101169D01*
X184440Y101152D01*
X184415Y101052D01*
X184385Y100953D01*
X184385Y100933D01*
X184380Y100914D01*
X184388Y100811D01*
X184391Y100707D01*
X184398Y100688D01*
X184399Y100668D01*
X184440Y100574D01*
X184475Y100476D01*
X184488Y100460D01*
X184496Y100442D01*
X184601Y100311D01*
X184857Y100055D01*
X184857Y95307D01*
X184871Y95217D01*
X184879Y95126D01*
X184891Y95096D01*
X184896Y95064D01*
X184939Y94984D01*
X184975Y94900D01*
X184976Y94898D01*
X184976Y92011D01*
X175156Y92011D01*
X175137Y92007D01*
X175117Y92009D01*
X175015Y91987D01*
X174913Y91971D01*
X174896Y91961D01*
X174876Y91957D01*
X174787Y91904D01*
X174696Y91856D01*
X174682Y91841D01*
X174665Y91831D01*
X174598Y91752D01*
X174527Y91677D01*
X174518Y91659D01*
X174505Y91644D01*
X174490Y91605D01*
X174487Y91604D01*
X174396Y91555D01*
X174382Y91541D01*
X174365Y91531D01*
X174298Y91452D01*
X174226Y91377D01*
X174218Y91359D01*
X174205Y91344D01*
X174166Y91248D01*
X174123Y91154D01*
X174121Y91134D01*
X174113Y91116D01*
X174095Y90949D01*
X174095Y86734D01*
X166346Y86735D01*
X165699Y86908D01*
X165120Y87242D01*
X164647Y87715D01*
X164312Y88295D01*
X164176Y88803D01*
X164137Y88890D01*
X164104Y88980D01*
X164087Y89002D01*
X164075Y89028D01*
X164010Y89098D01*
X163950Y89172D01*
X163927Y89187D01*
X163907Y89208D01*
X163824Y89253D01*
X163744Y89305D01*
X163716Y89312D01*
X163691Y89325D01*
X163598Y89342D01*
X163505Y89365D01*
X163477Y89363D01*
X163449Y89368D01*
X163354Y89353D01*
X163260Y89346D01*
X163234Y89335D01*
X163206Y89331D01*
X163121Y89287D01*
X163033Y89250D01*
X163006Y89227D01*
X162987Y89218D01*
X162964Y89194D01*
X162902Y89145D01*
X161260Y87502D01*
X161207Y87428D01*
X161147Y87358D01*
X161135Y87328D01*
X161116Y87302D01*
X161089Y87215D01*
X161055Y87130D01*
X161051Y87089D01*
X161044Y87067D01*
X161045Y87035D01*
X161037Y86964D01*
X161037Y81915D01*
X161040Y81895D01*
X161038Y81876D01*
X161060Y81774D01*
X161076Y81672D01*
X161086Y81655D01*
X161090Y81635D01*
X161143Y81546D01*
X161192Y81455D01*
X161206Y81441D01*
X161216Y81424D01*
X161295Y81357D01*
X161370Y81285D01*
X161388Y81277D01*
X161403Y81264D01*
X161499Y81225D01*
X161593Y81182D01*
X161613Y81180D01*
X161631Y81172D01*
X161798Y81154D01*
X162117Y81154D01*
X166879Y76392D01*
X166879Y69658D01*
X162847Y65626D01*
X162835Y65610D01*
X162819Y65597D01*
X162763Y65510D01*
X162703Y65426D01*
X162697Y65407D01*
X162686Y65390D01*
X162661Y65290D01*
X162631Y65191D01*
X162631Y65171D01*
X162626Y65152D01*
X162634Y65049D01*
X162637Y64945D01*
X162644Y64926D01*
X162645Y64907D01*
X162686Y64812D01*
X162721Y64714D01*
X162734Y64698D01*
X162742Y64680D01*
X162847Y64549D01*
X166879Y60517D01*
X166879Y53783D01*
X162117Y49021D01*
X155383Y49021D01*
X150621Y53783D01*
X150621Y60517D01*
X154653Y64549D01*
X154665Y64565D01*
X154681Y64578D01*
X154737Y64665D01*
X154797Y64749D01*
X154803Y64768D01*
X154814Y64785D01*
X154839Y64885D01*
X154869Y64984D01*
X154869Y65004D01*
X154874Y65023D01*
X154866Y65126D01*
X154863Y65230D01*
X154856Y65249D01*
X154855Y65269D01*
X154814Y65363D01*
X154779Y65461D01*
X154766Y65477D01*
X154758Y65495D01*
X154653Y65626D01*
X150621Y69658D01*
X150621Y76392D01*
X155383Y81154D01*
X155702Y81154D01*
X155722Y81157D01*
X155741Y81155D01*
X155843Y81177D01*
X155945Y81193D01*
X155962Y81203D01*
X155982Y81207D01*
X156071Y81260D01*
X156162Y81309D01*
X156176Y81323D01*
X156193Y81333D01*
X156260Y81412D01*
X156332Y81487D01*
X156340Y81505D01*
X156353Y81520D01*
X156392Y81616D01*
X156435Y81710D01*
X156437Y81730D01*
X156445Y81748D01*
X156463Y81915D01*
X156463Y89173D01*
X160541Y93251D01*
X160583Y93309D01*
X160632Y93361D01*
X160654Y93409D01*
X160685Y93451D01*
X160706Y93519D01*
X160736Y93585D01*
X160742Y93636D01*
X160757Y93686D01*
X160755Y93758D01*
X160763Y93829D01*
X160752Y93880D01*
X160751Y93932D01*
X160726Y93999D01*
X160711Y94069D01*
X160684Y94114D01*
X160666Y94163D01*
X160621Y94219D01*
X160585Y94280D01*
X160545Y94314D01*
X160513Y94355D01*
X160452Y94394D01*
X160398Y94440D01*
X160349Y94460D01*
X160306Y94488D01*
X160236Y94505D01*
X160170Y94532D01*
X160098Y94540D01*
X160067Y94548D01*
X160044Y94546D01*
X160003Y94551D01*
X133990Y94551D01*
X132651Y95890D01*
X132651Y100013D01*
X132636Y100103D01*
X132629Y100194D01*
X132616Y100224D01*
X132611Y100256D01*
X132568Y100337D01*
X132533Y100421D01*
X132507Y100453D01*
X132496Y100473D01*
X132473Y100495D01*
X132428Y100551D01*
X131571Y101408D01*
X131571Y108142D01*
X132428Y108999D01*
X132481Y109073D01*
X132540Y109142D01*
X132552Y109172D01*
X132571Y109198D01*
X132598Y109285D01*
X132632Y109370D01*
X132637Y109411D01*
X132644Y109433D01*
X132643Y109466D01*
X132651Y109537D01*
X132651Y110117D01*
X132639Y110187D01*
X132637Y110259D01*
X132619Y110308D01*
X132611Y110359D01*
X132577Y110423D01*
X132553Y110490D01*
X132520Y110531D01*
X132496Y110577D01*
X132444Y110626D01*
X132399Y110682D01*
X132355Y110710D01*
X132318Y110746D01*
X132253Y110776D01*
X132192Y110815D01*
X132142Y110828D01*
X132095Y110850D01*
X132023Y110858D01*
X131954Y110875D01*
X131902Y110871D01*
X131850Y110877D01*
X131780Y110862D01*
X131709Y110856D01*
X131661Y110836D01*
X131610Y110825D01*
X131548Y110788D01*
X131482Y110760D01*
X131426Y110715D01*
X131399Y110698D01*
X131383Y110681D01*
X131351Y110655D01*
X127947Y107251D01*
X41915Y107251D01*
X40576Y108590D01*
X40576Y121229D01*
X40564Y121300D01*
X40562Y121371D01*
X40544Y121420D01*
X40536Y121472D01*
X40503Y121535D01*
X40478Y121602D01*
X40445Y121643D01*
X40421Y121689D01*
X40369Y121738D01*
X40324Y121795D01*
X40280Y121823D01*
X40243Y121859D01*
X40178Y121889D01*
X40117Y121928D01*
X40067Y121940D01*
X40020Y121962D01*
X39948Y121970D01*
X39879Y121988D01*
X39827Y121984D01*
X39775Y121989D01*
X39705Y121974D01*
X39634Y121968D01*
X39586Y121948D01*
X39535Y121937D01*
X39473Y121900D01*
X39407Y121872D01*
X39351Y121827D01*
X39324Y121811D01*
X39308Y121793D01*
X39276Y121767D01*
X29553Y112044D01*
X29511Y111986D01*
X29462Y111934D01*
X29440Y111887D01*
X29410Y111845D01*
X29389Y111776D01*
X29358Y111711D01*
X29353Y111659D01*
X29337Y111609D01*
X29339Y111538D01*
X29331Y111467D01*
X29342Y111416D01*
X29344Y111364D01*
X29368Y111296D01*
X29383Y111226D01*
X29410Y111182D01*
X29428Y111133D01*
X29473Y111077D01*
X29510Y111015D01*
X29549Y110981D01*
X29582Y110941D01*
X29642Y110902D01*
X29697Y110855D01*
X29745Y110836D01*
X29789Y110808D01*
X29858Y110790D01*
X29925Y110763D01*
X29996Y110755D01*
X30027Y110747D01*
X30051Y110749D01*
X30091Y110745D01*
X33251Y110745D01*
X36613Y109353D01*
X39185Y106780D01*
X40577Y103419D01*
X40577Y99781D01*
X39185Y96420D01*
X36613Y93847D01*
X33251Y92455D01*
X14374Y92455D01*
X11012Y93847D01*
X9047Y95813D01*
X8989Y95854D01*
X8937Y95904D01*
X8890Y95926D01*
X8848Y95956D01*
X8779Y95977D01*
X8714Y96007D01*
X8662Y96013D01*
X8612Y96029D01*
X8541Y96027D01*
X8470Y96035D01*
X8419Y96024D01*
X8367Y96022D01*
X8299Y95998D01*
X8229Y95982D01*
X8184Y95956D01*
X8136Y95938D01*
X8080Y95893D01*
X8018Y95856D01*
X7984Y95817D01*
X7944Y95784D01*
X7905Y95724D01*
X7858Y95669D01*
X7839Y95621D01*
X7811Y95577D01*
X7793Y95508D01*
X7766Y95441D01*
X7758Y95370D01*
X7750Y95339D01*
X7752Y95315D01*
X7748Y95274D01*
X7748Y82526D01*
X7759Y82455D01*
X7761Y82383D01*
X7779Y82334D01*
X7787Y82283D01*
X7821Y82220D01*
X7846Y82152D01*
X7878Y82112D01*
X7903Y82066D01*
X7955Y82016D01*
X7999Y81960D01*
X8043Y81932D01*
X8081Y81896D01*
X8146Y81866D01*
X8206Y81827D01*
X8257Y81814D01*
X8304Y81793D01*
X8375Y81785D01*
X8445Y81767D01*
X8497Y81771D01*
X8548Y81765D01*
X8619Y81781D01*
X8690Y81786D01*
X8738Y81807D01*
X8789Y81818D01*
X8850Y81854D01*
X8916Y81883D01*
X8972Y81927D01*
X9000Y81944D01*
X9015Y81962D01*
X9047Y81987D01*
X11012Y83953D01*
X14374Y85345D01*
X33251Y85345D01*
X36613Y83953D01*
X39185Y81380D01*
X40577Y78019D01*
X40577Y74381D01*
X39185Y71020D01*
X36530Y68365D01*
X36518Y68349D01*
X36503Y68336D01*
X36446Y68249D01*
X36386Y68165D01*
X36380Y68146D01*
X36370Y68129D01*
X36344Y68029D01*
X36314Y67930D01*
X36314Y67910D01*
X36310Y67891D01*
X36318Y67788D01*
X36320Y67684D01*
X36327Y67665D01*
X36329Y67645D01*
X36369Y67551D01*
X36405Y67453D01*
X36417Y67437D01*
X36425Y67419D01*
X36530Y67288D01*
X57112Y46706D01*
X57186Y46653D01*
X57256Y46593D01*
X57286Y46581D01*
X57312Y46562D01*
X57399Y46535D01*
X57484Y46501D01*
X57525Y46497D01*
X57547Y46490D01*
X57579Y46491D01*
X57651Y46483D01*
X161805Y46483D01*
X161896Y46497D01*
G37*
G36*
X182582Y153229D02*
X182582Y153229D01*
X182602Y153227D01*
X182703Y153249D01*
X182805Y153266D01*
X182823Y153275D01*
X182842Y153280D01*
X182931Y153333D01*
X183023Y153381D01*
X183036Y153396D01*
X183053Y153406D01*
X183121Y153484D01*
X183192Y153559D01*
X183200Y153577D01*
X183213Y153593D01*
X183252Y153689D01*
X183296Y153783D01*
X183298Y153802D01*
X183305Y153821D01*
X183324Y153988D01*
X183324Y157163D01*
X183321Y157182D01*
X183323Y157202D01*
X183301Y157303D01*
X183284Y157405D01*
X183275Y157423D01*
X183270Y157442D01*
X183217Y157531D01*
X183169Y157623D01*
X183155Y157636D01*
X183144Y157653D01*
X183066Y157721D01*
X182991Y157792D01*
X182973Y157800D01*
X182957Y157813D01*
X182861Y157852D01*
X182768Y157896D01*
X182748Y157898D01*
X182729Y157905D01*
X182563Y157924D01*
X157478Y157924D01*
X157149Y158252D01*
X157075Y158306D01*
X157006Y158365D01*
X156976Y158377D01*
X156950Y158396D01*
X156862Y158423D01*
X156778Y158457D01*
X156737Y158461D01*
X156714Y158468D01*
X156682Y158467D01*
X156611Y158475D01*
X156368Y158475D01*
X155475Y159368D01*
X155475Y159611D01*
X155461Y159701D01*
X155453Y159792D01*
X155441Y159822D01*
X155436Y159854D01*
X155393Y159934D01*
X155357Y160018D01*
X155331Y160050D01*
X155320Y160071D01*
X155297Y160093D01*
X155252Y160149D01*
X137286Y178115D01*
X137286Y187453D01*
X137272Y187543D01*
X137264Y187634D01*
X137252Y187663D01*
X137247Y187695D01*
X137204Y187776D01*
X137168Y187860D01*
X137142Y187892D01*
X137131Y187913D01*
X137108Y187935D01*
X137063Y187991D01*
X136334Y188720D01*
X136334Y195455D01*
X137063Y196184D01*
X137116Y196258D01*
X137176Y196327D01*
X137188Y196358D01*
X137207Y196384D01*
X137234Y196471D01*
X137268Y196556D01*
X137272Y196597D01*
X137279Y196619D01*
X137278Y196651D01*
X137286Y196722D01*
X137286Y199264D01*
X139828Y199264D01*
X139918Y199279D01*
X140009Y199286D01*
X140038Y199298D01*
X140070Y199304D01*
X140151Y199346D01*
X140235Y199382D01*
X140267Y199408D01*
X140288Y199419D01*
X140310Y199442D01*
X140366Y199487D01*
X141095Y200216D01*
X147830Y200216D01*
X148559Y199487D01*
X148633Y199434D01*
X148702Y199374D01*
X148733Y199362D01*
X148759Y199343D01*
X148846Y199316D01*
X148931Y199282D01*
X148972Y199278D01*
X148994Y199271D01*
X149026Y199272D01*
X149097Y199264D01*
X173038Y199264D01*
X173057Y199267D01*
X173077Y199265D01*
X173178Y199287D01*
X173280Y199304D01*
X173298Y199313D01*
X173317Y199317D01*
X173406Y199370D01*
X173498Y199419D01*
X173511Y199433D01*
X173528Y199443D01*
X173596Y199522D01*
X173667Y199597D01*
X173675Y199615D01*
X173688Y199630D01*
X173727Y199726D01*
X173771Y199820D01*
X173773Y199840D01*
X173780Y199858D01*
X173799Y200025D01*
X173799Y235966D01*
X173796Y235986D01*
X173798Y236005D01*
X173776Y236107D01*
X173759Y236209D01*
X173750Y236226D01*
X173745Y236246D01*
X173692Y236335D01*
X173644Y236426D01*
X173630Y236440D01*
X173619Y236457D01*
X173541Y236524D01*
X173466Y236596D01*
X173448Y236604D01*
X173432Y236617D01*
X173336Y236656D01*
X173243Y236699D01*
X173223Y236701D01*
X173204Y236709D01*
X173038Y236727D01*
X120650Y236727D01*
X120630Y236724D01*
X120611Y236726D01*
X120509Y236704D01*
X120407Y236688D01*
X120390Y236678D01*
X120370Y236674D01*
X120281Y236621D01*
X120190Y236572D01*
X120176Y236558D01*
X120159Y236548D01*
X120092Y236469D01*
X120021Y236394D01*
X120012Y236376D01*
X119999Y236361D01*
X119960Y236265D01*
X119917Y236171D01*
X119915Y236151D01*
X119907Y236133D01*
X119889Y235966D01*
X119889Y188086D01*
X8509Y188086D01*
X8489Y188083D01*
X8470Y188085D01*
X8368Y188063D01*
X8266Y188047D01*
X8249Y188037D01*
X8229Y188033D01*
X8140Y187980D01*
X8049Y187931D01*
X8035Y187917D01*
X8018Y187907D01*
X7951Y187828D01*
X7879Y187753D01*
X7871Y187735D01*
X7858Y187720D01*
X7819Y187624D01*
X7776Y187530D01*
X7774Y187510D01*
X7766Y187492D01*
X7748Y187325D01*
X7748Y169863D01*
X7751Y169843D01*
X7749Y169823D01*
X7771Y169722D01*
X7787Y169620D01*
X7797Y169602D01*
X7801Y169583D01*
X7854Y169494D01*
X7903Y169402D01*
X7917Y169389D01*
X7927Y169372D01*
X8006Y169304D01*
X8081Y169233D01*
X8099Y169225D01*
X8114Y169212D01*
X8210Y169173D01*
X8304Y169129D01*
X8324Y169127D01*
X8342Y169120D01*
X8509Y169101D01*
X33022Y169101D01*
X42324Y159799D01*
X42382Y159757D01*
X42434Y159708D01*
X42453Y159700D01*
X42468Y159687D01*
X42498Y159675D01*
X42524Y159656D01*
X42592Y159635D01*
X42658Y159604D01*
X42677Y159602D01*
X42696Y159595D01*
X42737Y159590D01*
X42759Y159583D01*
X42791Y159584D01*
X42863Y159576D01*
X120335Y159576D01*
X126462Y153449D01*
X126536Y153396D01*
X126605Y153337D01*
X126635Y153325D01*
X126661Y153306D01*
X126748Y153279D01*
X126833Y153245D01*
X126874Y153240D01*
X126897Y153233D01*
X126929Y153234D01*
X127000Y153226D01*
X182563Y153226D01*
X182582Y153229D01*
G37*
G36*
X79143Y189615D02*
X79143Y189615D01*
X79162Y189613D01*
X79264Y189635D01*
X79366Y189651D01*
X79383Y189661D01*
X79403Y189665D01*
X79492Y189718D01*
X79583Y189767D01*
X79597Y189781D01*
X79614Y189791D01*
X79681Y189870D01*
X79753Y189945D01*
X79761Y189963D01*
X79774Y189978D01*
X79813Y190074D01*
X79856Y190168D01*
X79858Y190188D01*
X79866Y190206D01*
X79884Y190373D01*
X79884Y197927D01*
X97663Y197927D01*
X97683Y197930D01*
X97702Y197928D01*
X97804Y197950D01*
X97906Y197967D01*
X97923Y197976D01*
X97943Y197980D01*
X98032Y198033D01*
X98123Y198082D01*
X98137Y198096D01*
X98154Y198106D01*
X98221Y198185D01*
X98292Y198260D01*
X98301Y198278D01*
X98314Y198293D01*
X98353Y198389D01*
X98396Y198483D01*
X98398Y198503D01*
X98406Y198521D01*
X98424Y198688D01*
X98424Y199451D01*
X99187Y199451D01*
X99207Y199454D01*
X99226Y199452D01*
X99328Y199474D01*
X99430Y199491D01*
X99447Y199500D01*
X99467Y199504D01*
X99556Y199557D01*
X99647Y199606D01*
X99661Y199620D01*
X99678Y199630D01*
X99745Y199709D01*
X99816Y199784D01*
X99825Y199802D01*
X99838Y199817D01*
X99877Y199913D01*
X99920Y200007D01*
X99922Y200027D01*
X99930Y200045D01*
X99948Y200212D01*
X99948Y210991D01*
X114759Y210991D01*
X115406Y210818D01*
X115985Y210483D01*
X116458Y210010D01*
X116793Y209431D01*
X116867Y209154D01*
X116877Y209132D01*
X116881Y209108D01*
X116927Y209020D01*
X116968Y208930D01*
X116984Y208912D01*
X116996Y208891D01*
X117068Y208822D01*
X117135Y208750D01*
X117156Y208738D01*
X117174Y208721D01*
X117264Y208680D01*
X117351Y208632D01*
X117375Y208628D01*
X117397Y208618D01*
X117496Y208607D01*
X117594Y208590D01*
X117618Y208593D01*
X117641Y208591D01*
X117738Y208612D01*
X117837Y208627D01*
X117858Y208638D01*
X117882Y208643D01*
X117967Y208694D01*
X118055Y208740D01*
X118072Y208757D01*
X118093Y208769D01*
X118158Y208845D01*
X118227Y208916D01*
X118237Y208938D01*
X118253Y208956D01*
X118290Y209048D01*
X118333Y209138D01*
X118336Y209162D01*
X118345Y209184D01*
X118363Y209351D01*
X118363Y235966D01*
X118360Y235986D01*
X118362Y236005D01*
X118340Y236107D01*
X118324Y236209D01*
X118314Y236226D01*
X118310Y236246D01*
X118257Y236335D01*
X118208Y236426D01*
X118194Y236440D01*
X118184Y236457D01*
X118105Y236524D01*
X118030Y236596D01*
X118012Y236604D01*
X117997Y236617D01*
X117901Y236656D01*
X117807Y236699D01*
X117787Y236701D01*
X117769Y236709D01*
X117602Y236727D01*
X109831Y236727D01*
X109760Y236716D01*
X109688Y236714D01*
X109639Y236696D01*
X109588Y236688D01*
X109525Y236654D01*
X109457Y236629D01*
X109417Y236597D01*
X109370Y236572D01*
X109321Y236520D01*
X109265Y236476D01*
X109237Y236432D01*
X109201Y236394D01*
X109171Y236329D01*
X109132Y236269D01*
X109119Y236218D01*
X109097Y236171D01*
X109090Y236100D01*
X109072Y236030D01*
X109076Y235978D01*
X109070Y235927D01*
X109086Y235856D01*
X109091Y235785D01*
X109112Y235737D01*
X109123Y235686D01*
X109159Y235625D01*
X109188Y235559D01*
X109232Y235503D01*
X109249Y235475D01*
X109267Y235460D01*
X109292Y235428D01*
X110745Y233975D01*
X110745Y231711D01*
X102362Y231711D01*
X102342Y231707D01*
X102323Y231710D01*
X102221Y231688D01*
X102119Y231671D01*
X102102Y231662D01*
X102082Y231657D01*
X101993Y231604D01*
X101902Y231556D01*
X101888Y231541D01*
X101871Y231531D01*
X101804Y231453D01*
X101733Y231378D01*
X101724Y231359D01*
X101711Y231344D01*
X101673Y231248D01*
X101629Y231154D01*
X101627Y231135D01*
X101619Y231116D01*
X101601Y230949D01*
X101601Y230187D01*
X101599Y230187D01*
X101599Y230949D01*
X101596Y230969D01*
X101598Y230989D01*
X101576Y231090D01*
X101559Y231192D01*
X101550Y231210D01*
X101546Y231229D01*
X101493Y231318D01*
X101444Y231410D01*
X101430Y231423D01*
X101420Y231440D01*
X101341Y231508D01*
X101266Y231579D01*
X101248Y231587D01*
X101233Y231600D01*
X101137Y231639D01*
X101043Y231683D01*
X101023Y231685D01*
X101005Y231692D01*
X100838Y231711D01*
X92455Y231711D01*
X92455Y233975D01*
X93908Y235428D01*
X93950Y235486D01*
X93999Y235538D01*
X94021Y235585D01*
X94051Y235627D01*
X94072Y235696D01*
X94103Y235761D01*
X94108Y235813D01*
X94124Y235863D01*
X94122Y235934D01*
X94130Y236005D01*
X94119Y236056D01*
X94117Y236108D01*
X94093Y236176D01*
X94077Y236246D01*
X94051Y236291D01*
X94033Y236339D01*
X93988Y236395D01*
X93951Y236457D01*
X93912Y236491D01*
X93879Y236531D01*
X93819Y236570D01*
X93764Y236617D01*
X93716Y236636D01*
X93672Y236664D01*
X93603Y236682D01*
X93536Y236709D01*
X93465Y236717D01*
X93434Y236725D01*
X93410Y236723D01*
X93369Y236727D01*
X38076Y236727D01*
X38005Y236716D01*
X37933Y236714D01*
X37884Y236696D01*
X37833Y236688D01*
X37770Y236654D01*
X37702Y236629D01*
X37662Y236597D01*
X37616Y236572D01*
X37566Y236520D01*
X37510Y236476D01*
X37482Y236432D01*
X37446Y236394D01*
X37416Y236329D01*
X37377Y236269D01*
X37364Y236218D01*
X37343Y236171D01*
X37335Y236100D01*
X37317Y236030D01*
X37321Y235978D01*
X37315Y235927D01*
X37331Y235856D01*
X37336Y235785D01*
X37357Y235737D01*
X37368Y235686D01*
X37404Y235625D01*
X37433Y235559D01*
X37477Y235503D01*
X37494Y235475D01*
X37512Y235460D01*
X37537Y235428D01*
X39185Y233780D01*
X40577Y230419D01*
X40577Y226781D01*
X39185Y223420D01*
X36613Y220847D01*
X33251Y219455D01*
X14374Y219455D01*
X11012Y220847D01*
X9047Y222813D01*
X8989Y222854D01*
X8937Y222904D01*
X8890Y222926D01*
X8848Y222956D01*
X8779Y222977D01*
X8714Y223007D01*
X8662Y223013D01*
X8612Y223029D01*
X8541Y223027D01*
X8470Y223035D01*
X8419Y223024D01*
X8367Y223022D01*
X8299Y222998D01*
X8229Y222982D01*
X8184Y222956D01*
X8136Y222938D01*
X8080Y222893D01*
X8018Y222856D01*
X7984Y222817D01*
X7944Y222784D01*
X7905Y222724D01*
X7858Y222669D01*
X7839Y222621D01*
X7811Y222577D01*
X7793Y222508D01*
X7766Y222441D01*
X7758Y222370D01*
X7750Y222339D01*
X7752Y222315D01*
X7748Y222274D01*
X7748Y210962D01*
X7759Y210892D01*
X7761Y210820D01*
X7779Y210771D01*
X7787Y210720D01*
X7821Y210656D01*
X7846Y210589D01*
X7878Y210548D01*
X7903Y210502D01*
X7955Y210453D01*
X7999Y210397D01*
X8043Y210369D01*
X8081Y210333D01*
X8146Y210303D01*
X8206Y210264D01*
X8257Y210251D01*
X8304Y210229D01*
X8375Y210221D01*
X8445Y210204D01*
X8497Y210208D01*
X8548Y210202D01*
X8619Y210218D01*
X8690Y210223D01*
X8738Y210243D01*
X8789Y210255D01*
X8850Y210291D01*
X8916Y210319D01*
X8972Y210364D01*
X9000Y210381D01*
X9015Y210398D01*
X9047Y210424D01*
X9573Y210950D01*
X10867Y211890D01*
X12292Y212616D01*
X13813Y213111D01*
X15393Y213361D01*
X22289Y213361D01*
X22289Y203962D01*
X22292Y203942D01*
X22290Y203923D01*
X22312Y203821D01*
X22329Y203719D01*
X22338Y203702D01*
X22343Y203682D01*
X22396Y203593D01*
X22444Y203502D01*
X22459Y203488D01*
X22469Y203471D01*
X22547Y203404D01*
X22622Y203333D01*
X22640Y203324D01*
X22656Y203311D01*
X22752Y203273D01*
X22846Y203229D01*
X22865Y203227D01*
X22884Y203219D01*
X23051Y203201D01*
X23813Y203201D01*
X23813Y203199D01*
X23051Y203199D01*
X23031Y203196D01*
X23011Y203198D01*
X22910Y203176D01*
X22808Y203159D01*
X22790Y203150D01*
X22771Y203146D01*
X22682Y203093D01*
X22590Y203044D01*
X22577Y203030D01*
X22560Y203020D01*
X22492Y202941D01*
X22421Y202866D01*
X22413Y202848D01*
X22400Y202833D01*
X22361Y202737D01*
X22317Y202643D01*
X22315Y202623D01*
X22308Y202605D01*
X22289Y202438D01*
X22289Y193039D01*
X15393Y193039D01*
X13813Y193289D01*
X12292Y193784D01*
X10867Y194510D01*
X9573Y195450D01*
X9047Y195976D01*
X8989Y196018D01*
X8937Y196067D01*
X8890Y196089D01*
X8848Y196119D01*
X8779Y196140D01*
X8714Y196171D01*
X8662Y196176D01*
X8612Y196192D01*
X8541Y196190D01*
X8470Y196198D01*
X8419Y196187D01*
X8367Y196185D01*
X8299Y196161D01*
X8229Y196145D01*
X8184Y196119D01*
X8136Y196101D01*
X8080Y196056D01*
X8018Y196019D01*
X7984Y195980D01*
X7944Y195947D01*
X7905Y195887D01*
X7858Y195832D01*
X7839Y195784D01*
X7811Y195740D01*
X7793Y195671D01*
X7766Y195604D01*
X7758Y195533D01*
X7750Y195502D01*
X7752Y195478D01*
X7748Y195438D01*
X7748Y190373D01*
X7751Y190353D01*
X7749Y190334D01*
X7771Y190232D01*
X7787Y190130D01*
X7797Y190113D01*
X7801Y190093D01*
X7854Y190004D01*
X7903Y189913D01*
X7917Y189899D01*
X7927Y189882D01*
X8006Y189815D01*
X8081Y189743D01*
X8099Y189735D01*
X8114Y189722D01*
X8210Y189683D01*
X8304Y189640D01*
X8324Y189638D01*
X8342Y189630D01*
X8509Y189612D01*
X79123Y189612D01*
X79143Y189615D01*
G37*
G36*
X28665Y113554D02*
X28665Y113554D01*
X28756Y113561D01*
X28786Y113573D01*
X28818Y113579D01*
X28898Y113621D01*
X28982Y113657D01*
X29014Y113683D01*
X29035Y113694D01*
X29057Y113717D01*
X29113Y113762D01*
X43178Y127826D01*
X71122Y127826D01*
X74356Y124592D01*
X74430Y124539D01*
X74500Y124480D01*
X74530Y124468D01*
X74556Y124449D01*
X74643Y124422D01*
X74728Y124388D01*
X74769Y124383D01*
X74791Y124376D01*
X74823Y124377D01*
X74895Y124369D01*
X76811Y124369D01*
X77893Y123287D01*
X77967Y123234D01*
X78037Y123174D01*
X78067Y123162D01*
X78093Y123143D01*
X78180Y123116D01*
X78265Y123082D01*
X78306Y123078D01*
X78328Y123071D01*
X78360Y123072D01*
X78431Y123064D01*
X78731Y123064D01*
X78821Y123079D01*
X78912Y123086D01*
X78942Y123098D01*
X78974Y123104D01*
X79055Y123146D01*
X79138Y123182D01*
X79171Y123208D01*
X79191Y123219D01*
X79213Y123242D01*
X79269Y123287D01*
X80352Y124369D01*
X84748Y124369D01*
X85831Y123287D01*
X85905Y123234D01*
X85974Y123174D01*
X86004Y123162D01*
X86030Y123143D01*
X86117Y123116D01*
X86202Y123082D01*
X86243Y123078D01*
X86265Y123071D01*
X86298Y123072D01*
X86369Y123064D01*
X86669Y123064D01*
X86759Y123079D01*
X86850Y123086D01*
X86879Y123098D01*
X86911Y123104D01*
X86992Y123146D01*
X87076Y123182D01*
X87108Y123208D01*
X87129Y123219D01*
X87151Y123242D01*
X87207Y123287D01*
X88289Y124369D01*
X92686Y124369D01*
X93768Y123287D01*
X93842Y123234D01*
X93912Y123174D01*
X93942Y123162D01*
X93968Y123143D01*
X94055Y123116D01*
X94140Y123082D01*
X94181Y123078D01*
X94203Y123071D01*
X94235Y123072D01*
X94306Y123064D01*
X94606Y123064D01*
X94696Y123079D01*
X94787Y123086D01*
X94817Y123098D01*
X94849Y123104D01*
X94930Y123146D01*
X95013Y123182D01*
X95046Y123208D01*
X95066Y123219D01*
X95088Y123242D01*
X95144Y123287D01*
X96227Y124369D01*
X100623Y124369D01*
X101706Y123287D01*
X101780Y123234D01*
X101849Y123174D01*
X101879Y123162D01*
X101905Y123143D01*
X101992Y123116D01*
X102077Y123082D01*
X102118Y123078D01*
X102140Y123071D01*
X102173Y123072D01*
X102244Y123064D01*
X102544Y123064D01*
X102634Y123079D01*
X102725Y123086D01*
X102754Y123098D01*
X102786Y123104D01*
X102867Y123146D01*
X102951Y123182D01*
X102983Y123208D01*
X103004Y123219D01*
X103026Y123242D01*
X103082Y123287D01*
X104164Y124369D01*
X108561Y124369D01*
X109643Y123287D01*
X109717Y123234D01*
X109787Y123174D01*
X109817Y123162D01*
X109843Y123143D01*
X109930Y123116D01*
X110015Y123082D01*
X110056Y123078D01*
X110078Y123071D01*
X110110Y123072D01*
X110181Y123064D01*
X110481Y123064D01*
X110571Y123079D01*
X110662Y123086D01*
X110692Y123098D01*
X110724Y123104D01*
X110805Y123146D01*
X110888Y123182D01*
X110921Y123208D01*
X110941Y123219D01*
X110963Y123242D01*
X111019Y123287D01*
X112102Y124369D01*
X116498Y124369D01*
X117581Y123287D01*
X117655Y123234D01*
X117724Y123174D01*
X117754Y123162D01*
X117780Y123143D01*
X117867Y123116D01*
X117952Y123082D01*
X117993Y123078D01*
X118015Y123071D01*
X118048Y123072D01*
X118119Y123064D01*
X118419Y123064D01*
X118509Y123079D01*
X118600Y123086D01*
X118629Y123098D01*
X118661Y123104D01*
X118742Y123146D01*
X118826Y123182D01*
X118858Y123208D01*
X118879Y123219D01*
X118901Y123242D01*
X118957Y123287D01*
X120039Y124369D01*
X121955Y124369D01*
X122046Y124384D01*
X122136Y124391D01*
X122166Y124404D01*
X122198Y124409D01*
X122279Y124452D01*
X122363Y124487D01*
X122395Y124513D01*
X122416Y124524D01*
X122438Y124547D01*
X122494Y124592D01*
X125728Y127826D01*
X182563Y127826D01*
X182582Y127829D01*
X182602Y127827D01*
X182703Y127849D01*
X182805Y127866D01*
X182823Y127875D01*
X182842Y127880D01*
X182931Y127933D01*
X183023Y127981D01*
X183036Y127996D01*
X183053Y128006D01*
X183121Y128084D01*
X183192Y128159D01*
X183200Y128177D01*
X183213Y128193D01*
X183252Y128289D01*
X183296Y128383D01*
X183298Y128402D01*
X183305Y128421D01*
X183324Y128588D01*
X183324Y138113D01*
X183321Y138132D01*
X183323Y138152D01*
X183301Y138253D01*
X183284Y138355D01*
X183275Y138373D01*
X183270Y138392D01*
X183217Y138481D01*
X183169Y138573D01*
X183155Y138586D01*
X183144Y138603D01*
X183066Y138671D01*
X182991Y138742D01*
X182973Y138750D01*
X182957Y138763D01*
X182861Y138802D01*
X182768Y138846D01*
X182748Y138848D01*
X182729Y138855D01*
X182563Y138874D01*
X125831Y138874D01*
X125741Y138859D01*
X125650Y138852D01*
X125620Y138839D01*
X125589Y138834D01*
X125508Y138791D01*
X125424Y138756D01*
X125392Y138730D01*
X125371Y138719D01*
X125349Y138696D01*
X125293Y138651D01*
X124436Y137793D01*
X120705Y137793D01*
X120615Y137779D01*
X120524Y137772D01*
X120494Y137759D01*
X120462Y137754D01*
X120382Y137711D01*
X120298Y137675D01*
X120266Y137650D01*
X120245Y137639D01*
X120223Y137615D01*
X120167Y137570D01*
X115247Y132651D01*
X80015Y132651D01*
X75321Y137345D01*
X75247Y137398D01*
X75177Y137458D01*
X75147Y137470D01*
X75121Y137489D01*
X75034Y137516D01*
X74949Y137550D01*
X74908Y137554D01*
X74886Y137561D01*
X74854Y137560D01*
X74782Y137568D01*
X72414Y137568D01*
X71332Y138651D01*
X71258Y138704D01*
X71188Y138763D01*
X71158Y138775D01*
X71132Y138794D01*
X71045Y138821D01*
X70960Y138855D01*
X70919Y138860D01*
X70897Y138867D01*
X70865Y138866D01*
X70794Y138874D01*
X8509Y138874D01*
X8489Y138871D01*
X8470Y138873D01*
X8368Y138851D01*
X8266Y138834D01*
X8249Y138825D01*
X8229Y138820D01*
X8140Y138767D01*
X8049Y138719D01*
X8035Y138705D01*
X8018Y138694D01*
X7951Y138616D01*
X7879Y138541D01*
X7871Y138523D01*
X7858Y138507D01*
X7819Y138411D01*
X7776Y138318D01*
X7774Y138298D01*
X7766Y138279D01*
X7748Y138113D01*
X7748Y114300D01*
X7751Y114280D01*
X7749Y114261D01*
X7771Y114159D01*
X7787Y114057D01*
X7797Y114040D01*
X7801Y114020D01*
X7854Y113931D01*
X7903Y113840D01*
X7917Y113826D01*
X7927Y113809D01*
X8006Y113742D01*
X8081Y113671D01*
X8099Y113662D01*
X8114Y113649D01*
X8210Y113610D01*
X8304Y113567D01*
X8324Y113565D01*
X8342Y113557D01*
X8509Y113539D01*
X28575Y113539D01*
X28665Y113554D01*
G37*
G36*
X274733Y42684D02*
X274733Y42684D01*
X274804Y42686D01*
X274853Y42704D01*
X274905Y42712D01*
X274968Y42746D01*
X275035Y42771D01*
X275076Y42803D01*
X275122Y42828D01*
X275171Y42880D01*
X275227Y42924D01*
X275256Y42968D01*
X275291Y43006D01*
X275322Y43071D01*
X275360Y43131D01*
X275373Y43182D01*
X275395Y43229D01*
X275403Y43300D01*
X275420Y43370D01*
X275416Y43422D01*
X275422Y43473D01*
X275407Y43544D01*
X275401Y43615D01*
X275381Y43663D01*
X275370Y43714D01*
X275333Y43775D01*
X275305Y43841D01*
X275260Y43897D01*
X275244Y43925D01*
X275226Y43940D01*
X275200Y43972D01*
X273552Y45620D01*
X272160Y48981D01*
X272160Y52619D01*
X273552Y55980D01*
X276125Y58553D01*
X276355Y58648D01*
X276394Y58672D01*
X276437Y58688D01*
X276498Y58736D01*
X276564Y58777D01*
X276593Y58813D01*
X276629Y58841D01*
X276671Y58907D01*
X276721Y58967D01*
X276737Y59010D01*
X276762Y59048D01*
X276781Y59124D01*
X276809Y59196D01*
X276811Y59242D01*
X276822Y59287D01*
X276816Y59364D01*
X276819Y59442D01*
X276806Y59486D01*
X276803Y59532D01*
X276772Y59604D01*
X276751Y59678D01*
X276725Y59716D01*
X276707Y59758D01*
X276621Y59865D01*
X276610Y59880D01*
X276606Y59883D01*
X276602Y59889D01*
X266928Y69563D01*
X265366Y71125D01*
X265366Y78995D01*
X265354Y79065D01*
X265352Y79137D01*
X265334Y79186D01*
X265326Y79237D01*
X265292Y79301D01*
X265268Y79368D01*
X265235Y79409D01*
X265211Y79455D01*
X265159Y79504D01*
X265114Y79560D01*
X265070Y79588D01*
X265033Y79624D01*
X264968Y79654D01*
X264907Y79693D01*
X264857Y79706D01*
X264810Y79728D01*
X264738Y79736D01*
X264669Y79753D01*
X264617Y79749D01*
X264565Y79755D01*
X264495Y79740D01*
X264424Y79734D01*
X264376Y79714D01*
X264325Y79703D01*
X264263Y79666D01*
X264197Y79638D01*
X264141Y79593D01*
X264114Y79576D01*
X264098Y79559D01*
X264066Y79533D01*
X262130Y77596D01*
X255395Y77596D01*
X250634Y82358D01*
X250634Y85344D01*
X250631Y85364D01*
X250633Y85383D01*
X250611Y85485D01*
X250594Y85587D01*
X250585Y85604D01*
X250580Y85624D01*
X250527Y85713D01*
X250479Y85804D01*
X250465Y85818D01*
X250454Y85835D01*
X250376Y85902D01*
X250301Y85974D01*
X250283Y85982D01*
X250267Y85995D01*
X250171Y86034D01*
X250078Y86077D01*
X250058Y86079D01*
X250039Y86087D01*
X249873Y86105D01*
X237998Y86105D01*
X237978Y86102D01*
X237959Y86104D01*
X237857Y86082D01*
X237755Y86066D01*
X237738Y86056D01*
X237718Y86052D01*
X237629Y85999D01*
X237538Y85950D01*
X237524Y85936D01*
X237507Y85926D01*
X237440Y85847D01*
X237368Y85772D01*
X237360Y85754D01*
X237347Y85739D01*
X237308Y85643D01*
X237265Y85549D01*
X237263Y85529D01*
X237255Y85511D01*
X237237Y85344D01*
X237237Y77152D01*
X237240Y77133D01*
X237238Y77113D01*
X237260Y77012D01*
X237276Y76910D01*
X237286Y76892D01*
X237290Y76873D01*
X237343Y76784D01*
X237392Y76692D01*
X237406Y76679D01*
X237416Y76662D01*
X237495Y76594D01*
X237570Y76523D01*
X237588Y76515D01*
X237603Y76502D01*
X237699Y76463D01*
X237793Y76419D01*
X237813Y76417D01*
X237831Y76410D01*
X237998Y76391D01*
X238317Y76391D01*
X243079Y71630D01*
X243079Y64895D01*
X238317Y60134D01*
X231583Y60134D01*
X231357Y60359D01*
X231341Y60371D01*
X231329Y60387D01*
X231242Y60443D01*
X231158Y60503D01*
X231139Y60509D01*
X231122Y60520D01*
X231021Y60545D01*
X230923Y60575D01*
X230903Y60575D01*
X230883Y60580D01*
X230780Y60572D01*
X230677Y60569D01*
X230658Y60562D01*
X230638Y60561D01*
X230543Y60520D01*
X230446Y60484D01*
X230430Y60472D01*
X230412Y60464D01*
X230281Y60359D01*
X224785Y54863D01*
X193040Y54863D01*
X193020Y54860D01*
X193001Y54862D01*
X192899Y54840D01*
X192797Y54824D01*
X192780Y54814D01*
X192760Y54810D01*
X192671Y54757D01*
X192580Y54708D01*
X192566Y54694D01*
X192549Y54684D01*
X192482Y54605D01*
X192410Y54530D01*
X192402Y54512D01*
X192389Y54497D01*
X192350Y54401D01*
X192307Y54307D01*
X192305Y54287D01*
X192297Y54269D01*
X192279Y54102D01*
X192279Y53783D01*
X187517Y49021D01*
X180783Y49021D01*
X176493Y53311D01*
X176477Y53323D01*
X176465Y53338D01*
X176378Y53394D01*
X176294Y53454D01*
X176275Y53460D01*
X176258Y53471D01*
X176157Y53496D01*
X176059Y53527D01*
X176039Y53526D01*
X176019Y53531D01*
X175916Y53523D01*
X175813Y53520D01*
X175794Y53514D01*
X175774Y53512D01*
X175679Y53472D01*
X175582Y53436D01*
X175566Y53423D01*
X175548Y53416D01*
X175417Y53311D01*
X166078Y43972D01*
X166036Y43914D01*
X165987Y43862D01*
X165965Y43815D01*
X165935Y43773D01*
X165914Y43704D01*
X165883Y43639D01*
X165878Y43587D01*
X165862Y43537D01*
X165864Y43466D01*
X165856Y43395D01*
X165867Y43344D01*
X165869Y43292D01*
X165893Y43224D01*
X165908Y43154D01*
X165935Y43110D01*
X165953Y43061D01*
X165998Y43005D01*
X166035Y42943D01*
X166074Y42909D01*
X166107Y42869D01*
X166167Y42830D01*
X166222Y42783D01*
X166270Y42764D01*
X166314Y42736D01*
X166383Y42718D01*
X166450Y42691D01*
X166521Y42683D01*
X166552Y42675D01*
X166576Y42677D01*
X166616Y42673D01*
X274662Y42673D01*
X274733Y42684D01*
G37*
G36*
X68353Y140541D02*
X68353Y140541D01*
X68444Y140548D01*
X68473Y140561D01*
X68505Y140566D01*
X68586Y140609D01*
X68670Y140644D01*
X68702Y140670D01*
X68723Y140681D01*
X68745Y140704D01*
X68801Y140749D01*
X69083Y141031D01*
X69136Y141105D01*
X69195Y141175D01*
X69208Y141205D01*
X69226Y141231D01*
X69253Y141318D01*
X69287Y141403D01*
X69292Y141444D01*
X69299Y141466D01*
X69298Y141498D01*
X69306Y141570D01*
X69306Y145073D01*
X72414Y148182D01*
X75918Y148182D01*
X76008Y148196D01*
X76099Y148204D01*
X76129Y148216D01*
X76161Y148221D01*
X76241Y148264D01*
X76325Y148300D01*
X76357Y148326D01*
X76378Y148337D01*
X76400Y148360D01*
X76456Y148405D01*
X80677Y152626D01*
X80730Y152700D01*
X80790Y152769D01*
X80802Y152799D01*
X80821Y152825D01*
X80848Y152912D01*
X80882Y152997D01*
X80886Y153038D01*
X80893Y153061D01*
X80893Y153074D01*
X81793Y153975D01*
X115057Y153975D01*
X115965Y153066D01*
X115972Y152983D01*
X115984Y152953D01*
X115989Y152921D01*
X116032Y152841D01*
X116068Y152757D01*
X116094Y152725D01*
X116105Y152704D01*
X116128Y152682D01*
X116173Y152626D01*
X120169Y148630D01*
X120243Y148577D01*
X120312Y148517D01*
X120342Y148505D01*
X120368Y148486D01*
X120455Y148460D01*
X120540Y148425D01*
X120581Y148421D01*
X120603Y148414D01*
X120636Y148415D01*
X120707Y148407D01*
X124436Y148407D01*
X125743Y147099D01*
X125817Y147046D01*
X125887Y146987D01*
X125917Y146975D01*
X125943Y146956D01*
X126030Y146929D01*
X126115Y146895D01*
X126156Y146890D01*
X126178Y146883D01*
X126210Y146884D01*
X126282Y146876D01*
X182563Y146876D01*
X182582Y146879D01*
X182602Y146877D01*
X182703Y146899D01*
X182805Y146916D01*
X182823Y146925D01*
X182842Y146930D01*
X182931Y146983D01*
X183023Y147031D01*
X183036Y147046D01*
X183053Y147056D01*
X183121Y147134D01*
X183192Y147209D01*
X183200Y147227D01*
X183213Y147243D01*
X183252Y147339D01*
X183296Y147433D01*
X183298Y147452D01*
X183305Y147471D01*
X183324Y147638D01*
X183324Y150813D01*
X183321Y150832D01*
X183323Y150852D01*
X183301Y150953D01*
X183284Y151055D01*
X183275Y151073D01*
X183270Y151092D01*
X183217Y151181D01*
X183169Y151273D01*
X183155Y151286D01*
X183144Y151303D01*
X183066Y151371D01*
X182991Y151442D01*
X182973Y151450D01*
X182957Y151463D01*
X182861Y151502D01*
X182768Y151546D01*
X182748Y151548D01*
X182729Y151555D01*
X182563Y151574D01*
X125728Y151574D01*
X119601Y157701D01*
X119527Y157754D01*
X119457Y157813D01*
X119427Y157826D01*
X119401Y157844D01*
X119314Y157871D01*
X119229Y157905D01*
X119188Y157910D01*
X119166Y157917D01*
X119134Y157916D01*
X119063Y157924D01*
X40003Y157924D01*
X32288Y165638D01*
X32214Y165691D01*
X32145Y165751D01*
X32115Y165763D01*
X32089Y165782D01*
X32002Y165809D01*
X31917Y165843D01*
X31876Y165847D01*
X31853Y165854D01*
X31821Y165853D01*
X31750Y165861D01*
X8509Y165861D01*
X8489Y165858D01*
X8470Y165860D01*
X8368Y165838D01*
X8266Y165822D01*
X8249Y165812D01*
X8229Y165808D01*
X8140Y165755D01*
X8049Y165706D01*
X8035Y165692D01*
X8018Y165682D01*
X7951Y165603D01*
X7879Y165528D01*
X7871Y165510D01*
X7858Y165495D01*
X7819Y165399D01*
X7776Y165305D01*
X7774Y165285D01*
X7766Y165267D01*
X7748Y165100D01*
X7748Y141288D01*
X7751Y141268D01*
X7749Y141248D01*
X7771Y141147D01*
X7787Y141045D01*
X7797Y141027D01*
X7801Y141008D01*
X7854Y140919D01*
X7903Y140827D01*
X7917Y140814D01*
X7927Y140797D01*
X8006Y140729D01*
X8081Y140658D01*
X8099Y140650D01*
X8114Y140637D01*
X8210Y140598D01*
X8304Y140554D01*
X8324Y140552D01*
X8342Y140545D01*
X8509Y140526D01*
X68263Y140526D01*
X68353Y140541D01*
G37*
G36*
X127090Y108791D02*
X127090Y108791D01*
X127181Y108798D01*
X127211Y108811D01*
X127243Y108816D01*
X127323Y108859D01*
X127407Y108894D01*
X127439Y108920D01*
X127460Y108931D01*
X127482Y108954D01*
X127538Y108999D01*
X133665Y115126D01*
X182563Y115126D01*
X182582Y115129D01*
X182602Y115127D01*
X182703Y115149D01*
X182805Y115166D01*
X182823Y115175D01*
X182842Y115180D01*
X182931Y115233D01*
X183023Y115281D01*
X183036Y115296D01*
X183053Y115306D01*
X183121Y115384D01*
X183192Y115459D01*
X183200Y115477D01*
X183213Y115493D01*
X183252Y115589D01*
X183296Y115683D01*
X183298Y115702D01*
X183305Y115721D01*
X183324Y115888D01*
X183324Y119063D01*
X183321Y119082D01*
X183323Y119102D01*
X183301Y119203D01*
X183284Y119305D01*
X183275Y119323D01*
X183270Y119342D01*
X183217Y119431D01*
X183169Y119523D01*
X183155Y119536D01*
X183144Y119553D01*
X183066Y119621D01*
X182991Y119692D01*
X182973Y119700D01*
X182957Y119713D01*
X182861Y119752D01*
X182768Y119796D01*
X182748Y119798D01*
X182729Y119805D01*
X182563Y119824D01*
X131763Y119824D01*
X131672Y119809D01*
X131582Y119802D01*
X131552Y119789D01*
X131520Y119784D01*
X131439Y119741D01*
X131355Y119706D01*
X131323Y119680D01*
X131302Y119669D01*
X131280Y119646D01*
X131224Y119601D01*
X125097Y113474D01*
X73340Y113474D01*
X73281Y113533D01*
X73207Y113586D01*
X73138Y113645D01*
X73108Y113658D01*
X73081Y113676D01*
X72995Y113703D01*
X72910Y113737D01*
X72869Y113742D01*
X72846Y113749D01*
X72814Y113748D01*
X72743Y113756D01*
X72414Y113756D01*
X71205Y114965D01*
X71131Y115018D01*
X71061Y115078D01*
X71031Y115090D01*
X71005Y115109D01*
X70918Y115136D01*
X70833Y115170D01*
X70792Y115174D01*
X70770Y115181D01*
X70738Y115180D01*
X70667Y115188D01*
X70490Y115188D01*
X69151Y116528D01*
X69151Y121597D01*
X70388Y122835D01*
X70441Y122909D01*
X70501Y122978D01*
X70513Y123008D01*
X70532Y123034D01*
X70559Y123121D01*
X70593Y123206D01*
X70597Y123247D01*
X70604Y123270D01*
X70603Y123302D01*
X70611Y123373D01*
X70611Y125413D01*
X70608Y125432D01*
X70610Y125452D01*
X70588Y125553D01*
X70572Y125655D01*
X70562Y125673D01*
X70558Y125692D01*
X70505Y125781D01*
X70456Y125873D01*
X70442Y125886D01*
X70432Y125903D01*
X70353Y125971D01*
X70278Y126042D01*
X70260Y126050D01*
X70245Y126063D01*
X70149Y126102D01*
X70055Y126146D01*
X70035Y126148D01*
X70017Y126155D01*
X69850Y126174D01*
X43998Y126174D01*
X43908Y126159D01*
X43817Y126152D01*
X43787Y126139D01*
X43755Y126134D01*
X43675Y126091D01*
X43591Y126056D01*
X43558Y126030D01*
X43538Y126019D01*
X43516Y125996D01*
X43460Y125951D01*
X42324Y124815D01*
X42271Y124741D01*
X42212Y124672D01*
X42200Y124642D01*
X42181Y124616D01*
X42154Y124528D01*
X42120Y124444D01*
X42115Y124403D01*
X42108Y124380D01*
X42109Y124348D01*
X42101Y124277D01*
X42101Y109538D01*
X42104Y109518D01*
X42102Y109498D01*
X42124Y109397D01*
X42141Y109295D01*
X42150Y109277D01*
X42155Y109258D01*
X42208Y109169D01*
X42256Y109077D01*
X42271Y109064D01*
X42281Y109047D01*
X42359Y108979D01*
X42434Y108908D01*
X42452Y108900D01*
X42468Y108887D01*
X42564Y108848D01*
X42658Y108804D01*
X42677Y108802D01*
X42696Y108795D01*
X42863Y108776D01*
X127000Y108776D01*
X127090Y108791D01*
G37*
G36*
X114390Y134191D02*
X114390Y134191D01*
X114481Y134198D01*
X114511Y134211D01*
X114543Y134216D01*
X114623Y134259D01*
X114707Y134294D01*
X114739Y134320D01*
X114760Y134331D01*
X114782Y134354D01*
X114838Y134399D01*
X120965Y140526D01*
X180975Y140526D01*
X180995Y140529D01*
X181014Y140527D01*
X181116Y140549D01*
X181218Y140566D01*
X181235Y140575D01*
X181255Y140580D01*
X181344Y140633D01*
X181435Y140681D01*
X181449Y140696D01*
X181466Y140706D01*
X181533Y140784D01*
X181605Y140859D01*
X181613Y140877D01*
X181626Y140893D01*
X181665Y140989D01*
X181708Y141083D01*
X181710Y141102D01*
X181718Y141121D01*
X181736Y141288D01*
X181736Y144590D01*
X181733Y144609D01*
X181735Y144629D01*
X181713Y144730D01*
X181697Y144832D01*
X181687Y144850D01*
X181683Y144869D01*
X181630Y144958D01*
X181581Y145050D01*
X181567Y145063D01*
X181557Y145080D01*
X181478Y145148D01*
X181403Y145219D01*
X181385Y145227D01*
X181370Y145240D01*
X181274Y145279D01*
X181180Y145323D01*
X181160Y145325D01*
X181142Y145332D01*
X180975Y145351D01*
X121290Y145351D01*
X120053Y146588D01*
X119979Y146641D01*
X119909Y146701D01*
X119879Y146713D01*
X119853Y146732D01*
X119766Y146759D01*
X119681Y146793D01*
X119640Y146797D01*
X119618Y146804D01*
X119586Y146803D01*
X119515Y146811D01*
X119378Y146811D01*
X114838Y151351D01*
X114764Y151404D01*
X114695Y151463D01*
X114665Y151476D01*
X114639Y151494D01*
X114552Y151521D01*
X114467Y151555D01*
X114426Y151560D01*
X114403Y151567D01*
X114371Y151566D01*
X114300Y151574D01*
X82550Y151574D01*
X82460Y151559D01*
X82369Y151552D01*
X82339Y151539D01*
X82307Y151534D01*
X82227Y151491D01*
X82143Y151456D01*
X82111Y151430D01*
X82090Y151419D01*
X82068Y151396D01*
X82012Y151351D01*
X77472Y146811D01*
X77335Y146811D01*
X77245Y146797D01*
X77154Y146789D01*
X77125Y146777D01*
X77093Y146772D01*
X77012Y146729D01*
X76928Y146693D01*
X76896Y146667D01*
X76875Y146656D01*
X76853Y146633D01*
X76797Y146588D01*
X72035Y141826D01*
X71993Y141768D01*
X71943Y141716D01*
X71921Y141668D01*
X71891Y141626D01*
X71870Y141558D01*
X71840Y141493D01*
X71834Y141441D01*
X71819Y141391D01*
X71821Y141319D01*
X71813Y141248D01*
X71824Y141197D01*
X71825Y141145D01*
X71850Y141078D01*
X71865Y141008D01*
X71892Y140963D01*
X71910Y140914D01*
X71954Y140858D01*
X71991Y140797D01*
X72031Y140763D01*
X72063Y140722D01*
X72124Y140683D01*
X72178Y140637D01*
X72226Y140617D01*
X72270Y140589D01*
X72340Y140572D01*
X72406Y140545D01*
X72478Y140537D01*
X72509Y140529D01*
X72532Y140531D01*
X72573Y140526D01*
X75439Y140526D01*
X75439Y139700D01*
X75454Y139610D01*
X75461Y139519D01*
X75473Y139489D01*
X75479Y139457D01*
X75521Y139377D01*
X75557Y139293D01*
X75583Y139261D01*
X75594Y139240D01*
X75617Y139218D01*
X75662Y139162D01*
X80424Y134399D01*
X80498Y134346D01*
X80568Y134287D01*
X80598Y134275D01*
X80624Y134256D01*
X80711Y134229D01*
X80796Y134195D01*
X80837Y134190D01*
X80859Y134183D01*
X80891Y134184D01*
X80963Y134176D01*
X114300Y134176D01*
X114390Y134191D01*
G37*
G36*
X203676Y59448D02*
X203676Y59448D01*
X203748Y59450D01*
X203797Y59468D01*
X203848Y59476D01*
X203911Y59510D01*
X203979Y59535D01*
X204019Y59567D01*
X204066Y59592D01*
X204115Y59644D01*
X204171Y59688D01*
X204199Y59732D01*
X204235Y59770D01*
X204265Y59835D01*
X204304Y59895D01*
X204317Y59946D01*
X204339Y59993D01*
X204346Y60064D01*
X204364Y60134D01*
X204360Y60186D01*
X204366Y60237D01*
X204350Y60308D01*
X204345Y60379D01*
X204324Y60427D01*
X204313Y60478D01*
X204277Y60539D01*
X204248Y60605D01*
X204204Y60661D01*
X204187Y60689D01*
X204169Y60704D01*
X204144Y60736D01*
X200405Y64475D01*
X200405Y66739D01*
X208788Y66739D01*
X208808Y66742D01*
X208827Y66740D01*
X208929Y66762D01*
X209031Y66779D01*
X209048Y66788D01*
X209068Y66793D01*
X209157Y66846D01*
X209248Y66894D01*
X209262Y66909D01*
X209279Y66919D01*
X209346Y66997D01*
X209417Y67072D01*
X209426Y67090D01*
X209439Y67106D01*
X209477Y67202D01*
X209521Y67296D01*
X209523Y67315D01*
X209531Y67334D01*
X209549Y67501D01*
X209549Y68263D01*
X209551Y68263D01*
X209551Y67501D01*
X209554Y67481D01*
X209552Y67461D01*
X209574Y67360D01*
X209591Y67258D01*
X209600Y67240D01*
X209604Y67221D01*
X209657Y67132D01*
X209706Y67040D01*
X209720Y67027D01*
X209730Y67010D01*
X209809Y66942D01*
X209884Y66871D01*
X209902Y66863D01*
X209917Y66850D01*
X210013Y66811D01*
X210107Y66767D01*
X210127Y66765D01*
X210145Y66758D01*
X210312Y66739D01*
X218695Y66739D01*
X218695Y64475D01*
X214956Y60736D01*
X214914Y60678D01*
X214865Y60626D01*
X214843Y60579D01*
X214813Y60537D01*
X214792Y60468D01*
X214761Y60403D01*
X214756Y60351D01*
X214740Y60301D01*
X214742Y60230D01*
X214734Y60159D01*
X214745Y60108D01*
X214747Y60056D01*
X214771Y59988D01*
X214787Y59918D01*
X214813Y59873D01*
X214831Y59825D01*
X214876Y59769D01*
X214913Y59707D01*
X214952Y59673D01*
X214985Y59633D01*
X215045Y59594D01*
X215100Y59547D01*
X215148Y59528D01*
X215192Y59500D01*
X215261Y59482D01*
X215328Y59455D01*
X215399Y59447D01*
X215430Y59439D01*
X215454Y59441D01*
X215495Y59437D01*
X222575Y59437D01*
X222665Y59451D01*
X222756Y59459D01*
X222786Y59471D01*
X222818Y59476D01*
X222898Y59519D01*
X222982Y59555D01*
X223014Y59581D01*
X223035Y59592D01*
X223057Y59615D01*
X223113Y59660D01*
X227047Y63593D01*
X227059Y63609D01*
X227074Y63622D01*
X227130Y63709D01*
X227190Y63793D01*
X227196Y63812D01*
X227207Y63829D01*
X227232Y63929D01*
X227263Y64028D01*
X227262Y64048D01*
X227267Y64067D01*
X227259Y64170D01*
X227256Y64274D01*
X227250Y64293D01*
X227248Y64313D01*
X227208Y64408D01*
X227172Y64505D01*
X227159Y64521D01*
X227152Y64539D01*
X227047Y64670D01*
X226821Y64895D01*
X226821Y71630D01*
X231583Y76391D01*
X231902Y76391D01*
X231922Y76394D01*
X231941Y76392D01*
X232043Y76414D01*
X232145Y76431D01*
X232162Y76440D01*
X232182Y76445D01*
X232271Y76498D01*
X232362Y76546D01*
X232376Y76560D01*
X232393Y76571D01*
X232460Y76649D01*
X232532Y76724D01*
X232540Y76742D01*
X232553Y76758D01*
X232592Y76854D01*
X232635Y76947D01*
X232637Y76967D01*
X232645Y76986D01*
X232663Y77152D01*
X232663Y86875D01*
X232649Y86966D01*
X232641Y87056D01*
X232629Y87086D01*
X232624Y87118D01*
X232581Y87199D01*
X232545Y87283D01*
X232519Y87315D01*
X232508Y87336D01*
X232485Y87358D01*
X232440Y87414D01*
X232327Y87528D01*
X232253Y87581D01*
X232183Y87640D01*
X232153Y87652D01*
X232127Y87671D01*
X232040Y87698D01*
X231955Y87732D01*
X231914Y87737D01*
X231892Y87743D01*
X231860Y87743D01*
X231788Y87751D01*
X222436Y87751D01*
X221543Y88644D01*
X221543Y93555D01*
X221799Y93811D01*
X221811Y93827D01*
X221827Y93840D01*
X221883Y93927D01*
X221943Y94011D01*
X221949Y94030D01*
X221960Y94047D01*
X221985Y94147D01*
X222015Y94246D01*
X222015Y94266D01*
X222020Y94285D01*
X222012Y94388D01*
X222009Y94492D01*
X222002Y94510D01*
X222001Y94530D01*
X221960Y94625D01*
X221925Y94723D01*
X221912Y94738D01*
X221904Y94757D01*
X221799Y94888D01*
X221661Y95026D01*
X221587Y95079D01*
X221517Y95139D01*
X221487Y95151D01*
X221461Y95170D01*
X221374Y95197D01*
X221289Y95231D01*
X221248Y95235D01*
X221226Y95242D01*
X221194Y95241D01*
X221122Y95249D01*
X216147Y95249D01*
X216056Y95235D01*
X215966Y95227D01*
X215936Y95215D01*
X215904Y95210D01*
X215823Y95167D01*
X215739Y95131D01*
X215707Y95105D01*
X215686Y95094D01*
X215664Y95071D01*
X215608Y95026D01*
X209746Y89164D01*
X209693Y89090D01*
X209633Y89020D01*
X209621Y88990D01*
X209602Y88964D01*
X209575Y88877D01*
X209541Y88792D01*
X209537Y88751D01*
X209530Y88729D01*
X209531Y88697D01*
X209523Y88625D01*
X209523Y84670D01*
X206414Y81561D01*
X202018Y81561D01*
X198909Y84670D01*
X198909Y85634D01*
X198898Y85704D01*
X198896Y85776D01*
X198878Y85825D01*
X198870Y85876D01*
X198836Y85940D01*
X198811Y86007D01*
X198779Y86048D01*
X198754Y86094D01*
X198703Y86143D01*
X198658Y86199D01*
X198614Y86227D01*
X198576Y86263D01*
X198511Y86293D01*
X198451Y86332D01*
X198400Y86345D01*
X198353Y86367D01*
X198282Y86375D01*
X198212Y86392D01*
X198160Y86388D01*
X198109Y86394D01*
X198038Y86379D01*
X197967Y86373D01*
X197919Y86353D01*
X197868Y86342D01*
X197807Y86305D01*
X197741Y86277D01*
X197685Y86232D01*
X197657Y86215D01*
X197642Y86198D01*
X197610Y86172D01*
X193010Y81572D01*
X191311Y79873D01*
X191299Y79857D01*
X191284Y79844D01*
X191228Y79757D01*
X191167Y79673D01*
X191162Y79654D01*
X191151Y79638D01*
X191126Y79537D01*
X191095Y79438D01*
X191096Y79418D01*
X191091Y79399D01*
X191099Y79296D01*
X191101Y79192D01*
X191108Y79174D01*
X191110Y79154D01*
X191150Y79059D01*
X191186Y78961D01*
X191198Y78946D01*
X191206Y78927D01*
X191311Y78797D01*
X193295Y76813D01*
X193295Y74548D01*
X184912Y74548D01*
X184892Y74545D01*
X184873Y74547D01*
X184771Y74525D01*
X184669Y74508D01*
X184652Y74499D01*
X184632Y74495D01*
X184543Y74442D01*
X184452Y74393D01*
X184438Y74379D01*
X184421Y74369D01*
X184354Y74290D01*
X184283Y74215D01*
X184274Y74197D01*
X184261Y74182D01*
X184223Y74086D01*
X184179Y73992D01*
X184177Y73972D01*
X184169Y73954D01*
X184151Y73787D01*
X184151Y73024D01*
X183388Y73024D01*
X183368Y73021D01*
X183349Y73023D01*
X183247Y73001D01*
X183145Y72984D01*
X183128Y72975D01*
X183108Y72971D01*
X183019Y72918D01*
X182928Y72869D01*
X182914Y72855D01*
X182897Y72845D01*
X182830Y72766D01*
X182759Y72691D01*
X182750Y72673D01*
X182737Y72658D01*
X182698Y72562D01*
X182655Y72468D01*
X182653Y72448D01*
X182645Y72430D01*
X182627Y72263D01*
X182627Y66040D01*
X182630Y66020D01*
X182628Y66001D01*
X182650Y65899D01*
X182667Y65797D01*
X182676Y65780D01*
X182680Y65760D01*
X182733Y65671D01*
X182782Y65580D01*
X182796Y65566D01*
X182806Y65549D01*
X182885Y65482D01*
X182960Y65410D01*
X182978Y65402D01*
X182993Y65389D01*
X183089Y65350D01*
X183183Y65307D01*
X183203Y65305D01*
X183221Y65297D01*
X183388Y65279D01*
X184912Y65279D01*
X184932Y65282D01*
X184951Y65280D01*
X185053Y65302D01*
X185155Y65318D01*
X185172Y65328D01*
X185192Y65332D01*
X185281Y65385D01*
X185372Y65434D01*
X185386Y65448D01*
X185403Y65458D01*
X185470Y65537D01*
X185541Y65612D01*
X185550Y65630D01*
X185563Y65645D01*
X185602Y65741D01*
X185645Y65835D01*
X185647Y65855D01*
X185655Y65873D01*
X185673Y66040D01*
X185673Y71502D01*
X193295Y71502D01*
X193295Y69237D01*
X188965Y64907D01*
X188953Y64891D01*
X188938Y64879D01*
X188882Y64791D01*
X188821Y64708D01*
X188816Y64689D01*
X188805Y64672D01*
X188779Y64571D01*
X188749Y64473D01*
X188750Y64453D01*
X188745Y64433D01*
X188753Y64330D01*
X188755Y64227D01*
X188762Y64208D01*
X188764Y64188D01*
X188804Y64093D01*
X188840Y63996D01*
X188852Y63980D01*
X188860Y63962D01*
X188965Y63831D01*
X192279Y60517D01*
X192279Y60198D01*
X192282Y60178D01*
X192280Y60159D01*
X192302Y60057D01*
X192318Y59955D01*
X192328Y59938D01*
X192332Y59918D01*
X192385Y59829D01*
X192434Y59738D01*
X192448Y59724D01*
X192458Y59707D01*
X192537Y59640D01*
X192612Y59568D01*
X192630Y59560D01*
X192645Y59547D01*
X192741Y59508D01*
X192835Y59465D01*
X192855Y59463D01*
X192873Y59455D01*
X193040Y59437D01*
X203605Y59437D01*
X203676Y59448D01*
G37*
G36*
X271960Y154706D02*
X271960Y154706D01*
X272076Y154723D01*
X272082Y154725D01*
X272088Y154726D01*
X272191Y154781D01*
X272296Y154834D01*
X272300Y154839D01*
X272305Y154842D01*
X272385Y154926D01*
X272468Y155010D01*
X272471Y155016D01*
X272475Y155020D01*
X272483Y155037D01*
X272549Y155157D01*
X273552Y157580D01*
X276125Y160153D01*
X279486Y161545D01*
X298364Y161545D01*
X301725Y160153D01*
X303690Y158187D01*
X303748Y158146D01*
X303800Y158096D01*
X303848Y158074D01*
X303890Y158044D01*
X303958Y158023D01*
X304024Y157993D01*
X304075Y157987D01*
X304125Y157971D01*
X304197Y157973D01*
X304268Y157965D01*
X304319Y157976D01*
X304371Y157978D01*
X304438Y158002D01*
X304508Y158018D01*
X304553Y158044D01*
X304602Y158062D01*
X304658Y158107D01*
X304719Y158144D01*
X304753Y158183D01*
X304794Y158216D01*
X304833Y158276D01*
X304879Y158331D01*
X304899Y158379D01*
X304927Y158423D01*
X304944Y158492D01*
X304971Y158559D01*
X304979Y158630D01*
X304987Y158661D01*
X304985Y158685D01*
X304990Y158726D01*
X304990Y171474D01*
X304978Y171545D01*
X304976Y171617D01*
X304958Y171666D01*
X304950Y171717D01*
X304916Y171780D01*
X304892Y171848D01*
X304859Y171888D01*
X304835Y171934D01*
X304783Y171984D01*
X304738Y172040D01*
X304694Y172068D01*
X304657Y172104D01*
X304592Y172134D01*
X304531Y172173D01*
X304481Y172186D01*
X304434Y172207D01*
X304362Y172215D01*
X304293Y172233D01*
X304241Y172229D01*
X304189Y172235D01*
X304119Y172219D01*
X304048Y172214D01*
X304000Y172193D01*
X303949Y172182D01*
X303887Y172146D01*
X303821Y172117D01*
X303765Y172073D01*
X303738Y172056D01*
X303722Y172038D01*
X303690Y172013D01*
X301725Y170047D01*
X298364Y168655D01*
X279486Y168655D01*
X276125Y170047D01*
X273552Y172620D01*
X272549Y175043D01*
X272487Y175143D01*
X272427Y175243D01*
X272422Y175247D01*
X272419Y175252D01*
X272329Y175327D01*
X272240Y175403D01*
X272234Y175405D01*
X272230Y175409D01*
X272122Y175451D01*
X272012Y175495D01*
X272005Y175496D01*
X272000Y175497D01*
X271982Y175498D01*
X271845Y175513D01*
X263200Y175513D01*
X263110Y175499D01*
X263019Y175491D01*
X262989Y175479D01*
X262957Y175474D01*
X262877Y175431D01*
X262793Y175395D01*
X262761Y175369D01*
X262740Y175358D01*
X262718Y175335D01*
X262662Y175290D01*
X243358Y155986D01*
X243316Y155928D01*
X243266Y155876D01*
X243244Y155829D01*
X243214Y155787D01*
X243193Y155718D01*
X243163Y155653D01*
X243157Y155601D01*
X243142Y155551D01*
X243144Y155480D01*
X243136Y155409D01*
X243147Y155358D01*
X243148Y155306D01*
X243173Y155238D01*
X243188Y155168D01*
X243215Y155123D01*
X243233Y155075D01*
X243277Y155019D01*
X243314Y154957D01*
X243354Y154923D01*
X243386Y154883D01*
X243447Y154844D01*
X243501Y154797D01*
X243549Y154778D01*
X243593Y154750D01*
X243663Y154732D01*
X243729Y154705D01*
X243801Y154697D01*
X243832Y154689D01*
X243855Y154691D01*
X243896Y154687D01*
X271845Y154687D01*
X271960Y154706D01*
G37*
G36*
X163141Y96091D02*
X163141Y96091D01*
X163232Y96098D01*
X163262Y96111D01*
X163294Y96116D01*
X163374Y96159D01*
X163458Y96194D01*
X163490Y96220D01*
X163511Y96231D01*
X163533Y96254D01*
X163589Y96299D01*
X164051Y96761D01*
X164104Y96835D01*
X164163Y96904D01*
X164175Y96934D01*
X164194Y96961D01*
X164221Y97048D01*
X164255Y97132D01*
X164260Y97173D01*
X164267Y97196D01*
X164266Y97228D01*
X164274Y97299D01*
X164274Y107189D01*
X165474Y107189D01*
X165564Y107204D01*
X165655Y107211D01*
X165684Y107223D01*
X165716Y107229D01*
X165797Y107271D01*
X165881Y107307D01*
X165913Y107333D01*
X165934Y107344D01*
X165956Y107367D01*
X166012Y107412D01*
X166048Y107448D01*
X182563Y107448D01*
X182582Y107451D01*
X182602Y107449D01*
X182703Y107471D01*
X182805Y107488D01*
X182823Y107497D01*
X182842Y107502D01*
X182931Y107555D01*
X183023Y107603D01*
X183036Y107617D01*
X183053Y107628D01*
X183121Y107706D01*
X183192Y107781D01*
X183200Y107799D01*
X183213Y107815D01*
X183252Y107911D01*
X183296Y108004D01*
X183298Y108024D01*
X183305Y108043D01*
X183324Y108209D01*
X183324Y112713D01*
X183321Y112732D01*
X183323Y112752D01*
X183301Y112853D01*
X183284Y112955D01*
X183275Y112973D01*
X183270Y112992D01*
X183217Y113081D01*
X183169Y113173D01*
X183155Y113186D01*
X183144Y113203D01*
X183066Y113271D01*
X182991Y113342D01*
X182973Y113350D01*
X182957Y113363D01*
X182861Y113402D01*
X182768Y113446D01*
X182748Y113448D01*
X182729Y113455D01*
X182563Y113474D01*
X134938Y113474D01*
X134918Y113471D01*
X134898Y113473D01*
X134797Y113451D01*
X134695Y113434D01*
X134677Y113425D01*
X134658Y113420D01*
X134569Y113367D01*
X134477Y113319D01*
X134464Y113305D01*
X134447Y113294D01*
X134379Y113216D01*
X134308Y113141D01*
X134300Y113123D01*
X134287Y113107D01*
X134248Y113011D01*
X134204Y112918D01*
X134202Y112898D01*
X134195Y112879D01*
X134176Y112713D01*
X134176Y96838D01*
X134179Y96818D01*
X134177Y96798D01*
X134199Y96697D01*
X134216Y96595D01*
X134225Y96577D01*
X134230Y96558D01*
X134283Y96469D01*
X134331Y96377D01*
X134346Y96364D01*
X134356Y96347D01*
X134434Y96279D01*
X134509Y96208D01*
X134527Y96200D01*
X134543Y96187D01*
X134639Y96148D01*
X134733Y96104D01*
X134752Y96102D01*
X134771Y96095D01*
X134938Y96076D01*
X163051Y96076D01*
X163141Y96091D01*
G37*
G36*
X271960Y129306D02*
X271960Y129306D01*
X272076Y129323D01*
X272082Y129325D01*
X272088Y129326D01*
X272191Y129381D01*
X272296Y129434D01*
X272300Y129439D01*
X272305Y129442D01*
X272385Y129526D01*
X272468Y129610D01*
X272471Y129616D01*
X272475Y129620D01*
X272483Y129637D01*
X272549Y129757D01*
X273552Y132180D01*
X276125Y134753D01*
X279486Y136145D01*
X298364Y136145D01*
X301725Y134753D01*
X303690Y132787D01*
X303748Y132746D01*
X303800Y132696D01*
X303848Y132674D01*
X303890Y132644D01*
X303958Y132623D01*
X304024Y132593D01*
X304075Y132587D01*
X304125Y132571D01*
X304197Y132573D01*
X304268Y132565D01*
X304319Y132576D01*
X304371Y132578D01*
X304438Y132602D01*
X304508Y132618D01*
X304553Y132644D01*
X304602Y132662D01*
X304658Y132707D01*
X304719Y132744D01*
X304753Y132783D01*
X304794Y132816D01*
X304833Y132876D01*
X304879Y132931D01*
X304899Y132979D01*
X304927Y133023D01*
X304944Y133092D01*
X304971Y133159D01*
X304979Y133230D01*
X304987Y133261D01*
X304985Y133285D01*
X304990Y133326D01*
X304990Y146074D01*
X304978Y146145D01*
X304976Y146217D01*
X304958Y146266D01*
X304950Y146317D01*
X304916Y146380D01*
X304892Y146448D01*
X304859Y146488D01*
X304835Y146534D01*
X304783Y146584D01*
X304738Y146640D01*
X304694Y146668D01*
X304657Y146704D01*
X304592Y146734D01*
X304531Y146773D01*
X304481Y146786D01*
X304434Y146807D01*
X304362Y146815D01*
X304293Y146833D01*
X304241Y146829D01*
X304189Y146835D01*
X304119Y146819D01*
X304048Y146814D01*
X304000Y146793D01*
X303949Y146782D01*
X303887Y146746D01*
X303821Y146717D01*
X303765Y146673D01*
X303738Y146656D01*
X303722Y146638D01*
X303690Y146613D01*
X301725Y144647D01*
X298364Y143255D01*
X279486Y143255D01*
X276125Y144647D01*
X273552Y147220D01*
X272549Y149643D01*
X272487Y149743D01*
X272427Y149843D01*
X272422Y149847D01*
X272419Y149852D01*
X272329Y149927D01*
X272240Y150003D01*
X272234Y150005D01*
X272230Y150009D01*
X272121Y150051D01*
X272012Y150095D01*
X272005Y150096D01*
X272000Y150097D01*
X271982Y150098D01*
X271845Y150113D01*
X244150Y150113D01*
X244060Y150099D01*
X243969Y150091D01*
X243939Y150079D01*
X243907Y150074D01*
X243827Y150031D01*
X243743Y149995D01*
X243711Y149969D01*
X243690Y149958D01*
X243668Y149935D01*
X243612Y149890D01*
X241468Y147746D01*
X241415Y147672D01*
X241355Y147603D01*
X241343Y147573D01*
X241324Y147547D01*
X241297Y147460D01*
X241263Y147375D01*
X241259Y147334D01*
X241252Y147311D01*
X241253Y147279D01*
X241245Y147208D01*
X241245Y147145D01*
X240989Y146888D01*
X240977Y146872D01*
X240961Y146860D01*
X240905Y146772D01*
X240845Y146689D01*
X240839Y146670D01*
X240828Y146653D01*
X240803Y146552D01*
X240773Y146454D01*
X240773Y146434D01*
X240768Y146414D01*
X240776Y146311D01*
X240779Y146208D01*
X240786Y146189D01*
X240787Y146169D01*
X240828Y146074D01*
X240863Y145977D01*
X240876Y145961D01*
X240884Y145943D01*
X240989Y145812D01*
X241191Y145610D01*
X241265Y145557D01*
X241334Y145497D01*
X241364Y145485D01*
X241390Y145466D01*
X241477Y145440D01*
X241562Y145405D01*
X241603Y145401D01*
X241625Y145394D01*
X241658Y145395D01*
X241729Y145387D01*
X253135Y145387D01*
X262789Y135733D01*
X262863Y135680D01*
X262932Y135620D01*
X262962Y135608D01*
X262988Y135589D01*
X263058Y135568D01*
X269116Y129510D01*
X269190Y129457D01*
X269259Y129397D01*
X269289Y129385D01*
X269316Y129366D01*
X269402Y129339D01*
X269487Y129305D01*
X269528Y129301D01*
X269551Y129294D01*
X269583Y129295D01*
X269654Y129287D01*
X271845Y129287D01*
X271960Y129306D01*
G37*
G36*
X123915Y116729D02*
X123915Y116729D01*
X124006Y116736D01*
X124036Y116748D01*
X124068Y116754D01*
X124148Y116796D01*
X124232Y116832D01*
X124264Y116858D01*
X124285Y116869D01*
X124307Y116892D01*
X124363Y116937D01*
X128903Y121476D01*
X182563Y121476D01*
X182582Y121479D01*
X182602Y121477D01*
X182703Y121499D01*
X182805Y121516D01*
X182823Y121525D01*
X182842Y121530D01*
X182931Y121583D01*
X183023Y121631D01*
X183036Y121646D01*
X183053Y121656D01*
X183121Y121734D01*
X183192Y121809D01*
X183200Y121827D01*
X183213Y121843D01*
X183252Y121939D01*
X183296Y122033D01*
X183298Y122052D01*
X183305Y122071D01*
X183324Y122238D01*
X183324Y125413D01*
X183321Y125432D01*
X183323Y125452D01*
X183301Y125553D01*
X183284Y125655D01*
X183275Y125673D01*
X183270Y125692D01*
X183217Y125781D01*
X183169Y125873D01*
X183155Y125886D01*
X183144Y125903D01*
X183066Y125971D01*
X182991Y126042D01*
X182973Y126050D01*
X182957Y126063D01*
X182861Y126102D01*
X182768Y126146D01*
X182748Y126148D01*
X182729Y126155D01*
X182563Y126174D01*
X127000Y126174D01*
X126910Y126159D01*
X126819Y126152D01*
X126789Y126139D01*
X126757Y126134D01*
X126677Y126091D01*
X126593Y126056D01*
X126561Y126030D01*
X126540Y126019D01*
X126518Y125996D01*
X126462Y125951D01*
X121922Y121411D01*
X71438Y121411D01*
X71418Y121408D01*
X71398Y121410D01*
X71297Y121388D01*
X71195Y121372D01*
X71177Y121362D01*
X71158Y121358D01*
X71069Y121305D01*
X70977Y121256D01*
X70964Y121242D01*
X70947Y121232D01*
X70879Y121153D01*
X70808Y121078D01*
X70800Y121060D01*
X70787Y121045D01*
X70748Y120949D01*
X70704Y120855D01*
X70702Y120835D01*
X70695Y120817D01*
X70676Y120650D01*
X70676Y117475D01*
X70679Y117455D01*
X70677Y117436D01*
X70699Y117334D01*
X70716Y117232D01*
X70725Y117215D01*
X70730Y117195D01*
X70783Y117106D01*
X70831Y117015D01*
X70846Y117001D01*
X70856Y116984D01*
X70934Y116917D01*
X71009Y116846D01*
X71027Y116837D01*
X71043Y116824D01*
X71139Y116785D01*
X71233Y116742D01*
X71252Y116740D01*
X71271Y116732D01*
X71438Y116714D01*
X123825Y116714D01*
X123915Y116729D01*
G37*
G36*
X271960Y180106D02*
X271960Y180106D01*
X272076Y180123D01*
X272082Y180125D01*
X272088Y180126D01*
X272191Y180181D01*
X272296Y180234D01*
X272300Y180239D01*
X272305Y180242D01*
X272385Y180326D01*
X272468Y180410D01*
X272471Y180416D01*
X272475Y180420D01*
X272483Y180437D01*
X272549Y180557D01*
X273552Y182980D01*
X276125Y185553D01*
X279486Y186945D01*
X298364Y186945D01*
X301725Y185553D01*
X303690Y183587D01*
X303748Y183546D01*
X303800Y183496D01*
X303848Y183474D01*
X303890Y183444D01*
X303958Y183423D01*
X304024Y183393D01*
X304075Y183387D01*
X304125Y183371D01*
X304197Y183373D01*
X304268Y183365D01*
X304319Y183376D01*
X304371Y183378D01*
X304438Y183402D01*
X304508Y183418D01*
X304553Y183444D01*
X304602Y183462D01*
X304658Y183507D01*
X304719Y183544D01*
X304753Y183583D01*
X304794Y183616D01*
X304833Y183676D01*
X304879Y183731D01*
X304899Y183779D01*
X304927Y183823D01*
X304944Y183892D01*
X304971Y183959D01*
X304979Y184030D01*
X304987Y184061D01*
X304985Y184085D01*
X304990Y184126D01*
X304990Y196874D01*
X304978Y196945D01*
X304976Y197017D01*
X304958Y197066D01*
X304950Y197117D01*
X304916Y197180D01*
X304892Y197248D01*
X304859Y197288D01*
X304835Y197334D01*
X304783Y197384D01*
X304738Y197440D01*
X304694Y197468D01*
X304657Y197504D01*
X304592Y197534D01*
X304531Y197573D01*
X304481Y197586D01*
X304434Y197607D01*
X304362Y197615D01*
X304293Y197633D01*
X304241Y197629D01*
X304189Y197635D01*
X304119Y197619D01*
X304048Y197614D01*
X304000Y197593D01*
X303949Y197582D01*
X303887Y197546D01*
X303821Y197517D01*
X303765Y197473D01*
X303738Y197456D01*
X303722Y197438D01*
X303690Y197413D01*
X301725Y195447D01*
X298364Y194055D01*
X279486Y194055D01*
X276838Y195152D01*
X276725Y195179D01*
X276611Y195207D01*
X276605Y195207D01*
X276599Y195208D01*
X276482Y195197D01*
X276366Y195188D01*
X276360Y195186D01*
X276354Y195185D01*
X276246Y195137D01*
X276139Y195092D01*
X276134Y195087D01*
X276129Y195085D01*
X276115Y195072D01*
X276008Y194987D01*
X262408Y181386D01*
X262366Y181328D01*
X262316Y181276D01*
X262294Y181229D01*
X262264Y181187D01*
X262243Y181118D01*
X262213Y181053D01*
X262207Y181001D01*
X262192Y180951D01*
X262194Y180880D01*
X262186Y180809D01*
X262197Y180758D01*
X262198Y180706D01*
X262223Y180638D01*
X262238Y180568D01*
X262265Y180524D01*
X262283Y180475D01*
X262327Y180419D01*
X262364Y180357D01*
X262404Y180323D01*
X262436Y180283D01*
X262497Y180244D01*
X262551Y180197D01*
X262599Y180178D01*
X262643Y180150D01*
X262713Y180132D01*
X262779Y180105D01*
X262851Y180097D01*
X262882Y180089D01*
X262905Y180091D01*
X262946Y180087D01*
X271845Y180087D01*
X271960Y180106D01*
G37*
G36*
X52910Y42684D02*
X52910Y42684D01*
X52982Y42686D01*
X53031Y42704D01*
X53082Y42712D01*
X53146Y42746D01*
X53213Y42771D01*
X53254Y42803D01*
X53300Y42828D01*
X53349Y42879D01*
X53405Y42924D01*
X53433Y42968D01*
X53469Y43006D01*
X53499Y43071D01*
X53538Y43131D01*
X53551Y43182D01*
X53573Y43229D01*
X53581Y43300D01*
X53598Y43370D01*
X53594Y43422D01*
X53600Y43473D01*
X53585Y43544D01*
X53579Y43615D01*
X53559Y43663D01*
X53548Y43714D01*
X53511Y43775D01*
X53483Y43841D01*
X53438Y43897D01*
X53421Y43925D01*
X53404Y43940D01*
X53378Y43972D01*
X30518Y66832D01*
X30444Y66885D01*
X30374Y66945D01*
X30344Y66957D01*
X30318Y66976D01*
X30231Y67003D01*
X30146Y67037D01*
X30105Y67041D01*
X30083Y67048D01*
X30051Y67047D01*
X29980Y67055D01*
X14374Y67055D01*
X11012Y68447D01*
X9047Y70413D01*
X8989Y70454D01*
X8937Y70504D01*
X8890Y70526D01*
X8848Y70556D01*
X8779Y70577D01*
X8714Y70607D01*
X8662Y70613D01*
X8612Y70629D01*
X8541Y70627D01*
X8470Y70635D01*
X8419Y70624D01*
X8367Y70622D01*
X8299Y70598D01*
X8229Y70582D01*
X8184Y70556D01*
X8136Y70538D01*
X8080Y70493D01*
X8018Y70456D01*
X7984Y70417D01*
X7944Y70384D01*
X7905Y70324D01*
X7858Y70269D01*
X7839Y70221D01*
X7811Y70177D01*
X7793Y70108D01*
X7766Y70041D01*
X7758Y69970D01*
X7750Y69939D01*
X7752Y69915D01*
X7748Y69874D01*
X7748Y57126D01*
X7750Y57110D01*
X7749Y57097D01*
X7760Y57048D01*
X7761Y56983D01*
X7779Y56934D01*
X7787Y56883D01*
X7801Y56858D01*
X7801Y56857D01*
X7804Y56852D01*
X7821Y56820D01*
X7846Y56752D01*
X7878Y56712D01*
X7903Y56666D01*
X7955Y56616D01*
X7999Y56560D01*
X8043Y56532D01*
X8081Y56496D01*
X8146Y56466D01*
X8206Y56427D01*
X8257Y56414D01*
X8304Y56393D01*
X8375Y56385D01*
X8445Y56367D01*
X8497Y56371D01*
X8548Y56365D01*
X8619Y56381D01*
X8690Y56386D01*
X8738Y56407D01*
X8789Y56418D01*
X8850Y56454D01*
X8916Y56483D01*
X8967Y56523D01*
X8980Y56530D01*
X8984Y56534D01*
X9000Y56544D01*
X9015Y56562D01*
X9047Y56587D01*
X11012Y58553D01*
X14374Y59945D01*
X33251Y59945D01*
X36613Y58553D01*
X39185Y55980D01*
X40577Y52619D01*
X40577Y48981D01*
X39185Y45620D01*
X37537Y43972D01*
X37496Y43914D01*
X37446Y43862D01*
X37424Y43815D01*
X37394Y43773D01*
X37373Y43704D01*
X37343Y43639D01*
X37337Y43587D01*
X37321Y43537D01*
X37323Y43466D01*
X37315Y43395D01*
X37326Y43344D01*
X37328Y43292D01*
X37352Y43224D01*
X37368Y43154D01*
X37394Y43109D01*
X37412Y43061D01*
X37457Y43005D01*
X37494Y42943D01*
X37533Y42909D01*
X37566Y42869D01*
X37626Y42830D01*
X37681Y42783D01*
X37729Y42764D01*
X37773Y42736D01*
X37842Y42718D01*
X37909Y42691D01*
X37980Y42683D01*
X38011Y42675D01*
X38035Y42677D01*
X38076Y42673D01*
X52840Y42673D01*
X52910Y42684D01*
G37*
G36*
X251995Y90693D02*
X251995Y90693D01*
X252086Y90701D01*
X252116Y90713D01*
X252148Y90718D01*
X252229Y90761D01*
X252312Y90797D01*
X252345Y90823D01*
X252365Y90834D01*
X252387Y90857D01*
X252443Y90902D01*
X255395Y93854D01*
X262130Y93854D01*
X264066Y91917D01*
X264124Y91875D01*
X264176Y91826D01*
X264224Y91804D01*
X264266Y91773D01*
X264334Y91752D01*
X264400Y91722D01*
X264451Y91716D01*
X264501Y91701D01*
X264573Y91703D01*
X264644Y91695D01*
X264695Y91706D01*
X264747Y91707D01*
X264814Y91732D01*
X264884Y91747D01*
X264929Y91774D01*
X264978Y91792D01*
X265034Y91837D01*
X265095Y91874D01*
X265129Y91913D01*
X265170Y91946D01*
X265209Y92006D01*
X265255Y92060D01*
X265275Y92109D01*
X265303Y92153D01*
X265320Y92222D01*
X265347Y92289D01*
X265355Y92360D01*
X265363Y92391D01*
X265361Y92414D01*
X265366Y92455D01*
X265366Y104395D01*
X265354Y104465D01*
X265352Y104537D01*
X265334Y104586D01*
X265326Y104637D01*
X265292Y104701D01*
X265268Y104768D01*
X265235Y104809D01*
X265211Y104855D01*
X265159Y104904D01*
X265114Y104960D01*
X265070Y104988D01*
X265033Y105024D01*
X264968Y105054D01*
X264907Y105093D01*
X264857Y105106D01*
X264810Y105128D01*
X264738Y105136D01*
X264669Y105153D01*
X264617Y105149D01*
X264565Y105155D01*
X264495Y105140D01*
X264424Y105134D01*
X264376Y105114D01*
X264325Y105103D01*
X264263Y105066D01*
X264197Y105038D01*
X264141Y104993D01*
X264114Y104976D01*
X264098Y104959D01*
X264066Y104933D01*
X262130Y102996D01*
X255395Y102996D01*
X250733Y107659D01*
X250717Y107670D01*
X250704Y107686D01*
X250617Y107742D01*
X250533Y107802D01*
X250514Y107808D01*
X250498Y107819D01*
X250397Y107844D01*
X250298Y107875D01*
X250278Y107874D01*
X250259Y107879D01*
X250156Y107871D01*
X250052Y107868D01*
X250034Y107861D01*
X250014Y107860D01*
X249919Y107819D01*
X249821Y107784D01*
X249806Y107771D01*
X249787Y107763D01*
X249657Y107659D01*
X247943Y105945D01*
X243547Y105945D01*
X243299Y106193D01*
X243240Y106235D01*
X243189Y106285D01*
X243141Y106307D01*
X243099Y106337D01*
X243031Y106358D01*
X242965Y106388D01*
X242914Y106394D01*
X242864Y106409D01*
X242792Y106407D01*
X242721Y106415D01*
X242670Y106404D01*
X242618Y106403D01*
X242551Y106378D01*
X242481Y106363D01*
X242436Y106336D01*
X242387Y106318D01*
X242331Y106274D01*
X242270Y106237D01*
X242236Y106197D01*
X242195Y106165D01*
X242156Y106105D01*
X242110Y106050D01*
X242090Y106002D01*
X242062Y105958D01*
X242045Y105888D01*
X242018Y105822D01*
X242010Y105751D01*
X242002Y105719D01*
X242004Y105696D01*
X241999Y105655D01*
X241999Y95890D01*
X240993Y94884D01*
X240981Y94867D01*
X240965Y94855D01*
X240909Y94768D01*
X240849Y94684D01*
X240843Y94665D01*
X240832Y94648D01*
X240807Y94548D01*
X240777Y94449D01*
X240777Y94429D01*
X240772Y94409D01*
X240780Y94306D01*
X240783Y94203D01*
X240790Y94184D01*
X240791Y94164D01*
X240832Y94069D01*
X240867Y93972D01*
X240880Y93956D01*
X240888Y93938D01*
X240993Y93807D01*
X241245Y93555D01*
X241245Y91440D01*
X241248Y91420D01*
X241246Y91401D01*
X241268Y91299D01*
X241284Y91197D01*
X241294Y91180D01*
X241298Y91160D01*
X241351Y91071D01*
X241400Y90980D01*
X241414Y90966D01*
X241424Y90949D01*
X241503Y90882D01*
X241578Y90810D01*
X241596Y90802D01*
X241611Y90789D01*
X241707Y90750D01*
X241801Y90707D01*
X241821Y90705D01*
X241839Y90697D01*
X242006Y90679D01*
X251905Y90679D01*
X251995Y90693D01*
G37*
G36*
X304319Y81776D02*
X304319Y81776D01*
X304371Y81778D01*
X304438Y81802D01*
X304508Y81818D01*
X304553Y81844D01*
X304602Y81862D01*
X304658Y81907D01*
X304719Y81944D01*
X304753Y81983D01*
X304794Y82016D01*
X304833Y82076D01*
X304879Y82131D01*
X304899Y82179D01*
X304927Y82223D01*
X304944Y82292D01*
X304971Y82359D01*
X304979Y82430D01*
X304987Y82461D01*
X304985Y82485D01*
X304990Y82526D01*
X304990Y95274D01*
X304978Y95345D01*
X304976Y95417D01*
X304958Y95466D01*
X304950Y95517D01*
X304916Y95580D01*
X304892Y95648D01*
X304859Y95688D01*
X304835Y95734D01*
X304783Y95784D01*
X304738Y95840D01*
X304694Y95868D01*
X304657Y95904D01*
X304592Y95934D01*
X304531Y95973D01*
X304481Y95986D01*
X304434Y96007D01*
X304362Y96015D01*
X304293Y96033D01*
X304241Y96029D01*
X304189Y96035D01*
X304119Y96019D01*
X304048Y96014D01*
X304000Y95993D01*
X303949Y95982D01*
X303887Y95946D01*
X303821Y95917D01*
X303765Y95873D01*
X303738Y95856D01*
X303722Y95838D01*
X303690Y95813D01*
X301725Y93847D01*
X298364Y92455D01*
X279486Y92455D01*
X276125Y93847D01*
X274287Y95686D01*
X274229Y95727D01*
X274177Y95777D01*
X274129Y95799D01*
X274087Y95829D01*
X274019Y95850D01*
X273953Y95880D01*
X273902Y95886D01*
X273852Y95902D01*
X273780Y95900D01*
X273709Y95908D01*
X273658Y95897D01*
X273606Y95895D01*
X273539Y95871D01*
X273469Y95855D01*
X273424Y95829D01*
X273375Y95811D01*
X273319Y95766D01*
X273258Y95729D01*
X273224Y95690D01*
X273183Y95657D01*
X273144Y95597D01*
X273098Y95542D01*
X273078Y95494D01*
X273050Y95450D01*
X273033Y95381D01*
X273006Y95314D01*
X272998Y95243D01*
X272990Y95212D01*
X272992Y95188D01*
X272987Y95147D01*
X272987Y92060D01*
X273002Y91970D01*
X273009Y91879D01*
X273022Y91849D01*
X273027Y91817D01*
X273070Y91737D01*
X273105Y91653D01*
X273131Y91621D01*
X273142Y91600D01*
X273165Y91578D01*
X273210Y91522D01*
X279164Y85568D01*
X279238Y85515D01*
X279308Y85455D01*
X279338Y85443D01*
X279364Y85424D01*
X279451Y85397D01*
X279536Y85363D01*
X279577Y85359D01*
X279599Y85352D01*
X279631Y85353D01*
X279703Y85345D01*
X298364Y85345D01*
X301725Y83953D01*
X303690Y81987D01*
X303748Y81946D01*
X303800Y81896D01*
X303848Y81874D01*
X303890Y81844D01*
X303958Y81823D01*
X304024Y81793D01*
X304075Y81787D01*
X304125Y81771D01*
X304197Y81773D01*
X304268Y81765D01*
X304319Y81776D01*
G37*
G36*
X304319Y107176D02*
X304319Y107176D01*
X304371Y107178D01*
X304438Y107202D01*
X304508Y107218D01*
X304553Y107244D01*
X304602Y107262D01*
X304658Y107307D01*
X304719Y107344D01*
X304753Y107383D01*
X304794Y107416D01*
X304833Y107476D01*
X304879Y107531D01*
X304899Y107579D01*
X304927Y107623D01*
X304944Y107692D01*
X304971Y107759D01*
X304979Y107830D01*
X304987Y107861D01*
X304985Y107885D01*
X304990Y107926D01*
X304990Y120674D01*
X304978Y120745D01*
X304976Y120817D01*
X304958Y120866D01*
X304950Y120917D01*
X304916Y120980D01*
X304892Y121048D01*
X304859Y121088D01*
X304835Y121134D01*
X304783Y121184D01*
X304738Y121240D01*
X304694Y121268D01*
X304657Y121304D01*
X304592Y121334D01*
X304531Y121373D01*
X304481Y121386D01*
X304434Y121407D01*
X304362Y121415D01*
X304293Y121433D01*
X304241Y121429D01*
X304189Y121435D01*
X304119Y121419D01*
X304048Y121414D01*
X304000Y121393D01*
X303949Y121382D01*
X303887Y121346D01*
X303821Y121317D01*
X303765Y121273D01*
X303738Y121256D01*
X303722Y121238D01*
X303690Y121213D01*
X301725Y119247D01*
X298364Y117855D01*
X279486Y117855D01*
X277088Y118849D01*
X277043Y118859D01*
X277001Y118878D01*
X276924Y118887D01*
X276848Y118905D01*
X276803Y118900D01*
X276757Y118906D01*
X276681Y118889D01*
X276603Y118882D01*
X276562Y118863D01*
X276517Y118853D01*
X276450Y118813D01*
X276379Y118782D01*
X276345Y118751D01*
X276306Y118727D01*
X276255Y118668D01*
X276198Y118615D01*
X276175Y118575D01*
X276146Y118540D01*
X276117Y118468D01*
X276079Y118400D01*
X276071Y118355D01*
X276054Y118312D01*
X276039Y118176D01*
X276035Y118158D01*
X276036Y118153D01*
X276035Y118145D01*
X276035Y110455D01*
X276043Y110409D01*
X276041Y110364D01*
X276062Y110289D01*
X276075Y110212D01*
X276096Y110171D01*
X276109Y110127D01*
X276154Y110063D01*
X276190Y109995D01*
X276223Y109963D01*
X276249Y109925D01*
X276312Y109879D01*
X276368Y109825D01*
X276410Y109806D01*
X276447Y109778D01*
X276521Y109754D01*
X276591Y109722D01*
X276637Y109716D01*
X276681Y109702D01*
X276759Y109703D01*
X276836Y109694D01*
X276881Y109704D01*
X276927Y109705D01*
X277058Y109743D01*
X277076Y109747D01*
X277081Y109749D01*
X277088Y109751D01*
X279486Y110745D01*
X298364Y110745D01*
X301725Y109353D01*
X303690Y107387D01*
X303748Y107346D01*
X303800Y107296D01*
X303848Y107274D01*
X303890Y107244D01*
X303958Y107223D01*
X304024Y107193D01*
X304075Y107187D01*
X304125Y107171D01*
X304197Y107173D01*
X304268Y107165D01*
X304319Y107176D01*
G37*
G36*
X304319Y208776D02*
X304319Y208776D01*
X304371Y208778D01*
X304438Y208802D01*
X304508Y208818D01*
X304553Y208844D01*
X304602Y208862D01*
X304658Y208907D01*
X304719Y208944D01*
X304753Y208983D01*
X304794Y209016D01*
X304833Y209076D01*
X304879Y209131D01*
X304899Y209179D01*
X304927Y209223D01*
X304944Y209292D01*
X304971Y209359D01*
X304979Y209430D01*
X304987Y209461D01*
X304985Y209485D01*
X304990Y209526D01*
X304990Y222274D01*
X304978Y222345D01*
X304976Y222417D01*
X304958Y222466D01*
X304950Y222517D01*
X304916Y222580D01*
X304892Y222648D01*
X304859Y222688D01*
X304835Y222734D01*
X304783Y222784D01*
X304738Y222840D01*
X304694Y222868D01*
X304657Y222904D01*
X304592Y222934D01*
X304531Y222973D01*
X304481Y222986D01*
X304434Y223007D01*
X304362Y223015D01*
X304293Y223033D01*
X304241Y223029D01*
X304189Y223035D01*
X304119Y223019D01*
X304048Y223014D01*
X304000Y222993D01*
X303949Y222982D01*
X303887Y222946D01*
X303821Y222917D01*
X303765Y222873D01*
X303738Y222856D01*
X303722Y222838D01*
X303690Y222813D01*
X301725Y220847D01*
X298364Y219455D01*
X283329Y219455D01*
X283239Y219441D01*
X283148Y219433D01*
X283119Y219421D01*
X283087Y219416D01*
X283006Y219373D01*
X282922Y219337D01*
X282890Y219311D01*
X282869Y219300D01*
X282847Y219277D01*
X282791Y219232D01*
X276077Y212518D01*
X276020Y212439D01*
X275958Y212364D01*
X275948Y212339D01*
X275933Y212318D01*
X275904Y212225D01*
X275870Y212134D01*
X275868Y212108D01*
X275861Y212083D01*
X275863Y211986D01*
X275859Y211888D01*
X275866Y211863D01*
X275867Y211837D01*
X275901Y211745D01*
X275928Y211652D01*
X275943Y211631D01*
X275952Y211606D01*
X276012Y211530D01*
X276068Y211450D01*
X276089Y211434D01*
X276105Y211414D01*
X276187Y211361D01*
X276265Y211303D01*
X276290Y211295D01*
X276312Y211281D01*
X276407Y211257D01*
X276499Y211227D01*
X276525Y211227D01*
X276551Y211221D01*
X276648Y211228D01*
X276745Y211229D01*
X276777Y211239D01*
X276796Y211240D01*
X276826Y211253D01*
X276906Y211276D01*
X279486Y212345D01*
X298364Y212345D01*
X301725Y210953D01*
X303690Y208987D01*
X303748Y208946D01*
X303800Y208896D01*
X303848Y208874D01*
X303890Y208844D01*
X303958Y208823D01*
X304024Y208793D01*
X304075Y208787D01*
X304125Y208771D01*
X304197Y208773D01*
X304268Y208765D01*
X304319Y208776D01*
G37*
G36*
X304319Y56376D02*
X304319Y56376D01*
X304371Y56378D01*
X304438Y56402D01*
X304508Y56418D01*
X304553Y56444D01*
X304602Y56462D01*
X304658Y56507D01*
X304719Y56544D01*
X304753Y56583D01*
X304794Y56616D01*
X304833Y56676D01*
X304879Y56731D01*
X304899Y56779D01*
X304927Y56823D01*
X304944Y56892D01*
X304951Y56909D01*
X304962Y56931D01*
X304962Y56936D01*
X304971Y56959D01*
X304979Y57030D01*
X304987Y57061D01*
X304985Y57085D01*
X304990Y57126D01*
X304990Y69874D01*
X304978Y69945D01*
X304976Y70017D01*
X304958Y70066D01*
X304950Y70117D01*
X304916Y70180D01*
X304892Y70248D01*
X304859Y70288D01*
X304835Y70334D01*
X304783Y70384D01*
X304738Y70440D01*
X304694Y70468D01*
X304657Y70504D01*
X304592Y70534D01*
X304531Y70573D01*
X304481Y70586D01*
X304434Y70607D01*
X304362Y70615D01*
X304293Y70633D01*
X304241Y70629D01*
X304189Y70635D01*
X304119Y70619D01*
X304048Y70614D01*
X304000Y70593D01*
X303949Y70582D01*
X303887Y70546D01*
X303821Y70517D01*
X303765Y70473D01*
X303738Y70456D01*
X303722Y70438D01*
X303690Y70413D01*
X301725Y68447D01*
X298364Y67055D01*
X279486Y67055D01*
X276906Y68124D01*
X276811Y68146D01*
X276718Y68175D01*
X276692Y68174D01*
X276667Y68180D01*
X276570Y68171D01*
X276473Y68168D01*
X276448Y68159D01*
X276422Y68157D01*
X276333Y68117D01*
X276242Y68084D01*
X276221Y68067D01*
X276197Y68057D01*
X276126Y67991D01*
X276049Y67930D01*
X276035Y67908D01*
X276016Y67890D01*
X275969Y67805D01*
X275916Y67723D01*
X275910Y67698D01*
X275897Y67675D01*
X275880Y67579D01*
X275856Y67485D01*
X275858Y67459D01*
X275854Y67433D01*
X275868Y67336D01*
X275876Y67240D01*
X275886Y67216D01*
X275890Y67190D01*
X275934Y67103D01*
X275972Y67013D01*
X275992Y66988D01*
X276001Y66970D01*
X276025Y66947D01*
X276077Y66882D01*
X282791Y60168D01*
X282865Y60115D01*
X282935Y60055D01*
X282965Y60043D01*
X282991Y60024D01*
X283078Y59997D01*
X283163Y59963D01*
X283204Y59959D01*
X283226Y59952D01*
X283258Y59953D01*
X283329Y59945D01*
X298364Y59945D01*
X301725Y58553D01*
X303690Y56587D01*
X303748Y56546D01*
X303800Y56496D01*
X303823Y56486D01*
X303825Y56485D01*
X303848Y56474D01*
X303890Y56444D01*
X303958Y56423D01*
X304024Y56393D01*
X304075Y56387D01*
X304125Y56371D01*
X304197Y56373D01*
X304268Y56365D01*
X304319Y56376D01*
G37*
%LPC*%
G36*
X79884Y200973D02*
X79884Y200973D01*
X79884Y208784D01*
X80057Y209431D01*
X80392Y210010D01*
X80865Y210483D01*
X81444Y210818D01*
X82091Y210991D01*
X96902Y210991D01*
X96902Y200973D01*
X79884Y200973D01*
G37*
%LPD*%
G36*
X151756Y171307D02*
X151756Y171307D01*
X151808Y171308D01*
X151876Y171333D01*
X151946Y171348D01*
X151991Y171375D01*
X152039Y171393D01*
X152095Y171438D01*
X152157Y171475D01*
X152191Y171514D01*
X152231Y171547D01*
X152270Y171607D01*
X152317Y171661D01*
X152336Y171710D01*
X152364Y171754D01*
X152382Y171823D01*
X152409Y171890D01*
X152417Y171961D01*
X152425Y171992D01*
X152423Y172015D01*
X152427Y172056D01*
X152427Y180573D01*
X152413Y180664D01*
X152405Y180754D01*
X152393Y180784D01*
X152388Y180816D01*
X152345Y180897D01*
X152309Y180981D01*
X152283Y181013D01*
X152272Y181034D01*
X152249Y181056D01*
X152204Y181112D01*
X149132Y184184D01*
X149116Y184196D01*
X149103Y184212D01*
X149016Y184268D01*
X148932Y184328D01*
X148913Y184334D01*
X148896Y184345D01*
X148796Y184370D01*
X148697Y184400D01*
X148677Y184400D01*
X148658Y184405D01*
X148555Y184397D01*
X148451Y184394D01*
X148432Y184387D01*
X148412Y184386D01*
X148317Y184345D01*
X148220Y184309D01*
X148204Y184297D01*
X148186Y184289D01*
X148055Y184184D01*
X147830Y183959D01*
X141095Y183959D01*
X140111Y184943D01*
X140053Y184985D01*
X140001Y185034D01*
X139954Y185056D01*
X139912Y185087D01*
X139843Y185108D01*
X139778Y185138D01*
X139726Y185144D01*
X139676Y185159D01*
X139605Y185157D01*
X139534Y185165D01*
X139483Y185154D01*
X139431Y185153D01*
X139363Y185128D01*
X139293Y185113D01*
X139248Y185086D01*
X139200Y185068D01*
X139144Y185023D01*
X139082Y184986D01*
X139048Y184947D01*
X139008Y184914D01*
X138969Y184854D01*
X138922Y184800D01*
X138903Y184751D01*
X138875Y184707D01*
X138857Y184638D01*
X138830Y184571D01*
X138822Y184500D01*
X138814Y184469D01*
X138816Y184446D01*
X138812Y184405D01*
X138812Y179063D01*
X138826Y178972D01*
X138834Y178882D01*
X138846Y178852D01*
X138851Y178820D01*
X138894Y178739D01*
X138930Y178655D01*
X138956Y178623D01*
X138967Y178602D01*
X138990Y178580D01*
X139035Y178524D01*
X142520Y175039D01*
X142594Y174986D01*
X142663Y174927D01*
X142693Y174915D01*
X142719Y174896D01*
X142806Y174869D01*
X142891Y174835D01*
X142932Y174830D01*
X142955Y174823D01*
X142987Y174824D01*
X143058Y174816D01*
X147830Y174816D01*
X151128Y171518D01*
X151186Y171476D01*
X151238Y171427D01*
X151285Y171405D01*
X151327Y171374D01*
X151396Y171353D01*
X151461Y171323D01*
X151513Y171317D01*
X151563Y171302D01*
X151634Y171304D01*
X151705Y171296D01*
X151756Y171307D01*
G37*
G36*
X257825Y132473D02*
X257825Y132473D01*
X257896Y132475D01*
X257945Y132493D01*
X257997Y132501D01*
X258060Y132535D01*
X258127Y132560D01*
X258168Y132592D01*
X258214Y132617D01*
X258264Y132669D01*
X258320Y132713D01*
X258348Y132757D01*
X258384Y132795D01*
X258414Y132860D01*
X258453Y132920D01*
X258465Y132971D01*
X258487Y133018D01*
X258495Y133089D01*
X258513Y133159D01*
X258509Y133211D01*
X258514Y133262D01*
X258499Y133333D01*
X258493Y133404D01*
X258473Y133452D01*
X258462Y133503D01*
X258425Y133564D01*
X258397Y133630D01*
X258352Y133686D01*
X258336Y133714D01*
X258318Y133729D01*
X258292Y133761D01*
X251463Y140590D01*
X251389Y140644D01*
X251320Y140703D01*
X251290Y140715D01*
X251263Y140734D01*
X251176Y140761D01*
X251092Y140795D01*
X251051Y140799D01*
X251028Y140806D01*
X250996Y140806D01*
X250925Y140813D01*
X241729Y140813D01*
X241639Y140799D01*
X241548Y140792D01*
X241518Y140779D01*
X241486Y140774D01*
X241406Y140731D01*
X241322Y140695D01*
X241289Y140670D01*
X241269Y140659D01*
X241247Y140635D01*
X241191Y140590D01*
X240989Y140388D01*
X240977Y140372D01*
X240961Y140360D01*
X240906Y140273D01*
X240845Y140189D01*
X240839Y140170D01*
X240828Y140153D01*
X240803Y140053D01*
X240773Y139954D01*
X240773Y139934D01*
X240768Y139914D01*
X240776Y139811D01*
X240779Y139708D01*
X240786Y139689D01*
X240787Y139669D01*
X240828Y139574D01*
X240863Y139477D01*
X240876Y139461D01*
X240884Y139443D01*
X240989Y139312D01*
X241245Y139056D01*
X241245Y134144D01*
X240989Y133888D01*
X240977Y133872D01*
X240961Y133860D01*
X240905Y133772D01*
X240845Y133689D01*
X240839Y133669D01*
X240828Y133653D01*
X240803Y133552D01*
X240773Y133453D01*
X240773Y133433D01*
X240768Y133414D01*
X240776Y133311D01*
X240779Y133208D01*
X240786Y133189D01*
X240787Y133169D01*
X240828Y133074D01*
X240863Y132977D01*
X240876Y132961D01*
X240884Y132943D01*
X240989Y132812D01*
X241116Y132685D01*
X241190Y132631D01*
X241259Y132572D01*
X241289Y132560D01*
X241315Y132541D01*
X241402Y132514D01*
X241487Y132480D01*
X241528Y132476D01*
X241550Y132469D01*
X241583Y132470D01*
X241654Y132462D01*
X257754Y132462D01*
X257825Y132473D01*
G37*
%LPC*%
G36*
X25336Y204723D02*
X25336Y204723D01*
X25336Y213361D01*
X32232Y213361D01*
X33812Y213111D01*
X35333Y212616D01*
X36758Y211890D01*
X38052Y210950D01*
X39183Y209819D01*
X40123Y208525D01*
X40849Y207100D01*
X41343Y205579D01*
X41479Y204723D01*
X25336Y204723D01*
G37*
%LPD*%
%LPC*%
G36*
X25336Y193039D02*
X25336Y193039D01*
X25336Y201677D01*
X41479Y201677D01*
X41343Y200821D01*
X40849Y199300D01*
X40123Y197875D01*
X39183Y196581D01*
X38052Y195450D01*
X36758Y194510D01*
X35333Y193784D01*
X33812Y193289D01*
X32232Y193039D01*
X25336Y193039D01*
G37*
%LPD*%
%LPC*%
G36*
X197503Y156963D02*
X197503Y156963D01*
X196163Y158303D01*
X196163Y162197D01*
X197503Y163537D01*
X208897Y163537D01*
X210237Y162197D01*
X210237Y158303D01*
X208897Y156963D01*
X197503Y156963D01*
G37*
%LPD*%
%LPC*%
G36*
X187261Y217423D02*
X187261Y217423D01*
X187261Y226442D01*
X190104Y226442D01*
X196279Y220267D01*
X196279Y217423D01*
X187261Y217423D01*
G37*
%LPD*%
%LPC*%
G36*
X187261Y205358D02*
X187261Y205358D01*
X187261Y214377D01*
X196279Y214377D01*
X196279Y211533D01*
X190104Y205358D01*
X187261Y205358D01*
G37*
%LPD*%
G36*
X272642Y70761D02*
X272642Y70761D01*
X272668Y70762D01*
X272759Y70796D01*
X272853Y70823D01*
X272874Y70838D01*
X272899Y70847D01*
X272975Y70907D01*
X273055Y70963D01*
X273071Y70984D01*
X273091Y71000D01*
X273144Y71082D01*
X273202Y71160D01*
X273210Y71185D01*
X273224Y71207D01*
X273248Y71302D01*
X273278Y71394D01*
X273278Y71420D01*
X273284Y71446D01*
X273276Y71543D01*
X273276Y71640D01*
X273266Y71672D01*
X273265Y71691D01*
X273252Y71721D01*
X273229Y71801D01*
X272160Y74381D01*
X272160Y78019D01*
X273552Y81380D01*
X274680Y82508D01*
X274692Y82524D01*
X274707Y82536D01*
X274738Y82584D01*
X274744Y82591D01*
X274749Y82602D01*
X274763Y82624D01*
X274824Y82707D01*
X274829Y82726D01*
X274840Y82743D01*
X274865Y82844D01*
X274896Y82942D01*
X274895Y82962D01*
X274900Y82982D01*
X274892Y83085D01*
X274890Y83188D01*
X274883Y83207D01*
X274881Y83227D01*
X274841Y83322D01*
X274805Y83419D01*
X274793Y83435D01*
X274785Y83453D01*
X274680Y83584D01*
X271239Y87025D01*
X271181Y87067D01*
X271129Y87117D01*
X271081Y87139D01*
X271039Y87169D01*
X270971Y87190D01*
X270905Y87220D01*
X270854Y87226D01*
X270804Y87241D01*
X270732Y87239D01*
X270661Y87247D01*
X270610Y87236D01*
X270558Y87235D01*
X270491Y87210D01*
X270421Y87195D01*
X270376Y87168D01*
X270327Y87150D01*
X270271Y87106D01*
X270210Y87069D01*
X270176Y87029D01*
X270135Y86997D01*
X270096Y86936D01*
X270050Y86882D01*
X270030Y86834D01*
X270002Y86790D01*
X269985Y86720D01*
X269958Y86654D01*
X269950Y86582D01*
X269942Y86551D01*
X269944Y86528D01*
X269939Y86487D01*
X269939Y73335D01*
X269954Y73245D01*
X269961Y73154D01*
X269974Y73124D01*
X269979Y73092D01*
X270022Y73012D01*
X270057Y72928D01*
X270083Y72896D01*
X270094Y72875D01*
X270117Y72853D01*
X270162Y72797D01*
X271987Y70972D01*
X272066Y70915D01*
X272141Y70853D01*
X272166Y70843D01*
X272187Y70828D01*
X272280Y70799D01*
X272371Y70765D01*
X272397Y70763D01*
X272422Y70756D01*
X272519Y70758D01*
X272617Y70754D01*
X272642Y70761D01*
G37*
%LPC*%
G36*
X141223Y80898D02*
X141223Y80898D01*
X141223Y88520D01*
X143488Y88520D01*
X148845Y83163D01*
X148845Y80898D01*
X141223Y80898D01*
G37*
%LPD*%
%LPC*%
G36*
X211073Y69786D02*
X211073Y69786D01*
X211073Y77407D01*
X213338Y77407D01*
X218695Y72050D01*
X218695Y69786D01*
X211073Y69786D01*
G37*
%LPD*%
%LPC*%
G36*
X200405Y69786D02*
X200405Y69786D01*
X200405Y72050D01*
X205762Y77407D01*
X208027Y77407D01*
X208027Y69786D01*
X200405Y69786D01*
G37*
%LPD*%
%LPC*%
G36*
X141223Y70230D02*
X141223Y70230D01*
X141223Y77852D01*
X148845Y77852D01*
X148845Y75587D01*
X143488Y70230D01*
X141223Y70230D01*
G37*
%LPD*%
%LPC*%
G36*
X130555Y80898D02*
X130555Y80898D01*
X130555Y83163D01*
X135912Y88520D01*
X138177Y88520D01*
X138177Y80898D01*
X130555Y80898D01*
G37*
%LPD*%
%LPC*%
G36*
X103123Y221043D02*
X103123Y221043D01*
X103123Y228664D01*
X110745Y228664D01*
X110745Y226400D01*
X105388Y221043D01*
X103123Y221043D01*
G37*
%LPD*%
%LPC*%
G36*
X135912Y70230D02*
X135912Y70230D01*
X130555Y75587D01*
X130555Y77852D01*
X138177Y77852D01*
X138177Y70230D01*
X135912Y70230D01*
G37*
%LPD*%
%LPC*%
G36*
X97812Y221043D02*
X97812Y221043D01*
X92455Y226400D01*
X92455Y228664D01*
X100077Y228664D01*
X100077Y221043D01*
X97812Y221043D01*
G37*
%LPD*%
G36*
X260193Y125898D02*
X260193Y125898D01*
X260265Y125900D01*
X260314Y125918D01*
X260365Y125926D01*
X260429Y125960D01*
X260496Y125984D01*
X260537Y126017D01*
X260583Y126041D01*
X260632Y126093D01*
X260688Y126138D01*
X260716Y126182D01*
X260752Y126220D01*
X260782Y126285D01*
X260821Y126345D01*
X260834Y126396D01*
X260856Y126443D01*
X260864Y126514D01*
X260881Y126584D01*
X260877Y126636D01*
X260883Y126687D01*
X260868Y126757D01*
X260862Y126829D01*
X260842Y126877D01*
X260831Y126928D01*
X260794Y126989D01*
X260766Y127055D01*
X260721Y127111D01*
X260704Y127139D01*
X260687Y127154D01*
X260661Y127186D01*
X260182Y127665D01*
X260108Y127719D01*
X260038Y127778D01*
X260008Y127790D01*
X259982Y127809D01*
X259895Y127836D01*
X259810Y127870D01*
X259769Y127874D01*
X259747Y127881D01*
X259715Y127880D01*
X259643Y127888D01*
X241804Y127888D01*
X241714Y127874D01*
X241623Y127866D01*
X241593Y127854D01*
X241561Y127849D01*
X241481Y127806D01*
X241397Y127770D01*
X241365Y127744D01*
X241344Y127733D01*
X241322Y127710D01*
X241266Y127665D01*
X240989Y127388D01*
X240977Y127372D01*
X240961Y127360D01*
X240905Y127272D01*
X240845Y127188D01*
X240839Y127169D01*
X240828Y127153D01*
X240803Y127052D01*
X240773Y126953D01*
X240773Y126933D01*
X240768Y126914D01*
X240776Y126811D01*
X240779Y126708D01*
X240786Y126689D01*
X240787Y126669D01*
X240828Y126574D01*
X240863Y126476D01*
X240876Y126461D01*
X240884Y126443D01*
X240989Y126312D01*
X241191Y126110D01*
X241265Y126056D01*
X241334Y125997D01*
X241364Y125985D01*
X241390Y125966D01*
X241477Y125939D01*
X241562Y125905D01*
X241603Y125901D01*
X241625Y125894D01*
X241658Y125894D01*
X241729Y125887D01*
X260123Y125887D01*
X260193Y125898D01*
G37*
G36*
X207970Y104692D02*
X207970Y104692D01*
X207989Y104690D01*
X208091Y104712D01*
X208193Y104729D01*
X208210Y104738D01*
X208230Y104742D01*
X208319Y104795D01*
X208410Y104844D01*
X208424Y104858D01*
X208441Y104868D01*
X208508Y104947D01*
X208580Y105022D01*
X208588Y105040D01*
X208601Y105055D01*
X208640Y105151D01*
X208683Y105245D01*
X208685Y105265D01*
X208693Y105283D01*
X208711Y105450D01*
X208711Y107450D01*
X208708Y107470D01*
X208710Y107489D01*
X208688Y107591D01*
X208672Y107693D01*
X208662Y107710D01*
X208658Y107730D01*
X208605Y107819D01*
X208556Y107910D01*
X208542Y107924D01*
X208532Y107941D01*
X208453Y108008D01*
X208378Y108080D01*
X208360Y108088D01*
X208345Y108101D01*
X208249Y108140D01*
X208155Y108183D01*
X208135Y108185D01*
X208117Y108193D01*
X207950Y108211D01*
X198450Y108211D01*
X198430Y108208D01*
X198411Y108210D01*
X198309Y108188D01*
X198207Y108172D01*
X198190Y108162D01*
X198170Y108158D01*
X198081Y108105D01*
X197990Y108056D01*
X197976Y108042D01*
X197959Y108032D01*
X197892Y107953D01*
X197821Y107878D01*
X197812Y107860D01*
X197799Y107845D01*
X197760Y107749D01*
X197717Y107655D01*
X197715Y107635D01*
X197707Y107617D01*
X197689Y107450D01*
X197689Y105450D01*
X197692Y105430D01*
X197690Y105411D01*
X197712Y105309D01*
X197729Y105207D01*
X197738Y105190D01*
X197742Y105170D01*
X197795Y105081D01*
X197844Y104990D01*
X197858Y104976D01*
X197868Y104959D01*
X197947Y104892D01*
X198022Y104821D01*
X198040Y104812D01*
X198055Y104799D01*
X198151Y104760D01*
X198245Y104717D01*
X198265Y104715D01*
X198283Y104707D01*
X198450Y104689D01*
X207950Y104689D01*
X207970Y104692D01*
G37*
G36*
X207970Y158492D02*
X207970Y158492D01*
X207989Y158490D01*
X208091Y158512D01*
X208193Y158529D01*
X208210Y158538D01*
X208230Y158542D01*
X208319Y158595D01*
X208410Y158644D01*
X208424Y158658D01*
X208441Y158668D01*
X208508Y158747D01*
X208580Y158822D01*
X208588Y158840D01*
X208601Y158855D01*
X208640Y158951D01*
X208683Y159045D01*
X208685Y159065D01*
X208693Y159083D01*
X208711Y159250D01*
X208711Y161250D01*
X208708Y161270D01*
X208710Y161289D01*
X208688Y161391D01*
X208672Y161493D01*
X208662Y161510D01*
X208658Y161530D01*
X208605Y161619D01*
X208556Y161710D01*
X208542Y161724D01*
X208532Y161741D01*
X208453Y161808D01*
X208378Y161880D01*
X208360Y161888D01*
X208345Y161901D01*
X208249Y161940D01*
X208155Y161983D01*
X208135Y161985D01*
X208117Y161993D01*
X207950Y162011D01*
X198450Y162011D01*
X198430Y162008D01*
X198411Y162010D01*
X198309Y161988D01*
X198207Y161972D01*
X198190Y161962D01*
X198170Y161958D01*
X198081Y161905D01*
X197990Y161856D01*
X197976Y161842D01*
X197959Y161832D01*
X197892Y161753D01*
X197821Y161678D01*
X197812Y161660D01*
X197799Y161645D01*
X197760Y161549D01*
X197717Y161455D01*
X197715Y161435D01*
X197707Y161417D01*
X197689Y161250D01*
X197689Y159250D01*
X197692Y159230D01*
X197690Y159211D01*
X197712Y159109D01*
X197729Y159007D01*
X197738Y158990D01*
X197742Y158970D01*
X197795Y158881D01*
X197844Y158790D01*
X197858Y158776D01*
X197868Y158759D01*
X197947Y158692D01*
X198022Y158621D01*
X198040Y158612D01*
X198055Y158599D01*
X198151Y158560D01*
X198245Y158517D01*
X198265Y158515D01*
X198283Y158507D01*
X198450Y158489D01*
X207950Y158489D01*
X207970Y158492D01*
G37*
G36*
X206064Y92189D02*
X206064Y92189D01*
X206154Y92197D01*
X206184Y92209D01*
X206216Y92214D01*
X206297Y92257D01*
X206381Y92293D01*
X206413Y92319D01*
X206434Y92330D01*
X206456Y92353D01*
X206512Y92398D01*
X213937Y99823D01*
X220790Y99823D01*
X220809Y99826D01*
X220829Y99824D01*
X220930Y99846D01*
X221032Y99862D01*
X221050Y99872D01*
X221069Y99876D01*
X221158Y99929D01*
X221250Y99978D01*
X221263Y99992D01*
X221280Y100002D01*
X221348Y100081D01*
X221419Y100156D01*
X221427Y100174D01*
X221440Y100189D01*
X221479Y100285D01*
X221523Y100379D01*
X221525Y100399D01*
X221532Y100417D01*
X221551Y100584D01*
X221548Y100604D01*
X221550Y100623D01*
X221528Y100725D01*
X221511Y100827D01*
X221502Y100844D01*
X221497Y100864D01*
X221444Y100953D01*
X221396Y101044D01*
X221382Y101058D01*
X221371Y101075D01*
X221293Y101142D01*
X221218Y101214D01*
X221200Y101222D01*
X221184Y101235D01*
X221088Y101274D01*
X220995Y101317D01*
X220975Y101319D01*
X220956Y101327D01*
X220790Y101345D01*
X213099Y101345D01*
X213008Y101331D01*
X212918Y101323D01*
X212888Y101311D01*
X212856Y101306D01*
X212775Y101263D01*
X212691Y101227D01*
X212659Y101201D01*
X212638Y101190D01*
X212616Y101167D01*
X212560Y101122D01*
X204912Y93474D01*
X204870Y93416D01*
X204821Y93364D01*
X204799Y93317D01*
X204769Y93275D01*
X204748Y93206D01*
X204717Y93141D01*
X204712Y93089D01*
X204696Y93039D01*
X204698Y92968D01*
X204690Y92897D01*
X204701Y92846D01*
X204703Y92794D01*
X204727Y92726D01*
X204742Y92656D01*
X204769Y92611D01*
X204787Y92563D01*
X204832Y92507D01*
X204869Y92445D01*
X204908Y92411D01*
X204941Y92371D01*
X205001Y92332D01*
X205056Y92285D01*
X205104Y92266D01*
X205148Y92238D01*
X205217Y92220D01*
X205284Y92193D01*
X205355Y92185D01*
X205386Y92177D01*
X205410Y92179D01*
X205450Y92175D01*
X205973Y92175D01*
X206064Y92189D01*
G37*
%LPC*%
G36*
X220527Y176512D02*
X220527Y176512D01*
X220527Y177759D01*
X220700Y178405D01*
X221035Y178985D01*
X221508Y179458D01*
X222087Y179792D01*
X222734Y179965D01*
X230483Y179965D01*
X230483Y176512D01*
X220527Y176512D01*
G37*
%LPD*%
%LPC*%
G36*
X175917Y86735D02*
X175917Y86735D01*
X175917Y90188D01*
X184976Y90188D01*
X184976Y87326D01*
X184892Y87242D01*
X184313Y86908D01*
X183666Y86735D01*
X175917Y86735D01*
G37*
%LPD*%
G36*
X8619Y107181D02*
X8619Y107181D01*
X8690Y107186D01*
X8738Y107207D01*
X8789Y107218D01*
X8850Y107254D01*
X8916Y107283D01*
X8972Y107327D01*
X9000Y107344D01*
X9015Y107362D01*
X9047Y107387D01*
X11012Y109353D01*
X13900Y110549D01*
X13983Y110600D01*
X14069Y110646D01*
X14087Y110664D01*
X14109Y110678D01*
X14172Y110754D01*
X14239Y110824D01*
X14250Y110848D01*
X14266Y110868D01*
X14301Y110959D01*
X14342Y111047D01*
X14345Y111073D01*
X14354Y111097D01*
X14359Y111195D01*
X14369Y111291D01*
X14364Y111317D01*
X14365Y111343D01*
X14338Y111437D01*
X14317Y111532D01*
X14304Y111554D01*
X14296Y111579D01*
X14241Y111659D01*
X14191Y111743D01*
X14171Y111760D01*
X14156Y111781D01*
X14078Y111840D01*
X14004Y111903D01*
X13980Y111913D01*
X13959Y111928D01*
X13866Y111958D01*
X13776Y111995D01*
X13743Y111998D01*
X13725Y112004D01*
X13692Y112004D01*
X13609Y112013D01*
X8509Y112013D01*
X8489Y112010D01*
X8470Y112012D01*
X8368Y111990D01*
X8266Y111974D01*
X8249Y111964D01*
X8229Y111960D01*
X8140Y111907D01*
X8049Y111858D01*
X8035Y111844D01*
X8018Y111834D01*
X7951Y111755D01*
X7879Y111680D01*
X7871Y111662D01*
X7858Y111647D01*
X7819Y111551D01*
X7776Y111457D01*
X7774Y111437D01*
X7766Y111419D01*
X7748Y111252D01*
X7748Y107926D01*
X7759Y107855D01*
X7761Y107783D01*
X7779Y107734D01*
X7787Y107683D01*
X7821Y107620D01*
X7846Y107552D01*
X7878Y107512D01*
X7903Y107466D01*
X7955Y107416D01*
X7999Y107360D01*
X8043Y107332D01*
X8081Y107296D01*
X8146Y107266D01*
X8206Y107227D01*
X8257Y107214D01*
X8304Y107193D01*
X8375Y107185D01*
X8445Y107167D01*
X8497Y107171D01*
X8548Y107165D01*
X8619Y107181D01*
G37*
G36*
X251367Y119776D02*
X251367Y119776D01*
X251458Y119783D01*
X251488Y119796D01*
X251520Y119801D01*
X251601Y119844D01*
X251685Y119880D01*
X251717Y119906D01*
X251738Y119917D01*
X251760Y119940D01*
X251816Y119984D01*
X251845Y120013D01*
X251887Y120072D01*
X251936Y120124D01*
X251958Y120171D01*
X251988Y120213D01*
X252009Y120282D01*
X252040Y120347D01*
X252045Y120398D01*
X252061Y120448D01*
X252059Y120520D01*
X252067Y120591D01*
X252056Y120642D01*
X252054Y120694D01*
X252030Y120761D01*
X252014Y120832D01*
X251988Y120876D01*
X251970Y120925D01*
X251925Y120981D01*
X251888Y121043D01*
X251849Y121076D01*
X251816Y121117D01*
X251756Y121156D01*
X251701Y121203D01*
X251653Y121222D01*
X251610Y121250D01*
X251540Y121268D01*
X251473Y121295D01*
X251402Y121303D01*
X251371Y121310D01*
X251348Y121309D01*
X251307Y121313D01*
X241729Y121313D01*
X241639Y121298D01*
X241548Y121291D01*
X241518Y121279D01*
X241486Y121273D01*
X241406Y121231D01*
X241322Y121195D01*
X241290Y121169D01*
X241269Y121158D01*
X241247Y121135D01*
X241191Y121090D01*
X241162Y121062D01*
X241120Y121003D01*
X241070Y120951D01*
X241049Y120904D01*
X241018Y120862D01*
X240997Y120793D01*
X240967Y120728D01*
X240961Y120676D01*
X240946Y120627D01*
X240948Y120555D01*
X240940Y120484D01*
X240951Y120433D01*
X240952Y120381D01*
X240977Y120313D01*
X240992Y120243D01*
X241019Y120199D01*
X241036Y120150D01*
X241081Y120094D01*
X241118Y120032D01*
X241158Y119998D01*
X241190Y119958D01*
X241250Y119919D01*
X241305Y119872D01*
X241353Y119853D01*
X241397Y119825D01*
X241467Y119807D01*
X241533Y119780D01*
X241604Y119772D01*
X241635Y119764D01*
X241659Y119766D01*
X241700Y119762D01*
X251278Y119762D01*
X251367Y119776D01*
G37*
G36*
X164761Y164902D02*
X164761Y164902D01*
X164852Y164909D01*
X164882Y164922D01*
X164914Y164927D01*
X164995Y164970D01*
X165079Y165005D01*
X165111Y165031D01*
X165131Y165042D01*
X165153Y165065D01*
X165209Y165110D01*
X165412Y165312D01*
X165423Y165328D01*
X165439Y165341D01*
X165495Y165428D01*
X165555Y165512D01*
X165561Y165531D01*
X165572Y165548D01*
X165597Y165648D01*
X165627Y165747D01*
X165627Y165767D01*
X165632Y165786D01*
X165624Y165889D01*
X165621Y165993D01*
X165614Y166012D01*
X165613Y166032D01*
X165572Y166126D01*
X165537Y166224D01*
X165524Y166240D01*
X165516Y166258D01*
X165411Y166389D01*
X165209Y166591D01*
X165135Y166644D01*
X165066Y166703D01*
X165036Y166716D01*
X165010Y166734D01*
X164923Y166761D01*
X164838Y166795D01*
X164797Y166800D01*
X164775Y166807D01*
X164742Y166806D01*
X164671Y166814D01*
X162086Y166814D01*
X161996Y166799D01*
X161905Y166792D01*
X161875Y166779D01*
X161843Y166774D01*
X161762Y166732D01*
X161678Y166696D01*
X161646Y166670D01*
X161625Y166659D01*
X161603Y166636D01*
X161547Y166591D01*
X161143Y166187D01*
X161101Y166129D01*
X161052Y166077D01*
X161030Y166029D01*
X161000Y165987D01*
X160978Y165919D01*
X160948Y165853D01*
X160942Y165802D01*
X160927Y165752D01*
X160929Y165680D01*
X160921Y165609D01*
X160932Y165558D01*
X160934Y165506D01*
X160958Y165439D01*
X160973Y165369D01*
X161000Y165324D01*
X161018Y165275D01*
X161063Y165219D01*
X161100Y165158D01*
X161139Y165124D01*
X161172Y165083D01*
X161232Y165044D01*
X161286Y164998D01*
X161335Y164978D01*
X161379Y164950D01*
X161448Y164933D01*
X161515Y164906D01*
X161586Y164898D01*
X161617Y164890D01*
X161640Y164892D01*
X161681Y164887D01*
X164671Y164887D01*
X164761Y164902D01*
G37*
G36*
X164761Y171402D02*
X164761Y171402D01*
X164852Y171409D01*
X164882Y171422D01*
X164914Y171427D01*
X164995Y171470D01*
X165079Y171506D01*
X165111Y171531D01*
X165131Y171542D01*
X165153Y171566D01*
X165209Y171610D01*
X165412Y171812D01*
X165423Y171829D01*
X165439Y171841D01*
X165495Y171928D01*
X165555Y172012D01*
X165561Y172031D01*
X165572Y172048D01*
X165597Y172149D01*
X165627Y172247D01*
X165627Y172267D01*
X165632Y172286D01*
X165624Y172389D01*
X165621Y172493D01*
X165614Y172512D01*
X165613Y172532D01*
X165572Y172626D01*
X165537Y172724D01*
X165524Y172740D01*
X165516Y172758D01*
X165411Y172889D01*
X165209Y173091D01*
X165135Y173144D01*
X165066Y173204D01*
X165036Y173216D01*
X165010Y173235D01*
X164923Y173261D01*
X164838Y173296D01*
X164797Y173300D01*
X164775Y173307D01*
X164742Y173306D01*
X164671Y173314D01*
X162786Y173314D01*
X162766Y173311D01*
X162747Y173313D01*
X162645Y173291D01*
X162543Y173274D01*
X162526Y173265D01*
X162506Y173261D01*
X162417Y173208D01*
X162326Y173159D01*
X162312Y173145D01*
X162295Y173135D01*
X162228Y173056D01*
X162156Y172981D01*
X162148Y172963D01*
X162135Y172948D01*
X162096Y172851D01*
X162053Y172758D01*
X162051Y172738D01*
X162043Y172719D01*
X162025Y172553D01*
X162025Y172149D01*
X162028Y172129D01*
X162026Y172109D01*
X162048Y172008D01*
X162064Y171906D01*
X162074Y171888D01*
X162078Y171869D01*
X162131Y171780D01*
X162180Y171688D01*
X162194Y171675D01*
X162204Y171658D01*
X162283Y171590D01*
X162358Y171519D01*
X162376Y171511D01*
X162391Y171498D01*
X162487Y171459D01*
X162581Y171415D01*
X162601Y171413D01*
X162619Y171406D01*
X162786Y171387D01*
X164671Y171387D01*
X164761Y171402D01*
G37*
G36*
X304319Y234176D02*
X304319Y234176D01*
X304371Y234178D01*
X304438Y234202D01*
X304508Y234218D01*
X304553Y234244D01*
X304602Y234262D01*
X304658Y234307D01*
X304719Y234344D01*
X304753Y234383D01*
X304794Y234416D01*
X304833Y234476D01*
X304879Y234531D01*
X304899Y234579D01*
X304927Y234623D01*
X304944Y234692D01*
X304971Y234759D01*
X304979Y234830D01*
X304987Y234861D01*
X304985Y234885D01*
X304990Y234926D01*
X304990Y235966D01*
X304987Y235986D01*
X304989Y236005D01*
X304967Y236107D01*
X304950Y236209D01*
X304941Y236226D01*
X304936Y236246D01*
X304883Y236335D01*
X304835Y236426D01*
X304821Y236440D01*
X304810Y236457D01*
X304732Y236524D01*
X304657Y236596D01*
X304639Y236604D01*
X304623Y236617D01*
X304527Y236656D01*
X304434Y236699D01*
X304414Y236701D01*
X304395Y236709D01*
X304229Y236727D01*
X303188Y236727D01*
X303117Y236716D01*
X303046Y236714D01*
X302997Y236696D01*
X302945Y236688D01*
X302882Y236654D01*
X302815Y236629D01*
X302774Y236597D01*
X302728Y236572D01*
X302679Y236521D01*
X302623Y236476D01*
X302594Y236432D01*
X302559Y236394D01*
X302528Y236329D01*
X302490Y236269D01*
X302477Y236218D01*
X302455Y236171D01*
X302447Y236100D01*
X302430Y236030D01*
X302434Y235978D01*
X302428Y235927D01*
X302443Y235856D01*
X302449Y235785D01*
X302469Y235737D01*
X302480Y235686D01*
X302517Y235625D01*
X302545Y235559D01*
X302590Y235503D01*
X302606Y235475D01*
X302624Y235460D01*
X302650Y235428D01*
X303690Y234387D01*
X303748Y234346D01*
X303800Y234296D01*
X303848Y234274D01*
X303890Y234244D01*
X303958Y234223D01*
X304024Y234193D01*
X304075Y234187D01*
X304125Y234171D01*
X304197Y234173D01*
X304268Y234165D01*
X304319Y234176D01*
G37*
G36*
X8619Y234181D02*
X8619Y234181D01*
X8690Y234186D01*
X8738Y234207D01*
X8789Y234218D01*
X8850Y234255D01*
X8916Y234283D01*
X8972Y234327D01*
X9000Y234344D01*
X9015Y234362D01*
X9047Y234387D01*
X10088Y235428D01*
X10129Y235486D01*
X10179Y235538D01*
X10201Y235585D01*
X10231Y235627D01*
X10252Y235696D01*
X10282Y235761D01*
X10288Y235813D01*
X10304Y235863D01*
X10302Y235934D01*
X10310Y236005D01*
X10299Y236056D01*
X10297Y236108D01*
X10273Y236176D01*
X10257Y236246D01*
X10231Y236290D01*
X10213Y236339D01*
X10168Y236395D01*
X10131Y236457D01*
X10092Y236491D01*
X10059Y236531D01*
X9999Y236570D01*
X9944Y236617D01*
X9896Y236636D01*
X9852Y236664D01*
X9783Y236682D01*
X9716Y236709D01*
X9645Y236717D01*
X9614Y236725D01*
X9590Y236723D01*
X9549Y236727D01*
X8509Y236727D01*
X8489Y236724D01*
X8470Y236726D01*
X8368Y236704D01*
X8266Y236688D01*
X8249Y236678D01*
X8229Y236674D01*
X8140Y236621D01*
X8049Y236572D01*
X8035Y236558D01*
X8018Y236548D01*
X7951Y236469D01*
X7879Y236394D01*
X7871Y236376D01*
X7858Y236361D01*
X7819Y236265D01*
X7776Y236171D01*
X7774Y236151D01*
X7766Y236133D01*
X7748Y235966D01*
X7748Y234926D01*
X7759Y234855D01*
X7761Y234783D01*
X7779Y234734D01*
X7787Y234683D01*
X7821Y234620D01*
X7846Y234552D01*
X7878Y234511D01*
X7903Y234466D01*
X7954Y234416D01*
X7999Y234360D01*
X8043Y234332D01*
X8081Y234296D01*
X8146Y234266D01*
X8206Y234227D01*
X8257Y234214D01*
X8304Y234193D01*
X8375Y234185D01*
X8445Y234167D01*
X8497Y234171D01*
X8548Y234165D01*
X8619Y234181D01*
G37*
G36*
X9620Y42684D02*
X9620Y42684D01*
X9692Y42686D01*
X9741Y42704D01*
X9792Y42712D01*
X9855Y42746D01*
X9923Y42771D01*
X9964Y42803D01*
X10009Y42828D01*
X10059Y42879D01*
X10115Y42924D01*
X10143Y42968D01*
X10179Y43006D01*
X10209Y43071D01*
X10248Y43131D01*
X10261Y43182D01*
X10282Y43229D01*
X10290Y43300D01*
X10308Y43370D01*
X10304Y43422D01*
X10310Y43473D01*
X10294Y43544D01*
X10289Y43615D01*
X10268Y43663D01*
X10257Y43714D01*
X10220Y43775D01*
X10192Y43841D01*
X10148Y43897D01*
X10131Y43925D01*
X10113Y43940D01*
X10088Y43972D01*
X9047Y45013D01*
X8989Y45054D01*
X8937Y45104D01*
X8890Y45126D01*
X8848Y45156D01*
X8779Y45177D01*
X8714Y45207D01*
X8662Y45213D01*
X8612Y45229D01*
X8541Y45227D01*
X8470Y45235D01*
X8419Y45224D01*
X8367Y45222D01*
X8299Y45198D01*
X8229Y45182D01*
X8185Y45156D01*
X8136Y45138D01*
X8080Y45093D01*
X8018Y45056D01*
X7984Y45017D01*
X7944Y44984D01*
X7905Y44924D01*
X7858Y44869D01*
X7839Y44821D01*
X7811Y44777D01*
X7793Y44708D01*
X7766Y44641D01*
X7758Y44570D01*
X7750Y44539D01*
X7752Y44515D01*
X7748Y44474D01*
X7748Y43434D01*
X7751Y43414D01*
X7749Y43395D01*
X7771Y43293D01*
X7787Y43191D01*
X7797Y43174D01*
X7801Y43154D01*
X7854Y43065D01*
X7903Y42974D01*
X7917Y42960D01*
X7927Y42943D01*
X8006Y42876D01*
X8081Y42804D01*
X8099Y42796D01*
X8114Y42783D01*
X8210Y42744D01*
X8304Y42701D01*
X8324Y42699D01*
X8342Y42691D01*
X8509Y42673D01*
X9549Y42673D01*
X9620Y42684D01*
G37*
G36*
X304248Y42676D02*
X304248Y42676D01*
X304268Y42674D01*
X304369Y42696D01*
X304471Y42712D01*
X304489Y42722D01*
X304508Y42726D01*
X304597Y42779D01*
X304689Y42828D01*
X304702Y42842D01*
X304719Y42852D01*
X304787Y42931D01*
X304858Y43006D01*
X304866Y43024D01*
X304879Y43039D01*
X304918Y43135D01*
X304962Y43229D01*
X304964Y43249D01*
X304971Y43267D01*
X304990Y43434D01*
X304990Y44474D01*
X304978Y44545D01*
X304976Y44617D01*
X304958Y44666D01*
X304950Y44717D01*
X304917Y44780D01*
X304892Y44848D01*
X304859Y44889D01*
X304835Y44934D01*
X304783Y44984D01*
X304738Y45040D01*
X304694Y45068D01*
X304657Y45104D01*
X304592Y45134D01*
X304531Y45173D01*
X304481Y45186D01*
X304434Y45207D01*
X304362Y45215D01*
X304293Y45233D01*
X304241Y45229D01*
X304189Y45235D01*
X304119Y45219D01*
X304048Y45214D01*
X304000Y45193D01*
X303949Y45182D01*
X303887Y45145D01*
X303821Y45117D01*
X303765Y45073D01*
X303738Y45056D01*
X303722Y45038D01*
X303690Y45013D01*
X302650Y43972D01*
X302608Y43914D01*
X302559Y43862D01*
X302537Y43815D01*
X302506Y43773D01*
X302485Y43704D01*
X302455Y43639D01*
X302449Y43587D01*
X302434Y43537D01*
X302436Y43466D01*
X302428Y43395D01*
X302439Y43344D01*
X302440Y43292D01*
X302465Y43224D01*
X302480Y43154D01*
X302507Y43110D01*
X302525Y43061D01*
X302570Y43005D01*
X302606Y42943D01*
X302646Y42909D01*
X302678Y42869D01*
X302739Y42830D01*
X302793Y42783D01*
X302842Y42764D01*
X302885Y42736D01*
X302955Y42718D01*
X303021Y42691D01*
X303093Y42683D01*
X303124Y42675D01*
X303147Y42677D01*
X303188Y42673D01*
X304229Y42673D01*
X304248Y42676D01*
G37*
G36*
X178418Y63135D02*
X178418Y63135D01*
X178489Y63141D01*
X178537Y63161D01*
X178588Y63172D01*
X178649Y63209D01*
X178715Y63237D01*
X178771Y63282D01*
X178799Y63299D01*
X178814Y63316D01*
X178846Y63342D01*
X179335Y63831D01*
X179347Y63847D01*
X179362Y63859D01*
X179418Y63947D01*
X179479Y64031D01*
X179484Y64050D01*
X179495Y64066D01*
X179520Y64167D01*
X179551Y64266D01*
X179550Y64286D01*
X179555Y64305D01*
X179547Y64408D01*
X179545Y64512D01*
X179538Y64530D01*
X179536Y64550D01*
X179496Y64645D01*
X179460Y64743D01*
X179448Y64758D01*
X179440Y64776D01*
X179335Y64907D01*
X178846Y65396D01*
X178788Y65438D01*
X178736Y65487D01*
X178689Y65509D01*
X178647Y65540D01*
X178578Y65561D01*
X178513Y65591D01*
X178461Y65597D01*
X178411Y65612D01*
X178340Y65610D01*
X178269Y65618D01*
X178218Y65607D01*
X178166Y65606D01*
X178098Y65581D01*
X178028Y65566D01*
X177983Y65539D01*
X177935Y65521D01*
X177879Y65476D01*
X177817Y65440D01*
X177783Y65400D01*
X177743Y65368D01*
X177704Y65307D01*
X177657Y65253D01*
X177638Y65204D01*
X177610Y65161D01*
X177592Y65091D01*
X177565Y65025D01*
X177557Y64953D01*
X177549Y64922D01*
X177551Y64899D01*
X177547Y64858D01*
X177547Y63880D01*
X177558Y63810D01*
X177560Y63738D01*
X177578Y63689D01*
X177586Y63638D01*
X177620Y63574D01*
X177645Y63507D01*
X177677Y63466D01*
X177702Y63420D01*
X177753Y63371D01*
X177798Y63315D01*
X177842Y63287D01*
X177880Y63251D01*
X177945Y63221D01*
X178005Y63182D01*
X178056Y63169D01*
X178103Y63147D01*
X178174Y63139D01*
X178244Y63122D01*
X178296Y63126D01*
X178347Y63120D01*
X178418Y63135D01*
G37*
G36*
X272249Y122511D02*
X272249Y122511D01*
X272275Y122511D01*
X272366Y122545D01*
X272460Y122572D01*
X272481Y122587D01*
X272506Y122596D01*
X272582Y122657D01*
X272662Y122712D01*
X272677Y122733D01*
X272698Y122749D01*
X272751Y122831D01*
X272809Y122910D01*
X272817Y122934D01*
X272831Y122956D01*
X272855Y123051D01*
X272885Y123143D01*
X272885Y123170D01*
X272891Y123195D01*
X272883Y123292D01*
X272882Y123389D01*
X272873Y123421D01*
X272872Y123440D01*
X272859Y123470D01*
X272836Y123550D01*
X272549Y124243D01*
X272487Y124342D01*
X272427Y124443D01*
X272422Y124447D01*
X272419Y124452D01*
X272329Y124527D01*
X272240Y124603D01*
X272234Y124605D01*
X272230Y124609D01*
X272121Y124651D01*
X272012Y124695D01*
X272005Y124696D01*
X272000Y124697D01*
X271981Y124698D01*
X271845Y124713D01*
X271439Y124713D01*
X271369Y124702D01*
X271297Y124700D01*
X271248Y124682D01*
X271197Y124674D01*
X271133Y124640D01*
X271066Y124615D01*
X271025Y124583D01*
X270979Y124558D01*
X270930Y124506D01*
X270874Y124462D01*
X270846Y124418D01*
X270810Y124380D01*
X270780Y124315D01*
X270741Y124255D01*
X270728Y124204D01*
X270706Y124157D01*
X270698Y124086D01*
X270681Y124016D01*
X270685Y123964D01*
X270679Y123913D01*
X270694Y123842D01*
X270700Y123771D01*
X270720Y123723D01*
X270731Y123672D01*
X270768Y123611D01*
X270796Y123545D01*
X270841Y123489D01*
X270858Y123461D01*
X270875Y123446D01*
X270901Y123414D01*
X271594Y122721D01*
X271673Y122664D01*
X271748Y122602D01*
X271773Y122593D01*
X271794Y122577D01*
X271887Y122549D01*
X271978Y122514D01*
X272004Y122513D01*
X272029Y122505D01*
X272126Y122507D01*
X272224Y122503D01*
X272249Y122511D01*
G37*
%LPC*%
G36*
X139699Y79374D02*
X139699Y79374D01*
X139699Y79376D01*
X139701Y79376D01*
X139701Y79374D01*
X139699Y79374D01*
G37*
%LPD*%
D10*
X185738Y215900D03*
D11*
X160338Y215900D03*
D12*
X234950Y68263D03*
X209550Y68263D03*
X127000Y230188D03*
X101600Y230188D03*
D13*
X139700Y104775D03*
X139700Y79375D03*
D14*
X144463Y166688D03*
X144463Y192088D03*
X258763Y85725D03*
X258763Y111125D03*
D15*
X158750Y57150D03*
X184150Y57150D03*
D12*
X184150Y73025D03*
X158750Y73025D03*
D16*
X175006Y175601D03*
X175006Y169101D03*
X175006Y162601D03*
X175006Y156100D03*
X175006Y149600D03*
X175006Y143100D03*
X175006Y136600D03*
X175006Y130100D03*
X175006Y123600D03*
X175006Y117100D03*
X175006Y110600D03*
X175006Y104100D03*
X175006Y97599D03*
X175006Y91099D03*
X231394Y91099D03*
X231394Y97599D03*
X231394Y104100D03*
X231394Y110600D03*
X231394Y117100D03*
X231394Y123600D03*
X231394Y130100D03*
X231394Y136600D03*
X231394Y143100D03*
X231394Y149600D03*
X231394Y156100D03*
X231394Y162601D03*
X231394Y169101D03*
X231394Y175601D03*
D17*
X203200Y133350D03*
D18*
X98425Y199450D03*
X98425Y143450D03*
D19*
X158750Y173950D03*
X158750Y168950D03*
X158750Y161250D03*
X158750Y156250D03*
D20*
X281305Y228600D02*
X296545Y228600D01*
X296545Y203200D02*
X281305Y203200D01*
X281305Y177800D02*
X296545Y177800D01*
X296545Y152400D02*
X281305Y152400D01*
X281305Y127000D02*
X296545Y127000D01*
X296545Y101600D02*
X281305Y101600D01*
X281305Y76200D02*
X296545Y76200D01*
X296545Y50800D02*
X281305Y50800D01*
X31433Y50800D02*
X16193Y50800D01*
X16193Y76200D02*
X31433Y76200D01*
X31433Y101600D02*
X16193Y101600D01*
X16193Y127000D02*
X31433Y127000D01*
X31433Y152400D02*
X16193Y152400D01*
X16193Y177800D02*
X31433Y177800D01*
X31433Y203200D02*
X16193Y203200D01*
X16193Y228600D02*
X31433Y228600D01*
D21*
X231394Y110600D02*
X231919Y111125D01*
X231648Y111252D02*
X245745Y111252D01*
X231648Y111252D02*
X231394Y110600D01*
D22*
X245745Y111252D03*
D21*
X234950Y91099D02*
X231394Y91099D01*
X234950Y88392D02*
X234950Y68263D01*
X234950Y88392D02*
X234950Y91099D01*
X223838Y57150D02*
X184150Y57150D01*
X223838Y57150D02*
X234950Y68263D01*
X234950Y88392D02*
X255939Y88392D01*
X258763Y85725D01*
X234950Y88392D02*
X234696Y88392D01*
X100584Y201168D02*
X100584Y230124D01*
X100584Y201168D02*
X99060Y199644D01*
X100584Y230124D02*
X101600Y230188D01*
X99060Y199644D02*
X98425Y199450D01*
X94488Y202692D02*
X24384Y202692D01*
X94488Y202692D02*
X97536Y199644D01*
X24384Y202692D02*
X23813Y203200D01*
X97536Y199644D02*
X98425Y199450D01*
X187452Y68580D02*
X208788Y68580D01*
X187452Y68580D02*
X184404Y71628D01*
X208788Y68580D02*
X209550Y68263D01*
X184404Y71628D02*
X184150Y73025D01*
X182880Y91440D02*
X175260Y91440D01*
X182880Y91440D02*
X195072Y103632D01*
X195072Y124968D01*
X202692Y132588D01*
X175260Y91440D02*
X175006Y91099D01*
X202692Y132588D02*
X203200Y133350D01*
X224028Y175260D02*
X225552Y175260D01*
X230124Y175260D01*
X224028Y175260D02*
X211836Y163068D01*
X211836Y141732D01*
X204216Y134112D01*
X230124Y175260D02*
X231394Y175601D01*
X204216Y134112D02*
X203200Y133350D01*
X225552Y175260D02*
X185928Y214884D01*
X185738Y215900D01*
X225552Y175260D02*
X231394Y175601D01*
X140208Y79248D02*
X140208Y62484D01*
X155448Y47244D01*
X161544Y47244D01*
X172212Y57912D01*
X172212Y88392D01*
X173736Y89916D01*
X140208Y79248D02*
X139700Y79375D01*
X173736Y89916D02*
X175006Y91099D01*
D22*
X38100Y215900D03*
X44450Y228600D03*
X57150Y231775D03*
X66675Y231775D03*
X76200Y231775D03*
X85725Y231775D03*
X90488Y223838D03*
X80963Y223838D03*
X71438Y223838D03*
X61913Y223838D03*
X52388Y223838D03*
X47625Y215900D03*
X57150Y215900D03*
X66675Y215900D03*
X76200Y215900D03*
X85725Y215900D03*
X95250Y215900D03*
X104775Y215900D03*
X114300Y215900D03*
X114300Y225425D03*
X71438Y207963D03*
X61913Y207963D03*
X52388Y207963D03*
X42863Y207963D03*
X47625Y200025D03*
X57150Y200025D03*
X66675Y200025D03*
X76200Y200025D03*
X215900Y165100D03*
X209550Y171450D03*
X200025Y168275D03*
X190500Y165100D03*
X188913Y101600D03*
X192088Y174625D03*
X217488Y174625D03*
X211138Y180975D03*
X201613Y177800D03*
X220663Y184150D03*
X200025Y212725D03*
X182563Y231775D03*
X192088Y231775D03*
X201613Y231775D03*
X198438Y222250D03*
X207963Y222250D03*
X211138Y231775D03*
X220663Y231775D03*
X217488Y222250D03*
X212725Y214313D03*
X222250Y214313D03*
X227013Y222250D03*
X230188Y231775D03*
X231775Y214313D03*
X236538Y222250D03*
X239713Y231775D03*
X246063Y222250D03*
X241300Y214313D03*
X250825Y214313D03*
X255588Y222250D03*
X249238Y231775D03*
X258763Y231775D03*
X268288Y230188D03*
X269875Y220663D03*
X263525Y212725D03*
X263525Y203200D03*
X257175Y195263D03*
X249238Y187325D03*
X239713Y184150D03*
X230188Y184150D03*
X158750Y192088D03*
X163513Y184150D03*
X168275Y192088D03*
X174625Y184150D03*
X179388Y192088D03*
X179388Y203200D03*
X187325Y198438D03*
D23*
X188913Y188913D03*
D22*
X196850Y195263D03*
X195263Y204788D03*
X201613Y187325D03*
X207963Y195263D03*
X206375Y204788D03*
X215900Y204788D03*
X219075Y195263D03*
X225425Y204788D03*
X230188Y195263D03*
X234950Y204788D03*
X241300Y195263D03*
X244475Y204788D03*
X254000Y204788D03*
D21*
X175006Y169101D02*
X158901Y169101D01*
X158750Y168950D01*
X160101Y162601D02*
X175006Y162601D01*
X160101Y162601D02*
X159088Y161588D01*
X158750Y161250D01*
X159088Y161588D02*
X159088Y162380D01*
X154714Y166753D01*
X154714Y181836D02*
X144463Y192088D01*
X154714Y181836D02*
X154714Y166753D01*
D22*
X133350Y166688D03*
X133350Y176213D03*
X123825Y176213D03*
X123825Y166688D03*
X160338Y109538D03*
X150813Y109538D03*
X150813Y100013D03*
X160338Y100013D03*
D21*
X175006Y143100D02*
X122238Y143100D01*
X98775Y143100D01*
X98425Y143450D01*
X128813Y123600D02*
X175006Y123600D01*
X128813Y123600D02*
X128588Y123825D01*
X127000Y123825D01*
X122238Y119063D01*
X114300Y119063D01*
D22*
X74613Y119063D03*
D21*
X106363Y119063D02*
X114300Y119063D01*
X106363Y119063D02*
X98425Y119063D01*
X90488Y119063D01*
X82550Y119063D01*
X74613Y119063D01*
D22*
X74613Y142875D03*
D21*
X98550Y142875D01*
X98775Y143100D01*
D22*
X122238Y143100D03*
X122238Y119063D03*
X114300Y119063D03*
X106363Y119063D03*
X98425Y119063D03*
X90488Y119063D03*
X82550Y119063D03*
X65088Y144463D03*
X46038Y153988D03*
X55563Y153988D03*
X65088Y153988D03*
X46038Y144463D03*
X55563Y144463D03*
X46038Y122238D03*
X55563Y122238D03*
X65088Y122238D03*
X46038Y112713D03*
X55563Y112713D03*
X65088Y112713D03*
D21*
X165733Y95209D02*
X172616Y95209D01*
X175006Y97599D01*
X158750Y88226D02*
X158750Y73025D01*
X158750Y88226D02*
X165733Y95209D01*
X158750Y73025D02*
X158750Y57150D01*
X175260Y99060D02*
X175260Y103632D01*
X175006Y104100D01*
X175260Y99060D02*
X175006Y97599D01*
X175006Y175601D02*
X160401Y175601D01*
X158750Y173950D01*
X242888Y152400D02*
X288925Y152400D01*
X242888Y152400D02*
X239713Y149225D01*
X231769Y149225D01*
X231394Y149600D01*
X261938Y177800D02*
X288925Y177800D01*
X261938Y177800D02*
X239713Y155575D01*
X231919Y155575D01*
X231394Y156100D01*
X280988Y203200D02*
X288925Y203200D01*
X280988Y203200D02*
X239713Y161925D01*
X232070Y161925D01*
X231394Y162601D01*
X269875Y209550D02*
X288925Y228600D01*
X269875Y209550D02*
X269875Y198438D01*
X240538Y169101D02*
X231394Y169101D01*
X240538Y169101D02*
X269875Y198438D01*
X267653Y72073D02*
X288925Y50800D01*
X267653Y114807D02*
X262445Y120015D01*
X255080Y120015D01*
X252540Y117475D01*
X267653Y114807D02*
X267653Y72073D01*
X231394Y117100D02*
X231769Y117475D01*
X252540Y117475D01*
X268392Y127000D02*
X288925Y127000D01*
X268392Y127000D02*
X262169Y133223D01*
X262065Y133223D01*
X252187Y143100D02*
X231394Y143100D01*
X252187Y143100D02*
X262065Y133223D01*
X273749Y101600D02*
X288925Y101600D01*
X273749Y101600D02*
X273749Y117333D01*
X231469Y130175D02*
X231394Y130100D01*
X260906Y130175D02*
X273749Y117333D01*
X260906Y130175D02*
X231469Y130175D01*
X285298Y76200D02*
X288925Y76200D01*
X285298Y76200D02*
X270701Y90798D01*
X270701Y116070D01*
X263171Y123600D01*
X231394Y123600D01*
X230124Y103632D02*
X211836Y103632D01*
X190500Y82296D01*
X179832Y82296D01*
X175260Y77724D01*
X175260Y56388D01*
X163068Y44196D01*
X56388Y44196D01*
X24384Y76200D01*
X230124Y103632D02*
X231394Y104100D01*
X24384Y76200D02*
X23813Y76200D01*
X214884Y97536D02*
X230124Y97536D01*
X214884Y97536D02*
X204216Y86868D01*
X230124Y97536D02*
X231394Y97599D01*
D22*
X204216Y86868D03*
M02*
