M48
;GenerationSoftware,Autodesk,EAGLE,9.5.0*%
;CreationDate,2019-09-23T12:53:46Z*%
FMAT,2
ICI,OFF
METRIC,TZ,000.000
T3C0.350
T2C0.813
T1C1.016
%
G90
M71
T1
X2381Y22860
X2381Y20320
X2381Y17780
X2381Y15240
X2381Y12700
X2381Y10160
X2381Y7620
X2381Y5080
X28892Y5080
X28892Y7620
X28892Y10160
X28892Y12700
X28892Y15240
X28892Y17780
X28892Y20320
X28892Y22860
T2
X15875Y7302
X18415Y7302
X18415Y5715
X15875Y5715
X25876Y11112
X25876Y8573
X14446Y19209
X14446Y16669
X13970Y7937
X13970Y10478
X10160Y23019
X12700Y23019
X20955Y6826
X23495Y6826
X16034Y21590
X18574Y21590
T3
X19050Y16510
X18891Y10160
X19209Y17463
X21749Y17463
X21114Y18098
X20161Y17780
X22066Y18415
X20003Y21273
X18256Y23177
X19209Y23177
X20161Y23177
X19844Y22225
X20796Y22225
X21114Y23177
X22066Y23177
X21749Y22225
X21273Y21431
X22225Y21431
X22701Y22225
X23019Y23177
X23177Y21431
X23654Y22225
X23971Y23177
X24606Y22225
X24130Y21431
X25082Y21431
X25559Y22225
X24924Y23177
X25876Y23177
X26829Y23019
X26987Y22066
X26352Y21273
X26352Y20320
X25717Y19526
X24924Y18733
X23971Y18415
X23019Y18415
X15875Y19209
X16351Y18415
X16828Y19209
X17463Y18415
X17939Y19209
X17939Y20320
X18733Y19844
X24574Y11125
X19685Y19526
X19526Y20479
X20161Y18733
X20796Y19526
X20638Y20479
X21590Y20479
X21907Y19526
X22542Y20479
X23019Y19526
X23495Y20479
X24130Y19526
X24447Y20479
X25400Y20479
X13335Y16669
X13335Y17621
X12382Y17621
X12382Y16669
X16034Y10954
X15081Y10954
X15081Y10001
X16034Y10001
X7461Y11906
X7461Y14287
X12224Y14310
X12224Y11906
X11430Y11906
X10636Y11906
X9843Y11906
X9049Y11906
X8255Y11906
X6509Y14446
X4604Y15399
X5556Y15399
X6509Y15399
X4604Y14446
X5556Y14446
X4604Y12224
X5556Y12224
X6509Y12224
X4604Y11271
X5556Y11271
X6509Y11271
X20422Y8687
X20003Y16828
X20955Y17145
X21590Y16510
X7620Y20003
X6667Y20003
X5715Y20003
X4763Y20003
X4286Y20796
X5239Y20796
X6191Y20796
X7144Y20796
X11430Y22542
X11430Y21590
X10478Y21590
X9525Y21590
X8573Y21590
X7620Y21590
X6667Y21590
X5715Y21590
X4763Y21590
X5239Y22384
X6191Y22384
X7144Y22384
X8096Y22384
X9049Y22384
X8573Y23177
X7620Y23177
X6667Y23177
X5715Y23177
X4445Y22860
X3810Y21590
X18891Y18891
M30